%TF.GenerationSoftware,KiCad,Pcbnew,5.1.4-e60b266~84~ubuntu18.04.1*%
%TF.CreationDate,2019-10-23T15:02:04+02:00*%
%TF.ProjectId,ensaimedia,656e7361-696d-4656-9469-612e6b696361,rev?*%
%TF.SameCoordinates,Original*%
%TF.FileFunction,Soldermask,Bot*%
%TF.FilePolarity,Negative*%
%FSLAX46Y46*%
G04 Gerber Fmt 4.6, Leading zero omitted, Abs format (unit mm)*
G04 Created by KiCad (PCBNEW 5.1.4-e60b266~84~ubuntu18.04.1) date 2019-10-23 15:02:04*
%MOMM*%
%LPD*%
G04 APERTURE LIST*
%ADD10C,0.200000*%
%ADD11C,0.150000*%
G04 APERTURE END LIST*
D10*
X140970000Y-61214000D02*
X173355000Y-61214000D01*
X173355000Y-61214000D02*
G75*
G02X175895000Y-63754000I0J-2540000D01*
G01*
X193675000Y-80645000D02*
G75*
G02X196215000Y-83185000I0J-2540000D01*
G01*
X178435000Y-80645000D02*
X193675000Y-80645000D01*
X178435000Y-80645000D02*
G75*
G02X175895000Y-78105000I0J2540000D01*
G01*
X175895000Y-63754000D02*
X175895000Y-78105000D01*
X143510000Y-112395000D02*
G75*
G02X140970000Y-109855000I0J2540000D01*
G01*
X196215000Y-109855000D02*
G75*
G02X193675000Y-112395000I-2540000J0D01*
G01*
X140970000Y-109855000D02*
X140970000Y-61214000D01*
X193675000Y-112395000D02*
X143510000Y-112395000D01*
X196215000Y-83185000D02*
X196215000Y-109855000D01*
D11*
G36*
X157590443Y-109779895D02*
G01*
X157656627Y-109786413D01*
X157826466Y-109837933D01*
X157982991Y-109921598D01*
X158018729Y-109950928D01*
X158120186Y-110034190D01*
X158203448Y-110135647D01*
X158232778Y-110171385D01*
X158316443Y-110327910D01*
X158367963Y-110497749D01*
X158385359Y-110674376D01*
X158367963Y-110851003D01*
X158316443Y-111020842D01*
X158232778Y-111177367D01*
X158203448Y-111213105D01*
X158120186Y-111314562D01*
X158018729Y-111397824D01*
X157982991Y-111427154D01*
X157826466Y-111510819D01*
X157656627Y-111562339D01*
X157590442Y-111568858D01*
X157524260Y-111575376D01*
X157435740Y-111575376D01*
X157369558Y-111568858D01*
X157303373Y-111562339D01*
X157133534Y-111510819D01*
X156977009Y-111427154D01*
X156941271Y-111397824D01*
X156839814Y-111314562D01*
X156756552Y-111213105D01*
X156727222Y-111177367D01*
X156643557Y-111020842D01*
X156592037Y-110851003D01*
X156574641Y-110674376D01*
X156592037Y-110497749D01*
X156643557Y-110327910D01*
X156727222Y-110171385D01*
X156756552Y-110135647D01*
X156839814Y-110034190D01*
X156941271Y-109950928D01*
X156977009Y-109921598D01*
X157133534Y-109837933D01*
X157303373Y-109786413D01*
X157369557Y-109779895D01*
X157435740Y-109773376D01*
X157524260Y-109773376D01*
X157590443Y-109779895D01*
X157590443Y-109779895D01*
G37*
G36*
X154634526Y-111575376D02*
G01*
X152832526Y-111575376D01*
X152832526Y-109773376D01*
X154634526Y-109773376D01*
X154634526Y-111575376D01*
X154634526Y-111575376D01*
G37*
G36*
X153843969Y-107239895D02*
G01*
X153910153Y-107246413D01*
X154079992Y-107297933D01*
X154236517Y-107381598D01*
X154272255Y-107410928D01*
X154373712Y-107494190D01*
X154456974Y-107595647D01*
X154486304Y-107631385D01*
X154569969Y-107787910D01*
X154621489Y-107957749D01*
X154638885Y-108134376D01*
X154621489Y-108311003D01*
X154569969Y-108480842D01*
X154486304Y-108637367D01*
X154456974Y-108673105D01*
X154373712Y-108774562D01*
X154272255Y-108857824D01*
X154236517Y-108887154D01*
X154079992Y-108970819D01*
X153910153Y-109022339D01*
X153843969Y-109028857D01*
X153777786Y-109035376D01*
X153689266Y-109035376D01*
X153623083Y-109028857D01*
X153556899Y-109022339D01*
X153387060Y-108970819D01*
X153230535Y-108887154D01*
X153194797Y-108857824D01*
X153093340Y-108774562D01*
X153010078Y-108673105D01*
X152980748Y-108637367D01*
X152897083Y-108480842D01*
X152845563Y-108311003D01*
X152828167Y-108134376D01*
X152845563Y-107957749D01*
X152897083Y-107787910D01*
X152980748Y-107631385D01*
X153010078Y-107595647D01*
X153093340Y-107494190D01*
X153194797Y-107410928D01*
X153230535Y-107381598D01*
X153387060Y-107297933D01*
X153556899Y-107246413D01*
X153623083Y-107239895D01*
X153689266Y-107233376D01*
X153777786Y-107233376D01*
X153843969Y-107239895D01*
X153843969Y-107239895D01*
G37*
G36*
X158381000Y-109035376D02*
G01*
X156579000Y-109035376D01*
X156579000Y-107233376D01*
X158381000Y-107233376D01*
X158381000Y-109035376D01*
X158381000Y-109035376D01*
G37*
G36*
X144377395Y-102655546D02*
G01*
X144550466Y-102727234D01*
X144550467Y-102727235D01*
X144706227Y-102831310D01*
X144838690Y-102963773D01*
X144838691Y-102963775D01*
X144942766Y-103119534D01*
X145014454Y-103292605D01*
X145051000Y-103476333D01*
X145051000Y-103663667D01*
X145014454Y-103847395D01*
X144942766Y-104020466D01*
X144942765Y-104020467D01*
X144838690Y-104176227D01*
X144706227Y-104308690D01*
X144642331Y-104351384D01*
X144550466Y-104412766D01*
X144377395Y-104484454D01*
X144193667Y-104521000D01*
X144006333Y-104521000D01*
X143822605Y-104484454D01*
X143649534Y-104412766D01*
X143557669Y-104351384D01*
X143493773Y-104308690D01*
X143361310Y-104176227D01*
X143257235Y-104020467D01*
X143257234Y-104020466D01*
X143185546Y-103847395D01*
X143149000Y-103663667D01*
X143149000Y-103476333D01*
X143185546Y-103292605D01*
X143257234Y-103119534D01*
X143361309Y-102963775D01*
X143361310Y-102963773D01*
X143493773Y-102831310D01*
X143649533Y-102727235D01*
X143649534Y-102727234D01*
X143822605Y-102655546D01*
X144006333Y-102619000D01*
X144193667Y-102619000D01*
X144377395Y-102655546D01*
X144377395Y-102655546D01*
G37*
G36*
X146981552Y-101761331D02*
G01*
X147063627Y-101795328D01*
X147063629Y-101795329D01*
X147100813Y-101820175D01*
X147137495Y-101844685D01*
X147200315Y-101907505D01*
X147249672Y-101981373D01*
X147283669Y-102063448D01*
X147301000Y-102150579D01*
X147301000Y-102239421D01*
X147283521Y-102327294D01*
X147281119Y-102351680D01*
X147283521Y-102376066D01*
X147290634Y-102399515D01*
X147302185Y-102421126D01*
X147317730Y-102440068D01*
X147336672Y-102455613D01*
X147358283Y-102467164D01*
X147381732Y-102474277D01*
X147406118Y-102476679D01*
X147430504Y-102474277D01*
X147453953Y-102467164D01*
X147593435Y-102409389D01*
X147796484Y-102369000D01*
X148003516Y-102369000D01*
X148206564Y-102409389D01*
X148383060Y-102482496D01*
X148397835Y-102488616D01*
X148569973Y-102603635D01*
X148716365Y-102750027D01*
X148770677Y-102831310D01*
X148831385Y-102922167D01*
X148910611Y-103113436D01*
X148951000Y-103316484D01*
X148951000Y-103523516D01*
X148910611Y-103726564D01*
X148860561Y-103847395D01*
X148831384Y-103917835D01*
X148716365Y-104089973D01*
X148569973Y-104236365D01*
X148397835Y-104351384D01*
X148397834Y-104351385D01*
X148397833Y-104351385D01*
X148206564Y-104430611D01*
X148003516Y-104471000D01*
X147796484Y-104471000D01*
X147593436Y-104430611D01*
X147402167Y-104351385D01*
X147402166Y-104351385D01*
X147402165Y-104351384D01*
X147230027Y-104236365D01*
X147083635Y-104089973D01*
X146968616Y-103917835D01*
X146939439Y-103847395D01*
X146889389Y-103726564D01*
X146849000Y-103523516D01*
X146849000Y-103316484D01*
X146889389Y-103113436D01*
X146968615Y-102922167D01*
X147025144Y-102837565D01*
X147036695Y-102815954D01*
X147043808Y-102792505D01*
X147046210Y-102768119D01*
X147043808Y-102743733D01*
X147036695Y-102720284D01*
X147025144Y-102698673D01*
X147009599Y-102679731D01*
X146990657Y-102664186D01*
X146969046Y-102652635D01*
X146945597Y-102645522D01*
X146921211Y-102643120D01*
X146896829Y-102645521D01*
X146894420Y-102646000D01*
X146805579Y-102646000D01*
X146718448Y-102628669D01*
X146636373Y-102594672D01*
X146636372Y-102594672D01*
X146636371Y-102594671D01*
X146562504Y-102545314D01*
X146499686Y-102482496D01*
X146450329Y-102408629D01*
X146433914Y-102369000D01*
X146416331Y-102326552D01*
X146399000Y-102239421D01*
X146399000Y-102150579D01*
X146416331Y-102063448D01*
X146450328Y-101981373D01*
X146499685Y-101907505D01*
X146562505Y-101844685D01*
X146599187Y-101820175D01*
X146636371Y-101795329D01*
X146636373Y-101795328D01*
X146718448Y-101761331D01*
X146805579Y-101744000D01*
X146894421Y-101744000D01*
X146981552Y-101761331D01*
X146981552Y-101761331D01*
G37*
G36*
X148206564Y-94959389D02*
G01*
X148397833Y-95038615D01*
X148397835Y-95038616D01*
X148569973Y-95153635D01*
X148716365Y-95300027D01*
X148748106Y-95347530D01*
X148831385Y-95472167D01*
X148910611Y-95663436D01*
X148951000Y-95866484D01*
X148951000Y-96073516D01*
X148910611Y-96276564D01*
X148841108Y-96444359D01*
X148831384Y-96467835D01*
X148716365Y-96639973D01*
X148569973Y-96786365D01*
X148397835Y-96901384D01*
X148397834Y-96901385D01*
X148397833Y-96901385D01*
X148206564Y-96980611D01*
X148003516Y-97021000D01*
X147796484Y-97021000D01*
X147593435Y-96980611D01*
X147453953Y-96922836D01*
X147430504Y-96915723D01*
X147406118Y-96913321D01*
X147381731Y-96915723D01*
X147358283Y-96922836D01*
X147336672Y-96934387D01*
X147317730Y-96949933D01*
X147302185Y-96968875D01*
X147290634Y-96990485D01*
X147283521Y-97013934D01*
X147281119Y-97038320D01*
X147283521Y-97062706D01*
X147301000Y-97150579D01*
X147301000Y-97239421D01*
X147283669Y-97326552D01*
X147249672Y-97408627D01*
X147202650Y-97479001D01*
X147200314Y-97482496D01*
X147137496Y-97545314D01*
X147063629Y-97594671D01*
X147063628Y-97594672D01*
X147063627Y-97594672D01*
X146981552Y-97628669D01*
X146894421Y-97646000D01*
X146805579Y-97646000D01*
X146718448Y-97628669D01*
X146636373Y-97594672D01*
X146636372Y-97594672D01*
X146636371Y-97594671D01*
X146562504Y-97545314D01*
X146499686Y-97482496D01*
X146497351Y-97479001D01*
X146450328Y-97408627D01*
X146416331Y-97326552D01*
X146399000Y-97239421D01*
X146399000Y-97150579D01*
X146416331Y-97063448D01*
X146450328Y-96981373D01*
X146450838Y-96980610D01*
X146495799Y-96913321D01*
X146499685Y-96907505D01*
X146562505Y-96844685D01*
X146599187Y-96820175D01*
X146636371Y-96795329D01*
X146636373Y-96795328D01*
X146718448Y-96761331D01*
X146805579Y-96744000D01*
X146894420Y-96744000D01*
X146896829Y-96744479D01*
X146921213Y-96746880D01*
X146945599Y-96744478D01*
X146969048Y-96737364D01*
X146990658Y-96725813D01*
X147009600Y-96710267D01*
X147025145Y-96691325D01*
X147036696Y-96669714D01*
X147043809Y-96646265D01*
X147046210Y-96621879D01*
X147043808Y-96597493D01*
X147036694Y-96574044D01*
X147025144Y-96552435D01*
X146968615Y-96467833D01*
X146889389Y-96276564D01*
X146849000Y-96073516D01*
X146849000Y-95866484D01*
X146889389Y-95663436D01*
X146968615Y-95472167D01*
X147051895Y-95347530D01*
X147083635Y-95300027D01*
X147230027Y-95153635D01*
X147402165Y-95038616D01*
X147402167Y-95038615D01*
X147593436Y-94959389D01*
X147796484Y-94919000D01*
X148003516Y-94919000D01*
X148206564Y-94959389D01*
X148206564Y-94959389D01*
G37*
G36*
X165561723Y-95907782D02*
G01*
X165707495Y-95968163D01*
X165707497Y-95968164D01*
X165838689Y-96055823D01*
X165950259Y-96167393D01*
X166037918Y-96298585D01*
X166037919Y-96298587D01*
X166098300Y-96444359D01*
X166129081Y-96599108D01*
X166129081Y-96756894D01*
X166098300Y-96911643D01*
X166045828Y-97038320D01*
X166037918Y-97057417D01*
X165950259Y-97188609D01*
X165838689Y-97300179D01*
X165707497Y-97387838D01*
X165707496Y-97387839D01*
X165707495Y-97387839D01*
X165561723Y-97448220D01*
X165406974Y-97479001D01*
X165249188Y-97479001D01*
X165094439Y-97448220D01*
X164948667Y-97387839D01*
X164948666Y-97387839D01*
X164948665Y-97387838D01*
X164817473Y-97300179D01*
X164705903Y-97188609D01*
X164618244Y-97057417D01*
X164610334Y-97038320D01*
X164557862Y-96911643D01*
X164527081Y-96756894D01*
X164527081Y-96599108D01*
X164557862Y-96444359D01*
X164618243Y-96298587D01*
X164618244Y-96298585D01*
X164705903Y-96167393D01*
X164817473Y-96055823D01*
X164948665Y-95968164D01*
X164948667Y-95968163D01*
X165094439Y-95907782D01*
X165249188Y-95877001D01*
X165406974Y-95877001D01*
X165561723Y-95907782D01*
X165561723Y-95907782D01*
G37*
G36*
X170441723Y-95907782D02*
G01*
X170587495Y-95968163D01*
X170587497Y-95968164D01*
X170718689Y-96055823D01*
X170830259Y-96167393D01*
X170917918Y-96298585D01*
X170917919Y-96298587D01*
X170978300Y-96444359D01*
X171009081Y-96599108D01*
X171009081Y-96756894D01*
X170978300Y-96911643D01*
X170925828Y-97038320D01*
X170917918Y-97057417D01*
X170830259Y-97188609D01*
X170718689Y-97300179D01*
X170587497Y-97387838D01*
X170587496Y-97387839D01*
X170587495Y-97387839D01*
X170441723Y-97448220D01*
X170286974Y-97479001D01*
X170129188Y-97479001D01*
X169974439Y-97448220D01*
X169828667Y-97387839D01*
X169828666Y-97387839D01*
X169828665Y-97387838D01*
X169697473Y-97300179D01*
X169585903Y-97188609D01*
X169498244Y-97057417D01*
X169490334Y-97038320D01*
X169437862Y-96911643D01*
X169407081Y-96756894D01*
X169407081Y-96599108D01*
X169437862Y-96444359D01*
X169498243Y-96298587D01*
X169498244Y-96298585D01*
X169585903Y-96167393D01*
X169697473Y-96055823D01*
X169828665Y-95968164D01*
X169828667Y-95968163D01*
X169974439Y-95907782D01*
X170129188Y-95877001D01*
X170286974Y-95877001D01*
X170441723Y-95907782D01*
X170441723Y-95907782D01*
G37*
G36*
X144377395Y-94905546D02*
G01*
X144550466Y-94977234D01*
X144550467Y-94977235D01*
X144706227Y-95081310D01*
X144838690Y-95213773D01*
X144877113Y-95271278D01*
X144942766Y-95369534D01*
X145014454Y-95542605D01*
X145051000Y-95726333D01*
X145051000Y-95913667D01*
X145014454Y-96097395D01*
X144942766Y-96270466D01*
X144923977Y-96298585D01*
X144838690Y-96426227D01*
X144706227Y-96558690D01*
X144683248Y-96574044D01*
X144550466Y-96662766D01*
X144377395Y-96734454D01*
X144193667Y-96771000D01*
X144006333Y-96771000D01*
X143822605Y-96734454D01*
X143649534Y-96662766D01*
X143516752Y-96574044D01*
X143493773Y-96558690D01*
X143361310Y-96426227D01*
X143276023Y-96298585D01*
X143257234Y-96270466D01*
X143185546Y-96097395D01*
X143149000Y-95913667D01*
X143149000Y-95726333D01*
X143185546Y-95542605D01*
X143257234Y-95369534D01*
X143322887Y-95271278D01*
X143361310Y-95213773D01*
X143493773Y-95081310D01*
X143649533Y-94977235D01*
X143649534Y-94977234D01*
X143822605Y-94905546D01*
X144006333Y-94869000D01*
X144193667Y-94869000D01*
X144377395Y-94905546D01*
X144377395Y-94905546D01*
G37*
G36*
X165927434Y-94144705D02*
G01*
X165965127Y-94156139D01*
X165999863Y-94174706D01*
X166030308Y-94199692D01*
X166055294Y-94230137D01*
X166073861Y-94264873D01*
X166085295Y-94302566D01*
X166089760Y-94347901D01*
X166089760Y-95184579D01*
X166085295Y-95229914D01*
X166073861Y-95267607D01*
X166055294Y-95302343D01*
X166030308Y-95332788D01*
X165999863Y-95357774D01*
X165965127Y-95376341D01*
X165927434Y-95387775D01*
X165882099Y-95392240D01*
X164795421Y-95392240D01*
X164750086Y-95387775D01*
X164712393Y-95376341D01*
X164677657Y-95357774D01*
X164647212Y-95332788D01*
X164622226Y-95302343D01*
X164603659Y-95267607D01*
X164592225Y-95229914D01*
X164587760Y-95184579D01*
X164587760Y-94347901D01*
X164592225Y-94302566D01*
X164603659Y-94264873D01*
X164622226Y-94230137D01*
X164647212Y-94199692D01*
X164677657Y-94174706D01*
X164712393Y-94156139D01*
X164750086Y-94144705D01*
X164795421Y-94140240D01*
X165882099Y-94140240D01*
X165927434Y-94144705D01*
X165927434Y-94144705D01*
G37*
G36*
X169005914Y-94105225D02*
G01*
X169043607Y-94116659D01*
X169078343Y-94135226D01*
X169108788Y-94160212D01*
X169133774Y-94190657D01*
X169152341Y-94225393D01*
X169163775Y-94263086D01*
X169168240Y-94308421D01*
X169168240Y-95145099D01*
X169163775Y-95190434D01*
X169152341Y-95228127D01*
X169133774Y-95262863D01*
X169108788Y-95293308D01*
X169078343Y-95318294D01*
X169043607Y-95336861D01*
X169005914Y-95348295D01*
X168960579Y-95352760D01*
X167873901Y-95352760D01*
X167828566Y-95348295D01*
X167790873Y-95336861D01*
X167756137Y-95318294D01*
X167725692Y-95293308D01*
X167700706Y-95262863D01*
X167682139Y-95228127D01*
X167670705Y-95190434D01*
X167666240Y-95145099D01*
X167666240Y-94308421D01*
X167670705Y-94263086D01*
X167682139Y-94225393D01*
X167700706Y-94190657D01*
X167725692Y-94160212D01*
X167756137Y-94135226D01*
X167790873Y-94116659D01*
X167828566Y-94105225D01*
X167873901Y-94100760D01*
X168960579Y-94100760D01*
X169005914Y-94105225D01*
X169005914Y-94105225D01*
G37*
G36*
X165927434Y-92094705D02*
G01*
X165965127Y-92106139D01*
X165999863Y-92124706D01*
X166030308Y-92149692D01*
X166055294Y-92180137D01*
X166073861Y-92214873D01*
X166085295Y-92252566D01*
X166089760Y-92297901D01*
X166089760Y-93134579D01*
X166085295Y-93179914D01*
X166073861Y-93217607D01*
X166055294Y-93252343D01*
X166030308Y-93282788D01*
X165999863Y-93307774D01*
X165965127Y-93326341D01*
X165927434Y-93337775D01*
X165882099Y-93342240D01*
X164795421Y-93342240D01*
X164750086Y-93337775D01*
X164712393Y-93326341D01*
X164677657Y-93307774D01*
X164647212Y-93282788D01*
X164622226Y-93252343D01*
X164603659Y-93217607D01*
X164592225Y-93179914D01*
X164587760Y-93134579D01*
X164587760Y-92297901D01*
X164592225Y-92252566D01*
X164603659Y-92214873D01*
X164622226Y-92180137D01*
X164647212Y-92149692D01*
X164677657Y-92124706D01*
X164712393Y-92106139D01*
X164750086Y-92094705D01*
X164795421Y-92090240D01*
X165882099Y-92090240D01*
X165927434Y-92094705D01*
X165927434Y-92094705D01*
G37*
G36*
X169005914Y-92055225D02*
G01*
X169043607Y-92066659D01*
X169078343Y-92085226D01*
X169108788Y-92110212D01*
X169133774Y-92140657D01*
X169152341Y-92175393D01*
X169163775Y-92213086D01*
X169168240Y-92258421D01*
X169168240Y-93095099D01*
X169163775Y-93140434D01*
X169152341Y-93178127D01*
X169133774Y-93212863D01*
X169108788Y-93243308D01*
X169078343Y-93268294D01*
X169043607Y-93286861D01*
X169005914Y-93298295D01*
X168960579Y-93302760D01*
X167873901Y-93302760D01*
X167828566Y-93298295D01*
X167790873Y-93286861D01*
X167756137Y-93268294D01*
X167725692Y-93243308D01*
X167700706Y-93212863D01*
X167682139Y-93178127D01*
X167670705Y-93140434D01*
X167666240Y-93095099D01*
X167666240Y-92258421D01*
X167670705Y-92213086D01*
X167682139Y-92175393D01*
X167700706Y-92140657D01*
X167725692Y-92110212D01*
X167756137Y-92085226D01*
X167790873Y-92066659D01*
X167828566Y-92055225D01*
X167873901Y-92050760D01*
X168960579Y-92050760D01*
X169005914Y-92055225D01*
X169005914Y-92055225D01*
G37*
G36*
X153743674Y-91709465D02*
G01*
X153781367Y-91720899D01*
X153816103Y-91739466D01*
X153846548Y-91764452D01*
X153871534Y-91794897D01*
X153890101Y-91829633D01*
X153901535Y-91867326D01*
X153906000Y-91912661D01*
X153906000Y-92999339D01*
X153901535Y-93044674D01*
X153890101Y-93082367D01*
X153871534Y-93117103D01*
X153846548Y-93147548D01*
X153816103Y-93172534D01*
X153781367Y-93191101D01*
X153743674Y-93202535D01*
X153698339Y-93207000D01*
X152861661Y-93207000D01*
X152816326Y-93202535D01*
X152778633Y-93191101D01*
X152743897Y-93172534D01*
X152713452Y-93147548D01*
X152688466Y-93117103D01*
X152669899Y-93082367D01*
X152658465Y-93044674D01*
X152654000Y-92999339D01*
X152654000Y-91912661D01*
X152658465Y-91867326D01*
X152669899Y-91829633D01*
X152688466Y-91794897D01*
X152713452Y-91764452D01*
X152743897Y-91739466D01*
X152778633Y-91720899D01*
X152816326Y-91709465D01*
X152861661Y-91705000D01*
X153698339Y-91705000D01*
X153743674Y-91709465D01*
X153743674Y-91709465D01*
G37*
G36*
X155793674Y-91709465D02*
G01*
X155831367Y-91720899D01*
X155866103Y-91739466D01*
X155896548Y-91764452D01*
X155921534Y-91794897D01*
X155940101Y-91829633D01*
X155951535Y-91867326D01*
X155956000Y-91912661D01*
X155956000Y-92999339D01*
X155951535Y-93044674D01*
X155940101Y-93082367D01*
X155921534Y-93117103D01*
X155896548Y-93147548D01*
X155866103Y-93172534D01*
X155831367Y-93191101D01*
X155793674Y-93202535D01*
X155748339Y-93207000D01*
X154911661Y-93207000D01*
X154866326Y-93202535D01*
X154828633Y-93191101D01*
X154793897Y-93172534D01*
X154763452Y-93147548D01*
X154738466Y-93117103D01*
X154719899Y-93082367D01*
X154708465Y-93044674D01*
X154704000Y-92999339D01*
X154704000Y-91912661D01*
X154708465Y-91867326D01*
X154719899Y-91829633D01*
X154738466Y-91794897D01*
X154763452Y-91764452D01*
X154793897Y-91739466D01*
X154828633Y-91720899D01*
X154866326Y-91709465D01*
X154911661Y-91705000D01*
X155748339Y-91705000D01*
X155793674Y-91709465D01*
X155793674Y-91709465D01*
G37*
G36*
X149806674Y-91709465D02*
G01*
X149844367Y-91720899D01*
X149879103Y-91739466D01*
X149909548Y-91764452D01*
X149934534Y-91794897D01*
X149953101Y-91829633D01*
X149964535Y-91867326D01*
X149969000Y-91912661D01*
X149969000Y-92999339D01*
X149964535Y-93044674D01*
X149953101Y-93082367D01*
X149934534Y-93117103D01*
X149909548Y-93147548D01*
X149879103Y-93172534D01*
X149844367Y-93191101D01*
X149806674Y-93202535D01*
X149761339Y-93207000D01*
X148924661Y-93207000D01*
X148879326Y-93202535D01*
X148841633Y-93191101D01*
X148806897Y-93172534D01*
X148776452Y-93147548D01*
X148751466Y-93117103D01*
X148732899Y-93082367D01*
X148721465Y-93044674D01*
X148717000Y-92999339D01*
X148717000Y-91912661D01*
X148721465Y-91867326D01*
X148732899Y-91829633D01*
X148751466Y-91794897D01*
X148776452Y-91764452D01*
X148806897Y-91739466D01*
X148841633Y-91720899D01*
X148879326Y-91709465D01*
X148924661Y-91705000D01*
X149761339Y-91705000D01*
X149806674Y-91709465D01*
X149806674Y-91709465D01*
G37*
G36*
X151856674Y-91709465D02*
G01*
X151894367Y-91720899D01*
X151929103Y-91739466D01*
X151959548Y-91764452D01*
X151984534Y-91794897D01*
X152003101Y-91829633D01*
X152014535Y-91867326D01*
X152019000Y-91912661D01*
X152019000Y-92999339D01*
X152014535Y-93044674D01*
X152003101Y-93082367D01*
X151984534Y-93117103D01*
X151959548Y-93147548D01*
X151929103Y-93172534D01*
X151894367Y-93191101D01*
X151856674Y-93202535D01*
X151811339Y-93207000D01*
X150974661Y-93207000D01*
X150929326Y-93202535D01*
X150891633Y-93191101D01*
X150856897Y-93172534D01*
X150826452Y-93147548D01*
X150801466Y-93117103D01*
X150782899Y-93082367D01*
X150771465Y-93044674D01*
X150767000Y-92999339D01*
X150767000Y-91912661D01*
X150771465Y-91867326D01*
X150782899Y-91829633D01*
X150801466Y-91794897D01*
X150826452Y-91764452D01*
X150856897Y-91739466D01*
X150891633Y-91720899D01*
X150929326Y-91709465D01*
X150974661Y-91705000D01*
X151811339Y-91705000D01*
X151856674Y-91709465D01*
X151856674Y-91709465D01*
G37*
G36*
X172732000Y-92087000D02*
G01*
X170930000Y-92087000D01*
X170930000Y-90285000D01*
X172732000Y-90285000D01*
X172732000Y-92087000D01*
X172732000Y-92087000D01*
G37*
G36*
X145286615Y-88831234D02*
G01*
X145395191Y-88864171D01*
X145395194Y-88864172D01*
X145431300Y-88883471D01*
X145495256Y-88917656D01*
X145582964Y-88989636D01*
X145654944Y-89077343D01*
X145689129Y-89141299D01*
X145708428Y-89177405D01*
X145708429Y-89177408D01*
X145741366Y-89285984D01*
X145749700Y-89370602D01*
X145749700Y-89877197D01*
X145741366Y-89961816D01*
X145708952Y-90068667D01*
X145708428Y-90070395D01*
X145698461Y-90089041D01*
X145654944Y-90170457D01*
X145582964Y-90258164D01*
X145495257Y-90330144D01*
X145431301Y-90364329D01*
X145395195Y-90383628D01*
X145395192Y-90383629D01*
X145286616Y-90416566D01*
X145173700Y-90427687D01*
X145060785Y-90416566D01*
X144952209Y-90383629D01*
X144952206Y-90383628D01*
X144916100Y-90364329D01*
X144852144Y-90330144D01*
X144764437Y-90258164D01*
X144692457Y-90170457D01*
X144648939Y-90089041D01*
X144635325Y-90068666D01*
X144617998Y-90051339D01*
X144597624Y-90037726D01*
X144574985Y-90028348D01*
X144550952Y-90023568D01*
X144526448Y-90023568D01*
X144502415Y-90028348D01*
X144479776Y-90037726D01*
X144459401Y-90051340D01*
X144442074Y-90068667D01*
X144428461Y-90089041D01*
X144384944Y-90170457D01*
X144312964Y-90258164D01*
X144225257Y-90330144D01*
X144161301Y-90364329D01*
X144125195Y-90383628D01*
X144125192Y-90383629D01*
X144016616Y-90416566D01*
X143903700Y-90427687D01*
X143790785Y-90416566D01*
X143682209Y-90383629D01*
X143682206Y-90383628D01*
X143646100Y-90364329D01*
X143582144Y-90330144D01*
X143494437Y-90258164D01*
X143431322Y-90181259D01*
X143413997Y-90163934D01*
X143393623Y-90150320D01*
X143370984Y-90140943D01*
X143346950Y-90136163D01*
X143322446Y-90136163D01*
X143298413Y-90140944D01*
X143275774Y-90150321D01*
X143255400Y-90163935D01*
X143238073Y-90181262D01*
X143224459Y-90201636D01*
X143215082Y-90224275D01*
X143209700Y-90260560D01*
X143209700Y-90424900D01*
X142057700Y-90424900D01*
X142057700Y-88822900D01*
X143209700Y-88822900D01*
X143209700Y-88987241D01*
X143212102Y-89011627D01*
X143219215Y-89035076D01*
X143230766Y-89056687D01*
X143246311Y-89075629D01*
X143265253Y-89091174D01*
X143286864Y-89102725D01*
X143310313Y-89109838D01*
X143334699Y-89112240D01*
X143359085Y-89109838D01*
X143382534Y-89102725D01*
X143404145Y-89091174D01*
X143423087Y-89075629D01*
X143431308Y-89066557D01*
X143494436Y-88989636D01*
X143582143Y-88917656D01*
X143646099Y-88883471D01*
X143682205Y-88864172D01*
X143682208Y-88864171D01*
X143790784Y-88831234D01*
X143903700Y-88820113D01*
X144016615Y-88831234D01*
X144125191Y-88864171D01*
X144125194Y-88864172D01*
X144161300Y-88883471D01*
X144225256Y-88917656D01*
X144312964Y-88989636D01*
X144384944Y-89077343D01*
X144421303Y-89145367D01*
X144428461Y-89158759D01*
X144442075Y-89179134D01*
X144459402Y-89196461D01*
X144479776Y-89210074D01*
X144502415Y-89219452D01*
X144526448Y-89224232D01*
X144550952Y-89224232D01*
X144574985Y-89219452D01*
X144597624Y-89210074D01*
X144617999Y-89196460D01*
X144635326Y-89179133D01*
X144648939Y-89158760D01*
X144692456Y-89077344D01*
X144764436Y-88989636D01*
X144852143Y-88917656D01*
X144916099Y-88883471D01*
X144952205Y-88864172D01*
X144952208Y-88864171D01*
X145060784Y-88831234D01*
X145173700Y-88820113D01*
X145286615Y-88831234D01*
X145286615Y-88831234D01*
G37*
G36*
X166604527Y-90070375D02*
G01*
X148957527Y-90070375D01*
X148957527Y-88768375D01*
X166604527Y-88768375D01*
X166604527Y-90070375D01*
X166604527Y-90070375D01*
G37*
G36*
X171941442Y-87751518D02*
G01*
X172007627Y-87758037D01*
X172177466Y-87809557D01*
X172333991Y-87893222D01*
X172369729Y-87922552D01*
X172471186Y-88005814D01*
X172554448Y-88107271D01*
X172583778Y-88143009D01*
X172583779Y-88143011D01*
X172659909Y-88285438D01*
X172667443Y-88299534D01*
X172718963Y-88469373D01*
X172736359Y-88646000D01*
X172718963Y-88822627D01*
X172706360Y-88864172D01*
X172667442Y-88992468D01*
X172657201Y-89011627D01*
X172583778Y-89148991D01*
X172560456Y-89177409D01*
X172471186Y-89286186D01*
X172369729Y-89369448D01*
X172333991Y-89398778D01*
X172177466Y-89482443D01*
X172007627Y-89533963D01*
X171941442Y-89540482D01*
X171875260Y-89547000D01*
X171786740Y-89547000D01*
X171720558Y-89540482D01*
X171654373Y-89533963D01*
X171484534Y-89482443D01*
X171328009Y-89398778D01*
X171292271Y-89369448D01*
X171190814Y-89286186D01*
X171101544Y-89177409D01*
X171078222Y-89148991D01*
X171004799Y-89011627D01*
X170994558Y-88992468D01*
X170955640Y-88864172D01*
X170943037Y-88822627D01*
X170925641Y-88646000D01*
X170943037Y-88469373D01*
X170994557Y-88299534D01*
X171002092Y-88285438D01*
X171078221Y-88143011D01*
X171078222Y-88143009D01*
X171107552Y-88107271D01*
X171190814Y-88005814D01*
X171292271Y-87922552D01*
X171328009Y-87893222D01*
X171484534Y-87809557D01*
X171654373Y-87758037D01*
X171720558Y-87751518D01*
X171786740Y-87745000D01*
X171875260Y-87745000D01*
X171941442Y-87751518D01*
X171941442Y-87751518D01*
G37*
G36*
X185130674Y-87772465D02*
G01*
X185168367Y-87783899D01*
X185203103Y-87802466D01*
X185233548Y-87827452D01*
X185258534Y-87857897D01*
X185277101Y-87892633D01*
X185288535Y-87930326D01*
X185293000Y-87975661D01*
X185293000Y-89062339D01*
X185288535Y-89107674D01*
X185277101Y-89145367D01*
X185258534Y-89180103D01*
X185233548Y-89210548D01*
X185203103Y-89235534D01*
X185168367Y-89254101D01*
X185130674Y-89265535D01*
X185085339Y-89270000D01*
X184248661Y-89270000D01*
X184203326Y-89265535D01*
X184165633Y-89254101D01*
X184130897Y-89235534D01*
X184100452Y-89210548D01*
X184075466Y-89180103D01*
X184056899Y-89145367D01*
X184045465Y-89107674D01*
X184041000Y-89062339D01*
X184041000Y-87975661D01*
X184045465Y-87930326D01*
X184056899Y-87892633D01*
X184075466Y-87857897D01*
X184100452Y-87827452D01*
X184130897Y-87802466D01*
X184165633Y-87783899D01*
X184203326Y-87772465D01*
X184248661Y-87768000D01*
X185085339Y-87768000D01*
X185130674Y-87772465D01*
X185130674Y-87772465D01*
G37*
G36*
X183080674Y-87772465D02*
G01*
X183118367Y-87783899D01*
X183153103Y-87802466D01*
X183183548Y-87827452D01*
X183208534Y-87857897D01*
X183227101Y-87892633D01*
X183238535Y-87930326D01*
X183243000Y-87975661D01*
X183243000Y-89062339D01*
X183238535Y-89107674D01*
X183227101Y-89145367D01*
X183208534Y-89180103D01*
X183183548Y-89210548D01*
X183153103Y-89235534D01*
X183118367Y-89254101D01*
X183080674Y-89265535D01*
X183035339Y-89270000D01*
X182198661Y-89270000D01*
X182153326Y-89265535D01*
X182115633Y-89254101D01*
X182080897Y-89235534D01*
X182050452Y-89210548D01*
X182025466Y-89180103D01*
X182006899Y-89145367D01*
X181995465Y-89107674D01*
X181991000Y-89062339D01*
X181991000Y-87975661D01*
X181995465Y-87930326D01*
X182006899Y-87892633D01*
X182025466Y-87857897D01*
X182050452Y-87827452D01*
X182080897Y-87802466D01*
X182115633Y-87783899D01*
X182153326Y-87772465D01*
X182198661Y-87768000D01*
X183035339Y-87768000D01*
X183080674Y-87772465D01*
X183080674Y-87772465D01*
G37*
G36*
X143282574Y-86908865D02*
G01*
X143320267Y-86920299D01*
X143355003Y-86938866D01*
X143385448Y-86963852D01*
X143410434Y-86994297D01*
X143429001Y-87029033D01*
X143440435Y-87066726D01*
X143444900Y-87112061D01*
X143444900Y-88198739D01*
X143440435Y-88244074D01*
X143429001Y-88281767D01*
X143410434Y-88316503D01*
X143385448Y-88346948D01*
X143355003Y-88371934D01*
X143320267Y-88390501D01*
X143282574Y-88401935D01*
X143237239Y-88406400D01*
X142400561Y-88406400D01*
X142355226Y-88401935D01*
X142317533Y-88390501D01*
X142282797Y-88371934D01*
X142252352Y-88346948D01*
X142227366Y-88316503D01*
X142208799Y-88281767D01*
X142197365Y-88244074D01*
X142192900Y-88198739D01*
X142192900Y-87112061D01*
X142197365Y-87066726D01*
X142208799Y-87029033D01*
X142227366Y-86994297D01*
X142252352Y-86963852D01*
X142282797Y-86938866D01*
X142317533Y-86920299D01*
X142355226Y-86908865D01*
X142400561Y-86904400D01*
X143237239Y-86904400D01*
X143282574Y-86908865D01*
X143282574Y-86908865D01*
G37*
G36*
X145332574Y-86908865D02*
G01*
X145370267Y-86920299D01*
X145405003Y-86938866D01*
X145435448Y-86963852D01*
X145460434Y-86994297D01*
X145479001Y-87029033D01*
X145490435Y-87066726D01*
X145494900Y-87112061D01*
X145494900Y-88198739D01*
X145490435Y-88244074D01*
X145479001Y-88281767D01*
X145460434Y-88316503D01*
X145435448Y-88346948D01*
X145405003Y-88371934D01*
X145370267Y-88390501D01*
X145332574Y-88401935D01*
X145287239Y-88406400D01*
X144450561Y-88406400D01*
X144405226Y-88401935D01*
X144367533Y-88390501D01*
X144332797Y-88371934D01*
X144302352Y-88346948D01*
X144277366Y-88316503D01*
X144258799Y-88281767D01*
X144247365Y-88244074D01*
X144242900Y-88198739D01*
X144242900Y-87112061D01*
X144247365Y-87066726D01*
X144258799Y-87029033D01*
X144277366Y-86994297D01*
X144302352Y-86963852D01*
X144332797Y-86938866D01*
X144367533Y-86920299D01*
X144405226Y-86908865D01*
X144450561Y-86904400D01*
X145287239Y-86904400D01*
X145332574Y-86908865D01*
X145332574Y-86908865D01*
G37*
G36*
X144001469Y-83109895D02*
G01*
X144067653Y-83116413D01*
X144237492Y-83167933D01*
X144394017Y-83251598D01*
X144429755Y-83280928D01*
X144531212Y-83364190D01*
X144614474Y-83465647D01*
X144643804Y-83501385D01*
X144727469Y-83657910D01*
X144778989Y-83827749D01*
X144796385Y-84004376D01*
X144778989Y-84181003D01*
X144727469Y-84350842D01*
X144643804Y-84507367D01*
X144614474Y-84543105D01*
X144531212Y-84644562D01*
X144429755Y-84727824D01*
X144394017Y-84757154D01*
X144237492Y-84840819D01*
X144067653Y-84892339D01*
X144001469Y-84898857D01*
X143935286Y-84905376D01*
X143846766Y-84905376D01*
X143780583Y-84898857D01*
X143714399Y-84892339D01*
X143544560Y-84840819D01*
X143388035Y-84757154D01*
X143352297Y-84727824D01*
X143250840Y-84644562D01*
X143167578Y-84543105D01*
X143138248Y-84507367D01*
X143054583Y-84350842D01*
X143003063Y-84181003D01*
X142985667Y-84004376D01*
X143003063Y-83827749D01*
X143054583Y-83657910D01*
X143138248Y-83501385D01*
X143167578Y-83465647D01*
X143250840Y-83364190D01*
X143352297Y-83280928D01*
X143388035Y-83251598D01*
X143544560Y-83167933D01*
X143714399Y-83116413D01*
X143780583Y-83109895D01*
X143846766Y-83103376D01*
X143935286Y-83103376D01*
X144001469Y-83109895D01*
X144001469Y-83109895D01*
G37*
G36*
X185051000Y-83959000D02*
G01*
X183249000Y-83959000D01*
X183249000Y-82157000D01*
X185051000Y-82157000D01*
X185051000Y-83959000D01*
X185051000Y-83959000D01*
G37*
G36*
X186800442Y-82163518D02*
G01*
X186866627Y-82170037D01*
X187036466Y-82221557D01*
X187192991Y-82305222D01*
X187228729Y-82334552D01*
X187330186Y-82417814D01*
X187413448Y-82519271D01*
X187442778Y-82555009D01*
X187526443Y-82711534D01*
X187577963Y-82881373D01*
X187595359Y-83058000D01*
X187577963Y-83234627D01*
X187526443Y-83404466D01*
X187442778Y-83560991D01*
X187413448Y-83596729D01*
X187330186Y-83698186D01*
X187228729Y-83781448D01*
X187192991Y-83810778D01*
X187036466Y-83894443D01*
X186866627Y-83945963D01*
X186800442Y-83952482D01*
X186734260Y-83959000D01*
X186645740Y-83959000D01*
X186579558Y-83952482D01*
X186513373Y-83945963D01*
X186343534Y-83894443D01*
X186187009Y-83810778D01*
X186151271Y-83781448D01*
X186049814Y-83698186D01*
X185966552Y-83596729D01*
X185937222Y-83560991D01*
X185853557Y-83404466D01*
X185802037Y-83234627D01*
X185784641Y-83058000D01*
X185802037Y-82881373D01*
X185853557Y-82711534D01*
X185937222Y-82555009D01*
X185966552Y-82519271D01*
X186049814Y-82417814D01*
X186151271Y-82334552D01*
X186187009Y-82305222D01*
X186343534Y-82221557D01*
X186513373Y-82170037D01*
X186579558Y-82163518D01*
X186645740Y-82157000D01*
X186734260Y-82157000D01*
X186800442Y-82163518D01*
X186800442Y-82163518D01*
G37*
G36*
X144001468Y-80569894D02*
G01*
X144067653Y-80576413D01*
X144237492Y-80627933D01*
X144394017Y-80711598D01*
X144429755Y-80740928D01*
X144531212Y-80824190D01*
X144614474Y-80925647D01*
X144643804Y-80961385D01*
X144727469Y-81117910D01*
X144778989Y-81287749D01*
X144796385Y-81464376D01*
X144778989Y-81641003D01*
X144727469Y-81810842D01*
X144643804Y-81967367D01*
X144614474Y-82003105D01*
X144531212Y-82104562D01*
X144451429Y-82170037D01*
X144394017Y-82217154D01*
X144237492Y-82300819D01*
X144067653Y-82352339D01*
X144001469Y-82358857D01*
X143935286Y-82365376D01*
X143846766Y-82365376D01*
X143780583Y-82358857D01*
X143714399Y-82352339D01*
X143544560Y-82300819D01*
X143388035Y-82217154D01*
X143330623Y-82170037D01*
X143250840Y-82104562D01*
X143167578Y-82003105D01*
X143138248Y-81967367D01*
X143054583Y-81810842D01*
X143003063Y-81641003D01*
X142985667Y-81464376D01*
X143003063Y-81287749D01*
X143054583Y-81117910D01*
X143138248Y-80961385D01*
X143167578Y-80925647D01*
X143250840Y-80824190D01*
X143352297Y-80740928D01*
X143388035Y-80711598D01*
X143544560Y-80627933D01*
X143714399Y-80576413D01*
X143780584Y-80569894D01*
X143846766Y-80563376D01*
X143935286Y-80563376D01*
X144001468Y-80569894D01*
X144001468Y-80569894D01*
G37*
G36*
X166604527Y-80670375D02*
G01*
X148957527Y-80670375D01*
X148957527Y-79368375D01*
X166604527Y-79368375D01*
X166604527Y-80670375D01*
X166604527Y-80670375D01*
G37*
G36*
X144001469Y-78029895D02*
G01*
X144067653Y-78036413D01*
X144237492Y-78087933D01*
X144394017Y-78171598D01*
X144429755Y-78200928D01*
X144531212Y-78284190D01*
X144614474Y-78385647D01*
X144643804Y-78421385D01*
X144727469Y-78577910D01*
X144778989Y-78747749D01*
X144796385Y-78924376D01*
X144778989Y-79101003D01*
X144727469Y-79270842D01*
X144643804Y-79427367D01*
X144614474Y-79463105D01*
X144531212Y-79564562D01*
X144429755Y-79647824D01*
X144394017Y-79677154D01*
X144237492Y-79760819D01*
X144067653Y-79812339D01*
X144001468Y-79818858D01*
X143935286Y-79825376D01*
X143846766Y-79825376D01*
X143780584Y-79818858D01*
X143714399Y-79812339D01*
X143544560Y-79760819D01*
X143388035Y-79677154D01*
X143352297Y-79647824D01*
X143250840Y-79564562D01*
X143167578Y-79463105D01*
X143138248Y-79427367D01*
X143054583Y-79270842D01*
X143003063Y-79101003D01*
X142985667Y-78924376D01*
X143003063Y-78747749D01*
X143054583Y-78577910D01*
X143138248Y-78421385D01*
X143167578Y-78385647D01*
X143250840Y-78284190D01*
X143352297Y-78200928D01*
X143388035Y-78171598D01*
X143544560Y-78087933D01*
X143714399Y-78036413D01*
X143780583Y-78029895D01*
X143846766Y-78023376D01*
X143935286Y-78023376D01*
X144001469Y-78029895D01*
X144001469Y-78029895D01*
G37*
G36*
X169827947Y-77473721D02*
G01*
X169907576Y-77481564D01*
X170060827Y-77528052D01*
X170060830Y-77528053D01*
X170202063Y-77603544D01*
X170325859Y-77705141D01*
X170427456Y-77828937D01*
X170502947Y-77970170D01*
X170502948Y-77970173D01*
X170549436Y-78123424D01*
X170565133Y-78282800D01*
X170549436Y-78442176D01*
X170508262Y-78577908D01*
X170502947Y-78595430D01*
X170427456Y-78736663D01*
X170325859Y-78860459D01*
X170202063Y-78962056D01*
X170060830Y-79037547D01*
X170060827Y-79037548D01*
X169907576Y-79084036D01*
X169827947Y-79091879D01*
X169788134Y-79095800D01*
X169708266Y-79095800D01*
X169668453Y-79091879D01*
X169588824Y-79084036D01*
X169435573Y-79037548D01*
X169435570Y-79037547D01*
X169294337Y-78962056D01*
X169170541Y-78860459D01*
X169068944Y-78736663D01*
X168993453Y-78595430D01*
X168988138Y-78577908D01*
X168946964Y-78442176D01*
X168931267Y-78282800D01*
X168946964Y-78123424D01*
X168993452Y-77970173D01*
X168993453Y-77970170D01*
X169068944Y-77828937D01*
X169170541Y-77705141D01*
X169294337Y-77603544D01*
X169435570Y-77528053D01*
X169435573Y-77528052D01*
X169588824Y-77481564D01*
X169668453Y-77473721D01*
X169708266Y-77469800D01*
X169788134Y-77469800D01*
X169827947Y-77473721D01*
X169827947Y-77473721D01*
G37*
G36*
X162952701Y-76606840D02*
G01*
X162990394Y-76618274D01*
X163025130Y-76636841D01*
X163055575Y-76661827D01*
X163080561Y-76692272D01*
X163099128Y-76727008D01*
X163110562Y-76764701D01*
X163115027Y-76810036D01*
X163115027Y-77896714D01*
X163110562Y-77942049D01*
X163099128Y-77979742D01*
X163080561Y-78014478D01*
X163055575Y-78044923D01*
X163025130Y-78069909D01*
X162990394Y-78088476D01*
X162952701Y-78099910D01*
X162907366Y-78104375D01*
X162070688Y-78104375D01*
X162025353Y-78099910D01*
X161987660Y-78088476D01*
X161952924Y-78069909D01*
X161922479Y-78044923D01*
X161897493Y-78014478D01*
X161878926Y-77979742D01*
X161867492Y-77942049D01*
X161863027Y-77896714D01*
X161863027Y-76810036D01*
X161867492Y-76764701D01*
X161878926Y-76727008D01*
X161897493Y-76692272D01*
X161922479Y-76661827D01*
X161952924Y-76636841D01*
X161987660Y-76618274D01*
X162025353Y-76606840D01*
X162070688Y-76602375D01*
X162907366Y-76602375D01*
X162952701Y-76606840D01*
X162952701Y-76606840D01*
G37*
G36*
X160902701Y-76606840D02*
G01*
X160940394Y-76618274D01*
X160975130Y-76636841D01*
X161005575Y-76661827D01*
X161030561Y-76692272D01*
X161049128Y-76727008D01*
X161060562Y-76764701D01*
X161065027Y-76810036D01*
X161065027Y-77896714D01*
X161060562Y-77942049D01*
X161049128Y-77979742D01*
X161030561Y-78014478D01*
X161005575Y-78044923D01*
X160975130Y-78069909D01*
X160940394Y-78088476D01*
X160902701Y-78099910D01*
X160857366Y-78104375D01*
X160020688Y-78104375D01*
X159975353Y-78099910D01*
X159937660Y-78088476D01*
X159902924Y-78069909D01*
X159872479Y-78044923D01*
X159847493Y-78014478D01*
X159828926Y-77979742D01*
X159817492Y-77942049D01*
X159813027Y-77896714D01*
X159813027Y-76810036D01*
X159817492Y-76764701D01*
X159828926Y-76727008D01*
X159847493Y-76692272D01*
X159872479Y-76661827D01*
X159902924Y-76636841D01*
X159937660Y-76618274D01*
X159975353Y-76606840D01*
X160020688Y-76602375D01*
X160857366Y-76602375D01*
X160902701Y-76606840D01*
X160902701Y-76606840D01*
G37*
G36*
X144001468Y-75489894D02*
G01*
X144067653Y-75496413D01*
X144237492Y-75547933D01*
X144394017Y-75631598D01*
X144429755Y-75660928D01*
X144531212Y-75744190D01*
X144614474Y-75845647D01*
X144643804Y-75881385D01*
X144727469Y-76037910D01*
X144778989Y-76207749D01*
X144796385Y-76384376D01*
X144778989Y-76561003D01*
X144727469Y-76730842D01*
X144643804Y-76887367D01*
X144614474Y-76923105D01*
X144531212Y-77024562D01*
X144429755Y-77107824D01*
X144394017Y-77137154D01*
X144237492Y-77220819D01*
X144067653Y-77272339D01*
X144001468Y-77278858D01*
X143935286Y-77285376D01*
X143846766Y-77285376D01*
X143780584Y-77278858D01*
X143714399Y-77272339D01*
X143544560Y-77220819D01*
X143388035Y-77137154D01*
X143352297Y-77107824D01*
X143250840Y-77024562D01*
X143167578Y-76923105D01*
X143138248Y-76887367D01*
X143054583Y-76730842D01*
X143003063Y-76561003D01*
X142985667Y-76384376D01*
X143003063Y-76207749D01*
X143054583Y-76037910D01*
X143138248Y-75881385D01*
X143167578Y-75845647D01*
X143250840Y-75744190D01*
X143352297Y-75660928D01*
X143388035Y-75631598D01*
X143544560Y-75547933D01*
X143714399Y-75496413D01*
X143780584Y-75489894D01*
X143846766Y-75483376D01*
X143935286Y-75483376D01*
X144001468Y-75489894D01*
X144001468Y-75489894D01*
G37*
G36*
X169827947Y-74933721D02*
G01*
X169907576Y-74941564D01*
X170046780Y-74983791D01*
X170060830Y-74988053D01*
X170202063Y-75063544D01*
X170325859Y-75165141D01*
X170427456Y-75288937D01*
X170502947Y-75430170D01*
X170502948Y-75430173D01*
X170549436Y-75583424D01*
X170565133Y-75742800D01*
X170549436Y-75902176D01*
X170508262Y-76037908D01*
X170502947Y-76055430D01*
X170427456Y-76196663D01*
X170325859Y-76320459D01*
X170202063Y-76422056D01*
X170060830Y-76497547D01*
X170060827Y-76497548D01*
X169907576Y-76544036D01*
X169827947Y-76551879D01*
X169788134Y-76555800D01*
X169708266Y-76555800D01*
X169668453Y-76551879D01*
X169588824Y-76544036D01*
X169435573Y-76497548D01*
X169435570Y-76497547D01*
X169294337Y-76422056D01*
X169170541Y-76320459D01*
X169068944Y-76196663D01*
X168993453Y-76055430D01*
X168988138Y-76037908D01*
X168946964Y-75902176D01*
X168931267Y-75742800D01*
X168946964Y-75583424D01*
X168993452Y-75430173D01*
X168993453Y-75430170D01*
X169068944Y-75288937D01*
X169170541Y-75165141D01*
X169294337Y-75063544D01*
X169435570Y-74988053D01*
X169449620Y-74983791D01*
X169588824Y-74941564D01*
X169668453Y-74933721D01*
X169708266Y-74929800D01*
X169788134Y-74929800D01*
X169827947Y-74933721D01*
X169827947Y-74933721D01*
G37*
G36*
X159064099Y-73393137D02*
G01*
X159078628Y-73397545D01*
X159091811Y-73403006D01*
X159115845Y-73407788D01*
X159140349Y-73407789D01*
X159164382Y-73403009D01*
X159187021Y-73393632D01*
X159188865Y-73392400D01*
X160420150Y-73392400D01*
X160432264Y-73398875D01*
X160455713Y-73405988D01*
X160480099Y-73408390D01*
X160504485Y-73405988D01*
X160527934Y-73398875D01*
X160532846Y-73396552D01*
X160544101Y-73393137D01*
X160560240Y-73391548D01*
X161097961Y-73391548D01*
X161116299Y-73393354D01*
X161128550Y-73393956D01*
X161146969Y-73393956D01*
X161169249Y-73396150D01*
X161253333Y-73412876D01*
X161274760Y-73419376D01*
X161353958Y-73452180D01*
X161359403Y-73455091D01*
X161359409Y-73455093D01*
X161368269Y-73459829D01*
X161368273Y-73459832D01*
X161373714Y-73462740D01*
X161444999Y-73510371D01*
X161462304Y-73524572D01*
X161522928Y-73585196D01*
X161537129Y-73602501D01*
X161584760Y-73673786D01*
X161587668Y-73679227D01*
X161587671Y-73679231D01*
X161592407Y-73688091D01*
X161592409Y-73688097D01*
X161595320Y-73693542D01*
X161628124Y-73772740D01*
X161634624Y-73794167D01*
X161651350Y-73878251D01*
X161653544Y-73900531D01*
X161653544Y-73918950D01*
X161654146Y-73931201D01*
X161655952Y-73949539D01*
X161655952Y-74437262D01*
X161654146Y-74455599D01*
X161653544Y-74467850D01*
X161653544Y-74486269D01*
X161651350Y-74508549D01*
X161634624Y-74592633D01*
X161628124Y-74614060D01*
X161595320Y-74693258D01*
X161592409Y-74698703D01*
X161592407Y-74698709D01*
X161587671Y-74707569D01*
X161587668Y-74707573D01*
X161584760Y-74713014D01*
X161537129Y-74784299D01*
X161522928Y-74801604D01*
X161462304Y-74862228D01*
X161444999Y-74876429D01*
X161373714Y-74924060D01*
X161368273Y-74926968D01*
X161368269Y-74926971D01*
X161359409Y-74931707D01*
X161359403Y-74931709D01*
X161353958Y-74934620D01*
X161274760Y-74967424D01*
X161253333Y-74973924D01*
X161169249Y-74990650D01*
X161146969Y-74992844D01*
X161128550Y-74992844D01*
X161116299Y-74993446D01*
X161097962Y-74995252D01*
X160560240Y-74995252D01*
X160544101Y-74993663D01*
X160529572Y-74989255D01*
X160516389Y-74983794D01*
X160492355Y-74979012D01*
X160467851Y-74979011D01*
X160443818Y-74983791D01*
X160421179Y-74993168D01*
X160419335Y-74994400D01*
X159188050Y-74994400D01*
X159175936Y-74987925D01*
X159152487Y-74980812D01*
X159128101Y-74978410D01*
X159103715Y-74980812D01*
X159080266Y-74987925D01*
X159075354Y-74990248D01*
X159064099Y-74993663D01*
X159047960Y-74995252D01*
X158510238Y-74995252D01*
X158491901Y-74993446D01*
X158479650Y-74992844D01*
X158461231Y-74992844D01*
X158438951Y-74990650D01*
X158354867Y-74973924D01*
X158333440Y-74967424D01*
X158254242Y-74934620D01*
X158248797Y-74931709D01*
X158248791Y-74931707D01*
X158239931Y-74926971D01*
X158239927Y-74926968D01*
X158234486Y-74924060D01*
X158163201Y-74876429D01*
X158145896Y-74862228D01*
X158085272Y-74801604D01*
X158071071Y-74784299D01*
X158023440Y-74713014D01*
X158020532Y-74707573D01*
X158020529Y-74707569D01*
X158015793Y-74698709D01*
X158015791Y-74698703D01*
X158012880Y-74693258D01*
X157980076Y-74614060D01*
X157973576Y-74592633D01*
X157956850Y-74508549D01*
X157954656Y-74486269D01*
X157954656Y-74467850D01*
X157954054Y-74455599D01*
X157952248Y-74437262D01*
X157952248Y-73949539D01*
X157954054Y-73931201D01*
X157954656Y-73918950D01*
X157954656Y-73900531D01*
X157956850Y-73878251D01*
X157973576Y-73794167D01*
X157980076Y-73772740D01*
X158012880Y-73693542D01*
X158015791Y-73688097D01*
X158015793Y-73688091D01*
X158020529Y-73679231D01*
X158020532Y-73679227D01*
X158023440Y-73673786D01*
X158071071Y-73602501D01*
X158085272Y-73585196D01*
X158145896Y-73524572D01*
X158163201Y-73510371D01*
X158234486Y-73462740D01*
X158239927Y-73459832D01*
X158239931Y-73459829D01*
X158248791Y-73455093D01*
X158248797Y-73455091D01*
X158254242Y-73452180D01*
X158333440Y-73419376D01*
X158354867Y-73412876D01*
X158438951Y-73396150D01*
X158461231Y-73393956D01*
X158479650Y-73393956D01*
X158491901Y-73393354D01*
X158510239Y-73391548D01*
X159047960Y-73391548D01*
X159064099Y-73393137D01*
X159064099Y-73393137D01*
G37*
G36*
X144001468Y-72949894D02*
G01*
X144067653Y-72956413D01*
X144237492Y-73007933D01*
X144394017Y-73091598D01*
X144429755Y-73120928D01*
X144531212Y-73204190D01*
X144614474Y-73305647D01*
X144643804Y-73341385D01*
X144643805Y-73341387D01*
X144692989Y-73433402D01*
X144727469Y-73497910D01*
X144778989Y-73667749D01*
X144796385Y-73844376D01*
X144778989Y-74021003D01*
X144727469Y-74190842D01*
X144643804Y-74347367D01*
X144614474Y-74383105D01*
X144531212Y-74484562D01*
X144429755Y-74567824D01*
X144394017Y-74597154D01*
X144237492Y-74680819D01*
X144067653Y-74732339D01*
X144001468Y-74738858D01*
X143935286Y-74745376D01*
X143846766Y-74745376D01*
X143780584Y-74738858D01*
X143714399Y-74732339D01*
X143544560Y-74680819D01*
X143388035Y-74597154D01*
X143352297Y-74567824D01*
X143250840Y-74484562D01*
X143167578Y-74383105D01*
X143138248Y-74347367D01*
X143054583Y-74190842D01*
X143003063Y-74021003D01*
X142985667Y-73844376D01*
X143003063Y-73667749D01*
X143054583Y-73497910D01*
X143089064Y-73433402D01*
X143138247Y-73341387D01*
X143138248Y-73341385D01*
X143167578Y-73305647D01*
X143250840Y-73204190D01*
X143352297Y-73120928D01*
X143388035Y-73091598D01*
X143544560Y-73007933D01*
X143714399Y-72956413D01*
X143780584Y-72949894D01*
X143846766Y-72943376D01*
X143935286Y-72943376D01*
X144001468Y-72949894D01*
X144001468Y-72949894D01*
G37*
G36*
X170561200Y-74015800D02*
G01*
X168935200Y-74015800D01*
X168935200Y-72389800D01*
X170561200Y-72389800D01*
X170561200Y-74015800D01*
X170561200Y-74015800D01*
G37*
G36*
X144004538Y-70408303D02*
G01*
X144153838Y-70438000D01*
X144317810Y-70505920D01*
X144465380Y-70604523D01*
X144590879Y-70730022D01*
X144689482Y-70877592D01*
X144757402Y-71041564D01*
X144792026Y-71215635D01*
X144792026Y-71393117D01*
X144757402Y-71567188D01*
X144689482Y-71731160D01*
X144590879Y-71878730D01*
X144465380Y-72004229D01*
X144317810Y-72102832D01*
X144153838Y-72170752D01*
X144004538Y-72200449D01*
X143979768Y-72205376D01*
X143802284Y-72205376D01*
X143777514Y-72200449D01*
X143628214Y-72170752D01*
X143464242Y-72102832D01*
X143316672Y-72004229D01*
X143191173Y-71878730D01*
X143092570Y-71731160D01*
X143024650Y-71567188D01*
X142990026Y-71393117D01*
X142990026Y-71215635D01*
X143024650Y-71041564D01*
X143092570Y-70877592D01*
X143191173Y-70730022D01*
X143316672Y-70604523D01*
X143464242Y-70505920D01*
X143628214Y-70438000D01*
X143777514Y-70408303D01*
X143802284Y-70403376D01*
X143979768Y-70403376D01*
X144004538Y-70408303D01*
X144004538Y-70408303D01*
G37*
G36*
X161750773Y-67955297D02*
G01*
X161830402Y-67963140D01*
X161983653Y-68009628D01*
X161983656Y-68009629D01*
X162124889Y-68085120D01*
X162248685Y-68186717D01*
X162350282Y-68310513D01*
X162425773Y-68451746D01*
X162425774Y-68451749D01*
X162472262Y-68605000D01*
X162487959Y-68764376D01*
X162472262Y-68923752D01*
X162425774Y-69077003D01*
X162425773Y-69077006D01*
X162350282Y-69218239D01*
X162248685Y-69342035D01*
X162124889Y-69443632D01*
X161983656Y-69519123D01*
X161983653Y-69519124D01*
X161830402Y-69565612D01*
X161750773Y-69573455D01*
X161710960Y-69577376D01*
X161631092Y-69577376D01*
X161591279Y-69573455D01*
X161511650Y-69565612D01*
X161358399Y-69519124D01*
X161358396Y-69519123D01*
X161217163Y-69443632D01*
X161093367Y-69342035D01*
X160991770Y-69218239D01*
X160916279Y-69077006D01*
X160916278Y-69077003D01*
X160869790Y-68923752D01*
X160854093Y-68764376D01*
X160869790Y-68605000D01*
X160916278Y-68451749D01*
X160916279Y-68451746D01*
X160991770Y-68310513D01*
X161093367Y-68186717D01*
X161217163Y-68085120D01*
X161358396Y-68009629D01*
X161358399Y-68009628D01*
X161511650Y-67963140D01*
X161591279Y-67955297D01*
X161631092Y-67951376D01*
X161710960Y-67951376D01*
X161750773Y-67955297D01*
X161750773Y-67955297D01*
G37*
G36*
X146510773Y-67955297D02*
G01*
X146590402Y-67963140D01*
X146743653Y-68009628D01*
X146743656Y-68009629D01*
X146884889Y-68085120D01*
X147008685Y-68186717D01*
X147110282Y-68310513D01*
X147185773Y-68451746D01*
X147185774Y-68451749D01*
X147232262Y-68605000D01*
X147247959Y-68764376D01*
X147232262Y-68923752D01*
X147185774Y-69077003D01*
X147185773Y-69077006D01*
X147110282Y-69218239D01*
X147008685Y-69342035D01*
X146884889Y-69443632D01*
X146743656Y-69519123D01*
X146743653Y-69519124D01*
X146590402Y-69565612D01*
X146510773Y-69573455D01*
X146470960Y-69577376D01*
X146391092Y-69577376D01*
X146351279Y-69573455D01*
X146271650Y-69565612D01*
X146118399Y-69519124D01*
X146118396Y-69519123D01*
X145977163Y-69443632D01*
X145853367Y-69342035D01*
X145751770Y-69218239D01*
X145676279Y-69077006D01*
X145676278Y-69077003D01*
X145629790Y-68923752D01*
X145614093Y-68764376D01*
X145629790Y-68605000D01*
X145676278Y-68451749D01*
X145676279Y-68451746D01*
X145751770Y-68310513D01*
X145853367Y-68186717D01*
X145977163Y-68085120D01*
X146118396Y-68009629D01*
X146118399Y-68009628D01*
X146271650Y-67963140D01*
X146351279Y-67955297D01*
X146391092Y-67951376D01*
X146470960Y-67951376D01*
X146510773Y-67955297D01*
X146510773Y-67955297D01*
G37*
G36*
X149050773Y-67955297D02*
G01*
X149130402Y-67963140D01*
X149283653Y-68009628D01*
X149283656Y-68009629D01*
X149424889Y-68085120D01*
X149548685Y-68186717D01*
X149650282Y-68310513D01*
X149725773Y-68451746D01*
X149725774Y-68451749D01*
X149772262Y-68605000D01*
X149787959Y-68764376D01*
X149772262Y-68923752D01*
X149725774Y-69077003D01*
X149725773Y-69077006D01*
X149650282Y-69218239D01*
X149548685Y-69342035D01*
X149424889Y-69443632D01*
X149283656Y-69519123D01*
X149283653Y-69519124D01*
X149130402Y-69565612D01*
X149050773Y-69573455D01*
X149010960Y-69577376D01*
X148931092Y-69577376D01*
X148891279Y-69573455D01*
X148811650Y-69565612D01*
X148658399Y-69519124D01*
X148658396Y-69519123D01*
X148517163Y-69443632D01*
X148393367Y-69342035D01*
X148291770Y-69218239D01*
X148216279Y-69077006D01*
X148216278Y-69077003D01*
X148169790Y-68923752D01*
X148154093Y-68764376D01*
X148169790Y-68605000D01*
X148216278Y-68451749D01*
X148216279Y-68451746D01*
X148291770Y-68310513D01*
X148393367Y-68186717D01*
X148517163Y-68085120D01*
X148658396Y-68009629D01*
X148658399Y-68009628D01*
X148811650Y-67963140D01*
X148891279Y-67955297D01*
X148931092Y-67951376D01*
X149010960Y-67951376D01*
X149050773Y-67955297D01*
X149050773Y-67955297D01*
G37*
G36*
X151590773Y-67955297D02*
G01*
X151670402Y-67963140D01*
X151823653Y-68009628D01*
X151823656Y-68009629D01*
X151964889Y-68085120D01*
X152088685Y-68186717D01*
X152190282Y-68310513D01*
X152265773Y-68451746D01*
X152265774Y-68451749D01*
X152312262Y-68605000D01*
X152327959Y-68764376D01*
X152312262Y-68923752D01*
X152265774Y-69077003D01*
X152265773Y-69077006D01*
X152190282Y-69218239D01*
X152088685Y-69342035D01*
X151964889Y-69443632D01*
X151823656Y-69519123D01*
X151823653Y-69519124D01*
X151670402Y-69565612D01*
X151590773Y-69573455D01*
X151550960Y-69577376D01*
X151471092Y-69577376D01*
X151431279Y-69573455D01*
X151351650Y-69565612D01*
X151198399Y-69519124D01*
X151198396Y-69519123D01*
X151057163Y-69443632D01*
X150933367Y-69342035D01*
X150831770Y-69218239D01*
X150756279Y-69077006D01*
X150756278Y-69077003D01*
X150709790Y-68923752D01*
X150694093Y-68764376D01*
X150709790Y-68605000D01*
X150756278Y-68451749D01*
X150756279Y-68451746D01*
X150831770Y-68310513D01*
X150933367Y-68186717D01*
X151057163Y-68085120D01*
X151198396Y-68009629D01*
X151198399Y-68009628D01*
X151351650Y-67963140D01*
X151431279Y-67955297D01*
X151471092Y-67951376D01*
X151550960Y-67951376D01*
X151590773Y-67955297D01*
X151590773Y-67955297D01*
G37*
G36*
X154130773Y-67955297D02*
G01*
X154210402Y-67963140D01*
X154363653Y-68009628D01*
X154363656Y-68009629D01*
X154504889Y-68085120D01*
X154628685Y-68186717D01*
X154730282Y-68310513D01*
X154805773Y-68451746D01*
X154805774Y-68451749D01*
X154852262Y-68605000D01*
X154867959Y-68764376D01*
X154852262Y-68923752D01*
X154805774Y-69077003D01*
X154805773Y-69077006D01*
X154730282Y-69218239D01*
X154628685Y-69342035D01*
X154504889Y-69443632D01*
X154363656Y-69519123D01*
X154363653Y-69519124D01*
X154210402Y-69565612D01*
X154130773Y-69573455D01*
X154090960Y-69577376D01*
X154011092Y-69577376D01*
X153971279Y-69573455D01*
X153891650Y-69565612D01*
X153738399Y-69519124D01*
X153738396Y-69519123D01*
X153597163Y-69443632D01*
X153473367Y-69342035D01*
X153371770Y-69218239D01*
X153296279Y-69077006D01*
X153296278Y-69077003D01*
X153249790Y-68923752D01*
X153234093Y-68764376D01*
X153249790Y-68605000D01*
X153296278Y-68451749D01*
X153296279Y-68451746D01*
X153371770Y-68310513D01*
X153473367Y-68186717D01*
X153597163Y-68085120D01*
X153738396Y-68009629D01*
X153738399Y-68009628D01*
X153891650Y-67963140D01*
X153971279Y-67955297D01*
X154011092Y-67951376D01*
X154090960Y-67951376D01*
X154130773Y-67955297D01*
X154130773Y-67955297D01*
G37*
G36*
X156670773Y-67955297D02*
G01*
X156750402Y-67963140D01*
X156903653Y-68009628D01*
X156903656Y-68009629D01*
X157044889Y-68085120D01*
X157168685Y-68186717D01*
X157270282Y-68310513D01*
X157345773Y-68451746D01*
X157345774Y-68451749D01*
X157392262Y-68605000D01*
X157407959Y-68764376D01*
X157392262Y-68923752D01*
X157345774Y-69077003D01*
X157345773Y-69077006D01*
X157270282Y-69218239D01*
X157168685Y-69342035D01*
X157044889Y-69443632D01*
X156903656Y-69519123D01*
X156903653Y-69519124D01*
X156750402Y-69565612D01*
X156670773Y-69573455D01*
X156630960Y-69577376D01*
X156551092Y-69577376D01*
X156511279Y-69573455D01*
X156431650Y-69565612D01*
X156278399Y-69519124D01*
X156278396Y-69519123D01*
X156137163Y-69443632D01*
X156013367Y-69342035D01*
X155911770Y-69218239D01*
X155836279Y-69077006D01*
X155836278Y-69077003D01*
X155789790Y-68923752D01*
X155774093Y-68764376D01*
X155789790Y-68605000D01*
X155836278Y-68451749D01*
X155836279Y-68451746D01*
X155911770Y-68310513D01*
X156013367Y-68186717D01*
X156137163Y-68085120D01*
X156278396Y-68009629D01*
X156278399Y-68009628D01*
X156431650Y-67963140D01*
X156511279Y-67955297D01*
X156551092Y-67951376D01*
X156630960Y-67951376D01*
X156670773Y-67955297D01*
X156670773Y-67955297D01*
G37*
G36*
X159210773Y-67955297D02*
G01*
X159290402Y-67963140D01*
X159443653Y-68009628D01*
X159443656Y-68009629D01*
X159584889Y-68085120D01*
X159708685Y-68186717D01*
X159810282Y-68310513D01*
X159885773Y-68451746D01*
X159885774Y-68451749D01*
X159932262Y-68605000D01*
X159947959Y-68764376D01*
X159932262Y-68923752D01*
X159885774Y-69077003D01*
X159885773Y-69077006D01*
X159810282Y-69218239D01*
X159708685Y-69342035D01*
X159584889Y-69443632D01*
X159443656Y-69519123D01*
X159443653Y-69519124D01*
X159290402Y-69565612D01*
X159210773Y-69573455D01*
X159170960Y-69577376D01*
X159091092Y-69577376D01*
X159051279Y-69573455D01*
X158971650Y-69565612D01*
X158818399Y-69519124D01*
X158818396Y-69519123D01*
X158677163Y-69443632D01*
X158553367Y-69342035D01*
X158451770Y-69218239D01*
X158376279Y-69077006D01*
X158376278Y-69077003D01*
X158329790Y-68923752D01*
X158314093Y-68764376D01*
X158329790Y-68605000D01*
X158376278Y-68451749D01*
X158376279Y-68451746D01*
X158451770Y-68310513D01*
X158553367Y-68186717D01*
X158677163Y-68085120D01*
X158818396Y-68009629D01*
X158818399Y-68009628D01*
X158971650Y-67963140D01*
X159051279Y-67955297D01*
X159091092Y-67951376D01*
X159170960Y-67951376D01*
X159210773Y-67955297D01*
X159210773Y-67955297D01*
G37*
G36*
X164290773Y-67955297D02*
G01*
X164370402Y-67963140D01*
X164523653Y-68009628D01*
X164523656Y-68009629D01*
X164664889Y-68085120D01*
X164788685Y-68186717D01*
X164890282Y-68310513D01*
X164965773Y-68451746D01*
X164965774Y-68451749D01*
X165012262Y-68605000D01*
X165027959Y-68764376D01*
X165012262Y-68923752D01*
X164965774Y-69077003D01*
X164965773Y-69077006D01*
X164890282Y-69218239D01*
X164788685Y-69342035D01*
X164664889Y-69443632D01*
X164523656Y-69519123D01*
X164523653Y-69519124D01*
X164370402Y-69565612D01*
X164290773Y-69573455D01*
X164250960Y-69577376D01*
X164171092Y-69577376D01*
X164131279Y-69573455D01*
X164051650Y-69565612D01*
X163898399Y-69519124D01*
X163898396Y-69519123D01*
X163757163Y-69443632D01*
X163633367Y-69342035D01*
X163531770Y-69218239D01*
X163456279Y-69077006D01*
X163456278Y-69077003D01*
X163409790Y-68923752D01*
X163394093Y-68764376D01*
X163409790Y-68605000D01*
X163456278Y-68451749D01*
X163456279Y-68451746D01*
X163531770Y-68310513D01*
X163633367Y-68186717D01*
X163757163Y-68085120D01*
X163898396Y-68009629D01*
X163898399Y-68009628D01*
X164051650Y-67963140D01*
X164131279Y-67955297D01*
X164171092Y-67951376D01*
X164250960Y-67951376D01*
X164290773Y-67955297D01*
X164290773Y-67955297D01*
G37*
G36*
X166830773Y-67955297D02*
G01*
X166910402Y-67963140D01*
X167063653Y-68009628D01*
X167063656Y-68009629D01*
X167204889Y-68085120D01*
X167328685Y-68186717D01*
X167430282Y-68310513D01*
X167505773Y-68451746D01*
X167505774Y-68451749D01*
X167552262Y-68605000D01*
X167567959Y-68764376D01*
X167552262Y-68923752D01*
X167505774Y-69077003D01*
X167505773Y-69077006D01*
X167430282Y-69218239D01*
X167328685Y-69342035D01*
X167204889Y-69443632D01*
X167063656Y-69519123D01*
X167063653Y-69519124D01*
X166910402Y-69565612D01*
X166830773Y-69573455D01*
X166790960Y-69577376D01*
X166711092Y-69577376D01*
X166671279Y-69573455D01*
X166591650Y-69565612D01*
X166438399Y-69519124D01*
X166438396Y-69519123D01*
X166297163Y-69443632D01*
X166173367Y-69342035D01*
X166071770Y-69218239D01*
X165996279Y-69077006D01*
X165996278Y-69077003D01*
X165949790Y-68923752D01*
X165934093Y-68764376D01*
X165949790Y-68605000D01*
X165996278Y-68451749D01*
X165996279Y-68451746D01*
X166071770Y-68310513D01*
X166173367Y-68186717D01*
X166297163Y-68085120D01*
X166438396Y-68009629D01*
X166438399Y-68009628D01*
X166591650Y-67963140D01*
X166671279Y-67955297D01*
X166711092Y-67951376D01*
X166790960Y-67951376D01*
X166830773Y-67955297D01*
X166830773Y-67955297D01*
G37*
G36*
X144704026Y-69577376D02*
G01*
X143078026Y-69577376D01*
X143078026Y-67951376D01*
X144704026Y-67951376D01*
X144704026Y-69577376D01*
X144704026Y-69577376D01*
G37*
G36*
X169370773Y-67955297D02*
G01*
X169450402Y-67963140D01*
X169603653Y-68009628D01*
X169603656Y-68009629D01*
X169744889Y-68085120D01*
X169868685Y-68186717D01*
X169970282Y-68310513D01*
X170045773Y-68451746D01*
X170045774Y-68451749D01*
X170092262Y-68605000D01*
X170107959Y-68764376D01*
X170092262Y-68923752D01*
X170045774Y-69077003D01*
X170045773Y-69077006D01*
X169970282Y-69218239D01*
X169868685Y-69342035D01*
X169744889Y-69443632D01*
X169603656Y-69519123D01*
X169603653Y-69519124D01*
X169450402Y-69565612D01*
X169370773Y-69573455D01*
X169330960Y-69577376D01*
X169251092Y-69577376D01*
X169211279Y-69573455D01*
X169131650Y-69565612D01*
X168978399Y-69519124D01*
X168978396Y-69519123D01*
X168837163Y-69443632D01*
X168713367Y-69342035D01*
X168611770Y-69218239D01*
X168536279Y-69077006D01*
X168536278Y-69077003D01*
X168489790Y-68923752D01*
X168474093Y-68764376D01*
X168489790Y-68605000D01*
X168536278Y-68451749D01*
X168536279Y-68451746D01*
X168611770Y-68310513D01*
X168713367Y-68186717D01*
X168837163Y-68085120D01*
X168978396Y-68009629D01*
X168978399Y-68009628D01*
X169131650Y-67963140D01*
X169211279Y-67955297D01*
X169251092Y-67951376D01*
X169330960Y-67951376D01*
X169370773Y-67955297D01*
X169370773Y-67955297D01*
G37*
G36*
X171910773Y-67955297D02*
G01*
X171990402Y-67963140D01*
X172143653Y-68009628D01*
X172143656Y-68009629D01*
X172284889Y-68085120D01*
X172408685Y-68186717D01*
X172510282Y-68310513D01*
X172585773Y-68451746D01*
X172585774Y-68451749D01*
X172632262Y-68605000D01*
X172647959Y-68764376D01*
X172632262Y-68923752D01*
X172585774Y-69077003D01*
X172585773Y-69077006D01*
X172510282Y-69218239D01*
X172408685Y-69342035D01*
X172284889Y-69443632D01*
X172143656Y-69519123D01*
X172143653Y-69519124D01*
X171990402Y-69565612D01*
X171910773Y-69573455D01*
X171870960Y-69577376D01*
X171791092Y-69577376D01*
X171751279Y-69573455D01*
X171671650Y-69565612D01*
X171518399Y-69519124D01*
X171518396Y-69519123D01*
X171377163Y-69443632D01*
X171253367Y-69342035D01*
X171151770Y-69218239D01*
X171076279Y-69077006D01*
X171076278Y-69077003D01*
X171029790Y-68923752D01*
X171014093Y-68764376D01*
X171029790Y-68605000D01*
X171076278Y-68451749D01*
X171076279Y-68451746D01*
X171151770Y-68310513D01*
X171253367Y-68186717D01*
X171377163Y-68085120D01*
X171518396Y-68009629D01*
X171518399Y-68009628D01*
X171671650Y-67963140D01*
X171751279Y-67955297D01*
X171791092Y-67951376D01*
X171870960Y-67951376D01*
X171910773Y-67955297D01*
X171910773Y-67955297D01*
G37*
G36*
X143434000Y-67037376D02*
G01*
X141808000Y-67037376D01*
X141808000Y-65411376D01*
X143434000Y-65411376D01*
X143434000Y-67037376D01*
X143434000Y-67037376D01*
G37*
G36*
X170640747Y-65415297D02*
G01*
X170720376Y-65423140D01*
X170873627Y-65469628D01*
X170873630Y-65469629D01*
X171014863Y-65545120D01*
X171138659Y-65646717D01*
X171240256Y-65770513D01*
X171315747Y-65911746D01*
X171315748Y-65911749D01*
X171362236Y-66065000D01*
X171377933Y-66224376D01*
X171362236Y-66383752D01*
X171315748Y-66537003D01*
X171315747Y-66537006D01*
X171240256Y-66678239D01*
X171138659Y-66802035D01*
X171014863Y-66903632D01*
X170873630Y-66979123D01*
X170873627Y-66979124D01*
X170720376Y-67025612D01*
X170640747Y-67033455D01*
X170600934Y-67037376D01*
X170521066Y-67037376D01*
X170481253Y-67033455D01*
X170401624Y-67025612D01*
X170248373Y-66979124D01*
X170248370Y-66979123D01*
X170107137Y-66903632D01*
X169983341Y-66802035D01*
X169881744Y-66678239D01*
X169806253Y-66537006D01*
X169806252Y-66537003D01*
X169759764Y-66383752D01*
X169744067Y-66224376D01*
X169759764Y-66065000D01*
X169806252Y-65911749D01*
X169806253Y-65911746D01*
X169881744Y-65770513D01*
X169983341Y-65646717D01*
X170107137Y-65545120D01*
X170248370Y-65469629D01*
X170248373Y-65469628D01*
X170401624Y-65423140D01*
X170481253Y-65415297D01*
X170521066Y-65411376D01*
X170600934Y-65411376D01*
X170640747Y-65415297D01*
X170640747Y-65415297D01*
G37*
G36*
X168100747Y-65415297D02*
G01*
X168180376Y-65423140D01*
X168333627Y-65469628D01*
X168333630Y-65469629D01*
X168474863Y-65545120D01*
X168598659Y-65646717D01*
X168700256Y-65770513D01*
X168775747Y-65911746D01*
X168775748Y-65911749D01*
X168822236Y-66065000D01*
X168837933Y-66224376D01*
X168822236Y-66383752D01*
X168775748Y-66537003D01*
X168775747Y-66537006D01*
X168700256Y-66678239D01*
X168598659Y-66802035D01*
X168474863Y-66903632D01*
X168333630Y-66979123D01*
X168333627Y-66979124D01*
X168180376Y-67025612D01*
X168100747Y-67033455D01*
X168060934Y-67037376D01*
X167981066Y-67037376D01*
X167941253Y-67033455D01*
X167861624Y-67025612D01*
X167708373Y-66979124D01*
X167708370Y-66979123D01*
X167567137Y-66903632D01*
X167443341Y-66802035D01*
X167341744Y-66678239D01*
X167266253Y-66537006D01*
X167266252Y-66537003D01*
X167219764Y-66383752D01*
X167204067Y-66224376D01*
X167219764Y-66065000D01*
X167266252Y-65911749D01*
X167266253Y-65911746D01*
X167341744Y-65770513D01*
X167443341Y-65646717D01*
X167567137Y-65545120D01*
X167708370Y-65469629D01*
X167708373Y-65469628D01*
X167861624Y-65423140D01*
X167941253Y-65415297D01*
X167981066Y-65411376D01*
X168060934Y-65411376D01*
X168100747Y-65415297D01*
X168100747Y-65415297D01*
G37*
G36*
X165560747Y-65415297D02*
G01*
X165640376Y-65423140D01*
X165793627Y-65469628D01*
X165793630Y-65469629D01*
X165934863Y-65545120D01*
X166058659Y-65646717D01*
X166160256Y-65770513D01*
X166235747Y-65911746D01*
X166235748Y-65911749D01*
X166282236Y-66065000D01*
X166297933Y-66224376D01*
X166282236Y-66383752D01*
X166235748Y-66537003D01*
X166235747Y-66537006D01*
X166160256Y-66678239D01*
X166058659Y-66802035D01*
X165934863Y-66903632D01*
X165793630Y-66979123D01*
X165793627Y-66979124D01*
X165640376Y-67025612D01*
X165560747Y-67033455D01*
X165520934Y-67037376D01*
X165441066Y-67037376D01*
X165401253Y-67033455D01*
X165321624Y-67025612D01*
X165168373Y-66979124D01*
X165168370Y-66979123D01*
X165027137Y-66903632D01*
X164903341Y-66802035D01*
X164801744Y-66678239D01*
X164726253Y-66537006D01*
X164726252Y-66537003D01*
X164679764Y-66383752D01*
X164664067Y-66224376D01*
X164679764Y-66065000D01*
X164726252Y-65911749D01*
X164726253Y-65911746D01*
X164801744Y-65770513D01*
X164903341Y-65646717D01*
X165027137Y-65545120D01*
X165168370Y-65469629D01*
X165168373Y-65469628D01*
X165321624Y-65423140D01*
X165401253Y-65415297D01*
X165441066Y-65411376D01*
X165520934Y-65411376D01*
X165560747Y-65415297D01*
X165560747Y-65415297D01*
G37*
G36*
X163020747Y-65415297D02*
G01*
X163100376Y-65423140D01*
X163253627Y-65469628D01*
X163253630Y-65469629D01*
X163394863Y-65545120D01*
X163518659Y-65646717D01*
X163620256Y-65770513D01*
X163695747Y-65911746D01*
X163695748Y-65911749D01*
X163742236Y-66065000D01*
X163757933Y-66224376D01*
X163742236Y-66383752D01*
X163695748Y-66537003D01*
X163695747Y-66537006D01*
X163620256Y-66678239D01*
X163518659Y-66802035D01*
X163394863Y-66903632D01*
X163253630Y-66979123D01*
X163253627Y-66979124D01*
X163100376Y-67025612D01*
X163020747Y-67033455D01*
X162980934Y-67037376D01*
X162901066Y-67037376D01*
X162861253Y-67033455D01*
X162781624Y-67025612D01*
X162628373Y-66979124D01*
X162628370Y-66979123D01*
X162487137Y-66903632D01*
X162363341Y-66802035D01*
X162261744Y-66678239D01*
X162186253Y-66537006D01*
X162186252Y-66537003D01*
X162139764Y-66383752D01*
X162124067Y-66224376D01*
X162139764Y-66065000D01*
X162186252Y-65911749D01*
X162186253Y-65911746D01*
X162261744Y-65770513D01*
X162363341Y-65646717D01*
X162487137Y-65545120D01*
X162628370Y-65469629D01*
X162628373Y-65469628D01*
X162781624Y-65423140D01*
X162861253Y-65415297D01*
X162901066Y-65411376D01*
X162980934Y-65411376D01*
X163020747Y-65415297D01*
X163020747Y-65415297D01*
G37*
G36*
X157940747Y-65415297D02*
G01*
X158020376Y-65423140D01*
X158173627Y-65469628D01*
X158173630Y-65469629D01*
X158314863Y-65545120D01*
X158438659Y-65646717D01*
X158540256Y-65770513D01*
X158615747Y-65911746D01*
X158615748Y-65911749D01*
X158662236Y-66065000D01*
X158677933Y-66224376D01*
X158662236Y-66383752D01*
X158615748Y-66537003D01*
X158615747Y-66537006D01*
X158540256Y-66678239D01*
X158438659Y-66802035D01*
X158314863Y-66903632D01*
X158173630Y-66979123D01*
X158173627Y-66979124D01*
X158020376Y-67025612D01*
X157940747Y-67033455D01*
X157900934Y-67037376D01*
X157821066Y-67037376D01*
X157781253Y-67033455D01*
X157701624Y-67025612D01*
X157548373Y-66979124D01*
X157548370Y-66979123D01*
X157407137Y-66903632D01*
X157283341Y-66802035D01*
X157181744Y-66678239D01*
X157106253Y-66537006D01*
X157106252Y-66537003D01*
X157059764Y-66383752D01*
X157044067Y-66224376D01*
X157059764Y-66065000D01*
X157106252Y-65911749D01*
X157106253Y-65911746D01*
X157181744Y-65770513D01*
X157283341Y-65646717D01*
X157407137Y-65545120D01*
X157548370Y-65469629D01*
X157548373Y-65469628D01*
X157701624Y-65423140D01*
X157781253Y-65415297D01*
X157821066Y-65411376D01*
X157900934Y-65411376D01*
X157940747Y-65415297D01*
X157940747Y-65415297D01*
G37*
G36*
X152860747Y-65415297D02*
G01*
X152940376Y-65423140D01*
X153093627Y-65469628D01*
X153093630Y-65469629D01*
X153234863Y-65545120D01*
X153358659Y-65646717D01*
X153460256Y-65770513D01*
X153535747Y-65911746D01*
X153535748Y-65911749D01*
X153582236Y-66065000D01*
X153597933Y-66224376D01*
X153582236Y-66383752D01*
X153535748Y-66537003D01*
X153535747Y-66537006D01*
X153460256Y-66678239D01*
X153358659Y-66802035D01*
X153234863Y-66903632D01*
X153093630Y-66979123D01*
X153093627Y-66979124D01*
X152940376Y-67025612D01*
X152860747Y-67033455D01*
X152820934Y-67037376D01*
X152741066Y-67037376D01*
X152701253Y-67033455D01*
X152621624Y-67025612D01*
X152468373Y-66979124D01*
X152468370Y-66979123D01*
X152327137Y-66903632D01*
X152203341Y-66802035D01*
X152101744Y-66678239D01*
X152026253Y-66537006D01*
X152026252Y-66537003D01*
X151979764Y-66383752D01*
X151964067Y-66224376D01*
X151979764Y-66065000D01*
X152026252Y-65911749D01*
X152026253Y-65911746D01*
X152101744Y-65770513D01*
X152203341Y-65646717D01*
X152327137Y-65545120D01*
X152468370Y-65469629D01*
X152468373Y-65469628D01*
X152621624Y-65423140D01*
X152701253Y-65415297D01*
X152741066Y-65411376D01*
X152820934Y-65411376D01*
X152860747Y-65415297D01*
X152860747Y-65415297D01*
G37*
G36*
X150320747Y-65415297D02*
G01*
X150400376Y-65423140D01*
X150553627Y-65469628D01*
X150553630Y-65469629D01*
X150694863Y-65545120D01*
X150818659Y-65646717D01*
X150920256Y-65770513D01*
X150995747Y-65911746D01*
X150995748Y-65911749D01*
X151042236Y-66065000D01*
X151057933Y-66224376D01*
X151042236Y-66383752D01*
X150995748Y-66537003D01*
X150995747Y-66537006D01*
X150920256Y-66678239D01*
X150818659Y-66802035D01*
X150694863Y-66903632D01*
X150553630Y-66979123D01*
X150553627Y-66979124D01*
X150400376Y-67025612D01*
X150320747Y-67033455D01*
X150280934Y-67037376D01*
X150201066Y-67037376D01*
X150161253Y-67033455D01*
X150081624Y-67025612D01*
X149928373Y-66979124D01*
X149928370Y-66979123D01*
X149787137Y-66903632D01*
X149663341Y-66802035D01*
X149561744Y-66678239D01*
X149486253Y-66537006D01*
X149486252Y-66537003D01*
X149439764Y-66383752D01*
X149424067Y-66224376D01*
X149439764Y-66065000D01*
X149486252Y-65911749D01*
X149486253Y-65911746D01*
X149561744Y-65770513D01*
X149663341Y-65646717D01*
X149787137Y-65545120D01*
X149928370Y-65469629D01*
X149928373Y-65469628D01*
X150081624Y-65423140D01*
X150161253Y-65415297D01*
X150201066Y-65411376D01*
X150280934Y-65411376D01*
X150320747Y-65415297D01*
X150320747Y-65415297D01*
G37*
G36*
X147780747Y-65415297D02*
G01*
X147860376Y-65423140D01*
X148013627Y-65469628D01*
X148013630Y-65469629D01*
X148154863Y-65545120D01*
X148278659Y-65646717D01*
X148380256Y-65770513D01*
X148455747Y-65911746D01*
X148455748Y-65911749D01*
X148502236Y-66065000D01*
X148517933Y-66224376D01*
X148502236Y-66383752D01*
X148455748Y-66537003D01*
X148455747Y-66537006D01*
X148380256Y-66678239D01*
X148278659Y-66802035D01*
X148154863Y-66903632D01*
X148013630Y-66979123D01*
X148013627Y-66979124D01*
X147860376Y-67025612D01*
X147780747Y-67033455D01*
X147740934Y-67037376D01*
X147661066Y-67037376D01*
X147621253Y-67033455D01*
X147541624Y-67025612D01*
X147388373Y-66979124D01*
X147388370Y-66979123D01*
X147247137Y-66903632D01*
X147123341Y-66802035D01*
X147021744Y-66678239D01*
X146946253Y-66537006D01*
X146946252Y-66537003D01*
X146899764Y-66383752D01*
X146884067Y-66224376D01*
X146899764Y-66065000D01*
X146946252Y-65911749D01*
X146946253Y-65911746D01*
X147021744Y-65770513D01*
X147123341Y-65646717D01*
X147247137Y-65545120D01*
X147388370Y-65469629D01*
X147388373Y-65469628D01*
X147541624Y-65423140D01*
X147621253Y-65415297D01*
X147661066Y-65411376D01*
X147740934Y-65411376D01*
X147780747Y-65415297D01*
X147780747Y-65415297D01*
G37*
G36*
X145240747Y-65415297D02*
G01*
X145320376Y-65423140D01*
X145473627Y-65469628D01*
X145473630Y-65469629D01*
X145614863Y-65545120D01*
X145738659Y-65646717D01*
X145840256Y-65770513D01*
X145915747Y-65911746D01*
X145915748Y-65911749D01*
X145962236Y-66065000D01*
X145977933Y-66224376D01*
X145962236Y-66383752D01*
X145915748Y-66537003D01*
X145915747Y-66537006D01*
X145840256Y-66678239D01*
X145738659Y-66802035D01*
X145614863Y-66903632D01*
X145473630Y-66979123D01*
X145473627Y-66979124D01*
X145320376Y-67025612D01*
X145240747Y-67033455D01*
X145200934Y-67037376D01*
X145121066Y-67037376D01*
X145081253Y-67033455D01*
X145001624Y-67025612D01*
X144848373Y-66979124D01*
X144848370Y-66979123D01*
X144707137Y-66903632D01*
X144583341Y-66802035D01*
X144481744Y-66678239D01*
X144406253Y-66537006D01*
X144406252Y-66537003D01*
X144359764Y-66383752D01*
X144344067Y-66224376D01*
X144359764Y-66065000D01*
X144406252Y-65911749D01*
X144406253Y-65911746D01*
X144481744Y-65770513D01*
X144583341Y-65646717D01*
X144707137Y-65545120D01*
X144848370Y-65469629D01*
X144848373Y-65469628D01*
X145001624Y-65423140D01*
X145081253Y-65415297D01*
X145121066Y-65411376D01*
X145200934Y-65411376D01*
X145240747Y-65415297D01*
X145240747Y-65415297D01*
G37*
G36*
X160480747Y-65415297D02*
G01*
X160560376Y-65423140D01*
X160713627Y-65469628D01*
X160713630Y-65469629D01*
X160854863Y-65545120D01*
X160978659Y-65646717D01*
X161080256Y-65770513D01*
X161155747Y-65911746D01*
X161155748Y-65911749D01*
X161202236Y-66065000D01*
X161217933Y-66224376D01*
X161202236Y-66383752D01*
X161155748Y-66537003D01*
X161155747Y-66537006D01*
X161080256Y-66678239D01*
X160978659Y-66802035D01*
X160854863Y-66903632D01*
X160713630Y-66979123D01*
X160713627Y-66979124D01*
X160560376Y-67025612D01*
X160480747Y-67033455D01*
X160440934Y-67037376D01*
X160361066Y-67037376D01*
X160321253Y-67033455D01*
X160241624Y-67025612D01*
X160088373Y-66979124D01*
X160088370Y-66979123D01*
X159947137Y-66903632D01*
X159823341Y-66802035D01*
X159721744Y-66678239D01*
X159646253Y-66537006D01*
X159646252Y-66537003D01*
X159599764Y-66383752D01*
X159584067Y-66224376D01*
X159599764Y-66065000D01*
X159646252Y-65911749D01*
X159646253Y-65911746D01*
X159721744Y-65770513D01*
X159823341Y-65646717D01*
X159947137Y-65545120D01*
X160088370Y-65469629D01*
X160088373Y-65469628D01*
X160241624Y-65423140D01*
X160321253Y-65415297D01*
X160361066Y-65411376D01*
X160440934Y-65411376D01*
X160480747Y-65415297D01*
X160480747Y-65415297D01*
G37*
G36*
X155400747Y-65415297D02*
G01*
X155480376Y-65423140D01*
X155633627Y-65469628D01*
X155633630Y-65469629D01*
X155774863Y-65545120D01*
X155898659Y-65646717D01*
X156000256Y-65770513D01*
X156075747Y-65911746D01*
X156075748Y-65911749D01*
X156122236Y-66065000D01*
X156137933Y-66224376D01*
X156122236Y-66383752D01*
X156075748Y-66537003D01*
X156075747Y-66537006D01*
X156000256Y-66678239D01*
X155898659Y-66802035D01*
X155774863Y-66903632D01*
X155633630Y-66979123D01*
X155633627Y-66979124D01*
X155480376Y-67025612D01*
X155400747Y-67033455D01*
X155360934Y-67037376D01*
X155281066Y-67037376D01*
X155241253Y-67033455D01*
X155161624Y-67025612D01*
X155008373Y-66979124D01*
X155008370Y-66979123D01*
X154867137Y-66903632D01*
X154743341Y-66802035D01*
X154641744Y-66678239D01*
X154566253Y-66537006D01*
X154566252Y-66537003D01*
X154519764Y-66383752D01*
X154504067Y-66224376D01*
X154519764Y-66065000D01*
X154566252Y-65911749D01*
X154566253Y-65911746D01*
X154641744Y-65770513D01*
X154743341Y-65646717D01*
X154867137Y-65545120D01*
X155008370Y-65469629D01*
X155008373Y-65469628D01*
X155161624Y-65423140D01*
X155241253Y-65415297D01*
X155281066Y-65411376D01*
X155360934Y-65411376D01*
X155400747Y-65415297D01*
X155400747Y-65415297D01*
G37*
G36*
X156670773Y-62875297D02*
G01*
X156750402Y-62883140D01*
X156903653Y-62929628D01*
X156903656Y-62929629D01*
X157044889Y-63005120D01*
X157168685Y-63106717D01*
X157270282Y-63230513D01*
X157345773Y-63371746D01*
X157345774Y-63371749D01*
X157392262Y-63525000D01*
X157407959Y-63684376D01*
X157392262Y-63843752D01*
X157345774Y-63997003D01*
X157345773Y-63997006D01*
X157270282Y-64138239D01*
X157168685Y-64262035D01*
X157044889Y-64363632D01*
X156903656Y-64439123D01*
X156903653Y-64439124D01*
X156750402Y-64485612D01*
X156670773Y-64493455D01*
X156630960Y-64497376D01*
X156551092Y-64497376D01*
X156511279Y-64493455D01*
X156431650Y-64485612D01*
X156278399Y-64439124D01*
X156278396Y-64439123D01*
X156137163Y-64363632D01*
X156013367Y-64262035D01*
X155911770Y-64138239D01*
X155836279Y-63997006D01*
X155836278Y-63997003D01*
X155789790Y-63843752D01*
X155774093Y-63684376D01*
X155789790Y-63525000D01*
X155836278Y-63371749D01*
X155836279Y-63371746D01*
X155911770Y-63230513D01*
X156013367Y-63106717D01*
X156137163Y-63005120D01*
X156278396Y-62929629D01*
X156278399Y-62929628D01*
X156431650Y-62883140D01*
X156511279Y-62875297D01*
X156551092Y-62871376D01*
X156630960Y-62871376D01*
X156670773Y-62875297D01*
X156670773Y-62875297D01*
G37*
G36*
X151590773Y-62875297D02*
G01*
X151670402Y-62883140D01*
X151823653Y-62929628D01*
X151823656Y-62929629D01*
X151964889Y-63005120D01*
X152088685Y-63106717D01*
X152190282Y-63230513D01*
X152265773Y-63371746D01*
X152265774Y-63371749D01*
X152312262Y-63525000D01*
X152327959Y-63684376D01*
X152312262Y-63843752D01*
X152265774Y-63997003D01*
X152265773Y-63997006D01*
X152190282Y-64138239D01*
X152088685Y-64262035D01*
X151964889Y-64363632D01*
X151823656Y-64439123D01*
X151823653Y-64439124D01*
X151670402Y-64485612D01*
X151590773Y-64493455D01*
X151550960Y-64497376D01*
X151471092Y-64497376D01*
X151431279Y-64493455D01*
X151351650Y-64485612D01*
X151198399Y-64439124D01*
X151198396Y-64439123D01*
X151057163Y-64363632D01*
X150933367Y-64262035D01*
X150831770Y-64138239D01*
X150756279Y-63997006D01*
X150756278Y-63997003D01*
X150709790Y-63843752D01*
X150694093Y-63684376D01*
X150709790Y-63525000D01*
X150756278Y-63371749D01*
X150756279Y-63371746D01*
X150831770Y-63230513D01*
X150933367Y-63106717D01*
X151057163Y-63005120D01*
X151198396Y-62929629D01*
X151198399Y-62929628D01*
X151351650Y-62883140D01*
X151431279Y-62875297D01*
X151471092Y-62871376D01*
X151550960Y-62871376D01*
X151590773Y-62875297D01*
X151590773Y-62875297D01*
G37*
G36*
X159210773Y-62875297D02*
G01*
X159290402Y-62883140D01*
X159443653Y-62929628D01*
X159443656Y-62929629D01*
X159584889Y-63005120D01*
X159708685Y-63106717D01*
X159810282Y-63230513D01*
X159885773Y-63371746D01*
X159885774Y-63371749D01*
X159932262Y-63525000D01*
X159947959Y-63684376D01*
X159932262Y-63843752D01*
X159885774Y-63997003D01*
X159885773Y-63997006D01*
X159810282Y-64138239D01*
X159708685Y-64262035D01*
X159584889Y-64363632D01*
X159443656Y-64439123D01*
X159443653Y-64439124D01*
X159290402Y-64485612D01*
X159210773Y-64493455D01*
X159170960Y-64497376D01*
X159091092Y-64497376D01*
X159051279Y-64493455D01*
X158971650Y-64485612D01*
X158818399Y-64439124D01*
X158818396Y-64439123D01*
X158677163Y-64363632D01*
X158553367Y-64262035D01*
X158451770Y-64138239D01*
X158376279Y-63997006D01*
X158376278Y-63997003D01*
X158329790Y-63843752D01*
X158314093Y-63684376D01*
X158329790Y-63525000D01*
X158376278Y-63371749D01*
X158376279Y-63371746D01*
X158451770Y-63230513D01*
X158553367Y-63106717D01*
X158677163Y-63005120D01*
X158818396Y-62929629D01*
X158818399Y-62929628D01*
X158971650Y-62883140D01*
X159051279Y-62875297D01*
X159091092Y-62871376D01*
X159170960Y-62871376D01*
X159210773Y-62875297D01*
X159210773Y-62875297D01*
G37*
G36*
X171910773Y-62875297D02*
G01*
X171990402Y-62883140D01*
X172143653Y-62929628D01*
X172143656Y-62929629D01*
X172284889Y-63005120D01*
X172408685Y-63106717D01*
X172510282Y-63230513D01*
X172585773Y-63371746D01*
X172585774Y-63371749D01*
X172632262Y-63525000D01*
X172647959Y-63684376D01*
X172632262Y-63843752D01*
X172585774Y-63997003D01*
X172585773Y-63997006D01*
X172510282Y-64138239D01*
X172408685Y-64262035D01*
X172284889Y-64363632D01*
X172143656Y-64439123D01*
X172143653Y-64439124D01*
X171990402Y-64485612D01*
X171910773Y-64493455D01*
X171870960Y-64497376D01*
X171791092Y-64497376D01*
X171751279Y-64493455D01*
X171671650Y-64485612D01*
X171518399Y-64439124D01*
X171518396Y-64439123D01*
X171377163Y-64363632D01*
X171253367Y-64262035D01*
X171151770Y-64138239D01*
X171076279Y-63997006D01*
X171076278Y-63997003D01*
X171029790Y-63843752D01*
X171014093Y-63684376D01*
X171029790Y-63525000D01*
X171076278Y-63371749D01*
X171076279Y-63371746D01*
X171151770Y-63230513D01*
X171253367Y-63106717D01*
X171377163Y-63005120D01*
X171518396Y-62929629D01*
X171518399Y-62929628D01*
X171671650Y-62883140D01*
X171751279Y-62875297D01*
X171791092Y-62871376D01*
X171870960Y-62871376D01*
X171910773Y-62875297D01*
X171910773Y-62875297D01*
G37*
G36*
X169370773Y-62875297D02*
G01*
X169450402Y-62883140D01*
X169603653Y-62929628D01*
X169603656Y-62929629D01*
X169744889Y-63005120D01*
X169868685Y-63106717D01*
X169970282Y-63230513D01*
X170045773Y-63371746D01*
X170045774Y-63371749D01*
X170092262Y-63525000D01*
X170107959Y-63684376D01*
X170092262Y-63843752D01*
X170045774Y-63997003D01*
X170045773Y-63997006D01*
X169970282Y-64138239D01*
X169868685Y-64262035D01*
X169744889Y-64363632D01*
X169603656Y-64439123D01*
X169603653Y-64439124D01*
X169450402Y-64485612D01*
X169370773Y-64493455D01*
X169330960Y-64497376D01*
X169251092Y-64497376D01*
X169211279Y-64493455D01*
X169131650Y-64485612D01*
X168978399Y-64439124D01*
X168978396Y-64439123D01*
X168837163Y-64363632D01*
X168713367Y-64262035D01*
X168611770Y-64138239D01*
X168536279Y-63997006D01*
X168536278Y-63997003D01*
X168489790Y-63843752D01*
X168474093Y-63684376D01*
X168489790Y-63525000D01*
X168536278Y-63371749D01*
X168536279Y-63371746D01*
X168611770Y-63230513D01*
X168713367Y-63106717D01*
X168837163Y-63005120D01*
X168978396Y-62929629D01*
X168978399Y-62929628D01*
X169131650Y-62883140D01*
X169211279Y-62875297D01*
X169251092Y-62871376D01*
X169330960Y-62871376D01*
X169370773Y-62875297D01*
X169370773Y-62875297D01*
G37*
G36*
X166830773Y-62875297D02*
G01*
X166910402Y-62883140D01*
X167063653Y-62929628D01*
X167063656Y-62929629D01*
X167204889Y-63005120D01*
X167328685Y-63106717D01*
X167430282Y-63230513D01*
X167505773Y-63371746D01*
X167505774Y-63371749D01*
X167552262Y-63525000D01*
X167567959Y-63684376D01*
X167552262Y-63843752D01*
X167505774Y-63997003D01*
X167505773Y-63997006D01*
X167430282Y-64138239D01*
X167328685Y-64262035D01*
X167204889Y-64363632D01*
X167063656Y-64439123D01*
X167063653Y-64439124D01*
X166910402Y-64485612D01*
X166830773Y-64493455D01*
X166790960Y-64497376D01*
X166711092Y-64497376D01*
X166671279Y-64493455D01*
X166591650Y-64485612D01*
X166438399Y-64439124D01*
X166438396Y-64439123D01*
X166297163Y-64363632D01*
X166173367Y-64262035D01*
X166071770Y-64138239D01*
X165996279Y-63997006D01*
X165996278Y-63997003D01*
X165949790Y-63843752D01*
X165934093Y-63684376D01*
X165949790Y-63525000D01*
X165996278Y-63371749D01*
X165996279Y-63371746D01*
X166071770Y-63230513D01*
X166173367Y-63106717D01*
X166297163Y-63005120D01*
X166438396Y-62929629D01*
X166438399Y-62929628D01*
X166591650Y-62883140D01*
X166671279Y-62875297D01*
X166711092Y-62871376D01*
X166790960Y-62871376D01*
X166830773Y-62875297D01*
X166830773Y-62875297D01*
G37*
G36*
X164290773Y-62875297D02*
G01*
X164370402Y-62883140D01*
X164523653Y-62929628D01*
X164523656Y-62929629D01*
X164664889Y-63005120D01*
X164788685Y-63106717D01*
X164890282Y-63230513D01*
X164965773Y-63371746D01*
X164965774Y-63371749D01*
X165012262Y-63525000D01*
X165027959Y-63684376D01*
X165012262Y-63843752D01*
X164965774Y-63997003D01*
X164965773Y-63997006D01*
X164890282Y-64138239D01*
X164788685Y-64262035D01*
X164664889Y-64363632D01*
X164523656Y-64439123D01*
X164523653Y-64439124D01*
X164370402Y-64485612D01*
X164290773Y-64493455D01*
X164250960Y-64497376D01*
X164171092Y-64497376D01*
X164131279Y-64493455D01*
X164051650Y-64485612D01*
X163898399Y-64439124D01*
X163898396Y-64439123D01*
X163757163Y-64363632D01*
X163633367Y-64262035D01*
X163531770Y-64138239D01*
X163456279Y-63997006D01*
X163456278Y-63997003D01*
X163409790Y-63843752D01*
X163394093Y-63684376D01*
X163409790Y-63525000D01*
X163456278Y-63371749D01*
X163456279Y-63371746D01*
X163531770Y-63230513D01*
X163633367Y-63106717D01*
X163757163Y-63005120D01*
X163898396Y-62929629D01*
X163898399Y-62929628D01*
X164051650Y-62883140D01*
X164131279Y-62875297D01*
X164171092Y-62871376D01*
X164250960Y-62871376D01*
X164290773Y-62875297D01*
X164290773Y-62875297D01*
G37*
G36*
X154130773Y-62875297D02*
G01*
X154210402Y-62883140D01*
X154363653Y-62929628D01*
X154363656Y-62929629D01*
X154504889Y-63005120D01*
X154628685Y-63106717D01*
X154730282Y-63230513D01*
X154805773Y-63371746D01*
X154805774Y-63371749D01*
X154852262Y-63525000D01*
X154867959Y-63684376D01*
X154852262Y-63843752D01*
X154805774Y-63997003D01*
X154805773Y-63997006D01*
X154730282Y-64138239D01*
X154628685Y-64262035D01*
X154504889Y-64363632D01*
X154363656Y-64439123D01*
X154363653Y-64439124D01*
X154210402Y-64485612D01*
X154130773Y-64493455D01*
X154090960Y-64497376D01*
X154011092Y-64497376D01*
X153971279Y-64493455D01*
X153891650Y-64485612D01*
X153738399Y-64439124D01*
X153738396Y-64439123D01*
X153597163Y-64363632D01*
X153473367Y-64262035D01*
X153371770Y-64138239D01*
X153296279Y-63997006D01*
X153296278Y-63997003D01*
X153249790Y-63843752D01*
X153234093Y-63684376D01*
X153249790Y-63525000D01*
X153296278Y-63371749D01*
X153296279Y-63371746D01*
X153371770Y-63230513D01*
X153473367Y-63106717D01*
X153597163Y-63005120D01*
X153738396Y-62929629D01*
X153738399Y-62929628D01*
X153891650Y-62883140D01*
X153971279Y-62875297D01*
X154011092Y-62871376D01*
X154090960Y-62871376D01*
X154130773Y-62875297D01*
X154130773Y-62875297D01*
G37*
G36*
X161750773Y-62875297D02*
G01*
X161830402Y-62883140D01*
X161983653Y-62929628D01*
X161983656Y-62929629D01*
X162124889Y-63005120D01*
X162248685Y-63106717D01*
X162350282Y-63230513D01*
X162425773Y-63371746D01*
X162425774Y-63371749D01*
X162472262Y-63525000D01*
X162487959Y-63684376D01*
X162472262Y-63843752D01*
X162425774Y-63997003D01*
X162425773Y-63997006D01*
X162350282Y-64138239D01*
X162248685Y-64262035D01*
X162124889Y-64363632D01*
X161983656Y-64439123D01*
X161983653Y-64439124D01*
X161830402Y-64485612D01*
X161750773Y-64493455D01*
X161710960Y-64497376D01*
X161631092Y-64497376D01*
X161591279Y-64493455D01*
X161511650Y-64485612D01*
X161358399Y-64439124D01*
X161358396Y-64439123D01*
X161217163Y-64363632D01*
X161093367Y-64262035D01*
X160991770Y-64138239D01*
X160916279Y-63997006D01*
X160916278Y-63997003D01*
X160869790Y-63843752D01*
X160854093Y-63684376D01*
X160869790Y-63525000D01*
X160916278Y-63371749D01*
X160916279Y-63371746D01*
X160991770Y-63230513D01*
X161093367Y-63106717D01*
X161217163Y-63005120D01*
X161358396Y-62929629D01*
X161358399Y-62929628D01*
X161511650Y-62883140D01*
X161591279Y-62875297D01*
X161631092Y-62871376D01*
X161710960Y-62871376D01*
X161750773Y-62875297D01*
X161750773Y-62875297D01*
G37*
G36*
X146510773Y-62875297D02*
G01*
X146590402Y-62883140D01*
X146743653Y-62929628D01*
X146743656Y-62929629D01*
X146884889Y-63005120D01*
X147008685Y-63106717D01*
X147110282Y-63230513D01*
X147185773Y-63371746D01*
X147185774Y-63371749D01*
X147232262Y-63525000D01*
X147247959Y-63684376D01*
X147232262Y-63843752D01*
X147185774Y-63997003D01*
X147185773Y-63997006D01*
X147110282Y-64138239D01*
X147008685Y-64262035D01*
X146884889Y-64363632D01*
X146743656Y-64439123D01*
X146743653Y-64439124D01*
X146590402Y-64485612D01*
X146510773Y-64493455D01*
X146470960Y-64497376D01*
X146391092Y-64497376D01*
X146351279Y-64493455D01*
X146271650Y-64485612D01*
X146118399Y-64439124D01*
X146118396Y-64439123D01*
X145977163Y-64363632D01*
X145853367Y-64262035D01*
X145751770Y-64138239D01*
X145676279Y-63997006D01*
X145676278Y-63997003D01*
X145629790Y-63843752D01*
X145614093Y-63684376D01*
X145629790Y-63525000D01*
X145676278Y-63371749D01*
X145676279Y-63371746D01*
X145751770Y-63230513D01*
X145853367Y-63106717D01*
X145977163Y-63005120D01*
X146118396Y-62929629D01*
X146118399Y-62929628D01*
X146271650Y-62883140D01*
X146351279Y-62875297D01*
X146391092Y-62871376D01*
X146470960Y-62871376D01*
X146510773Y-62875297D01*
X146510773Y-62875297D01*
G37*
G36*
X144704026Y-64497376D02*
G01*
X143078026Y-64497376D01*
X143078026Y-62871376D01*
X144704026Y-62871376D01*
X144704026Y-64497376D01*
X144704026Y-64497376D01*
G37*
G36*
X149050773Y-62875297D02*
G01*
X149130402Y-62883140D01*
X149283653Y-62929628D01*
X149283656Y-62929629D01*
X149424889Y-63005120D01*
X149548685Y-63106717D01*
X149650282Y-63230513D01*
X149725773Y-63371746D01*
X149725774Y-63371749D01*
X149772262Y-63525000D01*
X149787959Y-63684376D01*
X149772262Y-63843752D01*
X149725774Y-63997003D01*
X149725773Y-63997006D01*
X149650282Y-64138239D01*
X149548685Y-64262035D01*
X149424889Y-64363632D01*
X149283656Y-64439123D01*
X149283653Y-64439124D01*
X149130402Y-64485612D01*
X149050773Y-64493455D01*
X149010960Y-64497376D01*
X148931092Y-64497376D01*
X148891279Y-64493455D01*
X148811650Y-64485612D01*
X148658399Y-64439124D01*
X148658396Y-64439123D01*
X148517163Y-64363632D01*
X148393367Y-64262035D01*
X148291770Y-64138239D01*
X148216279Y-63997006D01*
X148216278Y-63997003D01*
X148169790Y-63843752D01*
X148154093Y-63684376D01*
X148169790Y-63525000D01*
X148216278Y-63371749D01*
X148216279Y-63371746D01*
X148291770Y-63230513D01*
X148393367Y-63106717D01*
X148517163Y-63005120D01*
X148658396Y-62929629D01*
X148658399Y-62929628D01*
X148811650Y-62883140D01*
X148891279Y-62875297D01*
X148931092Y-62871376D01*
X149010960Y-62871376D01*
X149050773Y-62875297D01*
X149050773Y-62875297D01*
G37*
M02*
