%TF.GenerationSoftware,KiCad,Pcbnew,5.1.4-e60b266~84~ubuntu18.04.1*%
%TF.CreationDate,2019-10-23T15:02:04+02:00*%
%TF.ProjectId,ensaimedia,656e7361-696d-4656-9469-612e6b696361,rev?*%
%TF.SameCoordinates,Original*%
%TF.FileFunction,Soldermask,Top*%
%TF.FilePolarity,Negative*%
%FSLAX46Y46*%
G04 Gerber Fmt 4.6, Leading zero omitted, Abs format (unit mm)*
G04 Created by KiCad (PCBNEW 5.1.4-e60b266~84~ubuntu18.04.1) date 2019-10-23 15:02:04*
%MOMM*%
%LPD*%
G04 APERTURE LIST*
%ADD10C,0.200000*%
%ADD11C,0.150000*%
G04 APERTURE END LIST*
D10*
X140970000Y-61214000D02*
X173355000Y-61214000D01*
X173355000Y-61214000D02*
G75*
G02X175895000Y-63754000I0J-2540000D01*
G01*
X193675000Y-80645000D02*
G75*
G02X196215000Y-83185000I0J-2540000D01*
G01*
X178435000Y-80645000D02*
X193675000Y-80645000D01*
X178435000Y-80645000D02*
G75*
G02X175895000Y-78105000I0J2540000D01*
G01*
X175895000Y-63754000D02*
X175895000Y-78105000D01*
X143510000Y-112395000D02*
G75*
G02X140970000Y-109855000I0J2540000D01*
G01*
X196215000Y-109855000D02*
G75*
G02X193675000Y-112395000I-2540000J0D01*
G01*
X140970000Y-109855000D02*
X140970000Y-61214000D01*
X193675000Y-112395000D02*
X143510000Y-112395000D01*
X196215000Y-83185000D02*
X196215000Y-109855000D01*
D11*
G36*
X157590443Y-109779895D02*
G01*
X157656627Y-109786413D01*
X157826466Y-109837933D01*
X157982991Y-109921598D01*
X158018729Y-109950928D01*
X158120186Y-110034190D01*
X158203448Y-110135647D01*
X158232778Y-110171385D01*
X158316443Y-110327910D01*
X158367963Y-110497749D01*
X158385359Y-110674376D01*
X158367963Y-110851003D01*
X158316443Y-111020842D01*
X158232778Y-111177367D01*
X158203448Y-111213105D01*
X158120186Y-111314562D01*
X158018729Y-111397824D01*
X157982991Y-111427154D01*
X157826466Y-111510819D01*
X157656627Y-111562339D01*
X157590442Y-111568858D01*
X157524260Y-111575376D01*
X157435740Y-111575376D01*
X157369558Y-111568858D01*
X157303373Y-111562339D01*
X157133534Y-111510819D01*
X156977009Y-111427154D01*
X156941271Y-111397824D01*
X156839814Y-111314562D01*
X156756552Y-111213105D01*
X156727222Y-111177367D01*
X156643557Y-111020842D01*
X156592037Y-110851003D01*
X156574641Y-110674376D01*
X156592037Y-110497749D01*
X156643557Y-110327910D01*
X156727222Y-110171385D01*
X156756552Y-110135647D01*
X156839814Y-110034190D01*
X156941271Y-109950928D01*
X156977009Y-109921598D01*
X157133534Y-109837933D01*
X157303373Y-109786413D01*
X157369557Y-109779895D01*
X157435740Y-109773376D01*
X157524260Y-109773376D01*
X157590443Y-109779895D01*
X157590443Y-109779895D01*
G37*
G36*
X154634526Y-111575376D02*
G01*
X152832526Y-111575376D01*
X152832526Y-109773376D01*
X154634526Y-109773376D01*
X154634526Y-111575376D01*
X154634526Y-111575376D01*
G37*
G36*
X158381000Y-109035376D02*
G01*
X156579000Y-109035376D01*
X156579000Y-107233376D01*
X158381000Y-107233376D01*
X158381000Y-109035376D01*
X158381000Y-109035376D01*
G37*
G36*
X153843969Y-107239895D02*
G01*
X153910153Y-107246413D01*
X154079992Y-107297933D01*
X154236517Y-107381598D01*
X154272255Y-107410928D01*
X154373712Y-107494190D01*
X154456974Y-107595647D01*
X154486304Y-107631385D01*
X154569969Y-107787910D01*
X154621489Y-107957749D01*
X154638885Y-108134376D01*
X154621489Y-108311003D01*
X154569969Y-108480842D01*
X154486304Y-108637367D01*
X154456974Y-108673105D01*
X154373712Y-108774562D01*
X154272255Y-108857824D01*
X154236517Y-108887154D01*
X154079992Y-108970819D01*
X153910153Y-109022339D01*
X153843969Y-109028857D01*
X153777786Y-109035376D01*
X153689266Y-109035376D01*
X153623083Y-109028857D01*
X153556899Y-109022339D01*
X153387060Y-108970819D01*
X153230535Y-108887154D01*
X153194797Y-108857824D01*
X153093340Y-108774562D01*
X153010078Y-108673105D01*
X152980748Y-108637367D01*
X152897083Y-108480842D01*
X152845563Y-108311003D01*
X152828167Y-108134376D01*
X152845563Y-107957749D01*
X152897083Y-107787910D01*
X152980748Y-107631385D01*
X153010078Y-107595647D01*
X153093340Y-107494190D01*
X153194797Y-107410928D01*
X153230535Y-107381598D01*
X153387060Y-107297933D01*
X153556899Y-107246413D01*
X153623083Y-107239895D01*
X153689266Y-107233376D01*
X153777786Y-107233376D01*
X153843969Y-107239895D01*
X153843969Y-107239895D01*
G37*
G36*
X144377395Y-102655546D02*
G01*
X144550466Y-102727234D01*
X144550467Y-102727235D01*
X144706227Y-102831310D01*
X144838690Y-102963773D01*
X144838691Y-102963775D01*
X144942766Y-103119534D01*
X145014454Y-103292605D01*
X145051000Y-103476333D01*
X145051000Y-103663667D01*
X145014454Y-103847395D01*
X144942766Y-104020466D01*
X144942765Y-104020467D01*
X144838690Y-104176227D01*
X144706227Y-104308690D01*
X144642331Y-104351384D01*
X144550466Y-104412766D01*
X144377395Y-104484454D01*
X144193667Y-104521000D01*
X144006333Y-104521000D01*
X143822605Y-104484454D01*
X143649534Y-104412766D01*
X143557669Y-104351384D01*
X143493773Y-104308690D01*
X143361310Y-104176227D01*
X143257235Y-104020467D01*
X143257234Y-104020466D01*
X143185546Y-103847395D01*
X143149000Y-103663667D01*
X143149000Y-103476333D01*
X143185546Y-103292605D01*
X143257234Y-103119534D01*
X143361309Y-102963775D01*
X143361310Y-102963773D01*
X143493773Y-102831310D01*
X143649533Y-102727235D01*
X143649534Y-102727234D01*
X143822605Y-102655546D01*
X144006333Y-102619000D01*
X144193667Y-102619000D01*
X144377395Y-102655546D01*
X144377395Y-102655546D01*
G37*
G36*
X146981552Y-101761331D02*
G01*
X147063627Y-101795328D01*
X147063629Y-101795329D01*
X147100813Y-101820175D01*
X147137495Y-101844685D01*
X147200315Y-101907505D01*
X147249672Y-101981373D01*
X147283669Y-102063448D01*
X147301000Y-102150579D01*
X147301000Y-102239421D01*
X147283521Y-102327294D01*
X147281119Y-102351680D01*
X147283521Y-102376066D01*
X147290634Y-102399515D01*
X147302185Y-102421126D01*
X147317730Y-102440068D01*
X147336672Y-102455613D01*
X147358283Y-102467164D01*
X147381732Y-102474277D01*
X147406118Y-102476679D01*
X147430504Y-102474277D01*
X147453953Y-102467164D01*
X147593435Y-102409389D01*
X147796484Y-102369000D01*
X148003516Y-102369000D01*
X148206564Y-102409389D01*
X148383060Y-102482496D01*
X148397835Y-102488616D01*
X148569973Y-102603635D01*
X148716365Y-102750027D01*
X148770677Y-102831310D01*
X148831385Y-102922167D01*
X148910611Y-103113436D01*
X148951000Y-103316484D01*
X148951000Y-103523516D01*
X148910611Y-103726564D01*
X148860561Y-103847395D01*
X148831384Y-103917835D01*
X148716365Y-104089973D01*
X148569973Y-104236365D01*
X148397835Y-104351384D01*
X148397834Y-104351385D01*
X148397833Y-104351385D01*
X148206564Y-104430611D01*
X148003516Y-104471000D01*
X147796484Y-104471000D01*
X147593436Y-104430611D01*
X147402167Y-104351385D01*
X147402166Y-104351385D01*
X147402165Y-104351384D01*
X147230027Y-104236365D01*
X147083635Y-104089973D01*
X146968616Y-103917835D01*
X146939439Y-103847395D01*
X146889389Y-103726564D01*
X146849000Y-103523516D01*
X146849000Y-103316484D01*
X146889389Y-103113436D01*
X146968615Y-102922167D01*
X147025144Y-102837565D01*
X147036695Y-102815954D01*
X147043808Y-102792505D01*
X147046210Y-102768119D01*
X147043808Y-102743733D01*
X147036695Y-102720284D01*
X147025144Y-102698673D01*
X147009599Y-102679731D01*
X146990657Y-102664186D01*
X146969046Y-102652635D01*
X146945597Y-102645522D01*
X146921211Y-102643120D01*
X146896829Y-102645521D01*
X146894420Y-102646000D01*
X146805579Y-102646000D01*
X146718448Y-102628669D01*
X146636373Y-102594672D01*
X146636372Y-102594672D01*
X146636371Y-102594671D01*
X146562504Y-102545314D01*
X146499686Y-102482496D01*
X146450329Y-102408629D01*
X146433914Y-102369000D01*
X146416331Y-102326552D01*
X146399000Y-102239421D01*
X146399000Y-102150579D01*
X146416331Y-102063448D01*
X146450328Y-101981373D01*
X146499685Y-101907505D01*
X146562505Y-101844685D01*
X146599187Y-101820175D01*
X146636371Y-101795329D01*
X146636373Y-101795328D01*
X146718448Y-101761331D01*
X146805579Y-101744000D01*
X146894421Y-101744000D01*
X146981552Y-101761331D01*
X146981552Y-101761331D01*
G37*
G36*
X195464000Y-101841000D02*
G01*
X192862000Y-101841000D01*
X192862000Y-100739000D01*
X195464000Y-100739000D01*
X195464000Y-101841000D01*
X195464000Y-101841000D01*
G37*
G36*
X180264000Y-101841000D02*
G01*
X177662000Y-101841000D01*
X177662000Y-100739000D01*
X180264000Y-100739000D01*
X180264000Y-101841000D01*
X180264000Y-101841000D01*
G37*
G36*
X148651000Y-101271000D02*
G01*
X146649000Y-101271000D01*
X146649000Y-98119000D01*
X148651000Y-98119000D01*
X148651000Y-101271000D01*
X148651000Y-101271000D01*
G37*
G36*
X180264000Y-99841000D02*
G01*
X177662000Y-99841000D01*
X177662000Y-98739000D01*
X180264000Y-98739000D01*
X180264000Y-99841000D01*
X180264000Y-99841000D01*
G37*
G36*
X195464000Y-99841000D02*
G01*
X192862000Y-99841000D01*
X192862000Y-98739000D01*
X195464000Y-98739000D01*
X195464000Y-99841000D01*
X195464000Y-99841000D01*
G37*
G36*
X180264000Y-97841000D02*
G01*
X177662000Y-97841000D01*
X177662000Y-96739000D01*
X180264000Y-96739000D01*
X180264000Y-97841000D01*
X180264000Y-97841000D01*
G37*
G36*
X195464000Y-97841000D02*
G01*
X192862000Y-97841000D01*
X192862000Y-96739000D01*
X195464000Y-96739000D01*
X195464000Y-97841000D01*
X195464000Y-97841000D01*
G37*
G36*
X148206564Y-94959389D02*
G01*
X148397833Y-95038615D01*
X148397835Y-95038616D01*
X148569973Y-95153635D01*
X148716365Y-95300027D01*
X148809980Y-95440131D01*
X148831385Y-95472167D01*
X148910611Y-95663436D01*
X148951000Y-95866484D01*
X148951000Y-96073516D01*
X148910611Y-96276564D01*
X148841108Y-96444359D01*
X148831384Y-96467835D01*
X148716365Y-96639973D01*
X148569973Y-96786365D01*
X148397835Y-96901384D01*
X148397834Y-96901385D01*
X148397833Y-96901385D01*
X148206564Y-96980611D01*
X148003516Y-97021000D01*
X147796484Y-97021000D01*
X147593435Y-96980611D01*
X147453953Y-96922836D01*
X147430504Y-96915723D01*
X147406118Y-96913321D01*
X147381731Y-96915723D01*
X147358283Y-96922836D01*
X147336672Y-96934387D01*
X147317730Y-96949933D01*
X147302185Y-96968875D01*
X147290634Y-96990485D01*
X147283521Y-97013934D01*
X147281119Y-97038320D01*
X147283521Y-97062706D01*
X147301000Y-97150579D01*
X147301000Y-97239421D01*
X147283669Y-97326552D01*
X147249672Y-97408627D01*
X147249671Y-97408629D01*
X147224825Y-97445813D01*
X147202650Y-97479001D01*
X147200314Y-97482496D01*
X147137496Y-97545314D01*
X147063629Y-97594671D01*
X147063628Y-97594672D01*
X147063627Y-97594672D01*
X146981552Y-97628669D01*
X146894421Y-97646000D01*
X146805579Y-97646000D01*
X146718448Y-97628669D01*
X146636373Y-97594672D01*
X146636372Y-97594672D01*
X146636371Y-97594671D01*
X146562504Y-97545314D01*
X146499686Y-97482496D01*
X146497351Y-97479001D01*
X146475175Y-97445813D01*
X146450329Y-97408629D01*
X146450328Y-97408627D01*
X146416331Y-97326552D01*
X146399000Y-97239421D01*
X146399000Y-97150579D01*
X146416331Y-97063448D01*
X146450328Y-96981373D01*
X146450838Y-96980610D01*
X146495799Y-96913321D01*
X146499685Y-96907505D01*
X146562505Y-96844685D01*
X146599187Y-96820175D01*
X146636371Y-96795329D01*
X146636373Y-96795328D01*
X146718448Y-96761331D01*
X146805579Y-96744000D01*
X146894420Y-96744000D01*
X146896829Y-96744479D01*
X146921213Y-96746880D01*
X146945599Y-96744478D01*
X146969048Y-96737364D01*
X146990658Y-96725813D01*
X147009600Y-96710267D01*
X147025145Y-96691325D01*
X147036696Y-96669714D01*
X147043809Y-96646265D01*
X147046210Y-96621879D01*
X147043808Y-96597493D01*
X147036694Y-96574044D01*
X147025144Y-96552435D01*
X146968615Y-96467833D01*
X146889389Y-96276564D01*
X146849000Y-96073516D01*
X146849000Y-95866484D01*
X146889389Y-95663436D01*
X146968615Y-95472167D01*
X146990021Y-95440131D01*
X147083635Y-95300027D01*
X147230027Y-95153635D01*
X147402165Y-95038616D01*
X147402167Y-95038615D01*
X147593436Y-94959389D01*
X147796484Y-94919000D01*
X148003516Y-94919000D01*
X148206564Y-94959389D01*
X148206564Y-94959389D01*
G37*
G36*
X176737674Y-96288465D02*
G01*
X176775367Y-96299899D01*
X176810103Y-96318466D01*
X176840548Y-96343452D01*
X176865534Y-96373897D01*
X176884101Y-96408633D01*
X176895535Y-96446326D01*
X176900000Y-96491661D01*
X176900000Y-97328339D01*
X176895535Y-97373674D01*
X176884101Y-97411367D01*
X176865534Y-97446103D01*
X176840548Y-97476548D01*
X176810103Y-97501534D01*
X176775367Y-97520101D01*
X176737674Y-97531535D01*
X176692339Y-97536000D01*
X175605661Y-97536000D01*
X175560326Y-97531535D01*
X175522633Y-97520101D01*
X175487897Y-97501534D01*
X175457452Y-97476548D01*
X175432466Y-97446103D01*
X175413899Y-97411367D01*
X175402465Y-97373674D01*
X175398000Y-97328339D01*
X175398000Y-96491661D01*
X175402465Y-96446326D01*
X175413899Y-96408633D01*
X175432466Y-96373897D01*
X175457452Y-96343452D01*
X175487897Y-96318466D01*
X175522633Y-96299899D01*
X175560326Y-96288465D01*
X175605661Y-96284000D01*
X176692339Y-96284000D01*
X176737674Y-96288465D01*
X176737674Y-96288465D01*
G37*
G36*
X165561723Y-95907782D02*
G01*
X165707495Y-95968163D01*
X165707497Y-95968164D01*
X165838689Y-96055823D01*
X165950259Y-96167393D01*
X166031156Y-96288465D01*
X166037919Y-96298587D01*
X166098300Y-96444359D01*
X166129081Y-96599108D01*
X166129081Y-96756894D01*
X166098300Y-96911643D01*
X166045828Y-97038320D01*
X166037918Y-97057417D01*
X165950259Y-97188609D01*
X165838689Y-97300179D01*
X165707497Y-97387838D01*
X165707496Y-97387839D01*
X165707495Y-97387839D01*
X165561723Y-97448220D01*
X165406974Y-97479001D01*
X165249188Y-97479001D01*
X165094439Y-97448220D01*
X164948667Y-97387839D01*
X164948666Y-97387839D01*
X164948665Y-97387838D01*
X164817473Y-97300179D01*
X164705903Y-97188609D01*
X164618244Y-97057417D01*
X164610334Y-97038320D01*
X164557862Y-96911643D01*
X164527081Y-96756894D01*
X164527081Y-96599108D01*
X164557862Y-96444359D01*
X164618243Y-96298587D01*
X164625006Y-96288465D01*
X164705903Y-96167393D01*
X164817473Y-96055823D01*
X164948665Y-95968164D01*
X164948667Y-95968163D01*
X165094439Y-95907782D01*
X165249188Y-95877001D01*
X165406974Y-95877001D01*
X165561723Y-95907782D01*
X165561723Y-95907782D01*
G37*
G36*
X170441723Y-95907782D02*
G01*
X170587495Y-95968163D01*
X170587497Y-95968164D01*
X170718689Y-96055823D01*
X170830259Y-96167393D01*
X170911156Y-96288465D01*
X170917919Y-96298587D01*
X170978300Y-96444359D01*
X171009081Y-96599108D01*
X171009081Y-96756894D01*
X170978300Y-96911643D01*
X170925828Y-97038320D01*
X170917918Y-97057417D01*
X170830259Y-97188609D01*
X170718689Y-97300179D01*
X170587497Y-97387838D01*
X170587496Y-97387839D01*
X170587495Y-97387839D01*
X170441723Y-97448220D01*
X170286974Y-97479001D01*
X170129188Y-97479001D01*
X169974439Y-97448220D01*
X169828667Y-97387839D01*
X169828666Y-97387839D01*
X169828665Y-97387838D01*
X169697473Y-97300179D01*
X169585903Y-97188609D01*
X169498244Y-97057417D01*
X169490334Y-97038320D01*
X169437862Y-96911643D01*
X169407081Y-96756894D01*
X169407081Y-96599108D01*
X169437862Y-96444359D01*
X169498243Y-96298587D01*
X169505006Y-96288465D01*
X169585903Y-96167393D01*
X169697473Y-96055823D01*
X169828665Y-95968164D01*
X169828667Y-95968163D01*
X169974439Y-95907782D01*
X170129188Y-95877001D01*
X170286974Y-95877001D01*
X170441723Y-95907782D01*
X170441723Y-95907782D01*
G37*
G36*
X144377395Y-94905546D02*
G01*
X144550466Y-94977234D01*
X144550467Y-94977235D01*
X144706227Y-95081310D01*
X144838690Y-95213773D01*
X144838691Y-95213775D01*
X144942766Y-95369534D01*
X145014454Y-95542605D01*
X145051000Y-95726333D01*
X145051000Y-95913667D01*
X145014454Y-96097395D01*
X144942766Y-96270466D01*
X144910693Y-96318466D01*
X144838690Y-96426227D01*
X144706227Y-96558690D01*
X144683248Y-96574044D01*
X144550466Y-96662766D01*
X144377395Y-96734454D01*
X144193667Y-96771000D01*
X144006333Y-96771000D01*
X143822605Y-96734454D01*
X143649534Y-96662766D01*
X143516752Y-96574044D01*
X143493773Y-96558690D01*
X143361310Y-96426227D01*
X143289307Y-96318466D01*
X143257234Y-96270466D01*
X143185546Y-96097395D01*
X143149000Y-95913667D01*
X143149000Y-95726333D01*
X143185546Y-95542605D01*
X143257234Y-95369534D01*
X143361309Y-95213775D01*
X143361310Y-95213773D01*
X143493773Y-95081310D01*
X143649533Y-94977235D01*
X143649534Y-94977234D01*
X143822605Y-94905546D01*
X144006333Y-94869000D01*
X144193667Y-94869000D01*
X144377395Y-94905546D01*
X144377395Y-94905546D01*
G37*
G36*
X195464000Y-95841000D02*
G01*
X192862000Y-95841000D01*
X192862000Y-94739000D01*
X195464000Y-94739000D01*
X195464000Y-95841000D01*
X195464000Y-95841000D01*
G37*
G36*
X180264000Y-95841000D02*
G01*
X177662000Y-95841000D01*
X177662000Y-94739000D01*
X180264000Y-94739000D01*
X180264000Y-95841000D01*
X180264000Y-95841000D01*
G37*
G36*
X176737674Y-94238465D02*
G01*
X176775367Y-94249899D01*
X176810103Y-94268466D01*
X176840548Y-94293452D01*
X176865534Y-94323897D01*
X176884101Y-94358633D01*
X176895535Y-94396326D01*
X176900000Y-94441661D01*
X176900000Y-95278339D01*
X176895535Y-95323674D01*
X176884101Y-95361367D01*
X176865534Y-95396103D01*
X176840548Y-95426548D01*
X176810103Y-95451534D01*
X176775367Y-95470101D01*
X176737674Y-95481535D01*
X176692339Y-95486000D01*
X175605661Y-95486000D01*
X175560326Y-95481535D01*
X175522633Y-95470101D01*
X175487897Y-95451534D01*
X175457452Y-95426548D01*
X175432466Y-95396103D01*
X175413899Y-95361367D01*
X175402465Y-95323674D01*
X175398000Y-95278339D01*
X175398000Y-94441661D01*
X175402465Y-94396326D01*
X175413899Y-94358633D01*
X175432466Y-94323897D01*
X175457452Y-94293452D01*
X175487897Y-94268466D01*
X175522633Y-94249899D01*
X175560326Y-94238465D01*
X175605661Y-94234000D01*
X176692339Y-94234000D01*
X176737674Y-94238465D01*
X176737674Y-94238465D01*
G37*
G36*
X176610674Y-92614465D02*
G01*
X176648367Y-92625899D01*
X176683103Y-92644466D01*
X176713548Y-92669452D01*
X176738534Y-92699897D01*
X176757101Y-92734633D01*
X176768535Y-92772326D01*
X176773000Y-92817661D01*
X176773000Y-93654339D01*
X176768535Y-93699674D01*
X176757101Y-93737367D01*
X176738534Y-93772103D01*
X176713548Y-93802548D01*
X176683103Y-93827534D01*
X176648367Y-93846101D01*
X176610674Y-93857535D01*
X176565339Y-93862000D01*
X175478661Y-93862000D01*
X175433326Y-93857535D01*
X175395633Y-93846101D01*
X175360897Y-93827534D01*
X175330452Y-93802548D01*
X175305466Y-93772103D01*
X175286899Y-93737367D01*
X175275465Y-93699674D01*
X175271000Y-93654339D01*
X175271000Y-92817661D01*
X175275465Y-92772326D01*
X175286899Y-92734633D01*
X175305466Y-92699897D01*
X175330452Y-92669452D01*
X175360897Y-92644466D01*
X175395633Y-92625899D01*
X175433326Y-92614465D01*
X175478661Y-92610000D01*
X176565339Y-92610000D01*
X176610674Y-92614465D01*
X176610674Y-92614465D01*
G37*
G36*
X180264000Y-93841000D02*
G01*
X177662000Y-93841000D01*
X177662000Y-92739000D01*
X180264000Y-92739000D01*
X180264000Y-93841000D01*
X180264000Y-93841000D01*
G37*
G36*
X195464000Y-93841000D02*
G01*
X192862000Y-93841000D01*
X192862000Y-92739000D01*
X195464000Y-92739000D01*
X195464000Y-93841000D01*
X195464000Y-93841000D01*
G37*
G36*
X142685674Y-91836465D02*
G01*
X142723367Y-91847899D01*
X142758103Y-91866466D01*
X142788548Y-91891452D01*
X142813534Y-91921897D01*
X142832101Y-91956633D01*
X142843535Y-91994326D01*
X142848000Y-92039661D01*
X142848000Y-93126339D01*
X142843535Y-93171674D01*
X142832101Y-93209367D01*
X142813534Y-93244103D01*
X142788548Y-93274548D01*
X142758103Y-93299534D01*
X142723367Y-93318101D01*
X142685674Y-93329535D01*
X142640339Y-93334000D01*
X141803661Y-93334000D01*
X141758326Y-93329535D01*
X141720633Y-93318101D01*
X141685897Y-93299534D01*
X141655452Y-93274548D01*
X141630466Y-93244103D01*
X141611899Y-93209367D01*
X141600465Y-93171674D01*
X141596000Y-93126339D01*
X141596000Y-92039661D01*
X141600465Y-91994326D01*
X141611899Y-91956633D01*
X141630466Y-91921897D01*
X141655452Y-91891452D01*
X141685897Y-91866466D01*
X141720633Y-91847899D01*
X141758326Y-91836465D01*
X141803661Y-91832000D01*
X142640339Y-91832000D01*
X142685674Y-91836465D01*
X142685674Y-91836465D01*
G37*
G36*
X144735674Y-91836465D02*
G01*
X144773367Y-91847899D01*
X144808103Y-91866466D01*
X144838548Y-91891452D01*
X144863534Y-91921897D01*
X144882101Y-91956633D01*
X144893535Y-91994326D01*
X144898000Y-92039661D01*
X144898000Y-93126339D01*
X144893535Y-93171674D01*
X144882101Y-93209367D01*
X144863534Y-93244103D01*
X144838548Y-93274548D01*
X144808103Y-93299534D01*
X144773367Y-93318101D01*
X144735674Y-93329535D01*
X144690339Y-93334000D01*
X143853661Y-93334000D01*
X143808326Y-93329535D01*
X143770633Y-93318101D01*
X143735897Y-93299534D01*
X143705452Y-93274548D01*
X143680466Y-93244103D01*
X143661899Y-93209367D01*
X143650465Y-93171674D01*
X143646000Y-93126339D01*
X143646000Y-92039661D01*
X143650465Y-91994326D01*
X143661899Y-91956633D01*
X143680466Y-91921897D01*
X143705452Y-91891452D01*
X143735897Y-91866466D01*
X143770633Y-91847899D01*
X143808326Y-91836465D01*
X143853661Y-91832000D01*
X144690339Y-91832000D01*
X144735674Y-91836465D01*
X144735674Y-91836465D01*
G37*
G36*
X172732000Y-92087000D02*
G01*
X170930000Y-92087000D01*
X170930000Y-90285000D01*
X172732000Y-90285000D01*
X172732000Y-92087000D01*
X172732000Y-92087000D01*
G37*
G36*
X180264000Y-91841000D02*
G01*
X177662000Y-91841000D01*
X177662000Y-90739000D01*
X180264000Y-90739000D01*
X180264000Y-91841000D01*
X180264000Y-91841000D01*
G37*
G36*
X195464000Y-91841000D02*
G01*
X192862000Y-91841000D01*
X192862000Y-90739000D01*
X195464000Y-90739000D01*
X195464000Y-91841000D01*
X195464000Y-91841000D01*
G37*
G36*
X176610674Y-90564465D02*
G01*
X176648367Y-90575899D01*
X176683103Y-90594466D01*
X176713548Y-90619452D01*
X176738534Y-90649897D01*
X176757101Y-90684633D01*
X176768535Y-90722326D01*
X176773000Y-90767661D01*
X176773000Y-91604339D01*
X176768535Y-91649674D01*
X176757101Y-91687367D01*
X176738534Y-91722103D01*
X176713548Y-91752548D01*
X176683103Y-91777534D01*
X176648367Y-91796101D01*
X176610674Y-91807535D01*
X176565339Y-91812000D01*
X175478661Y-91812000D01*
X175433326Y-91807535D01*
X175395633Y-91796101D01*
X175360897Y-91777534D01*
X175330452Y-91752548D01*
X175305466Y-91722103D01*
X175286899Y-91687367D01*
X175275465Y-91649674D01*
X175271000Y-91604339D01*
X175271000Y-90767661D01*
X175275465Y-90722326D01*
X175286899Y-90684633D01*
X175305466Y-90649897D01*
X175330452Y-90619452D01*
X175360897Y-90594466D01*
X175395633Y-90575899D01*
X175433326Y-90564465D01*
X175478661Y-90560000D01*
X176565339Y-90560000D01*
X176610674Y-90564465D01*
X176610674Y-90564465D01*
G37*
G36*
X145286615Y-88831234D02*
G01*
X145395191Y-88864171D01*
X145395194Y-88864172D01*
X145430558Y-88883075D01*
X145495256Y-88917656D01*
X145582964Y-88989636D01*
X145654944Y-89077343D01*
X145689129Y-89141299D01*
X145708428Y-89177405D01*
X145708429Y-89177408D01*
X145741366Y-89285984D01*
X145749700Y-89370602D01*
X145749700Y-89877197D01*
X145741366Y-89961816D01*
X145708952Y-90068667D01*
X145708428Y-90070395D01*
X145698461Y-90089041D01*
X145654944Y-90170457D01*
X145582964Y-90258164D01*
X145495257Y-90330144D01*
X145431301Y-90364329D01*
X145395195Y-90383628D01*
X145395192Y-90383629D01*
X145286616Y-90416566D01*
X145173700Y-90427687D01*
X145060785Y-90416566D01*
X144952209Y-90383629D01*
X144952206Y-90383628D01*
X144916100Y-90364329D01*
X144852144Y-90330144D01*
X144764437Y-90258164D01*
X144692457Y-90170457D01*
X144648939Y-90089041D01*
X144635325Y-90068666D01*
X144617998Y-90051339D01*
X144597624Y-90037726D01*
X144574985Y-90028348D01*
X144550952Y-90023568D01*
X144526448Y-90023568D01*
X144502415Y-90028348D01*
X144479776Y-90037726D01*
X144459401Y-90051340D01*
X144442074Y-90068667D01*
X144428461Y-90089041D01*
X144384944Y-90170457D01*
X144312964Y-90258164D01*
X144225257Y-90330144D01*
X144161301Y-90364329D01*
X144125195Y-90383628D01*
X144125192Y-90383629D01*
X144016616Y-90416566D01*
X143903700Y-90427687D01*
X143790785Y-90416566D01*
X143682209Y-90383629D01*
X143682206Y-90383628D01*
X143646100Y-90364329D01*
X143582144Y-90330144D01*
X143494437Y-90258164D01*
X143431322Y-90181259D01*
X143413997Y-90163934D01*
X143393623Y-90150320D01*
X143370984Y-90140943D01*
X143346950Y-90136163D01*
X143322446Y-90136163D01*
X143298413Y-90140944D01*
X143275774Y-90150321D01*
X143255400Y-90163935D01*
X143238073Y-90181262D01*
X143224459Y-90201636D01*
X143215082Y-90224275D01*
X143209700Y-90260560D01*
X143209700Y-90424900D01*
X142057700Y-90424900D01*
X142057700Y-88822900D01*
X143209700Y-88822900D01*
X143209700Y-88987241D01*
X143212102Y-89011627D01*
X143219215Y-89035076D01*
X143230766Y-89056687D01*
X143246311Y-89075629D01*
X143265253Y-89091174D01*
X143286864Y-89102725D01*
X143310313Y-89109838D01*
X143334699Y-89112240D01*
X143359085Y-89109838D01*
X143382534Y-89102725D01*
X143404145Y-89091174D01*
X143423087Y-89075629D01*
X143431308Y-89066557D01*
X143494436Y-88989636D01*
X143582143Y-88917656D01*
X143646841Y-88883075D01*
X143682205Y-88864172D01*
X143682208Y-88864171D01*
X143790784Y-88831234D01*
X143903700Y-88820113D01*
X144016615Y-88831234D01*
X144125191Y-88864171D01*
X144125194Y-88864172D01*
X144160558Y-88883075D01*
X144225256Y-88917656D01*
X144312964Y-88989636D01*
X144384944Y-89077343D01*
X144423239Y-89148989D01*
X144428461Y-89158759D01*
X144442075Y-89179134D01*
X144459402Y-89196461D01*
X144479776Y-89210074D01*
X144502415Y-89219452D01*
X144526448Y-89224232D01*
X144550952Y-89224232D01*
X144574985Y-89219452D01*
X144597624Y-89210074D01*
X144617999Y-89196460D01*
X144635326Y-89179133D01*
X144648939Y-89158760D01*
X144692456Y-89077344D01*
X144764436Y-88989636D01*
X144852143Y-88917656D01*
X144916841Y-88883075D01*
X144952205Y-88864172D01*
X144952208Y-88864171D01*
X145060784Y-88831234D01*
X145173700Y-88820113D01*
X145286615Y-88831234D01*
X145286615Y-88831234D01*
G37*
G36*
X176610674Y-88668465D02*
G01*
X176648367Y-88679899D01*
X176683103Y-88698466D01*
X176713548Y-88723452D01*
X176738534Y-88753897D01*
X176757101Y-88788633D01*
X176768535Y-88826326D01*
X176773000Y-88871661D01*
X176773000Y-89708339D01*
X176768535Y-89753674D01*
X176757101Y-89791367D01*
X176738534Y-89826103D01*
X176713548Y-89856548D01*
X176683103Y-89881534D01*
X176648367Y-89900101D01*
X176610674Y-89911535D01*
X176565339Y-89916000D01*
X175478661Y-89916000D01*
X175433326Y-89911535D01*
X175395633Y-89900101D01*
X175360897Y-89881534D01*
X175330452Y-89856548D01*
X175305466Y-89826103D01*
X175286899Y-89791367D01*
X175275465Y-89753674D01*
X175271000Y-89708339D01*
X175271000Y-88871661D01*
X175275465Y-88826326D01*
X175286899Y-88788633D01*
X175305466Y-88753897D01*
X175330452Y-88723452D01*
X175360897Y-88698466D01*
X175395633Y-88679899D01*
X175433326Y-88668465D01*
X175478661Y-88664000D01*
X176565339Y-88664000D01*
X176610674Y-88668465D01*
X176610674Y-88668465D01*
G37*
G36*
X195464000Y-89841000D02*
G01*
X192862000Y-89841000D01*
X192862000Y-88739000D01*
X195464000Y-88739000D01*
X195464000Y-89841000D01*
X195464000Y-89841000D01*
G37*
G36*
X180264000Y-89841000D02*
G01*
X177662000Y-89841000D01*
X177662000Y-88739000D01*
X180264000Y-88739000D01*
X180264000Y-89841000D01*
X180264000Y-89841000D01*
G37*
G36*
X171941442Y-87751518D02*
G01*
X172007627Y-87758037D01*
X172177466Y-87809557D01*
X172177468Y-87809558D01*
X172218582Y-87831534D01*
X172333991Y-87893222D01*
X172369729Y-87922552D01*
X172471186Y-88005814D01*
X172554448Y-88107271D01*
X172583778Y-88143009D01*
X172667443Y-88299534D01*
X172718963Y-88469373D01*
X172736359Y-88646000D01*
X172718963Y-88822627D01*
X172667443Y-88992466D01*
X172583778Y-89148991D01*
X172560456Y-89177409D01*
X172471186Y-89286186D01*
X172369729Y-89369448D01*
X172333991Y-89398778D01*
X172177466Y-89482443D01*
X172007627Y-89533963D01*
X171941442Y-89540482D01*
X171875260Y-89547000D01*
X171786740Y-89547000D01*
X171720558Y-89540482D01*
X171654373Y-89533963D01*
X171484534Y-89482443D01*
X171328009Y-89398778D01*
X171292271Y-89369448D01*
X171190814Y-89286186D01*
X171101544Y-89177409D01*
X171078222Y-89148991D01*
X170994557Y-88992466D01*
X170943037Y-88822627D01*
X170925641Y-88646000D01*
X170943037Y-88469373D01*
X170994557Y-88299534D01*
X171078222Y-88143009D01*
X171107552Y-88107271D01*
X171190814Y-88005814D01*
X171292271Y-87922552D01*
X171328009Y-87893222D01*
X171443418Y-87831534D01*
X171484532Y-87809558D01*
X171484534Y-87809557D01*
X171654373Y-87758037D01*
X171720558Y-87751518D01*
X171786740Y-87745000D01*
X171875260Y-87745000D01*
X171941442Y-87751518D01*
X171941442Y-87751518D01*
G37*
G36*
X176610674Y-86618465D02*
G01*
X176648367Y-86629899D01*
X176683103Y-86648466D01*
X176713548Y-86673452D01*
X176738534Y-86703897D01*
X176757101Y-86738633D01*
X176768535Y-86776326D01*
X176773000Y-86821661D01*
X176773000Y-87658339D01*
X176768535Y-87703674D01*
X176757101Y-87741367D01*
X176738534Y-87776103D01*
X176713548Y-87806548D01*
X176683103Y-87831534D01*
X176648367Y-87850101D01*
X176610674Y-87861535D01*
X176565339Y-87866000D01*
X175478661Y-87866000D01*
X175433326Y-87861535D01*
X175395633Y-87850101D01*
X175360897Y-87831534D01*
X175330452Y-87806548D01*
X175305466Y-87776103D01*
X175286899Y-87741367D01*
X175275465Y-87703674D01*
X175271000Y-87658339D01*
X175271000Y-86821661D01*
X175275465Y-86776326D01*
X175286899Y-86738633D01*
X175305466Y-86703897D01*
X175330452Y-86673452D01*
X175360897Y-86648466D01*
X175395633Y-86629899D01*
X175433326Y-86618465D01*
X175478661Y-86614000D01*
X176565339Y-86614000D01*
X176610674Y-86618465D01*
X176610674Y-86618465D01*
G37*
G36*
X180264000Y-87841000D02*
G01*
X177662000Y-87841000D01*
X177662000Y-86739000D01*
X180264000Y-86739000D01*
X180264000Y-87841000D01*
X180264000Y-87841000D01*
G37*
G36*
X195464000Y-87841000D02*
G01*
X192862000Y-87841000D01*
X192862000Y-86739000D01*
X195464000Y-86739000D01*
X195464000Y-87841000D01*
X195464000Y-87841000D01*
G37*
G36*
X162934701Y-85877840D02*
G01*
X162972394Y-85889274D01*
X163007130Y-85907841D01*
X163037575Y-85932827D01*
X163062561Y-85963272D01*
X163081128Y-85998008D01*
X163092562Y-86035701D01*
X163097027Y-86081036D01*
X163097027Y-87167714D01*
X163092562Y-87213049D01*
X163081128Y-87250742D01*
X163062561Y-87285478D01*
X163037575Y-87315923D01*
X163007130Y-87340909D01*
X162972394Y-87359476D01*
X162934701Y-87370910D01*
X162889366Y-87375375D01*
X162052688Y-87375375D01*
X162007353Y-87370910D01*
X161969660Y-87359476D01*
X161934924Y-87340909D01*
X161904479Y-87315923D01*
X161879493Y-87285478D01*
X161860926Y-87250742D01*
X161849492Y-87213049D01*
X161845027Y-87167714D01*
X161845027Y-86081036D01*
X161849492Y-86035701D01*
X161860926Y-85998008D01*
X161879493Y-85963272D01*
X161904479Y-85932827D01*
X161934924Y-85907841D01*
X161969660Y-85889274D01*
X162007353Y-85877840D01*
X162052688Y-85873375D01*
X162889366Y-85873375D01*
X162934701Y-85877840D01*
X162934701Y-85877840D01*
G37*
G36*
X156729701Y-85877840D02*
G01*
X156767394Y-85889274D01*
X156802130Y-85907841D01*
X156832575Y-85932827D01*
X156857561Y-85963272D01*
X156876128Y-85998008D01*
X156887562Y-86035701D01*
X156892027Y-86081036D01*
X156892027Y-87167714D01*
X156887562Y-87213049D01*
X156876128Y-87250742D01*
X156857561Y-87285478D01*
X156832575Y-87315923D01*
X156802130Y-87340909D01*
X156767394Y-87359476D01*
X156729701Y-87370910D01*
X156684366Y-87375375D01*
X155847688Y-87375375D01*
X155802353Y-87370910D01*
X155764660Y-87359476D01*
X155729924Y-87340909D01*
X155699479Y-87315923D01*
X155674493Y-87285478D01*
X155655926Y-87250742D01*
X155644492Y-87213049D01*
X155640027Y-87167714D01*
X155640027Y-86081036D01*
X155644492Y-86035701D01*
X155655926Y-85998008D01*
X155674493Y-85963272D01*
X155699479Y-85932827D01*
X155729924Y-85907841D01*
X155764660Y-85889274D01*
X155802353Y-85877840D01*
X155847688Y-85873375D01*
X156684366Y-85873375D01*
X156729701Y-85877840D01*
X156729701Y-85877840D01*
G37*
G36*
X164984701Y-85877840D02*
G01*
X165022394Y-85889274D01*
X165057130Y-85907841D01*
X165087575Y-85932827D01*
X165112561Y-85963272D01*
X165131128Y-85998008D01*
X165142562Y-86035701D01*
X165147027Y-86081036D01*
X165147027Y-87167714D01*
X165142562Y-87213049D01*
X165131128Y-87250742D01*
X165112561Y-87285478D01*
X165087575Y-87315923D01*
X165057130Y-87340909D01*
X165022394Y-87359476D01*
X164984701Y-87370910D01*
X164939366Y-87375375D01*
X164102688Y-87375375D01*
X164057353Y-87370910D01*
X164019660Y-87359476D01*
X163984924Y-87340909D01*
X163954479Y-87315923D01*
X163929493Y-87285478D01*
X163910926Y-87250742D01*
X163899492Y-87213049D01*
X163895027Y-87167714D01*
X163895027Y-86081036D01*
X163899492Y-86035701D01*
X163910926Y-85998008D01*
X163929493Y-85963272D01*
X163954479Y-85932827D01*
X163984924Y-85907841D01*
X164019660Y-85889274D01*
X164057353Y-85877840D01*
X164102688Y-85873375D01*
X164939366Y-85873375D01*
X164984701Y-85877840D01*
X164984701Y-85877840D01*
G37*
G36*
X154679701Y-85877840D02*
G01*
X154717394Y-85889274D01*
X154752130Y-85907841D01*
X154782575Y-85932827D01*
X154807561Y-85963272D01*
X154826128Y-85998008D01*
X154837562Y-86035701D01*
X154842027Y-86081036D01*
X154842027Y-87167714D01*
X154837562Y-87213049D01*
X154826128Y-87250742D01*
X154807561Y-87285478D01*
X154782575Y-87315923D01*
X154752130Y-87340909D01*
X154717394Y-87359476D01*
X154679701Y-87370910D01*
X154634366Y-87375375D01*
X153797688Y-87375375D01*
X153752353Y-87370910D01*
X153714660Y-87359476D01*
X153679924Y-87340909D01*
X153649479Y-87315923D01*
X153624493Y-87285478D01*
X153605926Y-87250742D01*
X153594492Y-87213049D01*
X153590027Y-87167714D01*
X153590027Y-86081036D01*
X153594492Y-86035701D01*
X153605926Y-85998008D01*
X153624493Y-85963272D01*
X153649479Y-85932827D01*
X153679924Y-85907841D01*
X153714660Y-85889274D01*
X153752353Y-85877840D01*
X153797688Y-85873375D01*
X154634366Y-85873375D01*
X154679701Y-85877840D01*
X154679701Y-85877840D01*
G37*
G36*
X192114000Y-86741000D02*
G01*
X191012000Y-86741000D01*
X191012000Y-84839000D01*
X192114000Y-84839000D01*
X192114000Y-86741000D01*
X192114000Y-86741000D01*
G37*
G36*
X190114000Y-86741000D02*
G01*
X189012000Y-86741000D01*
X189012000Y-84839000D01*
X190114000Y-84839000D01*
X190114000Y-86741000D01*
X190114000Y-86741000D01*
G37*
G36*
X188114000Y-86741000D02*
G01*
X187012000Y-86741000D01*
X187012000Y-84839000D01*
X188114000Y-84839000D01*
X188114000Y-86741000D01*
X188114000Y-86741000D01*
G37*
G36*
X182114000Y-86741000D02*
G01*
X181012000Y-86741000D01*
X181012000Y-84839000D01*
X182114000Y-84839000D01*
X182114000Y-86741000D01*
X182114000Y-86741000D01*
G37*
G36*
X184114000Y-86741000D02*
G01*
X183012000Y-86741000D01*
X183012000Y-84839000D01*
X184114000Y-84839000D01*
X184114000Y-86741000D01*
X184114000Y-86741000D01*
G37*
G36*
X186114000Y-86741000D02*
G01*
X185012000Y-86741000D01*
X185012000Y-84839000D01*
X186114000Y-84839000D01*
X186114000Y-86741000D01*
X186114000Y-86741000D01*
G37*
G36*
X144001469Y-83109895D02*
G01*
X144067653Y-83116413D01*
X144237492Y-83167933D01*
X144394017Y-83251598D01*
X144429755Y-83280928D01*
X144531212Y-83364190D01*
X144597048Y-83444413D01*
X144643804Y-83501385D01*
X144727469Y-83657910D01*
X144778989Y-83827749D01*
X144796385Y-84004376D01*
X144778989Y-84181003D01*
X144727469Y-84350842D01*
X144643804Y-84507367D01*
X144614474Y-84543105D01*
X144531212Y-84644562D01*
X144429755Y-84727824D01*
X144394017Y-84757154D01*
X144237492Y-84840819D01*
X144067653Y-84892339D01*
X144001469Y-84898857D01*
X143935286Y-84905376D01*
X143846766Y-84905376D01*
X143780583Y-84898857D01*
X143714399Y-84892339D01*
X143544560Y-84840819D01*
X143388035Y-84757154D01*
X143352297Y-84727824D01*
X143250840Y-84644562D01*
X143167578Y-84543105D01*
X143138248Y-84507367D01*
X143054583Y-84350842D01*
X143003063Y-84181003D01*
X142985667Y-84004376D01*
X143003063Y-83827749D01*
X143054583Y-83657910D01*
X143138248Y-83501385D01*
X143185004Y-83444413D01*
X143250840Y-83364190D01*
X143352297Y-83280928D01*
X143388035Y-83251598D01*
X143544560Y-83167933D01*
X143714399Y-83116413D01*
X143780583Y-83109895D01*
X143846766Y-83103376D01*
X143935286Y-83103376D01*
X144001469Y-83109895D01*
X144001469Y-83109895D01*
G37*
G36*
X166197148Y-82944454D02*
G01*
X166234728Y-82955854D01*
X166269364Y-82974367D01*
X166299720Y-82999280D01*
X166324633Y-83029636D01*
X166343146Y-83064272D01*
X166354546Y-83101852D01*
X166359000Y-83147075D01*
X166359000Y-83984925D01*
X166354546Y-84030148D01*
X166343146Y-84067728D01*
X166324633Y-84102364D01*
X166299720Y-84132720D01*
X166269364Y-84157633D01*
X166234728Y-84176146D01*
X166197148Y-84187546D01*
X166151925Y-84192000D01*
X165064075Y-84192000D01*
X165018852Y-84187546D01*
X164981272Y-84176146D01*
X164946636Y-84157633D01*
X164916280Y-84132720D01*
X164891367Y-84102364D01*
X164872854Y-84067728D01*
X164861454Y-84030148D01*
X164857000Y-83984925D01*
X164857000Y-83147075D01*
X164861454Y-83101852D01*
X164872854Y-83064272D01*
X164891367Y-83029636D01*
X164916280Y-82999280D01*
X164946636Y-82974367D01*
X164981272Y-82955854D01*
X165018852Y-82944454D01*
X165064075Y-82940000D01*
X166151925Y-82940000D01*
X166197148Y-82944454D01*
X166197148Y-82944454D01*
G37*
G36*
X185051000Y-83959000D02*
G01*
X183249000Y-83959000D01*
X183249000Y-82157000D01*
X185051000Y-82157000D01*
X185051000Y-83959000D01*
X185051000Y-83959000D01*
G37*
G36*
X186800442Y-82163518D02*
G01*
X186866627Y-82170037D01*
X187036466Y-82221557D01*
X187192991Y-82305222D01*
X187228729Y-82334552D01*
X187330186Y-82417814D01*
X187413448Y-82519271D01*
X187442778Y-82555009D01*
X187526443Y-82711534D01*
X187577963Y-82881373D01*
X187595359Y-83058000D01*
X187577963Y-83234627D01*
X187526443Y-83404466D01*
X187442778Y-83560991D01*
X187439180Y-83565375D01*
X187330186Y-83698186D01*
X187228729Y-83781448D01*
X187192991Y-83810778D01*
X187036466Y-83894443D01*
X186866627Y-83945963D01*
X186800442Y-83952482D01*
X186734260Y-83959000D01*
X186645740Y-83959000D01*
X186579558Y-83952482D01*
X186513373Y-83945963D01*
X186343534Y-83894443D01*
X186187009Y-83810778D01*
X186151271Y-83781448D01*
X186049814Y-83698186D01*
X185940820Y-83565375D01*
X185937222Y-83560991D01*
X185853557Y-83404466D01*
X185802037Y-83234627D01*
X185784641Y-83058000D01*
X185802037Y-82881373D01*
X185853557Y-82711534D01*
X185937222Y-82555009D01*
X185966552Y-82519271D01*
X186049814Y-82417814D01*
X186151271Y-82334552D01*
X186187009Y-82305222D01*
X186343534Y-82221557D01*
X186513373Y-82170037D01*
X186579558Y-82163518D01*
X186645740Y-82157000D01*
X186734260Y-82157000D01*
X186800442Y-82163518D01*
X186800442Y-82163518D01*
G37*
G36*
X161029701Y-82067840D02*
G01*
X161067394Y-82079274D01*
X161102130Y-82097841D01*
X161132575Y-82122827D01*
X161157561Y-82153272D01*
X161176128Y-82188008D01*
X161187562Y-82225701D01*
X161192027Y-82271036D01*
X161192027Y-83357714D01*
X161187562Y-83403049D01*
X161176128Y-83440742D01*
X161157561Y-83475478D01*
X161132575Y-83505923D01*
X161102130Y-83530909D01*
X161067394Y-83549476D01*
X161029701Y-83560910D01*
X160984366Y-83565375D01*
X160147688Y-83565375D01*
X160102353Y-83560910D01*
X160064660Y-83549476D01*
X160029924Y-83530909D01*
X159999479Y-83505923D01*
X159974493Y-83475478D01*
X159955926Y-83440742D01*
X159944492Y-83403049D01*
X159940027Y-83357714D01*
X159940027Y-82271036D01*
X159944492Y-82225701D01*
X159955926Y-82188008D01*
X159974493Y-82153272D01*
X159999479Y-82122827D01*
X160029924Y-82097841D01*
X160064660Y-82079274D01*
X160102353Y-82067840D01*
X160147688Y-82063375D01*
X160984366Y-82063375D01*
X161029701Y-82067840D01*
X161029701Y-82067840D01*
G37*
G36*
X163079701Y-82067840D02*
G01*
X163117394Y-82079274D01*
X163152130Y-82097841D01*
X163182575Y-82122827D01*
X163207561Y-82153272D01*
X163226128Y-82188008D01*
X163237562Y-82225701D01*
X163242027Y-82271036D01*
X163242027Y-83357714D01*
X163237562Y-83403049D01*
X163226128Y-83440742D01*
X163207561Y-83475478D01*
X163182575Y-83505923D01*
X163152130Y-83530909D01*
X163117394Y-83549476D01*
X163079701Y-83560910D01*
X163034366Y-83565375D01*
X162197688Y-83565375D01*
X162152353Y-83560910D01*
X162114660Y-83549476D01*
X162079924Y-83530909D01*
X162049479Y-83505923D01*
X162024493Y-83475478D01*
X162005926Y-83440742D01*
X161994492Y-83403049D01*
X161990027Y-83357714D01*
X161990027Y-82271036D01*
X161994492Y-82225701D01*
X162005926Y-82188008D01*
X162024493Y-82153272D01*
X162049479Y-82122827D01*
X162079924Y-82097841D01*
X162114660Y-82079274D01*
X162152353Y-82067840D01*
X162197688Y-82063375D01*
X163034366Y-82063375D01*
X163079701Y-82067840D01*
X163079701Y-82067840D01*
G37*
G36*
X153799701Y-82067840D02*
G01*
X153837394Y-82079274D01*
X153872130Y-82097841D01*
X153902575Y-82122827D01*
X153927561Y-82153272D01*
X153946128Y-82188008D01*
X153957562Y-82225701D01*
X153962027Y-82271036D01*
X153962027Y-83357714D01*
X153957562Y-83403049D01*
X153946128Y-83440742D01*
X153927561Y-83475478D01*
X153902575Y-83505923D01*
X153872130Y-83530909D01*
X153837394Y-83549476D01*
X153799701Y-83560910D01*
X153754366Y-83565375D01*
X152917688Y-83565375D01*
X152872353Y-83560910D01*
X152834660Y-83549476D01*
X152799924Y-83530909D01*
X152769479Y-83505923D01*
X152744493Y-83475478D01*
X152725926Y-83440742D01*
X152714492Y-83403049D01*
X152710027Y-83357714D01*
X152710027Y-82271036D01*
X152714492Y-82225701D01*
X152725926Y-82188008D01*
X152744493Y-82153272D01*
X152769479Y-82122827D01*
X152799924Y-82097841D01*
X152834660Y-82079274D01*
X152872353Y-82067840D01*
X152917688Y-82063375D01*
X153754366Y-82063375D01*
X153799701Y-82067840D01*
X153799701Y-82067840D01*
G37*
G36*
X151749701Y-82067840D02*
G01*
X151787394Y-82079274D01*
X151822130Y-82097841D01*
X151852575Y-82122827D01*
X151877561Y-82153272D01*
X151896128Y-82188008D01*
X151907562Y-82225701D01*
X151912027Y-82271036D01*
X151912027Y-83357714D01*
X151907562Y-83403049D01*
X151896128Y-83440742D01*
X151877561Y-83475478D01*
X151852575Y-83505923D01*
X151822130Y-83530909D01*
X151787394Y-83549476D01*
X151749701Y-83560910D01*
X151704366Y-83565375D01*
X150867688Y-83565375D01*
X150822353Y-83560910D01*
X150784660Y-83549476D01*
X150749924Y-83530909D01*
X150719479Y-83505923D01*
X150694493Y-83475478D01*
X150675926Y-83440742D01*
X150664492Y-83403049D01*
X150660027Y-83357714D01*
X150660027Y-82271036D01*
X150664492Y-82225701D01*
X150675926Y-82188008D01*
X150694493Y-82153272D01*
X150719479Y-82122827D01*
X150749924Y-82097841D01*
X150784660Y-82079274D01*
X150822353Y-82067840D01*
X150867688Y-82063375D01*
X151704366Y-82063375D01*
X151749701Y-82067840D01*
X151749701Y-82067840D01*
G37*
G36*
X144001468Y-80569894D02*
G01*
X144067653Y-80576413D01*
X144237492Y-80627933D01*
X144394017Y-80711598D01*
X144429755Y-80740928D01*
X144531212Y-80824190D01*
X144613505Y-80924466D01*
X144643804Y-80961385D01*
X144727469Y-81117910D01*
X144778989Y-81287749D01*
X144796385Y-81464376D01*
X144778989Y-81641003D01*
X144727469Y-81810842D01*
X144643804Y-81967367D01*
X144614474Y-82003105D01*
X144531212Y-82104562D01*
X144451429Y-82170037D01*
X144394017Y-82217154D01*
X144237492Y-82300819D01*
X144067653Y-82352339D01*
X144001469Y-82358857D01*
X143935286Y-82365376D01*
X143846766Y-82365376D01*
X143780583Y-82358857D01*
X143714399Y-82352339D01*
X143544560Y-82300819D01*
X143388035Y-82217154D01*
X143330623Y-82170037D01*
X143250840Y-82104562D01*
X143167578Y-82003105D01*
X143138248Y-81967367D01*
X143054583Y-81810842D01*
X143003063Y-81641003D01*
X142985667Y-81464376D01*
X143003063Y-81287749D01*
X143054583Y-81117910D01*
X143138248Y-80961385D01*
X143168547Y-80924466D01*
X143250840Y-80824190D01*
X143352297Y-80740928D01*
X143388035Y-80711598D01*
X143544560Y-80627933D01*
X143714399Y-80576413D01*
X143780584Y-80569894D01*
X143846766Y-80563376D01*
X143935286Y-80563376D01*
X144001468Y-80569894D01*
X144001468Y-80569894D01*
G37*
G36*
X166196674Y-80894465D02*
G01*
X166234367Y-80905899D01*
X166269103Y-80924466D01*
X166299548Y-80949452D01*
X166324534Y-80979897D01*
X166343101Y-81014633D01*
X166354535Y-81052326D01*
X166359000Y-81097661D01*
X166359000Y-81934339D01*
X166354535Y-81979674D01*
X166343101Y-82017367D01*
X166324534Y-82052103D01*
X166299548Y-82082548D01*
X166269103Y-82107534D01*
X166234367Y-82126101D01*
X166196674Y-82137535D01*
X166151339Y-82142000D01*
X165064661Y-82142000D01*
X165019326Y-82137535D01*
X164981633Y-82126101D01*
X164946897Y-82107534D01*
X164916452Y-82082548D01*
X164891466Y-82052103D01*
X164872899Y-82017367D01*
X164861465Y-81979674D01*
X164857000Y-81934339D01*
X164857000Y-81097661D01*
X164861465Y-81052326D01*
X164872899Y-81014633D01*
X164891466Y-80979897D01*
X164916452Y-80949452D01*
X164946897Y-80924466D01*
X164981633Y-80905899D01*
X165019326Y-80894465D01*
X165064661Y-80890000D01*
X166151339Y-80890000D01*
X166196674Y-80894465D01*
X166196674Y-80894465D01*
G37*
G36*
X144001469Y-78029895D02*
G01*
X144067653Y-78036413D01*
X144237492Y-78087933D01*
X144394017Y-78171598D01*
X144429755Y-78200928D01*
X144531212Y-78284190D01*
X144614474Y-78385647D01*
X144643804Y-78421385D01*
X144727469Y-78577910D01*
X144778989Y-78747749D01*
X144796385Y-78924376D01*
X144778989Y-79101003D01*
X144727469Y-79270842D01*
X144643804Y-79427367D01*
X144614474Y-79463105D01*
X144531212Y-79564562D01*
X144429755Y-79647824D01*
X144394017Y-79677154D01*
X144237492Y-79760819D01*
X144067653Y-79812339D01*
X144001468Y-79818858D01*
X143935286Y-79825376D01*
X143846766Y-79825376D01*
X143780584Y-79818858D01*
X143714399Y-79812339D01*
X143544560Y-79760819D01*
X143388035Y-79677154D01*
X143352297Y-79647824D01*
X143250840Y-79564562D01*
X143167578Y-79463105D01*
X143138248Y-79427367D01*
X143054583Y-79270842D01*
X143003063Y-79101003D01*
X142985667Y-78924376D01*
X143003063Y-78747749D01*
X143054583Y-78577910D01*
X143138248Y-78421385D01*
X143167578Y-78385647D01*
X143250840Y-78284190D01*
X143352297Y-78200928D01*
X143388035Y-78171598D01*
X143544560Y-78087933D01*
X143714399Y-78036413D01*
X143780583Y-78029895D01*
X143846766Y-78023376D01*
X143935286Y-78023376D01*
X144001469Y-78029895D01*
X144001469Y-78029895D01*
G37*
G36*
X169827947Y-77473721D02*
G01*
X169907576Y-77481564D01*
X170060827Y-77528052D01*
X170060830Y-77528053D01*
X170202063Y-77603544D01*
X170325859Y-77705141D01*
X170427456Y-77828937D01*
X170502947Y-77970170D01*
X170502948Y-77970173D01*
X170549436Y-78123424D01*
X170565133Y-78282800D01*
X170549436Y-78442176D01*
X170508262Y-78577908D01*
X170502947Y-78595430D01*
X170427456Y-78736663D01*
X170325859Y-78860459D01*
X170202063Y-78962056D01*
X170060830Y-79037547D01*
X170060827Y-79037548D01*
X169907576Y-79084036D01*
X169827947Y-79091879D01*
X169788134Y-79095800D01*
X169708266Y-79095800D01*
X169668453Y-79091879D01*
X169588824Y-79084036D01*
X169435573Y-79037548D01*
X169435570Y-79037547D01*
X169294337Y-78962056D01*
X169170541Y-78860459D01*
X169068944Y-78736663D01*
X168993453Y-78595430D01*
X168988138Y-78577908D01*
X168946964Y-78442176D01*
X168931267Y-78282800D01*
X168946964Y-78123424D01*
X168993452Y-77970173D01*
X168993453Y-77970170D01*
X169068944Y-77828937D01*
X169170541Y-77705141D01*
X169294337Y-77603544D01*
X169435570Y-77528053D01*
X169435573Y-77528052D01*
X169588824Y-77481564D01*
X169668453Y-77473721D01*
X169708266Y-77469800D01*
X169788134Y-77469800D01*
X169827947Y-77473721D01*
X169827947Y-77473721D01*
G37*
G36*
X144001468Y-75489894D02*
G01*
X144067653Y-75496413D01*
X144237492Y-75547933D01*
X144394017Y-75631598D01*
X144429755Y-75660928D01*
X144531212Y-75744190D01*
X144614474Y-75845647D01*
X144643804Y-75881385D01*
X144727469Y-76037910D01*
X144778989Y-76207749D01*
X144796385Y-76384376D01*
X144778989Y-76561003D01*
X144727469Y-76730842D01*
X144643804Y-76887367D01*
X144614474Y-76923105D01*
X144531212Y-77024562D01*
X144429755Y-77107824D01*
X144394017Y-77137154D01*
X144237492Y-77220819D01*
X144067653Y-77272339D01*
X144001468Y-77278858D01*
X143935286Y-77285376D01*
X143846766Y-77285376D01*
X143780584Y-77278858D01*
X143714399Y-77272339D01*
X143544560Y-77220819D01*
X143388035Y-77137154D01*
X143352297Y-77107824D01*
X143250840Y-77024562D01*
X143167578Y-76923105D01*
X143138248Y-76887367D01*
X143054583Y-76730842D01*
X143003063Y-76561003D01*
X142985667Y-76384376D01*
X143003063Y-76207749D01*
X143054583Y-76037910D01*
X143138248Y-75881385D01*
X143167578Y-75845647D01*
X143250840Y-75744190D01*
X143352297Y-75660928D01*
X143388035Y-75631598D01*
X143544560Y-75547933D01*
X143714399Y-75496413D01*
X143780584Y-75489894D01*
X143846766Y-75483376D01*
X143935286Y-75483376D01*
X144001468Y-75489894D01*
X144001468Y-75489894D01*
G37*
G36*
X169827947Y-74933721D02*
G01*
X169907576Y-74941564D01*
X170060827Y-74988052D01*
X170060830Y-74988053D01*
X170202063Y-75063544D01*
X170325859Y-75165141D01*
X170427456Y-75288937D01*
X170502947Y-75430170D01*
X170502948Y-75430173D01*
X170549436Y-75583424D01*
X170565133Y-75742800D01*
X170549436Y-75902176D01*
X170508262Y-76037908D01*
X170502947Y-76055430D01*
X170427456Y-76196663D01*
X170325859Y-76320459D01*
X170202063Y-76422056D01*
X170060830Y-76497547D01*
X170060827Y-76497548D01*
X169907576Y-76544036D01*
X169827947Y-76551879D01*
X169788134Y-76555800D01*
X169708266Y-76555800D01*
X169668453Y-76551879D01*
X169588824Y-76544036D01*
X169435573Y-76497548D01*
X169435570Y-76497547D01*
X169294337Y-76422056D01*
X169170541Y-76320459D01*
X169068944Y-76196663D01*
X168993453Y-76055430D01*
X168988138Y-76037908D01*
X168946964Y-75902176D01*
X168931267Y-75742800D01*
X168946964Y-75583424D01*
X168993452Y-75430173D01*
X168993453Y-75430170D01*
X169068944Y-75288937D01*
X169170541Y-75165141D01*
X169294337Y-75063544D01*
X169435570Y-74988053D01*
X169435573Y-74988052D01*
X169588824Y-74941564D01*
X169668453Y-74933721D01*
X169708266Y-74929800D01*
X169788134Y-74929800D01*
X169827947Y-74933721D01*
X169827947Y-74933721D01*
G37*
G36*
X144001468Y-72949894D02*
G01*
X144067653Y-72956413D01*
X144237492Y-73007933D01*
X144394017Y-73091598D01*
X144429755Y-73120928D01*
X144531212Y-73204190D01*
X144614474Y-73305647D01*
X144643804Y-73341385D01*
X144727469Y-73497910D01*
X144778989Y-73667749D01*
X144796385Y-73844376D01*
X144778989Y-74021003D01*
X144727469Y-74190842D01*
X144643804Y-74347367D01*
X144614474Y-74383105D01*
X144531212Y-74484562D01*
X144429755Y-74567824D01*
X144394017Y-74597154D01*
X144237492Y-74680819D01*
X144067653Y-74732339D01*
X144001468Y-74738858D01*
X143935286Y-74745376D01*
X143846766Y-74745376D01*
X143780584Y-74738858D01*
X143714399Y-74732339D01*
X143544560Y-74680819D01*
X143388035Y-74597154D01*
X143352297Y-74567824D01*
X143250840Y-74484562D01*
X143167578Y-74383105D01*
X143138248Y-74347367D01*
X143054583Y-74190842D01*
X143003063Y-74021003D01*
X142985667Y-73844376D01*
X143003063Y-73667749D01*
X143054583Y-73497910D01*
X143138248Y-73341385D01*
X143167578Y-73305647D01*
X143250840Y-73204190D01*
X143352297Y-73120928D01*
X143388035Y-73091598D01*
X143544560Y-73007933D01*
X143714399Y-72956413D01*
X143780584Y-72949894D01*
X143846766Y-72943376D01*
X143935286Y-72943376D01*
X144001468Y-72949894D01*
X144001468Y-72949894D01*
G37*
G36*
X170561200Y-74015800D02*
G01*
X168935200Y-74015800D01*
X168935200Y-72389800D01*
X170561200Y-72389800D01*
X170561200Y-74015800D01*
X170561200Y-74015800D01*
G37*
G36*
X144004538Y-70408303D02*
G01*
X144153838Y-70438000D01*
X144317810Y-70505920D01*
X144465380Y-70604523D01*
X144590879Y-70730022D01*
X144689482Y-70877592D01*
X144757402Y-71041564D01*
X144792026Y-71215635D01*
X144792026Y-71393117D01*
X144757402Y-71567188D01*
X144689482Y-71731160D01*
X144590879Y-71878730D01*
X144465380Y-72004229D01*
X144317810Y-72102832D01*
X144153838Y-72170752D01*
X144004538Y-72200449D01*
X143979768Y-72205376D01*
X143802284Y-72205376D01*
X143777514Y-72200449D01*
X143628214Y-72170752D01*
X143464242Y-72102832D01*
X143316672Y-72004229D01*
X143191173Y-71878730D01*
X143092570Y-71731160D01*
X143024650Y-71567188D01*
X142990026Y-71393117D01*
X142990026Y-71215635D01*
X143024650Y-71041564D01*
X143092570Y-70877592D01*
X143191173Y-70730022D01*
X143316672Y-70604523D01*
X143464242Y-70505920D01*
X143628214Y-70438000D01*
X143777514Y-70408303D01*
X143802284Y-70403376D01*
X143979768Y-70403376D01*
X144004538Y-70408303D01*
X144004538Y-70408303D01*
G37*
G36*
X144704026Y-69577376D02*
G01*
X143078026Y-69577376D01*
X143078026Y-67951376D01*
X144704026Y-67951376D01*
X144704026Y-69577376D01*
X144704026Y-69577376D01*
G37*
G36*
X146510773Y-67955297D02*
G01*
X146590402Y-67963140D01*
X146743653Y-68009628D01*
X146743656Y-68009629D01*
X146884889Y-68085120D01*
X147008685Y-68186717D01*
X147110282Y-68310513D01*
X147185773Y-68451746D01*
X147185774Y-68451749D01*
X147232262Y-68605000D01*
X147247959Y-68764376D01*
X147232262Y-68923752D01*
X147185774Y-69077003D01*
X147185773Y-69077006D01*
X147110282Y-69218239D01*
X147008685Y-69342035D01*
X146884889Y-69443632D01*
X146743656Y-69519123D01*
X146743653Y-69519124D01*
X146590402Y-69565612D01*
X146510773Y-69573455D01*
X146470960Y-69577376D01*
X146391092Y-69577376D01*
X146351279Y-69573455D01*
X146271650Y-69565612D01*
X146118399Y-69519124D01*
X146118396Y-69519123D01*
X145977163Y-69443632D01*
X145853367Y-69342035D01*
X145751770Y-69218239D01*
X145676279Y-69077006D01*
X145676278Y-69077003D01*
X145629790Y-68923752D01*
X145614093Y-68764376D01*
X145629790Y-68605000D01*
X145676278Y-68451749D01*
X145676279Y-68451746D01*
X145751770Y-68310513D01*
X145853367Y-68186717D01*
X145977163Y-68085120D01*
X146118396Y-68009629D01*
X146118399Y-68009628D01*
X146271650Y-67963140D01*
X146351279Y-67955297D01*
X146391092Y-67951376D01*
X146470960Y-67951376D01*
X146510773Y-67955297D01*
X146510773Y-67955297D01*
G37*
G36*
X149050773Y-67955297D02*
G01*
X149130402Y-67963140D01*
X149283653Y-68009628D01*
X149283656Y-68009629D01*
X149424889Y-68085120D01*
X149548685Y-68186717D01*
X149650282Y-68310513D01*
X149725773Y-68451746D01*
X149725774Y-68451749D01*
X149772262Y-68605000D01*
X149787959Y-68764376D01*
X149772262Y-68923752D01*
X149725774Y-69077003D01*
X149725773Y-69077006D01*
X149650282Y-69218239D01*
X149548685Y-69342035D01*
X149424889Y-69443632D01*
X149283656Y-69519123D01*
X149283653Y-69519124D01*
X149130402Y-69565612D01*
X149050773Y-69573455D01*
X149010960Y-69577376D01*
X148931092Y-69577376D01*
X148891279Y-69573455D01*
X148811650Y-69565612D01*
X148658399Y-69519124D01*
X148658396Y-69519123D01*
X148517163Y-69443632D01*
X148393367Y-69342035D01*
X148291770Y-69218239D01*
X148216279Y-69077006D01*
X148216278Y-69077003D01*
X148169790Y-68923752D01*
X148154093Y-68764376D01*
X148169790Y-68605000D01*
X148216278Y-68451749D01*
X148216279Y-68451746D01*
X148291770Y-68310513D01*
X148393367Y-68186717D01*
X148517163Y-68085120D01*
X148658396Y-68009629D01*
X148658399Y-68009628D01*
X148811650Y-67963140D01*
X148891279Y-67955297D01*
X148931092Y-67951376D01*
X149010960Y-67951376D01*
X149050773Y-67955297D01*
X149050773Y-67955297D01*
G37*
G36*
X151590773Y-67955297D02*
G01*
X151670402Y-67963140D01*
X151823653Y-68009628D01*
X151823656Y-68009629D01*
X151964889Y-68085120D01*
X152088685Y-68186717D01*
X152190282Y-68310513D01*
X152265773Y-68451746D01*
X152265774Y-68451749D01*
X152312262Y-68605000D01*
X152327959Y-68764376D01*
X152312262Y-68923752D01*
X152265774Y-69077003D01*
X152265773Y-69077006D01*
X152190282Y-69218239D01*
X152088685Y-69342035D01*
X151964889Y-69443632D01*
X151823656Y-69519123D01*
X151823653Y-69519124D01*
X151670402Y-69565612D01*
X151590773Y-69573455D01*
X151550960Y-69577376D01*
X151471092Y-69577376D01*
X151431279Y-69573455D01*
X151351650Y-69565612D01*
X151198399Y-69519124D01*
X151198396Y-69519123D01*
X151057163Y-69443632D01*
X150933367Y-69342035D01*
X150831770Y-69218239D01*
X150756279Y-69077006D01*
X150756278Y-69077003D01*
X150709790Y-68923752D01*
X150694093Y-68764376D01*
X150709790Y-68605000D01*
X150756278Y-68451749D01*
X150756279Y-68451746D01*
X150831770Y-68310513D01*
X150933367Y-68186717D01*
X151057163Y-68085120D01*
X151198396Y-68009629D01*
X151198399Y-68009628D01*
X151351650Y-67963140D01*
X151431279Y-67955297D01*
X151471092Y-67951376D01*
X151550960Y-67951376D01*
X151590773Y-67955297D01*
X151590773Y-67955297D01*
G37*
G36*
X154130773Y-67955297D02*
G01*
X154210402Y-67963140D01*
X154363653Y-68009628D01*
X154363656Y-68009629D01*
X154504889Y-68085120D01*
X154628685Y-68186717D01*
X154730282Y-68310513D01*
X154805773Y-68451746D01*
X154805774Y-68451749D01*
X154852262Y-68605000D01*
X154867959Y-68764376D01*
X154852262Y-68923752D01*
X154805774Y-69077003D01*
X154805773Y-69077006D01*
X154730282Y-69218239D01*
X154628685Y-69342035D01*
X154504889Y-69443632D01*
X154363656Y-69519123D01*
X154363653Y-69519124D01*
X154210402Y-69565612D01*
X154130773Y-69573455D01*
X154090960Y-69577376D01*
X154011092Y-69577376D01*
X153971279Y-69573455D01*
X153891650Y-69565612D01*
X153738399Y-69519124D01*
X153738396Y-69519123D01*
X153597163Y-69443632D01*
X153473367Y-69342035D01*
X153371770Y-69218239D01*
X153296279Y-69077006D01*
X153296278Y-69077003D01*
X153249790Y-68923752D01*
X153234093Y-68764376D01*
X153249790Y-68605000D01*
X153296278Y-68451749D01*
X153296279Y-68451746D01*
X153371770Y-68310513D01*
X153473367Y-68186717D01*
X153597163Y-68085120D01*
X153738396Y-68009629D01*
X153738399Y-68009628D01*
X153891650Y-67963140D01*
X153971279Y-67955297D01*
X154011092Y-67951376D01*
X154090960Y-67951376D01*
X154130773Y-67955297D01*
X154130773Y-67955297D01*
G37*
G36*
X171910773Y-67955297D02*
G01*
X171990402Y-67963140D01*
X172143653Y-68009628D01*
X172143656Y-68009629D01*
X172284889Y-68085120D01*
X172408685Y-68186717D01*
X172510282Y-68310513D01*
X172585773Y-68451746D01*
X172585774Y-68451749D01*
X172632262Y-68605000D01*
X172647959Y-68764376D01*
X172632262Y-68923752D01*
X172585774Y-69077003D01*
X172585773Y-69077006D01*
X172510282Y-69218239D01*
X172408685Y-69342035D01*
X172284889Y-69443632D01*
X172143656Y-69519123D01*
X172143653Y-69519124D01*
X171990402Y-69565612D01*
X171910773Y-69573455D01*
X171870960Y-69577376D01*
X171791092Y-69577376D01*
X171751279Y-69573455D01*
X171671650Y-69565612D01*
X171518399Y-69519124D01*
X171518396Y-69519123D01*
X171377163Y-69443632D01*
X171253367Y-69342035D01*
X171151770Y-69218239D01*
X171076279Y-69077006D01*
X171076278Y-69077003D01*
X171029790Y-68923752D01*
X171014093Y-68764376D01*
X171029790Y-68605000D01*
X171076278Y-68451749D01*
X171076279Y-68451746D01*
X171151770Y-68310513D01*
X171253367Y-68186717D01*
X171377163Y-68085120D01*
X171518396Y-68009629D01*
X171518399Y-68009628D01*
X171671650Y-67963140D01*
X171751279Y-67955297D01*
X171791092Y-67951376D01*
X171870960Y-67951376D01*
X171910773Y-67955297D01*
X171910773Y-67955297D01*
G37*
G36*
X166830773Y-67955297D02*
G01*
X166910402Y-67963140D01*
X167063653Y-68009628D01*
X167063656Y-68009629D01*
X167204889Y-68085120D01*
X167328685Y-68186717D01*
X167430282Y-68310513D01*
X167505773Y-68451746D01*
X167505774Y-68451749D01*
X167552262Y-68605000D01*
X167567959Y-68764376D01*
X167552262Y-68923752D01*
X167505774Y-69077003D01*
X167505773Y-69077006D01*
X167430282Y-69218239D01*
X167328685Y-69342035D01*
X167204889Y-69443632D01*
X167063656Y-69519123D01*
X167063653Y-69519124D01*
X166910402Y-69565612D01*
X166830773Y-69573455D01*
X166790960Y-69577376D01*
X166711092Y-69577376D01*
X166671279Y-69573455D01*
X166591650Y-69565612D01*
X166438399Y-69519124D01*
X166438396Y-69519123D01*
X166297163Y-69443632D01*
X166173367Y-69342035D01*
X166071770Y-69218239D01*
X165996279Y-69077006D01*
X165996278Y-69077003D01*
X165949790Y-68923752D01*
X165934093Y-68764376D01*
X165949790Y-68605000D01*
X165996278Y-68451749D01*
X165996279Y-68451746D01*
X166071770Y-68310513D01*
X166173367Y-68186717D01*
X166297163Y-68085120D01*
X166438396Y-68009629D01*
X166438399Y-68009628D01*
X166591650Y-67963140D01*
X166671279Y-67955297D01*
X166711092Y-67951376D01*
X166790960Y-67951376D01*
X166830773Y-67955297D01*
X166830773Y-67955297D01*
G37*
G36*
X164290773Y-67955297D02*
G01*
X164370402Y-67963140D01*
X164523653Y-68009628D01*
X164523656Y-68009629D01*
X164664889Y-68085120D01*
X164788685Y-68186717D01*
X164890282Y-68310513D01*
X164965773Y-68451746D01*
X164965774Y-68451749D01*
X165012262Y-68605000D01*
X165027959Y-68764376D01*
X165012262Y-68923752D01*
X164965774Y-69077003D01*
X164965773Y-69077006D01*
X164890282Y-69218239D01*
X164788685Y-69342035D01*
X164664889Y-69443632D01*
X164523656Y-69519123D01*
X164523653Y-69519124D01*
X164370402Y-69565612D01*
X164290773Y-69573455D01*
X164250960Y-69577376D01*
X164171092Y-69577376D01*
X164131279Y-69573455D01*
X164051650Y-69565612D01*
X163898399Y-69519124D01*
X163898396Y-69519123D01*
X163757163Y-69443632D01*
X163633367Y-69342035D01*
X163531770Y-69218239D01*
X163456279Y-69077006D01*
X163456278Y-69077003D01*
X163409790Y-68923752D01*
X163394093Y-68764376D01*
X163409790Y-68605000D01*
X163456278Y-68451749D01*
X163456279Y-68451746D01*
X163531770Y-68310513D01*
X163633367Y-68186717D01*
X163757163Y-68085120D01*
X163898396Y-68009629D01*
X163898399Y-68009628D01*
X164051650Y-67963140D01*
X164131279Y-67955297D01*
X164171092Y-67951376D01*
X164250960Y-67951376D01*
X164290773Y-67955297D01*
X164290773Y-67955297D01*
G37*
G36*
X161750773Y-67955297D02*
G01*
X161830402Y-67963140D01*
X161983653Y-68009628D01*
X161983656Y-68009629D01*
X162124889Y-68085120D01*
X162248685Y-68186717D01*
X162350282Y-68310513D01*
X162425773Y-68451746D01*
X162425774Y-68451749D01*
X162472262Y-68605000D01*
X162487959Y-68764376D01*
X162472262Y-68923752D01*
X162425774Y-69077003D01*
X162425773Y-69077006D01*
X162350282Y-69218239D01*
X162248685Y-69342035D01*
X162124889Y-69443632D01*
X161983656Y-69519123D01*
X161983653Y-69519124D01*
X161830402Y-69565612D01*
X161750773Y-69573455D01*
X161710960Y-69577376D01*
X161631092Y-69577376D01*
X161591279Y-69573455D01*
X161511650Y-69565612D01*
X161358399Y-69519124D01*
X161358396Y-69519123D01*
X161217163Y-69443632D01*
X161093367Y-69342035D01*
X160991770Y-69218239D01*
X160916279Y-69077006D01*
X160916278Y-69077003D01*
X160869790Y-68923752D01*
X160854093Y-68764376D01*
X160869790Y-68605000D01*
X160916278Y-68451749D01*
X160916279Y-68451746D01*
X160991770Y-68310513D01*
X161093367Y-68186717D01*
X161217163Y-68085120D01*
X161358396Y-68009629D01*
X161358399Y-68009628D01*
X161511650Y-67963140D01*
X161591279Y-67955297D01*
X161631092Y-67951376D01*
X161710960Y-67951376D01*
X161750773Y-67955297D01*
X161750773Y-67955297D01*
G37*
G36*
X159210773Y-67955297D02*
G01*
X159290402Y-67963140D01*
X159443653Y-68009628D01*
X159443656Y-68009629D01*
X159584889Y-68085120D01*
X159708685Y-68186717D01*
X159810282Y-68310513D01*
X159885773Y-68451746D01*
X159885774Y-68451749D01*
X159932262Y-68605000D01*
X159947959Y-68764376D01*
X159932262Y-68923752D01*
X159885774Y-69077003D01*
X159885773Y-69077006D01*
X159810282Y-69218239D01*
X159708685Y-69342035D01*
X159584889Y-69443632D01*
X159443656Y-69519123D01*
X159443653Y-69519124D01*
X159290402Y-69565612D01*
X159210773Y-69573455D01*
X159170960Y-69577376D01*
X159091092Y-69577376D01*
X159051279Y-69573455D01*
X158971650Y-69565612D01*
X158818399Y-69519124D01*
X158818396Y-69519123D01*
X158677163Y-69443632D01*
X158553367Y-69342035D01*
X158451770Y-69218239D01*
X158376279Y-69077006D01*
X158376278Y-69077003D01*
X158329790Y-68923752D01*
X158314093Y-68764376D01*
X158329790Y-68605000D01*
X158376278Y-68451749D01*
X158376279Y-68451746D01*
X158451770Y-68310513D01*
X158553367Y-68186717D01*
X158677163Y-68085120D01*
X158818396Y-68009629D01*
X158818399Y-68009628D01*
X158971650Y-67963140D01*
X159051279Y-67955297D01*
X159091092Y-67951376D01*
X159170960Y-67951376D01*
X159210773Y-67955297D01*
X159210773Y-67955297D01*
G37*
G36*
X156670773Y-67955297D02*
G01*
X156750402Y-67963140D01*
X156903653Y-68009628D01*
X156903656Y-68009629D01*
X157044889Y-68085120D01*
X157168685Y-68186717D01*
X157270282Y-68310513D01*
X157345773Y-68451746D01*
X157345774Y-68451749D01*
X157392262Y-68605000D01*
X157407959Y-68764376D01*
X157392262Y-68923752D01*
X157345774Y-69077003D01*
X157345773Y-69077006D01*
X157270282Y-69218239D01*
X157168685Y-69342035D01*
X157044889Y-69443632D01*
X156903656Y-69519123D01*
X156903653Y-69519124D01*
X156750402Y-69565612D01*
X156670773Y-69573455D01*
X156630960Y-69577376D01*
X156551092Y-69577376D01*
X156511279Y-69573455D01*
X156431650Y-69565612D01*
X156278399Y-69519124D01*
X156278396Y-69519123D01*
X156137163Y-69443632D01*
X156013367Y-69342035D01*
X155911770Y-69218239D01*
X155836279Y-69077006D01*
X155836278Y-69077003D01*
X155789790Y-68923752D01*
X155774093Y-68764376D01*
X155789790Y-68605000D01*
X155836278Y-68451749D01*
X155836279Y-68451746D01*
X155911770Y-68310513D01*
X156013367Y-68186717D01*
X156137163Y-68085120D01*
X156278396Y-68009629D01*
X156278399Y-68009628D01*
X156431650Y-67963140D01*
X156511279Y-67955297D01*
X156551092Y-67951376D01*
X156630960Y-67951376D01*
X156670773Y-67955297D01*
X156670773Y-67955297D01*
G37*
G36*
X169370773Y-67955297D02*
G01*
X169450402Y-67963140D01*
X169603653Y-68009628D01*
X169603656Y-68009629D01*
X169744889Y-68085120D01*
X169868685Y-68186717D01*
X169970282Y-68310513D01*
X170045773Y-68451746D01*
X170045774Y-68451749D01*
X170092262Y-68605000D01*
X170107959Y-68764376D01*
X170092262Y-68923752D01*
X170045774Y-69077003D01*
X170045773Y-69077006D01*
X169970282Y-69218239D01*
X169868685Y-69342035D01*
X169744889Y-69443632D01*
X169603656Y-69519123D01*
X169603653Y-69519124D01*
X169450402Y-69565612D01*
X169370773Y-69573455D01*
X169330960Y-69577376D01*
X169251092Y-69577376D01*
X169211279Y-69573455D01*
X169131650Y-69565612D01*
X168978399Y-69519124D01*
X168978396Y-69519123D01*
X168837163Y-69443632D01*
X168713367Y-69342035D01*
X168611770Y-69218239D01*
X168536279Y-69077006D01*
X168536278Y-69077003D01*
X168489790Y-68923752D01*
X168474093Y-68764376D01*
X168489790Y-68605000D01*
X168536278Y-68451749D01*
X168536279Y-68451746D01*
X168611770Y-68310513D01*
X168713367Y-68186717D01*
X168837163Y-68085120D01*
X168978396Y-68009629D01*
X168978399Y-68009628D01*
X169131650Y-67963140D01*
X169211279Y-67955297D01*
X169251092Y-67951376D01*
X169330960Y-67951376D01*
X169370773Y-67955297D01*
X169370773Y-67955297D01*
G37*
G36*
X150320747Y-65415297D02*
G01*
X150400376Y-65423140D01*
X150553627Y-65469628D01*
X150553630Y-65469629D01*
X150694863Y-65545120D01*
X150818659Y-65646717D01*
X150920256Y-65770513D01*
X150995747Y-65911746D01*
X150995748Y-65911749D01*
X151042236Y-66065000D01*
X151057933Y-66224376D01*
X151042236Y-66383752D01*
X150995748Y-66537003D01*
X150995747Y-66537006D01*
X150920256Y-66678239D01*
X150818659Y-66802035D01*
X150694863Y-66903632D01*
X150553630Y-66979123D01*
X150553627Y-66979124D01*
X150400376Y-67025612D01*
X150320747Y-67033455D01*
X150280934Y-67037376D01*
X150201066Y-67037376D01*
X150161253Y-67033455D01*
X150081624Y-67025612D01*
X149928373Y-66979124D01*
X149928370Y-66979123D01*
X149787137Y-66903632D01*
X149663341Y-66802035D01*
X149561744Y-66678239D01*
X149486253Y-66537006D01*
X149486252Y-66537003D01*
X149439764Y-66383752D01*
X149424067Y-66224376D01*
X149439764Y-66065000D01*
X149486252Y-65911749D01*
X149486253Y-65911746D01*
X149561744Y-65770513D01*
X149663341Y-65646717D01*
X149787137Y-65545120D01*
X149928370Y-65469629D01*
X149928373Y-65469628D01*
X150081624Y-65423140D01*
X150161253Y-65415297D01*
X150201066Y-65411376D01*
X150280934Y-65411376D01*
X150320747Y-65415297D01*
X150320747Y-65415297D01*
G37*
G36*
X145240747Y-65415297D02*
G01*
X145320376Y-65423140D01*
X145473627Y-65469628D01*
X145473630Y-65469629D01*
X145614863Y-65545120D01*
X145738659Y-65646717D01*
X145840256Y-65770513D01*
X145915747Y-65911746D01*
X145915748Y-65911749D01*
X145962236Y-66065000D01*
X145977933Y-66224376D01*
X145962236Y-66383752D01*
X145915748Y-66537003D01*
X145915747Y-66537006D01*
X145840256Y-66678239D01*
X145738659Y-66802035D01*
X145614863Y-66903632D01*
X145473630Y-66979123D01*
X145473627Y-66979124D01*
X145320376Y-67025612D01*
X145240747Y-67033455D01*
X145200934Y-67037376D01*
X145121066Y-67037376D01*
X145081253Y-67033455D01*
X145001624Y-67025612D01*
X144848373Y-66979124D01*
X144848370Y-66979123D01*
X144707137Y-66903632D01*
X144583341Y-66802035D01*
X144481744Y-66678239D01*
X144406253Y-66537006D01*
X144406252Y-66537003D01*
X144359764Y-66383752D01*
X144344067Y-66224376D01*
X144359764Y-66065000D01*
X144406252Y-65911749D01*
X144406253Y-65911746D01*
X144481744Y-65770513D01*
X144583341Y-65646717D01*
X144707137Y-65545120D01*
X144848370Y-65469629D01*
X144848373Y-65469628D01*
X145001624Y-65423140D01*
X145081253Y-65415297D01*
X145121066Y-65411376D01*
X145200934Y-65411376D01*
X145240747Y-65415297D01*
X145240747Y-65415297D01*
G37*
G36*
X147780747Y-65415297D02*
G01*
X147860376Y-65423140D01*
X148013627Y-65469628D01*
X148013630Y-65469629D01*
X148154863Y-65545120D01*
X148278659Y-65646717D01*
X148380256Y-65770513D01*
X148455747Y-65911746D01*
X148455748Y-65911749D01*
X148502236Y-66065000D01*
X148517933Y-66224376D01*
X148502236Y-66383752D01*
X148455748Y-66537003D01*
X148455747Y-66537006D01*
X148380256Y-66678239D01*
X148278659Y-66802035D01*
X148154863Y-66903632D01*
X148013630Y-66979123D01*
X148013627Y-66979124D01*
X147860376Y-67025612D01*
X147780747Y-67033455D01*
X147740934Y-67037376D01*
X147661066Y-67037376D01*
X147621253Y-67033455D01*
X147541624Y-67025612D01*
X147388373Y-66979124D01*
X147388370Y-66979123D01*
X147247137Y-66903632D01*
X147123341Y-66802035D01*
X147021744Y-66678239D01*
X146946253Y-66537006D01*
X146946252Y-66537003D01*
X146899764Y-66383752D01*
X146884067Y-66224376D01*
X146899764Y-66065000D01*
X146946252Y-65911749D01*
X146946253Y-65911746D01*
X147021744Y-65770513D01*
X147123341Y-65646717D01*
X147247137Y-65545120D01*
X147388370Y-65469629D01*
X147388373Y-65469628D01*
X147541624Y-65423140D01*
X147621253Y-65415297D01*
X147661066Y-65411376D01*
X147740934Y-65411376D01*
X147780747Y-65415297D01*
X147780747Y-65415297D01*
G37*
G36*
X155400747Y-65415297D02*
G01*
X155480376Y-65423140D01*
X155633627Y-65469628D01*
X155633630Y-65469629D01*
X155774863Y-65545120D01*
X155898659Y-65646717D01*
X156000256Y-65770513D01*
X156075747Y-65911746D01*
X156075748Y-65911749D01*
X156122236Y-66065000D01*
X156137933Y-66224376D01*
X156122236Y-66383752D01*
X156075748Y-66537003D01*
X156075747Y-66537006D01*
X156000256Y-66678239D01*
X155898659Y-66802035D01*
X155774863Y-66903632D01*
X155633630Y-66979123D01*
X155633627Y-66979124D01*
X155480376Y-67025612D01*
X155400747Y-67033455D01*
X155360934Y-67037376D01*
X155281066Y-67037376D01*
X155241253Y-67033455D01*
X155161624Y-67025612D01*
X155008373Y-66979124D01*
X155008370Y-66979123D01*
X154867137Y-66903632D01*
X154743341Y-66802035D01*
X154641744Y-66678239D01*
X154566253Y-66537006D01*
X154566252Y-66537003D01*
X154519764Y-66383752D01*
X154504067Y-66224376D01*
X154519764Y-66065000D01*
X154566252Y-65911749D01*
X154566253Y-65911746D01*
X154641744Y-65770513D01*
X154743341Y-65646717D01*
X154867137Y-65545120D01*
X155008370Y-65469629D01*
X155008373Y-65469628D01*
X155161624Y-65423140D01*
X155241253Y-65415297D01*
X155281066Y-65411376D01*
X155360934Y-65411376D01*
X155400747Y-65415297D01*
X155400747Y-65415297D01*
G37*
G36*
X152860747Y-65415297D02*
G01*
X152940376Y-65423140D01*
X153093627Y-65469628D01*
X153093630Y-65469629D01*
X153234863Y-65545120D01*
X153358659Y-65646717D01*
X153460256Y-65770513D01*
X153535747Y-65911746D01*
X153535748Y-65911749D01*
X153582236Y-66065000D01*
X153597933Y-66224376D01*
X153582236Y-66383752D01*
X153535748Y-66537003D01*
X153535747Y-66537006D01*
X153460256Y-66678239D01*
X153358659Y-66802035D01*
X153234863Y-66903632D01*
X153093630Y-66979123D01*
X153093627Y-66979124D01*
X152940376Y-67025612D01*
X152860747Y-67033455D01*
X152820934Y-67037376D01*
X152741066Y-67037376D01*
X152701253Y-67033455D01*
X152621624Y-67025612D01*
X152468373Y-66979124D01*
X152468370Y-66979123D01*
X152327137Y-66903632D01*
X152203341Y-66802035D01*
X152101744Y-66678239D01*
X152026253Y-66537006D01*
X152026252Y-66537003D01*
X151979764Y-66383752D01*
X151964067Y-66224376D01*
X151979764Y-66065000D01*
X152026252Y-65911749D01*
X152026253Y-65911746D01*
X152101744Y-65770513D01*
X152203341Y-65646717D01*
X152327137Y-65545120D01*
X152468370Y-65469629D01*
X152468373Y-65469628D01*
X152621624Y-65423140D01*
X152701253Y-65415297D01*
X152741066Y-65411376D01*
X152820934Y-65411376D01*
X152860747Y-65415297D01*
X152860747Y-65415297D01*
G37*
G36*
X157940747Y-65415297D02*
G01*
X158020376Y-65423140D01*
X158173627Y-65469628D01*
X158173630Y-65469629D01*
X158314863Y-65545120D01*
X158438659Y-65646717D01*
X158540256Y-65770513D01*
X158615747Y-65911746D01*
X158615748Y-65911749D01*
X158662236Y-66065000D01*
X158677933Y-66224376D01*
X158662236Y-66383752D01*
X158615748Y-66537003D01*
X158615747Y-66537006D01*
X158540256Y-66678239D01*
X158438659Y-66802035D01*
X158314863Y-66903632D01*
X158173630Y-66979123D01*
X158173627Y-66979124D01*
X158020376Y-67025612D01*
X157940747Y-67033455D01*
X157900934Y-67037376D01*
X157821066Y-67037376D01*
X157781253Y-67033455D01*
X157701624Y-67025612D01*
X157548373Y-66979124D01*
X157548370Y-66979123D01*
X157407137Y-66903632D01*
X157283341Y-66802035D01*
X157181744Y-66678239D01*
X157106253Y-66537006D01*
X157106252Y-66537003D01*
X157059764Y-66383752D01*
X157044067Y-66224376D01*
X157059764Y-66065000D01*
X157106252Y-65911749D01*
X157106253Y-65911746D01*
X157181744Y-65770513D01*
X157283341Y-65646717D01*
X157407137Y-65545120D01*
X157548370Y-65469629D01*
X157548373Y-65469628D01*
X157701624Y-65423140D01*
X157781253Y-65415297D01*
X157821066Y-65411376D01*
X157900934Y-65411376D01*
X157940747Y-65415297D01*
X157940747Y-65415297D01*
G37*
G36*
X163020747Y-65415297D02*
G01*
X163100376Y-65423140D01*
X163253627Y-65469628D01*
X163253630Y-65469629D01*
X163394863Y-65545120D01*
X163518659Y-65646717D01*
X163620256Y-65770513D01*
X163695747Y-65911746D01*
X163695748Y-65911749D01*
X163742236Y-66065000D01*
X163757933Y-66224376D01*
X163742236Y-66383752D01*
X163695748Y-66537003D01*
X163695747Y-66537006D01*
X163620256Y-66678239D01*
X163518659Y-66802035D01*
X163394863Y-66903632D01*
X163253630Y-66979123D01*
X163253627Y-66979124D01*
X163100376Y-67025612D01*
X163020747Y-67033455D01*
X162980934Y-67037376D01*
X162901066Y-67037376D01*
X162861253Y-67033455D01*
X162781624Y-67025612D01*
X162628373Y-66979124D01*
X162628370Y-66979123D01*
X162487137Y-66903632D01*
X162363341Y-66802035D01*
X162261744Y-66678239D01*
X162186253Y-66537006D01*
X162186252Y-66537003D01*
X162139764Y-66383752D01*
X162124067Y-66224376D01*
X162139764Y-66065000D01*
X162186252Y-65911749D01*
X162186253Y-65911746D01*
X162261744Y-65770513D01*
X162363341Y-65646717D01*
X162487137Y-65545120D01*
X162628370Y-65469629D01*
X162628373Y-65469628D01*
X162781624Y-65423140D01*
X162861253Y-65415297D01*
X162901066Y-65411376D01*
X162980934Y-65411376D01*
X163020747Y-65415297D01*
X163020747Y-65415297D01*
G37*
G36*
X165560747Y-65415297D02*
G01*
X165640376Y-65423140D01*
X165793627Y-65469628D01*
X165793630Y-65469629D01*
X165934863Y-65545120D01*
X166058659Y-65646717D01*
X166160256Y-65770513D01*
X166235747Y-65911746D01*
X166235748Y-65911749D01*
X166282236Y-66065000D01*
X166297933Y-66224376D01*
X166282236Y-66383752D01*
X166235748Y-66537003D01*
X166235747Y-66537006D01*
X166160256Y-66678239D01*
X166058659Y-66802035D01*
X165934863Y-66903632D01*
X165793630Y-66979123D01*
X165793627Y-66979124D01*
X165640376Y-67025612D01*
X165560747Y-67033455D01*
X165520934Y-67037376D01*
X165441066Y-67037376D01*
X165401253Y-67033455D01*
X165321624Y-67025612D01*
X165168373Y-66979124D01*
X165168370Y-66979123D01*
X165027137Y-66903632D01*
X164903341Y-66802035D01*
X164801744Y-66678239D01*
X164726253Y-66537006D01*
X164726252Y-66537003D01*
X164679764Y-66383752D01*
X164664067Y-66224376D01*
X164679764Y-66065000D01*
X164726252Y-65911749D01*
X164726253Y-65911746D01*
X164801744Y-65770513D01*
X164903341Y-65646717D01*
X165027137Y-65545120D01*
X165168370Y-65469629D01*
X165168373Y-65469628D01*
X165321624Y-65423140D01*
X165401253Y-65415297D01*
X165441066Y-65411376D01*
X165520934Y-65411376D01*
X165560747Y-65415297D01*
X165560747Y-65415297D01*
G37*
G36*
X168100747Y-65415297D02*
G01*
X168180376Y-65423140D01*
X168333627Y-65469628D01*
X168333630Y-65469629D01*
X168474863Y-65545120D01*
X168598659Y-65646717D01*
X168700256Y-65770513D01*
X168775747Y-65911746D01*
X168775748Y-65911749D01*
X168822236Y-66065000D01*
X168837933Y-66224376D01*
X168822236Y-66383752D01*
X168775748Y-66537003D01*
X168775747Y-66537006D01*
X168700256Y-66678239D01*
X168598659Y-66802035D01*
X168474863Y-66903632D01*
X168333630Y-66979123D01*
X168333627Y-66979124D01*
X168180376Y-67025612D01*
X168100747Y-67033455D01*
X168060934Y-67037376D01*
X167981066Y-67037376D01*
X167941253Y-67033455D01*
X167861624Y-67025612D01*
X167708373Y-66979124D01*
X167708370Y-66979123D01*
X167567137Y-66903632D01*
X167443341Y-66802035D01*
X167341744Y-66678239D01*
X167266253Y-66537006D01*
X167266252Y-66537003D01*
X167219764Y-66383752D01*
X167204067Y-66224376D01*
X167219764Y-66065000D01*
X167266252Y-65911749D01*
X167266253Y-65911746D01*
X167341744Y-65770513D01*
X167443341Y-65646717D01*
X167567137Y-65545120D01*
X167708370Y-65469629D01*
X167708373Y-65469628D01*
X167861624Y-65423140D01*
X167941253Y-65415297D01*
X167981066Y-65411376D01*
X168060934Y-65411376D01*
X168100747Y-65415297D01*
X168100747Y-65415297D01*
G37*
G36*
X170640747Y-65415297D02*
G01*
X170720376Y-65423140D01*
X170873627Y-65469628D01*
X170873630Y-65469629D01*
X171014863Y-65545120D01*
X171138659Y-65646717D01*
X171240256Y-65770513D01*
X171315747Y-65911746D01*
X171315748Y-65911749D01*
X171362236Y-66065000D01*
X171377933Y-66224376D01*
X171362236Y-66383752D01*
X171315748Y-66537003D01*
X171315747Y-66537006D01*
X171240256Y-66678239D01*
X171138659Y-66802035D01*
X171014863Y-66903632D01*
X170873630Y-66979123D01*
X170873627Y-66979124D01*
X170720376Y-67025612D01*
X170640747Y-67033455D01*
X170600934Y-67037376D01*
X170521066Y-67037376D01*
X170481253Y-67033455D01*
X170401624Y-67025612D01*
X170248373Y-66979124D01*
X170248370Y-66979123D01*
X170107137Y-66903632D01*
X169983341Y-66802035D01*
X169881744Y-66678239D01*
X169806253Y-66537006D01*
X169806252Y-66537003D01*
X169759764Y-66383752D01*
X169744067Y-66224376D01*
X169759764Y-66065000D01*
X169806252Y-65911749D01*
X169806253Y-65911746D01*
X169881744Y-65770513D01*
X169983341Y-65646717D01*
X170107137Y-65545120D01*
X170248370Y-65469629D01*
X170248373Y-65469628D01*
X170401624Y-65423140D01*
X170481253Y-65415297D01*
X170521066Y-65411376D01*
X170600934Y-65411376D01*
X170640747Y-65415297D01*
X170640747Y-65415297D01*
G37*
G36*
X143434000Y-67037376D02*
G01*
X141808000Y-67037376D01*
X141808000Y-65411376D01*
X143434000Y-65411376D01*
X143434000Y-67037376D01*
X143434000Y-67037376D01*
G37*
G36*
X160480747Y-65415297D02*
G01*
X160560376Y-65423140D01*
X160713627Y-65469628D01*
X160713630Y-65469629D01*
X160854863Y-65545120D01*
X160978659Y-65646717D01*
X161080256Y-65770513D01*
X161155747Y-65911746D01*
X161155748Y-65911749D01*
X161202236Y-66065000D01*
X161217933Y-66224376D01*
X161202236Y-66383752D01*
X161155748Y-66537003D01*
X161155747Y-66537006D01*
X161080256Y-66678239D01*
X160978659Y-66802035D01*
X160854863Y-66903632D01*
X160713630Y-66979123D01*
X160713627Y-66979124D01*
X160560376Y-67025612D01*
X160480747Y-67033455D01*
X160440934Y-67037376D01*
X160361066Y-67037376D01*
X160321253Y-67033455D01*
X160241624Y-67025612D01*
X160088373Y-66979124D01*
X160088370Y-66979123D01*
X159947137Y-66903632D01*
X159823341Y-66802035D01*
X159721744Y-66678239D01*
X159646253Y-66537006D01*
X159646252Y-66537003D01*
X159599764Y-66383752D01*
X159584067Y-66224376D01*
X159599764Y-66065000D01*
X159646252Y-65911749D01*
X159646253Y-65911746D01*
X159721744Y-65770513D01*
X159823341Y-65646717D01*
X159947137Y-65545120D01*
X160088370Y-65469629D01*
X160088373Y-65469628D01*
X160241624Y-65423140D01*
X160321253Y-65415297D01*
X160361066Y-65411376D01*
X160440934Y-65411376D01*
X160480747Y-65415297D01*
X160480747Y-65415297D01*
G37*
G36*
X171910773Y-62875297D02*
G01*
X171990402Y-62883140D01*
X172143653Y-62929628D01*
X172143656Y-62929629D01*
X172284889Y-63005120D01*
X172408685Y-63106717D01*
X172510282Y-63230513D01*
X172585773Y-63371746D01*
X172585774Y-63371749D01*
X172632262Y-63525000D01*
X172647959Y-63684376D01*
X172632262Y-63843752D01*
X172585774Y-63997003D01*
X172585773Y-63997006D01*
X172510282Y-64138239D01*
X172408685Y-64262035D01*
X172284889Y-64363632D01*
X172143656Y-64439123D01*
X172143653Y-64439124D01*
X171990402Y-64485612D01*
X171910773Y-64493455D01*
X171870960Y-64497376D01*
X171791092Y-64497376D01*
X171751279Y-64493455D01*
X171671650Y-64485612D01*
X171518399Y-64439124D01*
X171518396Y-64439123D01*
X171377163Y-64363632D01*
X171253367Y-64262035D01*
X171151770Y-64138239D01*
X171076279Y-63997006D01*
X171076278Y-63997003D01*
X171029790Y-63843752D01*
X171014093Y-63684376D01*
X171029790Y-63525000D01*
X171076278Y-63371749D01*
X171076279Y-63371746D01*
X171151770Y-63230513D01*
X171253367Y-63106717D01*
X171377163Y-63005120D01*
X171518396Y-62929629D01*
X171518399Y-62929628D01*
X171671650Y-62883140D01*
X171751279Y-62875297D01*
X171791092Y-62871376D01*
X171870960Y-62871376D01*
X171910773Y-62875297D01*
X171910773Y-62875297D01*
G37*
G36*
X169370773Y-62875297D02*
G01*
X169450402Y-62883140D01*
X169603653Y-62929628D01*
X169603656Y-62929629D01*
X169744889Y-63005120D01*
X169868685Y-63106717D01*
X169970282Y-63230513D01*
X170045773Y-63371746D01*
X170045774Y-63371749D01*
X170092262Y-63525000D01*
X170107959Y-63684376D01*
X170092262Y-63843752D01*
X170045774Y-63997003D01*
X170045773Y-63997006D01*
X169970282Y-64138239D01*
X169868685Y-64262035D01*
X169744889Y-64363632D01*
X169603656Y-64439123D01*
X169603653Y-64439124D01*
X169450402Y-64485612D01*
X169370773Y-64493455D01*
X169330960Y-64497376D01*
X169251092Y-64497376D01*
X169211279Y-64493455D01*
X169131650Y-64485612D01*
X168978399Y-64439124D01*
X168978396Y-64439123D01*
X168837163Y-64363632D01*
X168713367Y-64262035D01*
X168611770Y-64138239D01*
X168536279Y-63997006D01*
X168536278Y-63997003D01*
X168489790Y-63843752D01*
X168474093Y-63684376D01*
X168489790Y-63525000D01*
X168536278Y-63371749D01*
X168536279Y-63371746D01*
X168611770Y-63230513D01*
X168713367Y-63106717D01*
X168837163Y-63005120D01*
X168978396Y-62929629D01*
X168978399Y-62929628D01*
X169131650Y-62883140D01*
X169211279Y-62875297D01*
X169251092Y-62871376D01*
X169330960Y-62871376D01*
X169370773Y-62875297D01*
X169370773Y-62875297D01*
G37*
G36*
X166830773Y-62875297D02*
G01*
X166910402Y-62883140D01*
X167063653Y-62929628D01*
X167063656Y-62929629D01*
X167204889Y-63005120D01*
X167328685Y-63106717D01*
X167430282Y-63230513D01*
X167505773Y-63371746D01*
X167505774Y-63371749D01*
X167552262Y-63525000D01*
X167567959Y-63684376D01*
X167552262Y-63843752D01*
X167505774Y-63997003D01*
X167505773Y-63997006D01*
X167430282Y-64138239D01*
X167328685Y-64262035D01*
X167204889Y-64363632D01*
X167063656Y-64439123D01*
X167063653Y-64439124D01*
X166910402Y-64485612D01*
X166830773Y-64493455D01*
X166790960Y-64497376D01*
X166711092Y-64497376D01*
X166671279Y-64493455D01*
X166591650Y-64485612D01*
X166438399Y-64439124D01*
X166438396Y-64439123D01*
X166297163Y-64363632D01*
X166173367Y-64262035D01*
X166071770Y-64138239D01*
X165996279Y-63997006D01*
X165996278Y-63997003D01*
X165949790Y-63843752D01*
X165934093Y-63684376D01*
X165949790Y-63525000D01*
X165996278Y-63371749D01*
X165996279Y-63371746D01*
X166071770Y-63230513D01*
X166173367Y-63106717D01*
X166297163Y-63005120D01*
X166438396Y-62929629D01*
X166438399Y-62929628D01*
X166591650Y-62883140D01*
X166671279Y-62875297D01*
X166711092Y-62871376D01*
X166790960Y-62871376D01*
X166830773Y-62875297D01*
X166830773Y-62875297D01*
G37*
G36*
X161750773Y-62875297D02*
G01*
X161830402Y-62883140D01*
X161983653Y-62929628D01*
X161983656Y-62929629D01*
X162124889Y-63005120D01*
X162248685Y-63106717D01*
X162350282Y-63230513D01*
X162425773Y-63371746D01*
X162425774Y-63371749D01*
X162472262Y-63525000D01*
X162487959Y-63684376D01*
X162472262Y-63843752D01*
X162425774Y-63997003D01*
X162425773Y-63997006D01*
X162350282Y-64138239D01*
X162248685Y-64262035D01*
X162124889Y-64363632D01*
X161983656Y-64439123D01*
X161983653Y-64439124D01*
X161830402Y-64485612D01*
X161750773Y-64493455D01*
X161710960Y-64497376D01*
X161631092Y-64497376D01*
X161591279Y-64493455D01*
X161511650Y-64485612D01*
X161358399Y-64439124D01*
X161358396Y-64439123D01*
X161217163Y-64363632D01*
X161093367Y-64262035D01*
X160991770Y-64138239D01*
X160916279Y-63997006D01*
X160916278Y-63997003D01*
X160869790Y-63843752D01*
X160854093Y-63684376D01*
X160869790Y-63525000D01*
X160916278Y-63371749D01*
X160916279Y-63371746D01*
X160991770Y-63230513D01*
X161093367Y-63106717D01*
X161217163Y-63005120D01*
X161358396Y-62929629D01*
X161358399Y-62929628D01*
X161511650Y-62883140D01*
X161591279Y-62875297D01*
X161631092Y-62871376D01*
X161710960Y-62871376D01*
X161750773Y-62875297D01*
X161750773Y-62875297D01*
G37*
G36*
X156670773Y-62875297D02*
G01*
X156750402Y-62883140D01*
X156903653Y-62929628D01*
X156903656Y-62929629D01*
X157044889Y-63005120D01*
X157168685Y-63106717D01*
X157270282Y-63230513D01*
X157345773Y-63371746D01*
X157345774Y-63371749D01*
X157392262Y-63525000D01*
X157407959Y-63684376D01*
X157392262Y-63843752D01*
X157345774Y-63997003D01*
X157345773Y-63997006D01*
X157270282Y-64138239D01*
X157168685Y-64262035D01*
X157044889Y-64363632D01*
X156903656Y-64439123D01*
X156903653Y-64439124D01*
X156750402Y-64485612D01*
X156670773Y-64493455D01*
X156630960Y-64497376D01*
X156551092Y-64497376D01*
X156511279Y-64493455D01*
X156431650Y-64485612D01*
X156278399Y-64439124D01*
X156278396Y-64439123D01*
X156137163Y-64363632D01*
X156013367Y-64262035D01*
X155911770Y-64138239D01*
X155836279Y-63997006D01*
X155836278Y-63997003D01*
X155789790Y-63843752D01*
X155774093Y-63684376D01*
X155789790Y-63525000D01*
X155836278Y-63371749D01*
X155836279Y-63371746D01*
X155911770Y-63230513D01*
X156013367Y-63106717D01*
X156137163Y-63005120D01*
X156278396Y-62929629D01*
X156278399Y-62929628D01*
X156431650Y-62883140D01*
X156511279Y-62875297D01*
X156551092Y-62871376D01*
X156630960Y-62871376D01*
X156670773Y-62875297D01*
X156670773Y-62875297D01*
G37*
G36*
X159210773Y-62875297D02*
G01*
X159290402Y-62883140D01*
X159443653Y-62929628D01*
X159443656Y-62929629D01*
X159584889Y-63005120D01*
X159708685Y-63106717D01*
X159810282Y-63230513D01*
X159885773Y-63371746D01*
X159885774Y-63371749D01*
X159932262Y-63525000D01*
X159947959Y-63684376D01*
X159932262Y-63843752D01*
X159885774Y-63997003D01*
X159885773Y-63997006D01*
X159810282Y-64138239D01*
X159708685Y-64262035D01*
X159584889Y-64363632D01*
X159443656Y-64439123D01*
X159443653Y-64439124D01*
X159290402Y-64485612D01*
X159210773Y-64493455D01*
X159170960Y-64497376D01*
X159091092Y-64497376D01*
X159051279Y-64493455D01*
X158971650Y-64485612D01*
X158818399Y-64439124D01*
X158818396Y-64439123D01*
X158677163Y-64363632D01*
X158553367Y-64262035D01*
X158451770Y-64138239D01*
X158376279Y-63997006D01*
X158376278Y-63997003D01*
X158329790Y-63843752D01*
X158314093Y-63684376D01*
X158329790Y-63525000D01*
X158376278Y-63371749D01*
X158376279Y-63371746D01*
X158451770Y-63230513D01*
X158553367Y-63106717D01*
X158677163Y-63005120D01*
X158818396Y-62929629D01*
X158818399Y-62929628D01*
X158971650Y-62883140D01*
X159051279Y-62875297D01*
X159091092Y-62871376D01*
X159170960Y-62871376D01*
X159210773Y-62875297D01*
X159210773Y-62875297D01*
G37*
G36*
X149050773Y-62875297D02*
G01*
X149130402Y-62883140D01*
X149283653Y-62929628D01*
X149283656Y-62929629D01*
X149424889Y-63005120D01*
X149548685Y-63106717D01*
X149650282Y-63230513D01*
X149725773Y-63371746D01*
X149725774Y-63371749D01*
X149772262Y-63525000D01*
X149787959Y-63684376D01*
X149772262Y-63843752D01*
X149725774Y-63997003D01*
X149725773Y-63997006D01*
X149650282Y-64138239D01*
X149548685Y-64262035D01*
X149424889Y-64363632D01*
X149283656Y-64439123D01*
X149283653Y-64439124D01*
X149130402Y-64485612D01*
X149050773Y-64493455D01*
X149010960Y-64497376D01*
X148931092Y-64497376D01*
X148891279Y-64493455D01*
X148811650Y-64485612D01*
X148658399Y-64439124D01*
X148658396Y-64439123D01*
X148517163Y-64363632D01*
X148393367Y-64262035D01*
X148291770Y-64138239D01*
X148216279Y-63997006D01*
X148216278Y-63997003D01*
X148169790Y-63843752D01*
X148154093Y-63684376D01*
X148169790Y-63525000D01*
X148216278Y-63371749D01*
X148216279Y-63371746D01*
X148291770Y-63230513D01*
X148393367Y-63106717D01*
X148517163Y-63005120D01*
X148658396Y-62929629D01*
X148658399Y-62929628D01*
X148811650Y-62883140D01*
X148891279Y-62875297D01*
X148931092Y-62871376D01*
X149010960Y-62871376D01*
X149050773Y-62875297D01*
X149050773Y-62875297D01*
G37*
G36*
X151590773Y-62875297D02*
G01*
X151670402Y-62883140D01*
X151823653Y-62929628D01*
X151823656Y-62929629D01*
X151964889Y-63005120D01*
X152088685Y-63106717D01*
X152190282Y-63230513D01*
X152265773Y-63371746D01*
X152265774Y-63371749D01*
X152312262Y-63525000D01*
X152327959Y-63684376D01*
X152312262Y-63843752D01*
X152265774Y-63997003D01*
X152265773Y-63997006D01*
X152190282Y-64138239D01*
X152088685Y-64262035D01*
X151964889Y-64363632D01*
X151823656Y-64439123D01*
X151823653Y-64439124D01*
X151670402Y-64485612D01*
X151590773Y-64493455D01*
X151550960Y-64497376D01*
X151471092Y-64497376D01*
X151431279Y-64493455D01*
X151351650Y-64485612D01*
X151198399Y-64439124D01*
X151198396Y-64439123D01*
X151057163Y-64363632D01*
X150933367Y-64262035D01*
X150831770Y-64138239D01*
X150756279Y-63997006D01*
X150756278Y-63997003D01*
X150709790Y-63843752D01*
X150694093Y-63684376D01*
X150709790Y-63525000D01*
X150756278Y-63371749D01*
X150756279Y-63371746D01*
X150831770Y-63230513D01*
X150933367Y-63106717D01*
X151057163Y-63005120D01*
X151198396Y-62929629D01*
X151198399Y-62929628D01*
X151351650Y-62883140D01*
X151431279Y-62875297D01*
X151471092Y-62871376D01*
X151550960Y-62871376D01*
X151590773Y-62875297D01*
X151590773Y-62875297D01*
G37*
G36*
X144704026Y-64497376D02*
G01*
X143078026Y-64497376D01*
X143078026Y-62871376D01*
X144704026Y-62871376D01*
X144704026Y-64497376D01*
X144704026Y-64497376D01*
G37*
G36*
X146510773Y-62875297D02*
G01*
X146590402Y-62883140D01*
X146743653Y-62929628D01*
X146743656Y-62929629D01*
X146884889Y-63005120D01*
X147008685Y-63106717D01*
X147110282Y-63230513D01*
X147185773Y-63371746D01*
X147185774Y-63371749D01*
X147232262Y-63525000D01*
X147247959Y-63684376D01*
X147232262Y-63843752D01*
X147185774Y-63997003D01*
X147185773Y-63997006D01*
X147110282Y-64138239D01*
X147008685Y-64262035D01*
X146884889Y-64363632D01*
X146743656Y-64439123D01*
X146743653Y-64439124D01*
X146590402Y-64485612D01*
X146510773Y-64493455D01*
X146470960Y-64497376D01*
X146391092Y-64497376D01*
X146351279Y-64493455D01*
X146271650Y-64485612D01*
X146118399Y-64439124D01*
X146118396Y-64439123D01*
X145977163Y-64363632D01*
X145853367Y-64262035D01*
X145751770Y-64138239D01*
X145676279Y-63997006D01*
X145676278Y-63997003D01*
X145629790Y-63843752D01*
X145614093Y-63684376D01*
X145629790Y-63525000D01*
X145676278Y-63371749D01*
X145676279Y-63371746D01*
X145751770Y-63230513D01*
X145853367Y-63106717D01*
X145977163Y-63005120D01*
X146118396Y-62929629D01*
X146118399Y-62929628D01*
X146271650Y-62883140D01*
X146351279Y-62875297D01*
X146391092Y-62871376D01*
X146470960Y-62871376D01*
X146510773Y-62875297D01*
X146510773Y-62875297D01*
G37*
G36*
X164290773Y-62875297D02*
G01*
X164370402Y-62883140D01*
X164523653Y-62929628D01*
X164523656Y-62929629D01*
X164664889Y-63005120D01*
X164788685Y-63106717D01*
X164890282Y-63230513D01*
X164965773Y-63371746D01*
X164965774Y-63371749D01*
X165012262Y-63525000D01*
X165027959Y-63684376D01*
X165012262Y-63843752D01*
X164965774Y-63997003D01*
X164965773Y-63997006D01*
X164890282Y-64138239D01*
X164788685Y-64262035D01*
X164664889Y-64363632D01*
X164523656Y-64439123D01*
X164523653Y-64439124D01*
X164370402Y-64485612D01*
X164290773Y-64493455D01*
X164250960Y-64497376D01*
X164171092Y-64497376D01*
X164131279Y-64493455D01*
X164051650Y-64485612D01*
X163898399Y-64439124D01*
X163898396Y-64439123D01*
X163757163Y-64363632D01*
X163633367Y-64262035D01*
X163531770Y-64138239D01*
X163456279Y-63997006D01*
X163456278Y-63997003D01*
X163409790Y-63843752D01*
X163394093Y-63684376D01*
X163409790Y-63525000D01*
X163456278Y-63371749D01*
X163456279Y-63371746D01*
X163531770Y-63230513D01*
X163633367Y-63106717D01*
X163757163Y-63005120D01*
X163898396Y-62929629D01*
X163898399Y-62929628D01*
X164051650Y-62883140D01*
X164131279Y-62875297D01*
X164171092Y-62871376D01*
X164250960Y-62871376D01*
X164290773Y-62875297D01*
X164290773Y-62875297D01*
G37*
G36*
X154130773Y-62875297D02*
G01*
X154210402Y-62883140D01*
X154363653Y-62929628D01*
X154363656Y-62929629D01*
X154504889Y-63005120D01*
X154628685Y-63106717D01*
X154730282Y-63230513D01*
X154805773Y-63371746D01*
X154805774Y-63371749D01*
X154852262Y-63525000D01*
X154867959Y-63684376D01*
X154852262Y-63843752D01*
X154805774Y-63997003D01*
X154805773Y-63997006D01*
X154730282Y-64138239D01*
X154628685Y-64262035D01*
X154504889Y-64363632D01*
X154363656Y-64439123D01*
X154363653Y-64439124D01*
X154210402Y-64485612D01*
X154130773Y-64493455D01*
X154090960Y-64497376D01*
X154011092Y-64497376D01*
X153971279Y-64493455D01*
X153891650Y-64485612D01*
X153738399Y-64439124D01*
X153738396Y-64439123D01*
X153597163Y-64363632D01*
X153473367Y-64262035D01*
X153371770Y-64138239D01*
X153296279Y-63997006D01*
X153296278Y-63997003D01*
X153249790Y-63843752D01*
X153234093Y-63684376D01*
X153249790Y-63525000D01*
X153296278Y-63371749D01*
X153296279Y-63371746D01*
X153371770Y-63230513D01*
X153473367Y-63106717D01*
X153597163Y-63005120D01*
X153738396Y-62929629D01*
X153738399Y-62929628D01*
X153891650Y-62883140D01*
X153971279Y-62875297D01*
X154011092Y-62871376D01*
X154090960Y-62871376D01*
X154130773Y-62875297D01*
X154130773Y-62875297D01*
G37*
M02*
