%TF.GenerationSoftware,KiCad,Pcbnew,5.1.4-e60b266~84~ubuntu18.04.1*%
%TF.CreationDate,2019-10-23T15:02:04+02:00*%
%TF.ProjectId,ensaimedia,656e7361-696d-4656-9469-612e6b696361,rev?*%
%TF.SameCoordinates,Original*%
%TF.FileFunction,Copper,L1,Top*%
%TF.FilePolarity,Positive*%
%FSLAX46Y46*%
G04 Gerber Fmt 4.6, Leading zero omitted, Abs format (unit mm)*
G04 Created by KiCad (PCBNEW 5.1.4-e60b266~84~ubuntu18.04.1) date 2019-10-23 15:02:04*
%MOMM*%
%LPD*%
G04 APERTURE LIST*
%ADD10C,0.200000*%
%ADD11C,0.150000*%
%ADD12C,1.150000*%
%ADD13R,1.900000X0.450000*%
%ADD14C,2.000000*%
%ADD15C,1.800000*%
%ADD16R,1.700000X1.700000*%
%ADD17O,1.700000X1.700000*%
%ADD18R,1.524000X1.524000*%
%ADD19O,1.524000X1.524000*%
%ADD20R,2.500000X1.000000*%
%ADD21R,1.000000X1.800000*%
%ADD22O,1.050000X1.500000*%
%ADD23R,1.050000X1.500000*%
%ADD24C,1.700000*%
%ADD25C,1.500000*%
%ADD26C,0.800000*%
%ADD27C,0.650000*%
%ADD28C,0.250000*%
%ADD29C,0.450000*%
%ADD30C,0.350000*%
%ADD31C,0.178000*%
%ADD32C,0.254000*%
G04 APERTURE END LIST*
D10*
X140970000Y-61214000D02*
X173355000Y-61214000D01*
X173355000Y-61214000D02*
G75*
G02X175895000Y-63754000I0J-2540000D01*
G01*
X193675000Y-80645000D02*
G75*
G02X196215000Y-83185000I0J-2540000D01*
G01*
X178435000Y-80645000D02*
X193675000Y-80645000D01*
X178435000Y-80645000D02*
G75*
G02X175895000Y-78105000I0J2540000D01*
G01*
X175895000Y-63754000D02*
X175895000Y-78105000D01*
X143510000Y-112395000D02*
G75*
G02X140970000Y-109855000I0J2540000D01*
G01*
X196215000Y-109855000D02*
G75*
G02X193675000Y-112395000I-2540000J0D01*
G01*
X140970000Y-109855000D02*
X140970000Y-61214000D01*
X193675000Y-112395000D02*
X143510000Y-112395000D01*
X196215000Y-83185000D02*
X196215000Y-109855000D01*
D11*
G36*
X154565532Y-85925579D02*
G01*
X154589800Y-85929179D01*
X154613599Y-85935140D01*
X154636698Y-85943405D01*
X154658877Y-85953895D01*
X154679920Y-85966507D01*
X154699626Y-85981122D01*
X154717804Y-85997598D01*
X154734280Y-86015776D01*
X154748895Y-86035482D01*
X154761507Y-86056525D01*
X154771997Y-86078704D01*
X154780262Y-86101803D01*
X154786223Y-86125602D01*
X154789823Y-86149870D01*
X154791027Y-86174374D01*
X154791027Y-87074376D01*
X154789823Y-87098880D01*
X154786223Y-87123148D01*
X154780262Y-87146947D01*
X154771997Y-87170046D01*
X154761507Y-87192225D01*
X154748895Y-87213268D01*
X154734280Y-87232974D01*
X154717804Y-87251152D01*
X154699626Y-87267628D01*
X154679920Y-87282243D01*
X154658877Y-87294855D01*
X154636698Y-87305345D01*
X154613599Y-87313610D01*
X154589800Y-87319571D01*
X154565532Y-87323171D01*
X154541028Y-87324375D01*
X153891026Y-87324375D01*
X153866522Y-87323171D01*
X153842254Y-87319571D01*
X153818455Y-87313610D01*
X153795356Y-87305345D01*
X153773177Y-87294855D01*
X153752134Y-87282243D01*
X153732428Y-87267628D01*
X153714250Y-87251152D01*
X153697774Y-87232974D01*
X153683159Y-87213268D01*
X153670547Y-87192225D01*
X153660057Y-87170046D01*
X153651792Y-87146947D01*
X153645831Y-87123148D01*
X153642231Y-87098880D01*
X153641027Y-87074376D01*
X153641027Y-86174374D01*
X153642231Y-86149870D01*
X153645831Y-86125602D01*
X153651792Y-86101803D01*
X153660057Y-86078704D01*
X153670547Y-86056525D01*
X153683159Y-86035482D01*
X153697774Y-86015776D01*
X153714250Y-85997598D01*
X153732428Y-85981122D01*
X153752134Y-85966507D01*
X153773177Y-85953895D01*
X153795356Y-85943405D01*
X153818455Y-85935140D01*
X153842254Y-85929179D01*
X153866522Y-85925579D01*
X153891026Y-85924375D01*
X154541028Y-85924375D01*
X154565532Y-85925579D01*
X154565532Y-85925579D01*
G37*
D12*
X154216027Y-86624375D03*
D11*
G36*
X156615532Y-85925579D02*
G01*
X156639800Y-85929179D01*
X156663599Y-85935140D01*
X156686698Y-85943405D01*
X156708877Y-85953895D01*
X156729920Y-85966507D01*
X156749626Y-85981122D01*
X156767804Y-85997598D01*
X156784280Y-86015776D01*
X156798895Y-86035482D01*
X156811507Y-86056525D01*
X156821997Y-86078704D01*
X156830262Y-86101803D01*
X156836223Y-86125602D01*
X156839823Y-86149870D01*
X156841027Y-86174374D01*
X156841027Y-87074376D01*
X156839823Y-87098880D01*
X156836223Y-87123148D01*
X156830262Y-87146947D01*
X156821997Y-87170046D01*
X156811507Y-87192225D01*
X156798895Y-87213268D01*
X156784280Y-87232974D01*
X156767804Y-87251152D01*
X156749626Y-87267628D01*
X156729920Y-87282243D01*
X156708877Y-87294855D01*
X156686698Y-87305345D01*
X156663599Y-87313610D01*
X156639800Y-87319571D01*
X156615532Y-87323171D01*
X156591028Y-87324375D01*
X155941026Y-87324375D01*
X155916522Y-87323171D01*
X155892254Y-87319571D01*
X155868455Y-87313610D01*
X155845356Y-87305345D01*
X155823177Y-87294855D01*
X155802134Y-87282243D01*
X155782428Y-87267628D01*
X155764250Y-87251152D01*
X155747774Y-87232974D01*
X155733159Y-87213268D01*
X155720547Y-87192225D01*
X155710057Y-87170046D01*
X155701792Y-87146947D01*
X155695831Y-87123148D01*
X155692231Y-87098880D01*
X155691027Y-87074376D01*
X155691027Y-86174374D01*
X155692231Y-86149870D01*
X155695831Y-86125602D01*
X155701792Y-86101803D01*
X155710057Y-86078704D01*
X155720547Y-86056525D01*
X155733159Y-86035482D01*
X155747774Y-86015776D01*
X155764250Y-85997598D01*
X155782428Y-85981122D01*
X155802134Y-85966507D01*
X155823177Y-85953895D01*
X155845356Y-85943405D01*
X155868455Y-85935140D01*
X155892254Y-85929179D01*
X155916522Y-85925579D01*
X155941026Y-85924375D01*
X156591028Y-85924375D01*
X156615532Y-85925579D01*
X156615532Y-85925579D01*
G37*
D12*
X156266027Y-86624375D03*
D11*
G36*
X153685532Y-82115579D02*
G01*
X153709800Y-82119179D01*
X153733599Y-82125140D01*
X153756698Y-82133405D01*
X153778877Y-82143895D01*
X153799920Y-82156507D01*
X153819626Y-82171122D01*
X153837804Y-82187598D01*
X153854280Y-82205776D01*
X153868895Y-82225482D01*
X153881507Y-82246525D01*
X153891997Y-82268704D01*
X153900262Y-82291803D01*
X153906223Y-82315602D01*
X153909823Y-82339870D01*
X153911027Y-82364374D01*
X153911027Y-83264376D01*
X153909823Y-83288880D01*
X153906223Y-83313148D01*
X153900262Y-83336947D01*
X153891997Y-83360046D01*
X153881507Y-83382225D01*
X153868895Y-83403268D01*
X153854280Y-83422974D01*
X153837804Y-83441152D01*
X153819626Y-83457628D01*
X153799920Y-83472243D01*
X153778877Y-83484855D01*
X153756698Y-83495345D01*
X153733599Y-83503610D01*
X153709800Y-83509571D01*
X153685532Y-83513171D01*
X153661028Y-83514375D01*
X153011026Y-83514375D01*
X152986522Y-83513171D01*
X152962254Y-83509571D01*
X152938455Y-83503610D01*
X152915356Y-83495345D01*
X152893177Y-83484855D01*
X152872134Y-83472243D01*
X152852428Y-83457628D01*
X152834250Y-83441152D01*
X152817774Y-83422974D01*
X152803159Y-83403268D01*
X152790547Y-83382225D01*
X152780057Y-83360046D01*
X152771792Y-83336947D01*
X152765831Y-83313148D01*
X152762231Y-83288880D01*
X152761027Y-83264376D01*
X152761027Y-82364374D01*
X152762231Y-82339870D01*
X152765831Y-82315602D01*
X152771792Y-82291803D01*
X152780057Y-82268704D01*
X152790547Y-82246525D01*
X152803159Y-82225482D01*
X152817774Y-82205776D01*
X152834250Y-82187598D01*
X152852428Y-82171122D01*
X152872134Y-82156507D01*
X152893177Y-82143895D01*
X152915356Y-82133405D01*
X152938455Y-82125140D01*
X152962254Y-82119179D01*
X152986522Y-82115579D01*
X153011026Y-82114375D01*
X153661028Y-82114375D01*
X153685532Y-82115579D01*
X153685532Y-82115579D01*
G37*
D12*
X153336027Y-82814375D03*
D11*
G36*
X151635532Y-82115579D02*
G01*
X151659800Y-82119179D01*
X151683599Y-82125140D01*
X151706698Y-82133405D01*
X151728877Y-82143895D01*
X151749920Y-82156507D01*
X151769626Y-82171122D01*
X151787804Y-82187598D01*
X151804280Y-82205776D01*
X151818895Y-82225482D01*
X151831507Y-82246525D01*
X151841997Y-82268704D01*
X151850262Y-82291803D01*
X151856223Y-82315602D01*
X151859823Y-82339870D01*
X151861027Y-82364374D01*
X151861027Y-83264376D01*
X151859823Y-83288880D01*
X151856223Y-83313148D01*
X151850262Y-83336947D01*
X151841997Y-83360046D01*
X151831507Y-83382225D01*
X151818895Y-83403268D01*
X151804280Y-83422974D01*
X151787804Y-83441152D01*
X151769626Y-83457628D01*
X151749920Y-83472243D01*
X151728877Y-83484855D01*
X151706698Y-83495345D01*
X151683599Y-83503610D01*
X151659800Y-83509571D01*
X151635532Y-83513171D01*
X151611028Y-83514375D01*
X150961026Y-83514375D01*
X150936522Y-83513171D01*
X150912254Y-83509571D01*
X150888455Y-83503610D01*
X150865356Y-83495345D01*
X150843177Y-83484855D01*
X150822134Y-83472243D01*
X150802428Y-83457628D01*
X150784250Y-83441152D01*
X150767774Y-83422974D01*
X150753159Y-83403268D01*
X150740547Y-83382225D01*
X150730057Y-83360046D01*
X150721792Y-83336947D01*
X150715831Y-83313148D01*
X150712231Y-83288880D01*
X150711027Y-83264376D01*
X150711027Y-82364374D01*
X150712231Y-82339870D01*
X150715831Y-82315602D01*
X150721792Y-82291803D01*
X150730057Y-82268704D01*
X150740547Y-82246525D01*
X150753159Y-82225482D01*
X150767774Y-82205776D01*
X150784250Y-82187598D01*
X150802428Y-82171122D01*
X150822134Y-82156507D01*
X150843177Y-82143895D01*
X150865356Y-82133405D01*
X150888455Y-82125140D01*
X150912254Y-82119179D01*
X150936522Y-82115579D01*
X150961026Y-82114375D01*
X151611028Y-82114375D01*
X151635532Y-82115579D01*
X151635532Y-82115579D01*
G37*
D12*
X151286027Y-82814375D03*
D11*
G36*
X160915532Y-82115579D02*
G01*
X160939800Y-82119179D01*
X160963599Y-82125140D01*
X160986698Y-82133405D01*
X161008877Y-82143895D01*
X161029920Y-82156507D01*
X161049626Y-82171122D01*
X161067804Y-82187598D01*
X161084280Y-82205776D01*
X161098895Y-82225482D01*
X161111507Y-82246525D01*
X161121997Y-82268704D01*
X161130262Y-82291803D01*
X161136223Y-82315602D01*
X161139823Y-82339870D01*
X161141027Y-82364374D01*
X161141027Y-83264376D01*
X161139823Y-83288880D01*
X161136223Y-83313148D01*
X161130262Y-83336947D01*
X161121997Y-83360046D01*
X161111507Y-83382225D01*
X161098895Y-83403268D01*
X161084280Y-83422974D01*
X161067804Y-83441152D01*
X161049626Y-83457628D01*
X161029920Y-83472243D01*
X161008877Y-83484855D01*
X160986698Y-83495345D01*
X160963599Y-83503610D01*
X160939800Y-83509571D01*
X160915532Y-83513171D01*
X160891028Y-83514375D01*
X160241026Y-83514375D01*
X160216522Y-83513171D01*
X160192254Y-83509571D01*
X160168455Y-83503610D01*
X160145356Y-83495345D01*
X160123177Y-83484855D01*
X160102134Y-83472243D01*
X160082428Y-83457628D01*
X160064250Y-83441152D01*
X160047774Y-83422974D01*
X160033159Y-83403268D01*
X160020547Y-83382225D01*
X160010057Y-83360046D01*
X160001792Y-83336947D01*
X159995831Y-83313148D01*
X159992231Y-83288880D01*
X159991027Y-83264376D01*
X159991027Y-82364374D01*
X159992231Y-82339870D01*
X159995831Y-82315602D01*
X160001792Y-82291803D01*
X160010057Y-82268704D01*
X160020547Y-82246525D01*
X160033159Y-82225482D01*
X160047774Y-82205776D01*
X160064250Y-82187598D01*
X160082428Y-82171122D01*
X160102134Y-82156507D01*
X160123177Y-82143895D01*
X160145356Y-82133405D01*
X160168455Y-82125140D01*
X160192254Y-82119179D01*
X160216522Y-82115579D01*
X160241026Y-82114375D01*
X160891028Y-82114375D01*
X160915532Y-82115579D01*
X160915532Y-82115579D01*
G37*
D12*
X160566027Y-82814375D03*
D11*
G36*
X162965532Y-82115579D02*
G01*
X162989800Y-82119179D01*
X163013599Y-82125140D01*
X163036698Y-82133405D01*
X163058877Y-82143895D01*
X163079920Y-82156507D01*
X163099626Y-82171122D01*
X163117804Y-82187598D01*
X163134280Y-82205776D01*
X163148895Y-82225482D01*
X163161507Y-82246525D01*
X163171997Y-82268704D01*
X163180262Y-82291803D01*
X163186223Y-82315602D01*
X163189823Y-82339870D01*
X163191027Y-82364374D01*
X163191027Y-83264376D01*
X163189823Y-83288880D01*
X163186223Y-83313148D01*
X163180262Y-83336947D01*
X163171997Y-83360046D01*
X163161507Y-83382225D01*
X163148895Y-83403268D01*
X163134280Y-83422974D01*
X163117804Y-83441152D01*
X163099626Y-83457628D01*
X163079920Y-83472243D01*
X163058877Y-83484855D01*
X163036698Y-83495345D01*
X163013599Y-83503610D01*
X162989800Y-83509571D01*
X162965532Y-83513171D01*
X162941028Y-83514375D01*
X162291026Y-83514375D01*
X162266522Y-83513171D01*
X162242254Y-83509571D01*
X162218455Y-83503610D01*
X162195356Y-83495345D01*
X162173177Y-83484855D01*
X162152134Y-83472243D01*
X162132428Y-83457628D01*
X162114250Y-83441152D01*
X162097774Y-83422974D01*
X162083159Y-83403268D01*
X162070547Y-83382225D01*
X162060057Y-83360046D01*
X162051792Y-83336947D01*
X162045831Y-83313148D01*
X162042231Y-83288880D01*
X162041027Y-83264376D01*
X162041027Y-82364374D01*
X162042231Y-82339870D01*
X162045831Y-82315602D01*
X162051792Y-82291803D01*
X162060057Y-82268704D01*
X162070547Y-82246525D01*
X162083159Y-82225482D01*
X162097774Y-82205776D01*
X162114250Y-82187598D01*
X162132428Y-82171122D01*
X162152134Y-82156507D01*
X162173177Y-82143895D01*
X162195356Y-82133405D01*
X162218455Y-82125140D01*
X162242254Y-82119179D01*
X162266522Y-82115579D01*
X162291026Y-82114375D01*
X162941028Y-82114375D01*
X162965532Y-82115579D01*
X162965532Y-82115579D01*
G37*
D12*
X162616027Y-82814375D03*
D13*
X147650000Y-98395000D03*
X147650000Y-99045000D03*
X147650000Y-99695000D03*
X147650000Y-100345000D03*
X147650000Y-100995000D03*
D14*
X147900000Y-95970000D03*
X147900000Y-103420000D03*
D15*
X144100000Y-95820000D03*
X144100000Y-103570000D03*
D16*
X153733526Y-110674376D03*
D17*
X153733526Y-108134376D03*
D16*
X157480000Y-108134376D03*
D17*
X157480000Y-110674376D03*
D18*
X143891026Y-63684376D03*
D19*
X146431026Y-63684376D03*
X148971026Y-63684376D03*
X151511026Y-63684376D03*
X154051026Y-63684376D03*
X156591026Y-63684376D03*
X159131026Y-63684376D03*
X161671026Y-63684376D03*
X164211026Y-63684376D03*
X166751026Y-63684376D03*
X169291026Y-63684376D03*
X171831026Y-63684376D03*
X170561000Y-66224376D03*
X168021000Y-66224376D03*
X165481000Y-66224376D03*
X162941000Y-66224376D03*
X160401000Y-66224376D03*
X157861000Y-66224376D03*
X155321000Y-66224376D03*
X152781000Y-66224376D03*
X150241000Y-66224376D03*
X147701000Y-66224376D03*
X145161000Y-66224376D03*
D18*
X142621000Y-66224376D03*
X143891026Y-68764376D03*
D19*
X146431026Y-68764376D03*
X148971026Y-68764376D03*
X151511026Y-68764376D03*
X154051026Y-68764376D03*
X156591026Y-68764376D03*
X159131026Y-68764376D03*
X161671026Y-68764376D03*
X164211026Y-68764376D03*
X166751026Y-68764376D03*
X169291026Y-68764376D03*
X171831026Y-68764376D03*
D11*
G36*
X176496505Y-90612204D02*
G01*
X176520773Y-90615804D01*
X176544572Y-90621765D01*
X176567671Y-90630030D01*
X176589850Y-90640520D01*
X176610893Y-90653132D01*
X176630599Y-90667747D01*
X176648777Y-90684223D01*
X176665253Y-90702401D01*
X176679868Y-90722107D01*
X176692480Y-90743150D01*
X176702970Y-90765329D01*
X176711235Y-90788428D01*
X176717196Y-90812227D01*
X176720796Y-90836495D01*
X176722000Y-90860999D01*
X176722000Y-91511001D01*
X176720796Y-91535505D01*
X176717196Y-91559773D01*
X176711235Y-91583572D01*
X176702970Y-91606671D01*
X176692480Y-91628850D01*
X176679868Y-91649893D01*
X176665253Y-91669599D01*
X176648777Y-91687777D01*
X176630599Y-91704253D01*
X176610893Y-91718868D01*
X176589850Y-91731480D01*
X176567671Y-91741970D01*
X176544572Y-91750235D01*
X176520773Y-91756196D01*
X176496505Y-91759796D01*
X176472001Y-91761000D01*
X175571999Y-91761000D01*
X175547495Y-91759796D01*
X175523227Y-91756196D01*
X175499428Y-91750235D01*
X175476329Y-91741970D01*
X175454150Y-91731480D01*
X175433107Y-91718868D01*
X175413401Y-91704253D01*
X175395223Y-91687777D01*
X175378747Y-91669599D01*
X175364132Y-91649893D01*
X175351520Y-91628850D01*
X175341030Y-91606671D01*
X175332765Y-91583572D01*
X175326804Y-91559773D01*
X175323204Y-91535505D01*
X175322000Y-91511001D01*
X175322000Y-90860999D01*
X175323204Y-90836495D01*
X175326804Y-90812227D01*
X175332765Y-90788428D01*
X175341030Y-90765329D01*
X175351520Y-90743150D01*
X175364132Y-90722107D01*
X175378747Y-90702401D01*
X175395223Y-90684223D01*
X175413401Y-90667747D01*
X175433107Y-90653132D01*
X175454150Y-90640520D01*
X175476329Y-90630030D01*
X175499428Y-90621765D01*
X175523227Y-90615804D01*
X175547495Y-90612204D01*
X175571999Y-90611000D01*
X176472001Y-90611000D01*
X176496505Y-90612204D01*
X176496505Y-90612204D01*
G37*
D12*
X176022000Y-91186000D03*
D11*
G36*
X176496505Y-92662204D02*
G01*
X176520773Y-92665804D01*
X176544572Y-92671765D01*
X176567671Y-92680030D01*
X176589850Y-92690520D01*
X176610893Y-92703132D01*
X176630599Y-92717747D01*
X176648777Y-92734223D01*
X176665253Y-92752401D01*
X176679868Y-92772107D01*
X176692480Y-92793150D01*
X176702970Y-92815329D01*
X176711235Y-92838428D01*
X176717196Y-92862227D01*
X176720796Y-92886495D01*
X176722000Y-92910999D01*
X176722000Y-93561001D01*
X176720796Y-93585505D01*
X176717196Y-93609773D01*
X176711235Y-93633572D01*
X176702970Y-93656671D01*
X176692480Y-93678850D01*
X176679868Y-93699893D01*
X176665253Y-93719599D01*
X176648777Y-93737777D01*
X176630599Y-93754253D01*
X176610893Y-93768868D01*
X176589850Y-93781480D01*
X176567671Y-93791970D01*
X176544572Y-93800235D01*
X176520773Y-93806196D01*
X176496505Y-93809796D01*
X176472001Y-93811000D01*
X175571999Y-93811000D01*
X175547495Y-93809796D01*
X175523227Y-93806196D01*
X175499428Y-93800235D01*
X175476329Y-93791970D01*
X175454150Y-93781480D01*
X175433107Y-93768868D01*
X175413401Y-93754253D01*
X175395223Y-93737777D01*
X175378747Y-93719599D01*
X175364132Y-93699893D01*
X175351520Y-93678850D01*
X175341030Y-93656671D01*
X175332765Y-93633572D01*
X175326804Y-93609773D01*
X175323204Y-93585505D01*
X175322000Y-93561001D01*
X175322000Y-92910999D01*
X175323204Y-92886495D01*
X175326804Y-92862227D01*
X175332765Y-92838428D01*
X175341030Y-92815329D01*
X175351520Y-92793150D01*
X175364132Y-92772107D01*
X175378747Y-92752401D01*
X175395223Y-92734223D01*
X175413401Y-92717747D01*
X175433107Y-92703132D01*
X175454150Y-92690520D01*
X175476329Y-92680030D01*
X175499428Y-92671765D01*
X175523227Y-92665804D01*
X175547495Y-92662204D01*
X175571999Y-92661000D01*
X176472001Y-92661000D01*
X176496505Y-92662204D01*
X176496505Y-92662204D01*
G37*
D12*
X176022000Y-93236000D03*
D11*
G36*
X176496505Y-88716204D02*
G01*
X176520773Y-88719804D01*
X176544572Y-88725765D01*
X176567671Y-88734030D01*
X176589850Y-88744520D01*
X176610893Y-88757132D01*
X176630599Y-88771747D01*
X176648777Y-88788223D01*
X176665253Y-88806401D01*
X176679868Y-88826107D01*
X176692480Y-88847150D01*
X176702970Y-88869329D01*
X176711235Y-88892428D01*
X176717196Y-88916227D01*
X176720796Y-88940495D01*
X176722000Y-88964999D01*
X176722000Y-89615001D01*
X176720796Y-89639505D01*
X176717196Y-89663773D01*
X176711235Y-89687572D01*
X176702970Y-89710671D01*
X176692480Y-89732850D01*
X176679868Y-89753893D01*
X176665253Y-89773599D01*
X176648777Y-89791777D01*
X176630599Y-89808253D01*
X176610893Y-89822868D01*
X176589850Y-89835480D01*
X176567671Y-89845970D01*
X176544572Y-89854235D01*
X176520773Y-89860196D01*
X176496505Y-89863796D01*
X176472001Y-89865000D01*
X175571999Y-89865000D01*
X175547495Y-89863796D01*
X175523227Y-89860196D01*
X175499428Y-89854235D01*
X175476329Y-89845970D01*
X175454150Y-89835480D01*
X175433107Y-89822868D01*
X175413401Y-89808253D01*
X175395223Y-89791777D01*
X175378747Y-89773599D01*
X175364132Y-89753893D01*
X175351520Y-89732850D01*
X175341030Y-89710671D01*
X175332765Y-89687572D01*
X175326804Y-89663773D01*
X175323204Y-89639505D01*
X175322000Y-89615001D01*
X175322000Y-88964999D01*
X175323204Y-88940495D01*
X175326804Y-88916227D01*
X175332765Y-88892428D01*
X175341030Y-88869329D01*
X175351520Y-88847150D01*
X175364132Y-88826107D01*
X175378747Y-88806401D01*
X175395223Y-88788223D01*
X175413401Y-88771747D01*
X175433107Y-88757132D01*
X175454150Y-88744520D01*
X175476329Y-88734030D01*
X175499428Y-88725765D01*
X175523227Y-88719804D01*
X175547495Y-88716204D01*
X175571999Y-88715000D01*
X176472001Y-88715000D01*
X176496505Y-88716204D01*
X176496505Y-88716204D01*
G37*
D12*
X176022000Y-89290000D03*
D11*
G36*
X176496505Y-86666204D02*
G01*
X176520773Y-86669804D01*
X176544572Y-86675765D01*
X176567671Y-86684030D01*
X176589850Y-86694520D01*
X176610893Y-86707132D01*
X176630599Y-86721747D01*
X176648777Y-86738223D01*
X176665253Y-86756401D01*
X176679868Y-86776107D01*
X176692480Y-86797150D01*
X176702970Y-86819329D01*
X176711235Y-86842428D01*
X176717196Y-86866227D01*
X176720796Y-86890495D01*
X176722000Y-86914999D01*
X176722000Y-87565001D01*
X176720796Y-87589505D01*
X176717196Y-87613773D01*
X176711235Y-87637572D01*
X176702970Y-87660671D01*
X176692480Y-87682850D01*
X176679868Y-87703893D01*
X176665253Y-87723599D01*
X176648777Y-87741777D01*
X176630599Y-87758253D01*
X176610893Y-87772868D01*
X176589850Y-87785480D01*
X176567671Y-87795970D01*
X176544572Y-87804235D01*
X176520773Y-87810196D01*
X176496505Y-87813796D01*
X176472001Y-87815000D01*
X175571999Y-87815000D01*
X175547495Y-87813796D01*
X175523227Y-87810196D01*
X175499428Y-87804235D01*
X175476329Y-87795970D01*
X175454150Y-87785480D01*
X175433107Y-87772868D01*
X175413401Y-87758253D01*
X175395223Y-87741777D01*
X175378747Y-87723599D01*
X175364132Y-87703893D01*
X175351520Y-87682850D01*
X175341030Y-87660671D01*
X175332765Y-87637572D01*
X175326804Y-87613773D01*
X175323204Y-87589505D01*
X175322000Y-87565001D01*
X175322000Y-86914999D01*
X175323204Y-86890495D01*
X175326804Y-86866227D01*
X175332765Y-86842428D01*
X175341030Y-86819329D01*
X175351520Y-86797150D01*
X175364132Y-86776107D01*
X175378747Y-86756401D01*
X175395223Y-86738223D01*
X175413401Y-86721747D01*
X175433107Y-86707132D01*
X175454150Y-86694520D01*
X175476329Y-86684030D01*
X175499428Y-86675765D01*
X175523227Y-86669804D01*
X175547495Y-86666204D01*
X175571999Y-86665000D01*
X176472001Y-86665000D01*
X176496505Y-86666204D01*
X176496505Y-86666204D01*
G37*
D12*
X176022000Y-87240000D03*
D20*
X194163000Y-101290000D03*
X194163000Y-99290000D03*
X194163000Y-97290000D03*
X194163000Y-95290000D03*
X194163000Y-93290000D03*
X194163000Y-91290000D03*
X194163000Y-89290000D03*
X194163000Y-87290000D03*
D21*
X191563000Y-85790000D03*
X189563000Y-85790000D03*
X187563000Y-85790000D03*
X185563000Y-85790000D03*
X183563000Y-85790000D03*
X181563000Y-85790000D03*
D20*
X178963000Y-87290000D03*
X178963000Y-89290000D03*
X178963000Y-91290000D03*
X178963000Y-93290000D03*
X178963000Y-95290000D03*
X178963000Y-97290000D03*
X178963000Y-99290000D03*
X178963000Y-101290000D03*
D16*
X184150000Y-83058000D03*
D17*
X186690000Y-83058000D03*
D11*
G36*
X142571505Y-91884204D02*
G01*
X142595773Y-91887804D01*
X142619572Y-91893765D01*
X142642671Y-91902030D01*
X142664850Y-91912520D01*
X142685893Y-91925132D01*
X142705599Y-91939747D01*
X142723777Y-91956223D01*
X142740253Y-91974401D01*
X142754868Y-91994107D01*
X142767480Y-92015150D01*
X142777970Y-92037329D01*
X142786235Y-92060428D01*
X142792196Y-92084227D01*
X142795796Y-92108495D01*
X142797000Y-92132999D01*
X142797000Y-93033001D01*
X142795796Y-93057505D01*
X142792196Y-93081773D01*
X142786235Y-93105572D01*
X142777970Y-93128671D01*
X142767480Y-93150850D01*
X142754868Y-93171893D01*
X142740253Y-93191599D01*
X142723777Y-93209777D01*
X142705599Y-93226253D01*
X142685893Y-93240868D01*
X142664850Y-93253480D01*
X142642671Y-93263970D01*
X142619572Y-93272235D01*
X142595773Y-93278196D01*
X142571505Y-93281796D01*
X142547001Y-93283000D01*
X141896999Y-93283000D01*
X141872495Y-93281796D01*
X141848227Y-93278196D01*
X141824428Y-93272235D01*
X141801329Y-93263970D01*
X141779150Y-93253480D01*
X141758107Y-93240868D01*
X141738401Y-93226253D01*
X141720223Y-93209777D01*
X141703747Y-93191599D01*
X141689132Y-93171893D01*
X141676520Y-93150850D01*
X141666030Y-93128671D01*
X141657765Y-93105572D01*
X141651804Y-93081773D01*
X141648204Y-93057505D01*
X141647000Y-93033001D01*
X141647000Y-92132999D01*
X141648204Y-92108495D01*
X141651804Y-92084227D01*
X141657765Y-92060428D01*
X141666030Y-92037329D01*
X141676520Y-92015150D01*
X141689132Y-91994107D01*
X141703747Y-91974401D01*
X141720223Y-91956223D01*
X141738401Y-91939747D01*
X141758107Y-91925132D01*
X141779150Y-91912520D01*
X141801329Y-91902030D01*
X141824428Y-91893765D01*
X141848227Y-91887804D01*
X141872495Y-91884204D01*
X141896999Y-91883000D01*
X142547001Y-91883000D01*
X142571505Y-91884204D01*
X142571505Y-91884204D01*
G37*
D12*
X142222000Y-92583000D03*
D11*
G36*
X144621505Y-91884204D02*
G01*
X144645773Y-91887804D01*
X144669572Y-91893765D01*
X144692671Y-91902030D01*
X144714850Y-91912520D01*
X144735893Y-91925132D01*
X144755599Y-91939747D01*
X144773777Y-91956223D01*
X144790253Y-91974401D01*
X144804868Y-91994107D01*
X144817480Y-92015150D01*
X144827970Y-92037329D01*
X144836235Y-92060428D01*
X144842196Y-92084227D01*
X144845796Y-92108495D01*
X144847000Y-92132999D01*
X144847000Y-93033001D01*
X144845796Y-93057505D01*
X144842196Y-93081773D01*
X144836235Y-93105572D01*
X144827970Y-93128671D01*
X144817480Y-93150850D01*
X144804868Y-93171893D01*
X144790253Y-93191599D01*
X144773777Y-93209777D01*
X144755599Y-93226253D01*
X144735893Y-93240868D01*
X144714850Y-93253480D01*
X144692671Y-93263970D01*
X144669572Y-93272235D01*
X144645773Y-93278196D01*
X144621505Y-93281796D01*
X144597001Y-93283000D01*
X143946999Y-93283000D01*
X143922495Y-93281796D01*
X143898227Y-93278196D01*
X143874428Y-93272235D01*
X143851329Y-93263970D01*
X143829150Y-93253480D01*
X143808107Y-93240868D01*
X143788401Y-93226253D01*
X143770223Y-93209777D01*
X143753747Y-93191599D01*
X143739132Y-93171893D01*
X143726520Y-93150850D01*
X143716030Y-93128671D01*
X143707765Y-93105572D01*
X143701804Y-93081773D01*
X143698204Y-93057505D01*
X143697000Y-93033001D01*
X143697000Y-92132999D01*
X143698204Y-92108495D01*
X143701804Y-92084227D01*
X143707765Y-92060428D01*
X143716030Y-92037329D01*
X143726520Y-92015150D01*
X143739132Y-91994107D01*
X143753747Y-91974401D01*
X143770223Y-91956223D01*
X143788401Y-91939747D01*
X143808107Y-91925132D01*
X143829150Y-91912520D01*
X143851329Y-91902030D01*
X143874428Y-91893765D01*
X143898227Y-91887804D01*
X143922495Y-91884204D01*
X143946999Y-91883000D01*
X144597001Y-91883000D01*
X144621505Y-91884204D01*
X144621505Y-91884204D01*
G37*
D12*
X144272000Y-92583000D03*
D11*
G36*
X176623505Y-94286204D02*
G01*
X176647773Y-94289804D01*
X176671572Y-94295765D01*
X176694671Y-94304030D01*
X176716850Y-94314520D01*
X176737893Y-94327132D01*
X176757599Y-94341747D01*
X176775777Y-94358223D01*
X176792253Y-94376401D01*
X176806868Y-94396107D01*
X176819480Y-94417150D01*
X176829970Y-94439329D01*
X176838235Y-94462428D01*
X176844196Y-94486227D01*
X176847796Y-94510495D01*
X176849000Y-94534999D01*
X176849000Y-95185001D01*
X176847796Y-95209505D01*
X176844196Y-95233773D01*
X176838235Y-95257572D01*
X176829970Y-95280671D01*
X176819480Y-95302850D01*
X176806868Y-95323893D01*
X176792253Y-95343599D01*
X176775777Y-95361777D01*
X176757599Y-95378253D01*
X176737893Y-95392868D01*
X176716850Y-95405480D01*
X176694671Y-95415970D01*
X176671572Y-95424235D01*
X176647773Y-95430196D01*
X176623505Y-95433796D01*
X176599001Y-95435000D01*
X175698999Y-95435000D01*
X175674495Y-95433796D01*
X175650227Y-95430196D01*
X175626428Y-95424235D01*
X175603329Y-95415970D01*
X175581150Y-95405480D01*
X175560107Y-95392868D01*
X175540401Y-95378253D01*
X175522223Y-95361777D01*
X175505747Y-95343599D01*
X175491132Y-95323893D01*
X175478520Y-95302850D01*
X175468030Y-95280671D01*
X175459765Y-95257572D01*
X175453804Y-95233773D01*
X175450204Y-95209505D01*
X175449000Y-95185001D01*
X175449000Y-94534999D01*
X175450204Y-94510495D01*
X175453804Y-94486227D01*
X175459765Y-94462428D01*
X175468030Y-94439329D01*
X175478520Y-94417150D01*
X175491132Y-94396107D01*
X175505747Y-94376401D01*
X175522223Y-94358223D01*
X175540401Y-94341747D01*
X175560107Y-94327132D01*
X175581150Y-94314520D01*
X175603329Y-94304030D01*
X175626428Y-94295765D01*
X175650227Y-94289804D01*
X175674495Y-94286204D01*
X175698999Y-94285000D01*
X176599001Y-94285000D01*
X176623505Y-94286204D01*
X176623505Y-94286204D01*
G37*
D12*
X176149000Y-94860000D03*
D11*
G36*
X176623505Y-96336204D02*
G01*
X176647773Y-96339804D01*
X176671572Y-96345765D01*
X176694671Y-96354030D01*
X176716850Y-96364520D01*
X176737893Y-96377132D01*
X176757599Y-96391747D01*
X176775777Y-96408223D01*
X176792253Y-96426401D01*
X176806868Y-96446107D01*
X176819480Y-96467150D01*
X176829970Y-96489329D01*
X176838235Y-96512428D01*
X176844196Y-96536227D01*
X176847796Y-96560495D01*
X176849000Y-96584999D01*
X176849000Y-97235001D01*
X176847796Y-97259505D01*
X176844196Y-97283773D01*
X176838235Y-97307572D01*
X176829970Y-97330671D01*
X176819480Y-97352850D01*
X176806868Y-97373893D01*
X176792253Y-97393599D01*
X176775777Y-97411777D01*
X176757599Y-97428253D01*
X176737893Y-97442868D01*
X176716850Y-97455480D01*
X176694671Y-97465970D01*
X176671572Y-97474235D01*
X176647773Y-97480196D01*
X176623505Y-97483796D01*
X176599001Y-97485000D01*
X175698999Y-97485000D01*
X175674495Y-97483796D01*
X175650227Y-97480196D01*
X175626428Y-97474235D01*
X175603329Y-97465970D01*
X175581150Y-97455480D01*
X175560107Y-97442868D01*
X175540401Y-97428253D01*
X175522223Y-97411777D01*
X175505747Y-97393599D01*
X175491132Y-97373893D01*
X175478520Y-97352850D01*
X175468030Y-97330671D01*
X175459765Y-97307572D01*
X175453804Y-97283773D01*
X175450204Y-97259505D01*
X175449000Y-97235001D01*
X175449000Y-96584999D01*
X175450204Y-96560495D01*
X175453804Y-96536227D01*
X175459765Y-96512428D01*
X175468030Y-96489329D01*
X175478520Y-96467150D01*
X175491132Y-96446107D01*
X175505747Y-96426401D01*
X175522223Y-96408223D01*
X175540401Y-96391747D01*
X175560107Y-96377132D01*
X175581150Y-96364520D01*
X175603329Y-96354030D01*
X175626428Y-96345765D01*
X175650227Y-96339804D01*
X175674495Y-96336204D01*
X175698999Y-96335000D01*
X176599001Y-96335000D01*
X176623505Y-96336204D01*
X176623505Y-96336204D01*
G37*
D12*
X176149000Y-96910000D03*
D18*
X169748200Y-73202800D03*
D19*
X169748200Y-75742800D03*
X169748200Y-78282800D03*
D11*
G36*
X162820532Y-85925579D02*
G01*
X162844800Y-85929179D01*
X162868599Y-85935140D01*
X162891698Y-85943405D01*
X162913877Y-85953895D01*
X162934920Y-85966507D01*
X162954626Y-85981122D01*
X162972804Y-85997598D01*
X162989280Y-86015776D01*
X163003895Y-86035482D01*
X163016507Y-86056525D01*
X163026997Y-86078704D01*
X163035262Y-86101803D01*
X163041223Y-86125602D01*
X163044823Y-86149870D01*
X163046027Y-86174374D01*
X163046027Y-87074376D01*
X163044823Y-87098880D01*
X163041223Y-87123148D01*
X163035262Y-87146947D01*
X163026997Y-87170046D01*
X163016507Y-87192225D01*
X163003895Y-87213268D01*
X162989280Y-87232974D01*
X162972804Y-87251152D01*
X162954626Y-87267628D01*
X162934920Y-87282243D01*
X162913877Y-87294855D01*
X162891698Y-87305345D01*
X162868599Y-87313610D01*
X162844800Y-87319571D01*
X162820532Y-87323171D01*
X162796028Y-87324375D01*
X162146026Y-87324375D01*
X162121522Y-87323171D01*
X162097254Y-87319571D01*
X162073455Y-87313610D01*
X162050356Y-87305345D01*
X162028177Y-87294855D01*
X162007134Y-87282243D01*
X161987428Y-87267628D01*
X161969250Y-87251152D01*
X161952774Y-87232974D01*
X161938159Y-87213268D01*
X161925547Y-87192225D01*
X161915057Y-87170046D01*
X161906792Y-87146947D01*
X161900831Y-87123148D01*
X161897231Y-87098880D01*
X161896027Y-87074376D01*
X161896027Y-86174374D01*
X161897231Y-86149870D01*
X161900831Y-86125602D01*
X161906792Y-86101803D01*
X161915057Y-86078704D01*
X161925547Y-86056525D01*
X161938159Y-86035482D01*
X161952774Y-86015776D01*
X161969250Y-85997598D01*
X161987428Y-85981122D01*
X162007134Y-85966507D01*
X162028177Y-85953895D01*
X162050356Y-85943405D01*
X162073455Y-85935140D01*
X162097254Y-85929179D01*
X162121522Y-85925579D01*
X162146026Y-85924375D01*
X162796028Y-85924375D01*
X162820532Y-85925579D01*
X162820532Y-85925579D01*
G37*
D12*
X162471027Y-86624375D03*
D11*
G36*
X164870532Y-85925579D02*
G01*
X164894800Y-85929179D01*
X164918599Y-85935140D01*
X164941698Y-85943405D01*
X164963877Y-85953895D01*
X164984920Y-85966507D01*
X165004626Y-85981122D01*
X165022804Y-85997598D01*
X165039280Y-86015776D01*
X165053895Y-86035482D01*
X165066507Y-86056525D01*
X165076997Y-86078704D01*
X165085262Y-86101803D01*
X165091223Y-86125602D01*
X165094823Y-86149870D01*
X165096027Y-86174374D01*
X165096027Y-87074376D01*
X165094823Y-87098880D01*
X165091223Y-87123148D01*
X165085262Y-87146947D01*
X165076997Y-87170046D01*
X165066507Y-87192225D01*
X165053895Y-87213268D01*
X165039280Y-87232974D01*
X165022804Y-87251152D01*
X165004626Y-87267628D01*
X164984920Y-87282243D01*
X164963877Y-87294855D01*
X164941698Y-87305345D01*
X164918599Y-87313610D01*
X164894800Y-87319571D01*
X164870532Y-87323171D01*
X164846028Y-87324375D01*
X164196026Y-87324375D01*
X164171522Y-87323171D01*
X164147254Y-87319571D01*
X164123455Y-87313610D01*
X164100356Y-87305345D01*
X164078177Y-87294855D01*
X164057134Y-87282243D01*
X164037428Y-87267628D01*
X164019250Y-87251152D01*
X164002774Y-87232974D01*
X163988159Y-87213268D01*
X163975547Y-87192225D01*
X163965057Y-87170046D01*
X163956792Y-87146947D01*
X163950831Y-87123148D01*
X163947231Y-87098880D01*
X163946027Y-87074376D01*
X163946027Y-86174374D01*
X163947231Y-86149870D01*
X163950831Y-86125602D01*
X163956792Y-86101803D01*
X163965057Y-86078704D01*
X163975547Y-86056525D01*
X163988159Y-86035482D01*
X164002774Y-86015776D01*
X164019250Y-85997598D01*
X164037428Y-85981122D01*
X164057134Y-85966507D01*
X164078177Y-85953895D01*
X164100356Y-85943405D01*
X164123455Y-85935140D01*
X164147254Y-85929179D01*
X164171522Y-85925579D01*
X164196026Y-85924375D01*
X164846028Y-85924375D01*
X164870532Y-85925579D01*
X164870532Y-85925579D01*
G37*
D12*
X164521027Y-86624375D03*
D16*
X171831000Y-91186000D03*
D17*
X171831000Y-88646000D03*
D11*
G36*
X166082910Y-82992202D02*
G01*
X166107135Y-82995795D01*
X166130891Y-83001746D01*
X166153949Y-83009996D01*
X166176087Y-83020467D01*
X166197093Y-83033057D01*
X166216763Y-83047645D01*
X166234908Y-83064092D01*
X166251355Y-83082237D01*
X166265943Y-83101907D01*
X166278533Y-83122913D01*
X166289004Y-83145051D01*
X166297254Y-83168109D01*
X166303205Y-83191865D01*
X166306798Y-83216090D01*
X166308000Y-83240550D01*
X166308000Y-83891450D01*
X166306798Y-83915910D01*
X166303205Y-83940135D01*
X166297254Y-83963891D01*
X166289004Y-83986949D01*
X166278533Y-84009087D01*
X166265943Y-84030093D01*
X166251355Y-84049763D01*
X166234908Y-84067908D01*
X166216763Y-84084355D01*
X166197093Y-84098943D01*
X166176087Y-84111533D01*
X166153949Y-84122004D01*
X166130891Y-84130254D01*
X166107135Y-84136205D01*
X166082910Y-84139798D01*
X166058450Y-84141000D01*
X165157550Y-84141000D01*
X165133090Y-84139798D01*
X165108865Y-84136205D01*
X165085109Y-84130254D01*
X165062051Y-84122004D01*
X165039913Y-84111533D01*
X165018907Y-84098943D01*
X164999237Y-84084355D01*
X164981092Y-84067908D01*
X164964645Y-84049763D01*
X164950057Y-84030093D01*
X164937467Y-84009087D01*
X164926996Y-83986949D01*
X164918746Y-83963891D01*
X164912795Y-83940135D01*
X164909202Y-83915910D01*
X164908000Y-83891450D01*
X164908000Y-83240550D01*
X164909202Y-83216090D01*
X164912795Y-83191865D01*
X164918746Y-83168109D01*
X164926996Y-83145051D01*
X164937467Y-83122913D01*
X164950057Y-83101907D01*
X164964645Y-83082237D01*
X164981092Y-83064092D01*
X164999237Y-83047645D01*
X165018907Y-83033057D01*
X165039913Y-83020467D01*
X165062051Y-83009996D01*
X165085109Y-83001746D01*
X165108865Y-82995795D01*
X165133090Y-82992202D01*
X165157550Y-82991000D01*
X166058450Y-82991000D01*
X166082910Y-82992202D01*
X166082910Y-82992202D01*
G37*
D12*
X165608000Y-83566000D03*
D11*
G36*
X166082505Y-80942204D02*
G01*
X166106773Y-80945804D01*
X166130572Y-80951765D01*
X166153671Y-80960030D01*
X166175850Y-80970520D01*
X166196893Y-80983132D01*
X166216599Y-80997747D01*
X166234777Y-81014223D01*
X166251253Y-81032401D01*
X166265868Y-81052107D01*
X166278480Y-81073150D01*
X166288970Y-81095329D01*
X166297235Y-81118428D01*
X166303196Y-81142227D01*
X166306796Y-81166495D01*
X166308000Y-81190999D01*
X166308000Y-81841001D01*
X166306796Y-81865505D01*
X166303196Y-81889773D01*
X166297235Y-81913572D01*
X166288970Y-81936671D01*
X166278480Y-81958850D01*
X166265868Y-81979893D01*
X166251253Y-81999599D01*
X166234777Y-82017777D01*
X166216599Y-82034253D01*
X166196893Y-82048868D01*
X166175850Y-82061480D01*
X166153671Y-82071970D01*
X166130572Y-82080235D01*
X166106773Y-82086196D01*
X166082505Y-82089796D01*
X166058001Y-82091000D01*
X165157999Y-82091000D01*
X165133495Y-82089796D01*
X165109227Y-82086196D01*
X165085428Y-82080235D01*
X165062329Y-82071970D01*
X165040150Y-82061480D01*
X165019107Y-82048868D01*
X164999401Y-82034253D01*
X164981223Y-82017777D01*
X164964747Y-81999599D01*
X164950132Y-81979893D01*
X164937520Y-81958850D01*
X164927030Y-81936671D01*
X164918765Y-81913572D01*
X164912804Y-81889773D01*
X164909204Y-81865505D01*
X164908000Y-81841001D01*
X164908000Y-81190999D01*
X164909204Y-81166495D01*
X164912804Y-81142227D01*
X164918765Y-81118428D01*
X164927030Y-81095329D01*
X164937520Y-81073150D01*
X164950132Y-81052107D01*
X164964747Y-81032401D01*
X164981223Y-81014223D01*
X164999401Y-80997747D01*
X165019107Y-80983132D01*
X165040150Y-80970520D01*
X165062329Y-80960030D01*
X165085428Y-80951765D01*
X165109227Y-80945804D01*
X165133495Y-80942204D01*
X165157999Y-80941000D01*
X166058001Y-80941000D01*
X166082505Y-80942204D01*
X166082505Y-80942204D01*
G37*
D12*
X165608000Y-81516000D03*
D22*
X143903700Y-89623900D03*
X145173700Y-89623900D03*
D23*
X142633700Y-89623900D03*
D24*
X143891026Y-71304376D03*
D17*
X143891026Y-73844376D03*
X143891026Y-76384376D03*
X143891026Y-78924376D03*
X143891026Y-81464376D03*
X143891026Y-84004376D03*
D25*
X165328081Y-96678001D03*
X170208081Y-96678001D03*
D26*
X152765003Y-81280000D03*
X162560000Y-81280000D03*
X156210000Y-87630000D03*
X151765000Y-88163400D03*
X155575000Y-81280000D03*
X158115000Y-81280000D03*
X154645062Y-91069376D03*
X159658527Y-86624375D03*
X162179000Y-85598000D03*
X151511000Y-81280000D03*
X160655000Y-81280000D03*
X153035000Y-86995000D03*
X149098000Y-105156000D03*
X149987000Y-106172000D03*
X151003000Y-106934000D03*
X151892000Y-107950000D03*
X152273000Y-106426000D03*
X151257000Y-105664000D03*
X150241000Y-104521000D03*
X151130000Y-111379000D03*
X150114000Y-110363000D03*
X148844000Y-111379000D03*
X149352000Y-109347000D03*
X147828000Y-110109000D03*
X147828000Y-108458000D03*
X147066000Y-107188000D03*
X146050000Y-106553000D03*
X145288000Y-105283000D03*
X144399000Y-106299000D03*
X145415000Y-108077000D03*
X146812000Y-108966000D03*
X141859000Y-94615000D03*
X142113000Y-96012000D03*
X145923000Y-94488000D03*
X158724600Y-85140800D03*
X158733527Y-87884000D03*
X164719000Y-88214200D03*
X162306000Y-88138000D03*
X142875000Y-97358200D03*
X142036800Y-98475800D03*
X180975000Y-87884000D03*
X166867840Y-91897200D03*
X158496000Y-76032360D03*
X152501600Y-98839800D03*
X152501600Y-99889800D03*
X181483000Y-93345000D03*
X174625000Y-87975000D03*
X168148000Y-64643000D03*
X173958200Y-87173850D03*
X192405000Y-88900000D03*
X163957000Y-81407000D03*
X182245000Y-91440000D03*
D27*
X152765003Y-82243351D02*
X153336027Y-82814375D01*
X152765003Y-81280000D02*
X152765003Y-82243351D01*
X162560000Y-81280000D02*
X162560000Y-82758348D01*
X156210000Y-86680402D02*
X156266027Y-86624375D01*
X156210000Y-87630000D02*
X156210000Y-86680402D01*
X152765003Y-81280000D02*
X155575000Y-81280000D01*
X155575000Y-81280000D02*
X158115000Y-81280000D01*
X162471027Y-86624375D02*
X159658527Y-86624375D01*
X159658527Y-86624375D02*
X156266027Y-86624375D01*
X155676600Y-88163400D02*
X156210000Y-87630000D01*
D28*
X154635200Y-90493829D02*
X154635200Y-88163400D01*
X154645062Y-90503691D02*
X154635200Y-90493829D01*
X154645062Y-91069376D02*
X154645062Y-90503691D01*
D27*
X151765000Y-88163400D02*
X154635200Y-88163400D01*
X154635200Y-88163400D02*
X155676600Y-88163400D01*
X162471027Y-85890027D02*
X162179000Y-85598000D01*
X162471027Y-86624375D02*
X162471027Y-85890027D01*
X153336027Y-83694375D02*
X156266027Y-86624375D01*
X153336027Y-82814375D02*
X153336027Y-83694375D01*
X151199315Y-88163400D02*
X151765000Y-88163400D01*
X146015048Y-88163400D02*
X151199315Y-88163400D01*
X141605000Y-83753352D02*
X146015048Y-88163400D01*
X141605000Y-68652376D02*
X141605000Y-83753352D01*
X142621000Y-67636376D02*
X141605000Y-68652376D01*
X142621000Y-66224376D02*
X142621000Y-67636376D01*
D28*
X160655000Y-82725402D02*
X160566027Y-82814375D01*
X160655000Y-81280000D02*
X160655000Y-82725402D01*
X153670000Y-87170402D02*
X154216027Y-86624375D01*
D27*
X178913000Y-87240000D02*
X178963000Y-87290000D01*
D28*
X153405625Y-86624375D02*
X153035000Y-86995000D01*
X154216027Y-86624375D02*
X153405625Y-86624375D01*
D29*
X164719000Y-86822348D02*
X164521027Y-86624375D01*
X164719000Y-88214200D02*
X164719000Y-86822348D01*
D28*
X151286027Y-81504973D02*
X151511000Y-81280000D01*
X151286027Y-82814375D02*
X151286027Y-81504973D01*
D29*
X148850000Y-100995000D02*
X147950000Y-100995000D01*
X150241000Y-104521000D02*
X150241000Y-103124000D01*
X150241000Y-102386000D02*
X149963000Y-102108000D01*
X150241000Y-103124000D02*
X150241000Y-102386000D01*
X149963000Y-102108000D02*
X148850000Y-100995000D01*
D27*
X178963000Y-87290000D02*
X180381000Y-87290000D01*
X180381000Y-87290000D02*
X180975000Y-87884000D01*
X153733526Y-110674376D02*
X152633526Y-110674376D01*
D30*
X147950000Y-98395000D02*
X147925000Y-98395000D01*
X147726000Y-98171000D02*
X147950000Y-98395000D01*
D27*
X146761200Y-98171000D02*
X147726000Y-98171000D01*
X145924999Y-103965849D02*
X152633526Y-110674376D01*
X145924999Y-99007201D02*
X145924999Y-103965849D01*
X146761200Y-98171000D02*
X146151600Y-98171000D01*
X145924999Y-98397601D02*
X145924999Y-99007201D01*
X146151600Y-98171000D02*
X145924999Y-98397601D01*
D28*
X178958000Y-91295000D02*
X178963000Y-91290000D01*
X178963000Y-91290000D02*
X179713000Y-91290000D01*
X193413000Y-101290000D02*
X194163000Y-101290000D01*
X192587999Y-100464999D02*
X193413000Y-101290000D01*
X192587999Y-98115001D02*
X192587999Y-100464999D01*
X193413000Y-97290000D02*
X192587999Y-98115001D01*
X194163000Y-97290000D02*
X193413000Y-97290000D01*
X176027000Y-91290000D02*
X176022000Y-91295000D01*
X178963000Y-91290000D02*
X176027000Y-91290000D01*
X191837999Y-98115001D02*
X192663000Y-97290000D01*
X175638811Y-98115001D02*
X191837999Y-98115001D01*
X174996990Y-97473180D02*
X175638811Y-98115001D01*
X176022000Y-91295000D02*
X174996990Y-92320010D01*
X192663000Y-97290000D02*
X194163000Y-97290000D01*
X174996990Y-92320010D02*
X174996990Y-97473180D01*
D10*
X152501600Y-98839800D02*
X151901600Y-99439800D01*
X149109802Y-99439800D02*
X148840001Y-99169999D01*
X148840001Y-99169999D02*
X148074999Y-99169999D01*
X151901600Y-99439800D02*
X149109802Y-99439800D01*
X148074999Y-99169999D02*
X147950000Y-99045000D01*
X147963603Y-99695000D02*
X147950000Y-99695000D01*
X148088602Y-99819999D02*
X147963603Y-99695000D01*
X148909802Y-99889800D02*
X148840001Y-99819999D01*
X148840001Y-99819999D02*
X148088602Y-99819999D01*
X152501600Y-99889800D02*
X148909802Y-99889800D01*
D28*
X178213000Y-93290000D02*
X178963000Y-93290000D01*
X177387999Y-94115001D02*
X178213000Y-93290000D01*
X177387999Y-95290001D02*
X177387999Y-94115001D01*
X175768000Y-96910000D02*
X177387999Y-95290001D01*
X179018000Y-93345000D02*
X178963000Y-93290000D01*
X181483000Y-93345000D02*
X179018000Y-93345000D01*
D31*
X176228312Y-99290000D02*
X177535000Y-99290000D01*
X177535000Y-99290000D02*
X178963000Y-99290000D01*
X174582981Y-97644669D02*
X176228312Y-99290000D01*
X174582980Y-88582705D02*
X174582981Y-97644669D01*
X174625000Y-88540685D02*
X174582980Y-88582705D01*
X174625000Y-87975000D02*
X174625000Y-88540685D01*
X166242999Y-65462377D02*
X165481000Y-66224376D01*
X166762938Y-65462377D02*
X166242999Y-65462377D01*
X167582315Y-64643000D02*
X166762938Y-65462377D01*
X168148000Y-64643000D02*
X167582315Y-64643000D01*
X173958200Y-97713200D02*
X177535000Y-101290000D01*
X177535000Y-101290000D02*
X178963000Y-101290000D01*
X173958200Y-87173850D02*
X173958200Y-97713200D01*
X193773000Y-88900000D02*
X194163000Y-89290000D01*
X192405000Y-88900000D02*
X193773000Y-88900000D01*
X146431026Y-71304376D02*
X143891026Y-73844376D01*
X146431026Y-68764376D02*
X146431026Y-71304376D01*
X144741025Y-75534377D02*
X143891026Y-76384376D01*
X148209027Y-69526375D02*
X148209027Y-72066375D01*
X148209027Y-72066375D02*
X144741025Y-75534377D01*
X148971026Y-68764376D02*
X148209027Y-69526375D01*
X150749027Y-72066375D02*
X144741025Y-78074377D01*
X150749027Y-69526375D02*
X150749027Y-72066375D01*
X144741025Y-78074377D02*
X143891026Y-78924376D01*
X151511026Y-68764376D02*
X150749027Y-69526375D01*
X144741025Y-80614377D02*
X143891026Y-81464376D01*
X153289027Y-72066375D02*
X144741025Y-80614377D01*
X153289027Y-69526375D02*
X153289027Y-72066375D01*
X154051026Y-68764376D02*
X153289027Y-69526375D01*
D27*
X144100000Y-94461000D02*
X144100000Y-95820000D01*
X142222000Y-92583000D02*
X144100000Y-94461000D01*
D28*
X175768000Y-89290000D02*
X178963000Y-89290000D01*
X165608000Y-81516000D02*
X164066000Y-81516000D01*
X164066000Y-81516000D02*
X163957000Y-81407000D01*
X176022000Y-94860000D02*
X176022000Y-93345000D01*
D27*
X194163000Y-87290000D02*
X192618000Y-87290000D01*
X192618000Y-87290000D02*
X191983000Y-87290000D01*
D28*
X176022000Y-93345000D02*
X176902001Y-92464999D01*
D27*
X191983000Y-87290000D02*
X190332000Y-87290000D01*
X190332000Y-87290000D02*
X186182000Y-91440000D01*
X186182000Y-91440000D02*
X182245000Y-91440000D01*
D28*
X181220001Y-92464999D02*
X182245000Y-91440000D01*
X176902001Y-92464999D02*
X181220001Y-92464999D01*
D32*
G36*
X173704907Y-61986833D02*
G01*
X174041489Y-62088453D01*
X174351921Y-62253512D01*
X174624379Y-62475723D01*
X174848490Y-62746627D01*
X175015712Y-63055896D01*
X175119680Y-63391760D01*
X175160000Y-63775382D01*
X175160001Y-78141105D01*
X175163197Y-78173558D01*
X175163087Y-78189347D01*
X175164088Y-78199560D01*
X175215905Y-78692567D01*
X175229313Y-78757888D01*
X175241784Y-78823259D01*
X175244749Y-78833084D01*
X175391339Y-79306636D01*
X175417157Y-79368055D01*
X175442109Y-79429813D01*
X175446926Y-79438874D01*
X175682704Y-79874934D01*
X175719944Y-79930145D01*
X175756431Y-79985903D01*
X175762917Y-79993856D01*
X176078901Y-80375816D01*
X176126173Y-80422758D01*
X176172780Y-80470353D01*
X176180687Y-80476894D01*
X176564844Y-80790204D01*
X176620349Y-80827082D01*
X176675296Y-80864705D01*
X176684324Y-80869587D01*
X177122019Y-81102313D01*
X177183651Y-81127716D01*
X177244840Y-81153942D01*
X177254639Y-81156976D01*
X177254645Y-81156978D01*
X177729207Y-81300256D01*
X177794567Y-81313198D01*
X177859715Y-81327045D01*
X177869921Y-81328118D01*
X178363277Y-81376492D01*
X178398895Y-81380000D01*
X193639053Y-81380000D01*
X194024907Y-81417833D01*
X194361489Y-81519453D01*
X194671921Y-81684512D01*
X194944379Y-81906723D01*
X195168490Y-82177627D01*
X195335712Y-82486896D01*
X195439680Y-82822760D01*
X195480000Y-83206382D01*
X195480000Y-86158527D01*
X195413000Y-86151928D01*
X192913000Y-86151928D01*
X192788518Y-86164188D01*
X192701072Y-86190714D01*
X192701072Y-84890000D01*
X192688812Y-84765518D01*
X192652502Y-84645820D01*
X192593537Y-84535506D01*
X192514185Y-84438815D01*
X192417494Y-84359463D01*
X192307180Y-84300498D01*
X192187482Y-84264188D01*
X192063000Y-84251928D01*
X191063000Y-84251928D01*
X190938518Y-84264188D01*
X190818820Y-84300498D01*
X190708506Y-84359463D01*
X190611815Y-84438815D01*
X190563000Y-84498296D01*
X190514185Y-84438815D01*
X190417494Y-84359463D01*
X190307180Y-84300498D01*
X190187482Y-84264188D01*
X190063000Y-84251928D01*
X189063000Y-84251928D01*
X188938518Y-84264188D01*
X188818820Y-84300498D01*
X188708506Y-84359463D01*
X188611815Y-84438815D01*
X188563000Y-84498296D01*
X188514185Y-84438815D01*
X188417494Y-84359463D01*
X188307180Y-84300498D01*
X188187482Y-84264188D01*
X188063000Y-84251928D01*
X187576013Y-84251928D01*
X187745134Y-84113134D01*
X187930706Y-83887014D01*
X188068599Y-83629034D01*
X188153513Y-83349111D01*
X188182185Y-83058000D01*
X188153513Y-82766889D01*
X188068599Y-82486966D01*
X187930706Y-82228986D01*
X187745134Y-82002866D01*
X187519014Y-81817294D01*
X187261034Y-81679401D01*
X186981111Y-81594487D01*
X186762950Y-81573000D01*
X186617050Y-81573000D01*
X186398889Y-81594487D01*
X186118966Y-81679401D01*
X185860986Y-81817294D01*
X185634866Y-82002866D01*
X185610393Y-82032687D01*
X185589502Y-81963820D01*
X185530537Y-81853506D01*
X185451185Y-81756815D01*
X185354494Y-81677463D01*
X185244180Y-81618498D01*
X185124482Y-81582188D01*
X185000000Y-81569928D01*
X184435750Y-81573000D01*
X184277000Y-81731750D01*
X184277000Y-82931000D01*
X184297000Y-82931000D01*
X184297000Y-83185000D01*
X184277000Y-83185000D01*
X184277000Y-83205000D01*
X184023000Y-83205000D01*
X184023000Y-83185000D01*
X182823750Y-83185000D01*
X182665000Y-83343750D01*
X182661928Y-83908000D01*
X182674188Y-84032482D01*
X182710498Y-84152180D01*
X182769463Y-84262494D01*
X182806192Y-84307248D01*
X182708506Y-84359463D01*
X182611815Y-84438815D01*
X182563000Y-84498296D01*
X182514185Y-84438815D01*
X182417494Y-84359463D01*
X182307180Y-84300498D01*
X182187482Y-84264188D01*
X182063000Y-84251928D01*
X181063000Y-84251928D01*
X180938518Y-84264188D01*
X180818820Y-84300498D01*
X180708506Y-84359463D01*
X180611815Y-84438815D01*
X180532463Y-84535506D01*
X180473498Y-84645820D01*
X180437188Y-84765518D01*
X180424928Y-84890000D01*
X180424928Y-86190714D01*
X180337482Y-86164188D01*
X180213000Y-86151928D01*
X179248750Y-86155000D01*
X179090000Y-86313750D01*
X179090000Y-87163000D01*
X180638397Y-87163000D01*
X180708506Y-87220537D01*
X180818820Y-87279502D01*
X180938518Y-87315812D01*
X181063000Y-87328072D01*
X182063000Y-87328072D01*
X182187482Y-87315812D01*
X182307180Y-87279502D01*
X182417494Y-87220537D01*
X182514185Y-87141185D01*
X182563000Y-87081704D01*
X182611815Y-87141185D01*
X182708506Y-87220537D01*
X182818820Y-87279502D01*
X182938518Y-87315812D01*
X183063000Y-87328072D01*
X184063000Y-87328072D01*
X184187482Y-87315812D01*
X184307180Y-87279502D01*
X184417494Y-87220537D01*
X184514185Y-87141185D01*
X184563000Y-87081704D01*
X184611815Y-87141185D01*
X184708506Y-87220537D01*
X184818820Y-87279502D01*
X184938518Y-87315812D01*
X185063000Y-87328072D01*
X186063000Y-87328072D01*
X186187482Y-87315812D01*
X186307180Y-87279502D01*
X186417494Y-87220537D01*
X186514185Y-87141185D01*
X186563000Y-87081704D01*
X186611815Y-87141185D01*
X186708506Y-87220537D01*
X186818820Y-87279502D01*
X186938518Y-87315812D01*
X187063000Y-87328072D01*
X188063000Y-87328072D01*
X188187482Y-87315812D01*
X188307180Y-87279502D01*
X188417494Y-87220537D01*
X188514185Y-87141185D01*
X188563000Y-87081704D01*
X188611815Y-87141185D01*
X188708506Y-87220537D01*
X188818820Y-87279502D01*
X188938518Y-87315812D01*
X188947644Y-87316711D01*
X185784356Y-90480000D01*
X182631940Y-90480000D01*
X182546898Y-90444774D01*
X182346939Y-90405000D01*
X182143061Y-90405000D01*
X181943102Y-90444774D01*
X181754744Y-90522795D01*
X181585226Y-90636063D01*
X181441063Y-90780226D01*
X181327795Y-90949744D01*
X181249774Y-91138102D01*
X181210000Y-91338061D01*
X181210000Y-91400198D01*
X180905200Y-91704999D01*
X180851072Y-91704999D01*
X180851072Y-90790000D01*
X180838812Y-90665518D01*
X180802502Y-90545820D01*
X180743537Y-90435506D01*
X180664185Y-90338815D01*
X180604704Y-90290000D01*
X180664185Y-90241185D01*
X180743537Y-90144494D01*
X180802502Y-90034180D01*
X180838812Y-89914482D01*
X180851072Y-89790000D01*
X180851072Y-88790000D01*
X180838812Y-88665518D01*
X180802502Y-88545820D01*
X180743537Y-88435506D01*
X180664185Y-88338815D01*
X180604704Y-88290000D01*
X180664185Y-88241185D01*
X180743537Y-88144494D01*
X180802502Y-88034180D01*
X180838812Y-87914482D01*
X180851072Y-87790000D01*
X180848000Y-87575750D01*
X180689250Y-87417000D01*
X179090000Y-87417000D01*
X179090000Y-87437000D01*
X178836000Y-87437000D01*
X178836000Y-87417000D01*
X177248250Y-87417000D01*
X177198250Y-87367000D01*
X176149000Y-87367000D01*
X176149000Y-87387000D01*
X175895000Y-87387000D01*
X175895000Y-87367000D01*
X175875000Y-87367000D01*
X175875000Y-87113000D01*
X175895000Y-87113000D01*
X175895000Y-86188750D01*
X176149000Y-86188750D01*
X176149000Y-87113000D01*
X177186750Y-87113000D01*
X177236750Y-87163000D01*
X178836000Y-87163000D01*
X178836000Y-86313750D01*
X178677250Y-86155000D01*
X177713000Y-86151928D01*
X177588518Y-86164188D01*
X177468820Y-86200498D01*
X177358506Y-86259463D01*
X177265884Y-86335476D01*
X177252537Y-86310506D01*
X177173185Y-86213815D01*
X177076494Y-86134463D01*
X176966180Y-86075498D01*
X176846482Y-86039188D01*
X176722000Y-86026928D01*
X176307750Y-86030000D01*
X176149000Y-86188750D01*
X175895000Y-86188750D01*
X175736250Y-86030000D01*
X175322000Y-86026928D01*
X175197518Y-86039188D01*
X175077820Y-86075498D01*
X174967506Y-86134463D01*
X174870815Y-86213815D01*
X174791463Y-86310506D01*
X174732498Y-86420820D01*
X174717691Y-86469630D01*
X174617974Y-86369913D01*
X174448456Y-86256645D01*
X174260098Y-86178624D01*
X174060139Y-86138850D01*
X173856261Y-86138850D01*
X173656302Y-86178624D01*
X173467944Y-86256645D01*
X173298426Y-86369913D01*
X173154263Y-86514076D01*
X173040995Y-86683594D01*
X172962974Y-86871952D01*
X172923200Y-87071911D01*
X172923200Y-87275789D01*
X172962974Y-87475748D01*
X173040995Y-87664106D01*
X173154263Y-87833624D01*
X173234200Y-87913561D01*
X173234200Y-88156065D01*
X173209599Y-88074966D01*
X173071706Y-87816986D01*
X172886134Y-87590866D01*
X172660014Y-87405294D01*
X172402034Y-87267401D01*
X172122111Y-87182487D01*
X171903950Y-87161000D01*
X171758050Y-87161000D01*
X171539889Y-87182487D01*
X171259966Y-87267401D01*
X171001986Y-87405294D01*
X170775866Y-87590866D01*
X170590294Y-87816986D01*
X170452401Y-88074966D01*
X170367487Y-88354889D01*
X170338815Y-88646000D01*
X170367487Y-88937111D01*
X170452401Y-89217034D01*
X170590294Y-89475014D01*
X170775866Y-89701134D01*
X170805687Y-89725607D01*
X170736820Y-89746498D01*
X170626506Y-89805463D01*
X170529815Y-89884815D01*
X170450463Y-89981506D01*
X170391498Y-90091820D01*
X170355188Y-90211518D01*
X170342928Y-90336000D01*
X170342928Y-92036000D01*
X170355188Y-92160482D01*
X170391498Y-92280180D01*
X170450463Y-92390494D01*
X170529815Y-92487185D01*
X170626506Y-92566537D01*
X170736820Y-92625502D01*
X170856518Y-92661812D01*
X170981000Y-92674072D01*
X172681000Y-92674072D01*
X172805482Y-92661812D01*
X172925180Y-92625502D01*
X173035494Y-92566537D01*
X173132185Y-92487185D01*
X173211537Y-92390494D01*
X173234200Y-92348094D01*
X173234201Y-97677632D01*
X173230698Y-97713200D01*
X173244676Y-97855129D01*
X173271275Y-97942811D01*
X173286076Y-97991603D01*
X173353304Y-98117379D01*
X173389891Y-98161960D01*
X173421106Y-98199996D01*
X173421110Y-98200000D01*
X173443779Y-98227622D01*
X173471401Y-98250291D01*
X176997909Y-101776800D01*
X177020578Y-101804422D01*
X177048200Y-101827091D01*
X177048203Y-101827094D01*
X177072851Y-101847322D01*
X177081253Y-101854217D01*
X177081260Y-101854286D01*
X177038847Y-101854003D01*
X177014054Y-101856278D01*
X176990182Y-101863346D01*
X176968148Y-101874935D01*
X176948798Y-101890601D01*
X176932876Y-101909740D01*
X176920994Y-101931618D01*
X176913608Y-101955394D01*
X176911000Y-101981000D01*
X176911000Y-111660000D01*
X158592179Y-111660000D01*
X158720706Y-111503390D01*
X158858599Y-111245410D01*
X158943513Y-110965487D01*
X158972185Y-110674376D01*
X158943513Y-110383265D01*
X158858599Y-110103342D01*
X158720706Y-109845362D01*
X158535134Y-109619242D01*
X158505313Y-109594769D01*
X158574180Y-109573878D01*
X158684494Y-109514913D01*
X158781185Y-109435561D01*
X158860537Y-109338870D01*
X158919502Y-109228556D01*
X158955812Y-109108858D01*
X158968072Y-108984376D01*
X158968072Y-107284376D01*
X158955812Y-107159894D01*
X158919502Y-107040196D01*
X158860537Y-106929882D01*
X158781185Y-106833191D01*
X158684494Y-106753839D01*
X158574180Y-106694874D01*
X158454482Y-106658564D01*
X158330000Y-106646304D01*
X156630000Y-106646304D01*
X156505518Y-106658564D01*
X156385820Y-106694874D01*
X156275506Y-106753839D01*
X156178815Y-106833191D01*
X156099463Y-106929882D01*
X156040498Y-107040196D01*
X156004188Y-107159894D01*
X155991928Y-107284376D01*
X155991928Y-108984376D01*
X156004188Y-109108858D01*
X156040498Y-109228556D01*
X156099463Y-109338870D01*
X156178815Y-109435561D01*
X156275506Y-109514913D01*
X156385820Y-109573878D01*
X156454687Y-109594769D01*
X156424866Y-109619242D01*
X156239294Y-109845362D01*
X156101401Y-110103342D01*
X156016487Y-110383265D01*
X155987815Y-110674376D01*
X156016487Y-110965487D01*
X156101401Y-111245410D01*
X156239294Y-111503390D01*
X156367821Y-111660000D01*
X155205958Y-111660000D01*
X155209338Y-111648858D01*
X155221598Y-111524376D01*
X155221598Y-109824376D01*
X155209338Y-109699894D01*
X155173028Y-109580196D01*
X155114063Y-109469882D01*
X155034711Y-109373191D01*
X154938020Y-109293839D01*
X154827706Y-109234874D01*
X154758839Y-109213983D01*
X154788660Y-109189510D01*
X154974232Y-108963390D01*
X155112125Y-108705410D01*
X155197039Y-108425487D01*
X155225711Y-108134376D01*
X155197039Y-107843265D01*
X155112125Y-107563342D01*
X154974232Y-107305362D01*
X154788660Y-107079242D01*
X154562540Y-106893670D01*
X154304560Y-106755777D01*
X154024637Y-106670863D01*
X153806476Y-106649376D01*
X153660576Y-106649376D01*
X153442415Y-106670863D01*
X153162492Y-106755777D01*
X152904512Y-106893670D01*
X152678392Y-107079242D01*
X152492820Y-107305362D01*
X152354927Y-107563342D01*
X152270013Y-107843265D01*
X152241341Y-108134376D01*
X152270013Y-108425487D01*
X152354927Y-108705410D01*
X152492820Y-108963390D01*
X152678392Y-109189510D01*
X152708213Y-109213983D01*
X152639346Y-109234874D01*
X152582209Y-109265415D01*
X148320236Y-105003442D01*
X148376912Y-104992168D01*
X148674463Y-104868918D01*
X148942252Y-104689987D01*
X149169987Y-104462252D01*
X149348918Y-104194463D01*
X149472168Y-103896912D01*
X149535000Y-103581033D01*
X149535000Y-103258967D01*
X149472168Y-102943088D01*
X149348918Y-102645537D01*
X149169987Y-102377748D01*
X148942252Y-102150013D01*
X148674463Y-101971082D01*
X148399371Y-101857135D01*
X148592009Y-101858022D01*
X148716634Y-101847322D01*
X148836778Y-101812513D01*
X148947822Y-101754935D01*
X149045499Y-101676800D01*
X149126056Y-101581110D01*
X149186397Y-101471543D01*
X149224204Y-101352309D01*
X149235000Y-101251750D01*
X149076250Y-101093000D01*
X148963678Y-101093000D01*
X149051185Y-101021185D01*
X149130537Y-100924494D01*
X149176770Y-100838000D01*
X152086172Y-100838000D01*
X152199702Y-100885026D01*
X152399661Y-100924800D01*
X152603539Y-100924800D01*
X152803498Y-100885026D01*
X152917028Y-100838000D01*
X154305000Y-100838000D01*
X154329776Y-100835560D01*
X154353601Y-100828333D01*
X154375557Y-100816597D01*
X154394803Y-100800803D01*
X158331803Y-96863803D01*
X158347597Y-96844557D01*
X158359333Y-96822601D01*
X158366560Y-96798776D01*
X158369000Y-96774000D01*
X158369000Y-96541590D01*
X163943081Y-96541590D01*
X163943081Y-96814412D01*
X163996306Y-97081990D01*
X164100710Y-97334044D01*
X164252282Y-97560887D01*
X164445195Y-97753800D01*
X164672038Y-97905372D01*
X164924092Y-98009776D01*
X165191670Y-98063001D01*
X165464492Y-98063001D01*
X165732070Y-98009776D01*
X165984124Y-97905372D01*
X166210967Y-97753800D01*
X166403880Y-97560887D01*
X166555452Y-97334044D01*
X166659856Y-97081990D01*
X166713081Y-96814412D01*
X166713081Y-96541590D01*
X168823081Y-96541590D01*
X168823081Y-96814412D01*
X168876306Y-97081990D01*
X168980710Y-97334044D01*
X169132282Y-97560887D01*
X169325195Y-97753800D01*
X169552038Y-97905372D01*
X169804092Y-98009776D01*
X170071670Y-98063001D01*
X170344492Y-98063001D01*
X170612070Y-98009776D01*
X170864124Y-97905372D01*
X171090967Y-97753800D01*
X171283880Y-97560887D01*
X171435452Y-97334044D01*
X171539856Y-97081990D01*
X171593081Y-96814412D01*
X171593081Y-96541590D01*
X171539856Y-96274012D01*
X171435452Y-96021958D01*
X171283880Y-95795115D01*
X171090967Y-95602202D01*
X170864124Y-95450630D01*
X170612070Y-95346226D01*
X170344492Y-95293001D01*
X170071670Y-95293001D01*
X169804092Y-95346226D01*
X169552038Y-95450630D01*
X169325195Y-95602202D01*
X169132282Y-95795115D01*
X168980710Y-96021958D01*
X168876306Y-96274012D01*
X168823081Y-96541590D01*
X166713081Y-96541590D01*
X166659856Y-96274012D01*
X166555452Y-96021958D01*
X166403880Y-95795115D01*
X166210967Y-95602202D01*
X165984124Y-95450630D01*
X165732070Y-95346226D01*
X165464492Y-95293001D01*
X165191670Y-95293001D01*
X164924092Y-95346226D01*
X164672038Y-95450630D01*
X164445195Y-95602202D01*
X164252282Y-95795115D01*
X164100710Y-96021958D01*
X163996306Y-96274012D01*
X163943081Y-96541590D01*
X158369000Y-96541590D01*
X158369000Y-87584375D01*
X159271587Y-87584375D01*
X159356629Y-87619601D01*
X159556588Y-87659375D01*
X159760466Y-87659375D01*
X159960425Y-87619601D01*
X160045467Y-87584375D01*
X161421256Y-87584375D01*
X161518065Y-87702337D01*
X161652640Y-87812780D01*
X161806176Y-87894847D01*
X161972772Y-87945383D01*
X162146026Y-87962447D01*
X162796028Y-87962447D01*
X162969282Y-87945383D01*
X163135878Y-87894847D01*
X163289414Y-87812780D01*
X163423989Y-87702337D01*
X163429369Y-87695781D01*
X163494842Y-87775560D01*
X163591533Y-87854912D01*
X163701847Y-87913877D01*
X163821545Y-87950187D01*
X163946027Y-87962447D01*
X164235277Y-87959375D01*
X164394027Y-87800625D01*
X164394027Y-86751375D01*
X164648027Y-86751375D01*
X164648027Y-87800625D01*
X164806777Y-87959375D01*
X165096027Y-87962447D01*
X165220509Y-87950187D01*
X165340207Y-87913877D01*
X165450521Y-87854912D01*
X165547212Y-87775560D01*
X165626564Y-87678869D01*
X165685529Y-87568555D01*
X165721839Y-87448857D01*
X165734099Y-87324375D01*
X165731027Y-86910125D01*
X165572277Y-86751375D01*
X164648027Y-86751375D01*
X164394027Y-86751375D01*
X164374027Y-86751375D01*
X164374027Y-86497375D01*
X164394027Y-86497375D01*
X164394027Y-85448125D01*
X164648027Y-85448125D01*
X164648027Y-86497375D01*
X165572277Y-86497375D01*
X165731027Y-86338625D01*
X165734099Y-85924375D01*
X165721839Y-85799893D01*
X165685529Y-85680195D01*
X165626564Y-85569881D01*
X165547212Y-85473190D01*
X165450521Y-85393838D01*
X165340207Y-85334873D01*
X165220509Y-85298563D01*
X165096027Y-85286303D01*
X164806777Y-85289375D01*
X164648027Y-85448125D01*
X164394027Y-85448125D01*
X164235277Y-85289375D01*
X163946027Y-85286303D01*
X163821545Y-85298563D01*
X163701847Y-85334873D01*
X163591533Y-85393838D01*
X163494842Y-85473190D01*
X163429369Y-85552969D01*
X163423989Y-85546413D01*
X163338310Y-85476098D01*
X163273100Y-85354099D01*
X163153134Y-85207920D01*
X163129751Y-85188730D01*
X163096205Y-85107744D01*
X162982937Y-84938226D01*
X162838774Y-84794063D01*
X162669256Y-84680795D01*
X162480898Y-84602774D01*
X162280939Y-84563000D01*
X162077061Y-84563000D01*
X161877102Y-84602774D01*
X161688744Y-84680795D01*
X161519226Y-84794063D01*
X161375063Y-84938226D01*
X161261795Y-85107744D01*
X161183774Y-85296102D01*
X161144000Y-85496061D01*
X161144000Y-85664375D01*
X160045467Y-85664375D01*
X159960425Y-85629149D01*
X159760466Y-85589375D01*
X159556588Y-85589375D01*
X159356629Y-85629149D01*
X159271587Y-85664375D01*
X157315798Y-85664375D01*
X157218989Y-85546413D01*
X157084414Y-85435970D01*
X156930878Y-85353903D01*
X156764282Y-85303367D01*
X156591028Y-85286303D01*
X156285600Y-85286303D01*
X154513672Y-83514375D01*
X159352955Y-83514375D01*
X159365215Y-83638857D01*
X159401525Y-83758555D01*
X159460490Y-83868869D01*
X159539842Y-83965560D01*
X159636533Y-84044912D01*
X159746847Y-84103877D01*
X159866545Y-84140187D01*
X159991027Y-84152447D01*
X160280277Y-84149375D01*
X160439027Y-83990625D01*
X160439027Y-82941375D01*
X159514777Y-82941375D01*
X159356027Y-83100125D01*
X159352955Y-83514375D01*
X154513672Y-83514375D01*
X154509899Y-83510603D01*
X154532035Y-83437630D01*
X154549099Y-83264376D01*
X154549099Y-82364374D01*
X154536849Y-82240000D01*
X155188060Y-82240000D01*
X155273102Y-82275226D01*
X155473061Y-82315000D01*
X155676939Y-82315000D01*
X155876898Y-82275226D01*
X155961940Y-82240000D01*
X157728060Y-82240000D01*
X157813102Y-82275226D01*
X158013061Y-82315000D01*
X158216939Y-82315000D01*
X158416898Y-82275226D01*
X158605256Y-82197205D01*
X158729220Y-82114375D01*
X159352955Y-82114375D01*
X159356027Y-82528625D01*
X159514777Y-82687375D01*
X160439027Y-82687375D01*
X160439027Y-81638125D01*
X160693027Y-81638125D01*
X160693027Y-82687375D01*
X160713027Y-82687375D01*
X160713027Y-82941375D01*
X160693027Y-82941375D01*
X160693027Y-83990625D01*
X160851777Y-84149375D01*
X161141027Y-84152447D01*
X161265509Y-84140187D01*
X161385207Y-84103877D01*
X161495521Y-84044912D01*
X161592212Y-83965560D01*
X161657685Y-83885781D01*
X161663065Y-83892337D01*
X161797640Y-84002780D01*
X161951176Y-84084847D01*
X162117772Y-84135383D01*
X162291026Y-84152447D01*
X162941028Y-84152447D01*
X163057251Y-84141000D01*
X164269928Y-84141000D01*
X164282188Y-84265482D01*
X164318498Y-84385180D01*
X164377463Y-84495494D01*
X164456815Y-84592185D01*
X164553506Y-84671537D01*
X164663820Y-84730502D01*
X164783518Y-84766812D01*
X164908000Y-84779072D01*
X165322250Y-84776000D01*
X165481000Y-84617250D01*
X165481000Y-83693000D01*
X165735000Y-83693000D01*
X165735000Y-84617250D01*
X165893750Y-84776000D01*
X166308000Y-84779072D01*
X166432482Y-84766812D01*
X166552180Y-84730502D01*
X166662494Y-84671537D01*
X166759185Y-84592185D01*
X166838537Y-84495494D01*
X166897502Y-84385180D01*
X166933812Y-84265482D01*
X166946072Y-84141000D01*
X166943000Y-83851750D01*
X166784250Y-83693000D01*
X165735000Y-83693000D01*
X165481000Y-83693000D01*
X164431750Y-83693000D01*
X164273000Y-83851750D01*
X164269928Y-84141000D01*
X163057251Y-84141000D01*
X163114282Y-84135383D01*
X163280878Y-84084847D01*
X163434414Y-84002780D01*
X163568989Y-83892337D01*
X163679432Y-83757762D01*
X163761499Y-83604226D01*
X163812035Y-83437630D01*
X163829099Y-83264376D01*
X163829099Y-82436836D01*
X163855061Y-82442000D01*
X164058939Y-82442000D01*
X164258898Y-82402226D01*
X164420376Y-82335339D01*
X164530038Y-82468962D01*
X164536594Y-82474342D01*
X164456815Y-82539815D01*
X164377463Y-82636506D01*
X164318498Y-82746820D01*
X164282188Y-82866518D01*
X164269928Y-82991000D01*
X164273000Y-83280250D01*
X164431750Y-83439000D01*
X165481000Y-83439000D01*
X165481000Y-83419000D01*
X165735000Y-83419000D01*
X165735000Y-83439000D01*
X166784250Y-83439000D01*
X166943000Y-83280250D01*
X166946072Y-82991000D01*
X166933812Y-82866518D01*
X166897502Y-82746820D01*
X166838537Y-82636506D01*
X166759185Y-82539815D01*
X166679406Y-82474342D01*
X166685962Y-82468962D01*
X166796405Y-82334387D01*
X166863960Y-82208000D01*
X182661928Y-82208000D01*
X182665000Y-82772250D01*
X182823750Y-82931000D01*
X184023000Y-82931000D01*
X184023000Y-81731750D01*
X183864250Y-81573000D01*
X183300000Y-81569928D01*
X183175518Y-81582188D01*
X183055820Y-81618498D01*
X182945506Y-81677463D01*
X182848815Y-81756815D01*
X182769463Y-81853506D01*
X182710498Y-81963820D01*
X182674188Y-82083518D01*
X182661928Y-82208000D01*
X166863960Y-82208000D01*
X166878472Y-82180851D01*
X166929008Y-82014255D01*
X166946072Y-81841001D01*
X166946072Y-81190999D01*
X166929008Y-81017745D01*
X166878472Y-80851149D01*
X166796405Y-80697613D01*
X166685962Y-80563038D01*
X166551387Y-80452595D01*
X166397851Y-80370528D01*
X166231255Y-80319992D01*
X166058001Y-80302928D01*
X165157999Y-80302928D01*
X164984745Y-80319992D01*
X164818149Y-80370528D01*
X164664613Y-80452595D01*
X164542081Y-80553155D01*
X164447256Y-80489795D01*
X164258898Y-80411774D01*
X164058939Y-80372000D01*
X163855061Y-80372000D01*
X163655102Y-80411774D01*
X163466744Y-80489795D01*
X163326928Y-80583217D01*
X163219774Y-80476063D01*
X163050256Y-80362795D01*
X162861898Y-80284774D01*
X162661939Y-80245000D01*
X162458061Y-80245000D01*
X162258102Y-80284774D01*
X162069744Y-80362795D01*
X161900226Y-80476063D01*
X161756063Y-80620226D01*
X161642795Y-80789744D01*
X161564774Y-80978102D01*
X161525000Y-81178061D01*
X161525000Y-81381939D01*
X161564774Y-81581898D01*
X161600000Y-81666941D01*
X161600000Y-81672680D01*
X161592212Y-81663190D01*
X161495521Y-81583838D01*
X161385207Y-81524873D01*
X161265509Y-81488563D01*
X161141027Y-81476303D01*
X160851777Y-81479375D01*
X160693027Y-81638125D01*
X160439027Y-81638125D01*
X160280277Y-81479375D01*
X159991027Y-81476303D01*
X159866545Y-81488563D01*
X159746847Y-81524873D01*
X159636533Y-81583838D01*
X159539842Y-81663190D01*
X159460490Y-81759881D01*
X159401525Y-81870195D01*
X159365215Y-81989893D01*
X159352955Y-82114375D01*
X158729220Y-82114375D01*
X158774774Y-82083937D01*
X158918937Y-81939774D01*
X159032205Y-81770256D01*
X159110226Y-81581898D01*
X159150000Y-81381939D01*
X159150000Y-81178061D01*
X159110226Y-80978102D01*
X159032205Y-80789744D01*
X158918937Y-80620226D01*
X158774774Y-80476063D01*
X158605256Y-80362795D01*
X158416898Y-80284774D01*
X158216939Y-80245000D01*
X158013061Y-80245000D01*
X157813102Y-80284774D01*
X157728060Y-80320000D01*
X155961940Y-80320000D01*
X155876898Y-80284774D01*
X155676939Y-80245000D01*
X155473061Y-80245000D01*
X155273102Y-80284774D01*
X155188060Y-80320000D01*
X153151943Y-80320000D01*
X153066901Y-80284774D01*
X152866942Y-80245000D01*
X152663064Y-80245000D01*
X152463105Y-80284774D01*
X152274747Y-80362795D01*
X152105229Y-80476063D01*
X151961066Y-80620226D01*
X151847798Y-80789744D01*
X151769777Y-80978102D01*
X151730003Y-81178061D01*
X151730003Y-81381939D01*
X151749010Y-81477493D01*
X151571777Y-81479375D01*
X151413027Y-81638125D01*
X151413027Y-82687375D01*
X151433027Y-82687375D01*
X151433027Y-82941375D01*
X151413027Y-82941375D01*
X151413027Y-83990625D01*
X151571777Y-84149375D01*
X151861027Y-84152447D01*
X151985509Y-84140187D01*
X152105207Y-84103877D01*
X152215521Y-84044912D01*
X152312212Y-83965560D01*
X152377685Y-83885781D01*
X152383065Y-83892337D01*
X152396135Y-83903063D01*
X152397176Y-83906495D01*
X152444811Y-84063528D01*
X152533954Y-84230303D01*
X152623856Y-84339848D01*
X152653921Y-84376482D01*
X152690553Y-84406545D01*
X153576651Y-85292643D01*
X153516545Y-85298563D01*
X153396847Y-85334873D01*
X153286533Y-85393838D01*
X153189842Y-85473190D01*
X153110490Y-85569881D01*
X153051525Y-85680195D01*
X153015215Y-85799893D01*
X153002955Y-85924375D01*
X153006027Y-86338625D01*
X153164777Y-86497375D01*
X154089027Y-86497375D01*
X154089027Y-86477375D01*
X154343027Y-86477375D01*
X154343027Y-86497375D01*
X154363027Y-86497375D01*
X154363027Y-86751375D01*
X154343027Y-86751375D01*
X154343027Y-86771375D01*
X154089027Y-86771375D01*
X154089027Y-86751375D01*
X153164777Y-86751375D01*
X153006027Y-86910125D01*
X153003852Y-87203400D01*
X152151940Y-87203400D01*
X152066898Y-87168174D01*
X151866939Y-87128400D01*
X151663061Y-87128400D01*
X151463102Y-87168174D01*
X151378060Y-87203400D01*
X146412693Y-87203400D01*
X144544555Y-85335263D01*
X144772381Y-85199554D01*
X144988614Y-85004645D01*
X145162667Y-84771296D01*
X145287851Y-84508475D01*
X145332502Y-84361266D01*
X145211181Y-84131376D01*
X144018026Y-84131376D01*
X144018026Y-84151376D01*
X143764026Y-84151376D01*
X143764026Y-84131376D01*
X143744026Y-84131376D01*
X143744026Y-83877376D01*
X143764026Y-83877376D01*
X143764026Y-83857376D01*
X144018026Y-83857376D01*
X144018026Y-83877376D01*
X145211181Y-83877376D01*
X145332502Y-83647486D01*
X145292128Y-83514375D01*
X150072955Y-83514375D01*
X150085215Y-83638857D01*
X150121525Y-83758555D01*
X150180490Y-83868869D01*
X150259842Y-83965560D01*
X150356533Y-84044912D01*
X150466847Y-84103877D01*
X150586545Y-84140187D01*
X150711027Y-84152447D01*
X151000277Y-84149375D01*
X151159027Y-83990625D01*
X151159027Y-82941375D01*
X150234777Y-82941375D01*
X150076027Y-83100125D01*
X150072955Y-83514375D01*
X145292128Y-83514375D01*
X145287851Y-83500277D01*
X145162667Y-83237456D01*
X144988614Y-83004107D01*
X144772381Y-82809198D01*
X144655503Y-82739577D01*
X144720040Y-82705082D01*
X144946160Y-82519510D01*
X145131732Y-82293390D01*
X145227417Y-82114375D01*
X150072955Y-82114375D01*
X150076027Y-82528625D01*
X150234777Y-82687375D01*
X151159027Y-82687375D01*
X151159027Y-81638125D01*
X151000277Y-81479375D01*
X150711027Y-81476303D01*
X150586545Y-81488563D01*
X150466847Y-81524873D01*
X150356533Y-81583838D01*
X150259842Y-81663190D01*
X150180490Y-81759881D01*
X150121525Y-81870195D01*
X150085215Y-81989893D01*
X150072955Y-82114375D01*
X145227417Y-82114375D01*
X145269625Y-82035410D01*
X145354539Y-81755487D01*
X145383211Y-81464376D01*
X145354539Y-81173265D01*
X145319974Y-81059318D01*
X147753422Y-78625870D01*
X168393980Y-78625870D01*
X168431604Y-78749914D01*
X168548031Y-78997794D01*
X168710580Y-79218197D01*
X168913004Y-79402653D01*
X169147525Y-79544074D01*
X169405129Y-79637025D01*
X169621200Y-79515270D01*
X169621200Y-78409800D01*
X169875200Y-78409800D01*
X169875200Y-79515270D01*
X170091271Y-79637025D01*
X170348875Y-79544074D01*
X170583396Y-79402653D01*
X170785820Y-79218197D01*
X170948369Y-78997794D01*
X171064796Y-78749914D01*
X171102420Y-78625870D01*
X170979920Y-78409800D01*
X169875200Y-78409800D01*
X169621200Y-78409800D01*
X168516480Y-78409800D01*
X168393980Y-78625870D01*
X147753422Y-78625870D01*
X150636492Y-75742800D01*
X168344441Y-75742800D01*
X168371414Y-76016660D01*
X168451296Y-76279995D01*
X168581017Y-76522687D01*
X168755592Y-76735408D01*
X168968313Y-76909983D01*
X169165119Y-77015178D01*
X169147525Y-77021526D01*
X168913004Y-77162947D01*
X168710580Y-77347403D01*
X168548031Y-77567806D01*
X168431604Y-77815686D01*
X168393980Y-77939730D01*
X168516480Y-78155800D01*
X169621200Y-78155800D01*
X169621200Y-78135800D01*
X169875200Y-78135800D01*
X169875200Y-78155800D01*
X170979920Y-78155800D01*
X171102420Y-77939730D01*
X171064796Y-77815686D01*
X170948369Y-77567806D01*
X170785820Y-77347403D01*
X170583396Y-77162947D01*
X170348875Y-77021526D01*
X170331281Y-77015178D01*
X170528087Y-76909983D01*
X170740808Y-76735408D01*
X170915383Y-76522687D01*
X171045104Y-76279995D01*
X171124986Y-76016660D01*
X171151959Y-75742800D01*
X171124986Y-75468940D01*
X171045104Y-75205605D01*
X170915383Y-74962913D01*
X170740808Y-74750192D01*
X170555822Y-74598379D01*
X170634682Y-74590612D01*
X170754380Y-74554302D01*
X170864694Y-74495337D01*
X170961385Y-74415985D01*
X171040737Y-74319294D01*
X171099702Y-74208980D01*
X171136012Y-74089282D01*
X171148272Y-73964800D01*
X171148272Y-72440800D01*
X171136012Y-72316318D01*
X171099702Y-72196620D01*
X171040737Y-72086306D01*
X170961385Y-71989615D01*
X170864694Y-71910263D01*
X170754380Y-71851298D01*
X170634682Y-71814988D01*
X170510200Y-71802728D01*
X168986200Y-71802728D01*
X168861718Y-71814988D01*
X168742020Y-71851298D01*
X168631706Y-71910263D01*
X168535015Y-71989615D01*
X168455663Y-72086306D01*
X168396698Y-72196620D01*
X168360388Y-72316318D01*
X168348128Y-72440800D01*
X168348128Y-73964800D01*
X168360388Y-74089282D01*
X168396698Y-74208980D01*
X168455663Y-74319294D01*
X168535015Y-74415985D01*
X168631706Y-74495337D01*
X168742020Y-74554302D01*
X168861718Y-74590612D01*
X168940578Y-74598379D01*
X168755592Y-74750192D01*
X168581017Y-74962913D01*
X168451296Y-75205605D01*
X168371414Y-75468940D01*
X168344441Y-75742800D01*
X150636492Y-75742800D01*
X153775827Y-72603466D01*
X153803449Y-72580797D01*
X153826118Y-72553175D01*
X153826121Y-72553172D01*
X153849342Y-72524877D01*
X153893924Y-72470554D01*
X153961152Y-72344778D01*
X154002551Y-72208304D01*
X154013027Y-72101941D01*
X154013027Y-72101934D01*
X154016529Y-72066376D01*
X154013027Y-72030818D01*
X154013027Y-70161376D01*
X154119651Y-70161376D01*
X154324886Y-70141162D01*
X154588221Y-70061280D01*
X154830913Y-69931559D01*
X155043634Y-69756984D01*
X155218209Y-69544263D01*
X155321026Y-69351905D01*
X155423843Y-69544263D01*
X155598418Y-69756984D01*
X155811139Y-69931559D01*
X156053831Y-70061280D01*
X156317166Y-70141162D01*
X156522401Y-70161376D01*
X156659651Y-70161376D01*
X156864886Y-70141162D01*
X157128221Y-70061280D01*
X157370913Y-69931559D01*
X157583634Y-69756984D01*
X157758209Y-69544263D01*
X157861026Y-69351905D01*
X157963843Y-69544263D01*
X158138418Y-69756984D01*
X158351139Y-69931559D01*
X158593831Y-70061280D01*
X158857166Y-70141162D01*
X159062401Y-70161376D01*
X159199651Y-70161376D01*
X159404886Y-70141162D01*
X159668221Y-70061280D01*
X159910913Y-69931559D01*
X160123634Y-69756984D01*
X160298209Y-69544263D01*
X160401026Y-69351905D01*
X160503843Y-69544263D01*
X160678418Y-69756984D01*
X160891139Y-69931559D01*
X161133831Y-70061280D01*
X161397166Y-70141162D01*
X161602401Y-70161376D01*
X161739651Y-70161376D01*
X161944886Y-70141162D01*
X162208221Y-70061280D01*
X162450913Y-69931559D01*
X162663634Y-69756984D01*
X162838209Y-69544263D01*
X162941026Y-69351905D01*
X163043843Y-69544263D01*
X163218418Y-69756984D01*
X163431139Y-69931559D01*
X163673831Y-70061280D01*
X163937166Y-70141162D01*
X164142401Y-70161376D01*
X164279651Y-70161376D01*
X164484886Y-70141162D01*
X164748221Y-70061280D01*
X164990913Y-69931559D01*
X165203634Y-69756984D01*
X165378209Y-69544263D01*
X165481026Y-69351905D01*
X165583843Y-69544263D01*
X165758418Y-69756984D01*
X165971139Y-69931559D01*
X166213831Y-70061280D01*
X166477166Y-70141162D01*
X166682401Y-70161376D01*
X166819651Y-70161376D01*
X167024886Y-70141162D01*
X167288221Y-70061280D01*
X167530913Y-69931559D01*
X167743634Y-69756984D01*
X167918209Y-69544263D01*
X168021026Y-69351905D01*
X168123843Y-69544263D01*
X168298418Y-69756984D01*
X168511139Y-69931559D01*
X168753831Y-70061280D01*
X169017166Y-70141162D01*
X169222401Y-70161376D01*
X169359651Y-70161376D01*
X169564886Y-70141162D01*
X169828221Y-70061280D01*
X170070913Y-69931559D01*
X170283634Y-69756984D01*
X170458209Y-69544263D01*
X170561026Y-69351905D01*
X170663843Y-69544263D01*
X170838418Y-69756984D01*
X171051139Y-69931559D01*
X171293831Y-70061280D01*
X171557166Y-70141162D01*
X171762401Y-70161376D01*
X171899651Y-70161376D01*
X172104886Y-70141162D01*
X172368221Y-70061280D01*
X172610913Y-69931559D01*
X172823634Y-69756984D01*
X172998209Y-69544263D01*
X173127930Y-69301571D01*
X173207812Y-69038236D01*
X173234785Y-68764376D01*
X173207812Y-68490516D01*
X173127930Y-68227181D01*
X172998209Y-67984489D01*
X172823634Y-67771768D01*
X172610913Y-67597193D01*
X172368221Y-67467472D01*
X172104886Y-67387590D01*
X171899651Y-67367376D01*
X171762401Y-67367376D01*
X171557166Y-67387590D01*
X171293831Y-67467472D01*
X171051139Y-67597193D01*
X170838418Y-67771768D01*
X170663843Y-67984489D01*
X170561026Y-68176847D01*
X170458209Y-67984489D01*
X170283634Y-67771768D01*
X170070913Y-67597193D01*
X169828221Y-67467472D01*
X169564886Y-67387590D01*
X169359651Y-67367376D01*
X169222401Y-67367376D01*
X169017166Y-67387590D01*
X168753831Y-67467472D01*
X168511139Y-67597193D01*
X168298418Y-67771768D01*
X168123843Y-67984489D01*
X168021026Y-68176847D01*
X167918209Y-67984489D01*
X167743634Y-67771768D01*
X167530913Y-67597193D01*
X167288221Y-67467472D01*
X167024886Y-67387590D01*
X166819651Y-67367376D01*
X166682401Y-67367376D01*
X166477166Y-67387590D01*
X166213831Y-67467472D01*
X165971139Y-67597193D01*
X165758418Y-67771768D01*
X165583843Y-67984489D01*
X165481026Y-68176847D01*
X165378209Y-67984489D01*
X165203634Y-67771768D01*
X164990913Y-67597193D01*
X164748221Y-67467472D01*
X164484886Y-67387590D01*
X164279651Y-67367376D01*
X164142401Y-67367376D01*
X163937166Y-67387590D01*
X163673831Y-67467472D01*
X163431139Y-67597193D01*
X163218418Y-67771768D01*
X163043843Y-67984489D01*
X162941026Y-68176847D01*
X162838209Y-67984489D01*
X162663634Y-67771768D01*
X162450913Y-67597193D01*
X162208221Y-67467472D01*
X161944886Y-67387590D01*
X161739651Y-67367376D01*
X161602401Y-67367376D01*
X161397166Y-67387590D01*
X161133831Y-67467472D01*
X160891139Y-67597193D01*
X160678418Y-67771768D01*
X160503843Y-67984489D01*
X160401026Y-68176847D01*
X160298209Y-67984489D01*
X160123634Y-67771768D01*
X159910913Y-67597193D01*
X159668221Y-67467472D01*
X159404886Y-67387590D01*
X159199651Y-67367376D01*
X159062401Y-67367376D01*
X158857166Y-67387590D01*
X158593831Y-67467472D01*
X158351139Y-67597193D01*
X158138418Y-67771768D01*
X157963843Y-67984489D01*
X157861026Y-68176847D01*
X157758209Y-67984489D01*
X157583634Y-67771768D01*
X157370913Y-67597193D01*
X157128221Y-67467472D01*
X156864886Y-67387590D01*
X156659651Y-67367376D01*
X156522401Y-67367376D01*
X156317166Y-67387590D01*
X156053831Y-67467472D01*
X155811139Y-67597193D01*
X155598418Y-67771768D01*
X155423843Y-67984489D01*
X155321026Y-68176847D01*
X155218209Y-67984489D01*
X155043634Y-67771768D01*
X154830913Y-67597193D01*
X154588221Y-67467472D01*
X154324886Y-67387590D01*
X154119651Y-67367376D01*
X153982401Y-67367376D01*
X153777166Y-67387590D01*
X153513831Y-67467472D01*
X153271139Y-67597193D01*
X153058418Y-67771768D01*
X152883843Y-67984489D01*
X152781026Y-68176847D01*
X152678209Y-67984489D01*
X152503634Y-67771768D01*
X152290913Y-67597193D01*
X152048221Y-67467472D01*
X151784886Y-67387590D01*
X151579651Y-67367376D01*
X151442401Y-67367376D01*
X151237166Y-67387590D01*
X150973831Y-67467472D01*
X150731139Y-67597193D01*
X150518418Y-67771768D01*
X150343843Y-67984489D01*
X150241026Y-68176847D01*
X150138209Y-67984489D01*
X149963634Y-67771768D01*
X149750913Y-67597193D01*
X149508221Y-67467472D01*
X149244886Y-67387590D01*
X149039651Y-67367376D01*
X148902401Y-67367376D01*
X148697166Y-67387590D01*
X148433831Y-67467472D01*
X148191139Y-67597193D01*
X147978418Y-67771768D01*
X147803843Y-67984489D01*
X147701026Y-68176847D01*
X147598209Y-67984489D01*
X147423634Y-67771768D01*
X147210913Y-67597193D01*
X146968221Y-67467472D01*
X146704886Y-67387590D01*
X146499651Y-67367376D01*
X146362401Y-67367376D01*
X146157166Y-67387590D01*
X145893831Y-67467472D01*
X145651139Y-67597193D01*
X145438418Y-67771768D01*
X145286605Y-67956754D01*
X145278838Y-67877894D01*
X145242528Y-67758196D01*
X145183563Y-67647882D01*
X145161810Y-67621376D01*
X145229625Y-67621376D01*
X145434860Y-67601162D01*
X145698195Y-67521280D01*
X145940887Y-67391559D01*
X146153608Y-67216984D01*
X146328183Y-67004263D01*
X146431000Y-66811905D01*
X146533817Y-67004263D01*
X146708392Y-67216984D01*
X146921113Y-67391559D01*
X147163805Y-67521280D01*
X147427140Y-67601162D01*
X147632375Y-67621376D01*
X147769625Y-67621376D01*
X147974860Y-67601162D01*
X148238195Y-67521280D01*
X148480887Y-67391559D01*
X148693608Y-67216984D01*
X148868183Y-67004263D01*
X148971000Y-66811905D01*
X149073817Y-67004263D01*
X149248392Y-67216984D01*
X149461113Y-67391559D01*
X149703805Y-67521280D01*
X149967140Y-67601162D01*
X150172375Y-67621376D01*
X150309625Y-67621376D01*
X150514860Y-67601162D01*
X150778195Y-67521280D01*
X151020887Y-67391559D01*
X151233608Y-67216984D01*
X151408183Y-67004263D01*
X151511000Y-66811905D01*
X151613817Y-67004263D01*
X151788392Y-67216984D01*
X152001113Y-67391559D01*
X152243805Y-67521280D01*
X152507140Y-67601162D01*
X152712375Y-67621376D01*
X152849625Y-67621376D01*
X153054860Y-67601162D01*
X153318195Y-67521280D01*
X153560887Y-67391559D01*
X153773608Y-67216984D01*
X153948183Y-67004263D01*
X154051000Y-66811905D01*
X154153817Y-67004263D01*
X154328392Y-67216984D01*
X154541113Y-67391559D01*
X154783805Y-67521280D01*
X155047140Y-67601162D01*
X155252375Y-67621376D01*
X155389625Y-67621376D01*
X155594860Y-67601162D01*
X155858195Y-67521280D01*
X156100887Y-67391559D01*
X156313608Y-67216984D01*
X156488183Y-67004263D01*
X156591000Y-66811905D01*
X156693817Y-67004263D01*
X156868392Y-67216984D01*
X157081113Y-67391559D01*
X157323805Y-67521280D01*
X157587140Y-67601162D01*
X157792375Y-67621376D01*
X157929625Y-67621376D01*
X158134860Y-67601162D01*
X158398195Y-67521280D01*
X158640887Y-67391559D01*
X158853608Y-67216984D01*
X159028183Y-67004263D01*
X159131000Y-66811905D01*
X159233817Y-67004263D01*
X159408392Y-67216984D01*
X159621113Y-67391559D01*
X159863805Y-67521280D01*
X160127140Y-67601162D01*
X160332375Y-67621376D01*
X160469625Y-67621376D01*
X160674860Y-67601162D01*
X160938195Y-67521280D01*
X161180887Y-67391559D01*
X161393608Y-67216984D01*
X161568183Y-67004263D01*
X161671000Y-66811905D01*
X161773817Y-67004263D01*
X161948392Y-67216984D01*
X162161113Y-67391559D01*
X162403805Y-67521280D01*
X162667140Y-67601162D01*
X162872375Y-67621376D01*
X163009625Y-67621376D01*
X163214860Y-67601162D01*
X163478195Y-67521280D01*
X163720887Y-67391559D01*
X163933608Y-67216984D01*
X164108183Y-67004263D01*
X164211000Y-66811905D01*
X164313817Y-67004263D01*
X164488392Y-67216984D01*
X164701113Y-67391559D01*
X164943805Y-67521280D01*
X165207140Y-67601162D01*
X165412375Y-67621376D01*
X165549625Y-67621376D01*
X165754860Y-67601162D01*
X166018195Y-67521280D01*
X166260887Y-67391559D01*
X166473608Y-67216984D01*
X166648183Y-67004263D01*
X166751000Y-66811905D01*
X166853817Y-67004263D01*
X167028392Y-67216984D01*
X167241113Y-67391559D01*
X167483805Y-67521280D01*
X167747140Y-67601162D01*
X167952375Y-67621376D01*
X168089625Y-67621376D01*
X168294860Y-67601162D01*
X168558195Y-67521280D01*
X168800887Y-67391559D01*
X169013608Y-67216984D01*
X169188183Y-67004263D01*
X169293378Y-66807457D01*
X169299726Y-66825051D01*
X169441147Y-67059572D01*
X169625603Y-67261996D01*
X169846006Y-67424545D01*
X170093886Y-67540972D01*
X170217930Y-67578596D01*
X170434000Y-67456096D01*
X170434000Y-66351376D01*
X170688000Y-66351376D01*
X170688000Y-67456096D01*
X170904070Y-67578596D01*
X171028114Y-67540972D01*
X171275994Y-67424545D01*
X171496397Y-67261996D01*
X171680853Y-67059572D01*
X171822274Y-66825051D01*
X171915225Y-66567447D01*
X171793470Y-66351376D01*
X170688000Y-66351376D01*
X170434000Y-66351376D01*
X170414000Y-66351376D01*
X170414000Y-66097376D01*
X170434000Y-66097376D01*
X170434000Y-64992656D01*
X170688000Y-64992656D01*
X170688000Y-66097376D01*
X171793470Y-66097376D01*
X171915225Y-65881305D01*
X171822274Y-65623701D01*
X171680853Y-65389180D01*
X171496397Y-65186756D01*
X171275994Y-65024207D01*
X171028114Y-64907780D01*
X170904070Y-64870156D01*
X170688000Y-64992656D01*
X170434000Y-64992656D01*
X170217930Y-64870156D01*
X170093886Y-64907780D01*
X169846006Y-65024207D01*
X169625603Y-65186756D01*
X169441147Y-65389180D01*
X169299726Y-65623701D01*
X169293378Y-65641295D01*
X169188183Y-65444489D01*
X169013608Y-65231768D01*
X169004420Y-65224228D01*
X169065205Y-65133256D01*
X169092014Y-65068534D01*
X169222401Y-65081376D01*
X169359651Y-65081376D01*
X169564886Y-65061162D01*
X169828221Y-64981280D01*
X170070913Y-64851559D01*
X170283634Y-64676984D01*
X170458209Y-64464263D01*
X170563404Y-64267457D01*
X170569752Y-64285051D01*
X170711173Y-64519572D01*
X170895629Y-64721996D01*
X171116032Y-64884545D01*
X171363912Y-65000972D01*
X171487956Y-65038596D01*
X171704026Y-64916096D01*
X171704026Y-63811376D01*
X171958026Y-63811376D01*
X171958026Y-64916096D01*
X172174096Y-65038596D01*
X172298140Y-65000972D01*
X172546020Y-64884545D01*
X172766423Y-64721996D01*
X172950879Y-64519572D01*
X173092300Y-64285051D01*
X173185251Y-64027447D01*
X173063496Y-63811376D01*
X171958026Y-63811376D01*
X171704026Y-63811376D01*
X171684026Y-63811376D01*
X171684026Y-63557376D01*
X171704026Y-63557376D01*
X171704026Y-62452656D01*
X171958026Y-62452656D01*
X171958026Y-63557376D01*
X173063496Y-63557376D01*
X173185251Y-63341305D01*
X173092300Y-63083701D01*
X172950879Y-62849180D01*
X172766423Y-62646756D01*
X172546020Y-62484207D01*
X172298140Y-62367780D01*
X172174096Y-62330156D01*
X171958026Y-62452656D01*
X171704026Y-62452656D01*
X171487956Y-62330156D01*
X171363912Y-62367780D01*
X171116032Y-62484207D01*
X170895629Y-62646756D01*
X170711173Y-62849180D01*
X170569752Y-63083701D01*
X170563404Y-63101295D01*
X170458209Y-62904489D01*
X170283634Y-62691768D01*
X170070913Y-62517193D01*
X169828221Y-62387472D01*
X169564886Y-62307590D01*
X169359651Y-62287376D01*
X169222401Y-62287376D01*
X169017166Y-62307590D01*
X168753831Y-62387472D01*
X168511139Y-62517193D01*
X168298418Y-62691768D01*
X168123843Y-62904489D01*
X168021026Y-63096847D01*
X167918209Y-62904489D01*
X167743634Y-62691768D01*
X167530913Y-62517193D01*
X167288221Y-62387472D01*
X167024886Y-62307590D01*
X166819651Y-62287376D01*
X166682401Y-62287376D01*
X166477166Y-62307590D01*
X166213831Y-62387472D01*
X165971139Y-62517193D01*
X165758418Y-62691768D01*
X165583843Y-62904489D01*
X165481026Y-63096847D01*
X165378209Y-62904489D01*
X165203634Y-62691768D01*
X164990913Y-62517193D01*
X164748221Y-62387472D01*
X164484886Y-62307590D01*
X164279651Y-62287376D01*
X164142401Y-62287376D01*
X163937166Y-62307590D01*
X163673831Y-62387472D01*
X163431139Y-62517193D01*
X163218418Y-62691768D01*
X163043843Y-62904489D01*
X162941026Y-63096847D01*
X162838209Y-62904489D01*
X162663634Y-62691768D01*
X162450913Y-62517193D01*
X162208221Y-62387472D01*
X161944886Y-62307590D01*
X161739651Y-62287376D01*
X161602401Y-62287376D01*
X161397166Y-62307590D01*
X161133831Y-62387472D01*
X160891139Y-62517193D01*
X160678418Y-62691768D01*
X160503843Y-62904489D01*
X160401026Y-63096847D01*
X160298209Y-62904489D01*
X160123634Y-62691768D01*
X159910913Y-62517193D01*
X159668221Y-62387472D01*
X159404886Y-62307590D01*
X159199651Y-62287376D01*
X159062401Y-62287376D01*
X158857166Y-62307590D01*
X158593831Y-62387472D01*
X158351139Y-62517193D01*
X158138418Y-62691768D01*
X157963843Y-62904489D01*
X157861026Y-63096847D01*
X157758209Y-62904489D01*
X157583634Y-62691768D01*
X157370913Y-62517193D01*
X157128221Y-62387472D01*
X156864886Y-62307590D01*
X156659651Y-62287376D01*
X156522401Y-62287376D01*
X156317166Y-62307590D01*
X156053831Y-62387472D01*
X155811139Y-62517193D01*
X155598418Y-62691768D01*
X155423843Y-62904489D01*
X155321026Y-63096847D01*
X155218209Y-62904489D01*
X155043634Y-62691768D01*
X154830913Y-62517193D01*
X154588221Y-62387472D01*
X154324886Y-62307590D01*
X154119651Y-62287376D01*
X153982401Y-62287376D01*
X153777166Y-62307590D01*
X153513831Y-62387472D01*
X153271139Y-62517193D01*
X153058418Y-62691768D01*
X152883843Y-62904489D01*
X152781026Y-63096847D01*
X152678209Y-62904489D01*
X152503634Y-62691768D01*
X152290913Y-62517193D01*
X152048221Y-62387472D01*
X151784886Y-62307590D01*
X151579651Y-62287376D01*
X151442401Y-62287376D01*
X151237166Y-62307590D01*
X150973831Y-62387472D01*
X150731139Y-62517193D01*
X150518418Y-62691768D01*
X150343843Y-62904489D01*
X150241026Y-63096847D01*
X150138209Y-62904489D01*
X149963634Y-62691768D01*
X149750913Y-62517193D01*
X149508221Y-62387472D01*
X149244886Y-62307590D01*
X149039651Y-62287376D01*
X148902401Y-62287376D01*
X148697166Y-62307590D01*
X148433831Y-62387472D01*
X148191139Y-62517193D01*
X147978418Y-62691768D01*
X147803843Y-62904489D01*
X147701026Y-63096847D01*
X147598209Y-62904489D01*
X147423634Y-62691768D01*
X147210913Y-62517193D01*
X146968221Y-62387472D01*
X146704886Y-62307590D01*
X146499651Y-62287376D01*
X146362401Y-62287376D01*
X146157166Y-62307590D01*
X145893831Y-62387472D01*
X145651139Y-62517193D01*
X145438418Y-62691768D01*
X145286605Y-62876754D01*
X145278838Y-62797894D01*
X145242528Y-62678196D01*
X145183563Y-62567882D01*
X145104211Y-62471191D01*
X145007520Y-62391839D01*
X144897206Y-62332874D01*
X144777508Y-62296564D01*
X144653026Y-62284304D01*
X143129026Y-62284304D01*
X143004544Y-62296564D01*
X142884846Y-62332874D01*
X142774532Y-62391839D01*
X142677841Y-62471191D01*
X142598489Y-62567882D01*
X142539524Y-62678196D01*
X142503214Y-62797894D01*
X142490954Y-62922376D01*
X142490954Y-64446376D01*
X142503214Y-64570858D01*
X142539524Y-64690556D01*
X142598489Y-64800870D01*
X142617721Y-64824304D01*
X141859000Y-64824304D01*
X141734518Y-64836564D01*
X141705000Y-64845518D01*
X141705000Y-61949000D01*
X173319053Y-61949000D01*
X173704907Y-61986833D01*
X173704907Y-61986833D01*
G37*
X173704907Y-61986833D02*
X174041489Y-62088453D01*
X174351921Y-62253512D01*
X174624379Y-62475723D01*
X174848490Y-62746627D01*
X175015712Y-63055896D01*
X175119680Y-63391760D01*
X175160000Y-63775382D01*
X175160001Y-78141105D01*
X175163197Y-78173558D01*
X175163087Y-78189347D01*
X175164088Y-78199560D01*
X175215905Y-78692567D01*
X175229313Y-78757888D01*
X175241784Y-78823259D01*
X175244749Y-78833084D01*
X175391339Y-79306636D01*
X175417157Y-79368055D01*
X175442109Y-79429813D01*
X175446926Y-79438874D01*
X175682704Y-79874934D01*
X175719944Y-79930145D01*
X175756431Y-79985903D01*
X175762917Y-79993856D01*
X176078901Y-80375816D01*
X176126173Y-80422758D01*
X176172780Y-80470353D01*
X176180687Y-80476894D01*
X176564844Y-80790204D01*
X176620349Y-80827082D01*
X176675296Y-80864705D01*
X176684324Y-80869587D01*
X177122019Y-81102313D01*
X177183651Y-81127716D01*
X177244840Y-81153942D01*
X177254639Y-81156976D01*
X177254645Y-81156978D01*
X177729207Y-81300256D01*
X177794567Y-81313198D01*
X177859715Y-81327045D01*
X177869921Y-81328118D01*
X178363277Y-81376492D01*
X178398895Y-81380000D01*
X193639053Y-81380000D01*
X194024907Y-81417833D01*
X194361489Y-81519453D01*
X194671921Y-81684512D01*
X194944379Y-81906723D01*
X195168490Y-82177627D01*
X195335712Y-82486896D01*
X195439680Y-82822760D01*
X195480000Y-83206382D01*
X195480000Y-86158527D01*
X195413000Y-86151928D01*
X192913000Y-86151928D01*
X192788518Y-86164188D01*
X192701072Y-86190714D01*
X192701072Y-84890000D01*
X192688812Y-84765518D01*
X192652502Y-84645820D01*
X192593537Y-84535506D01*
X192514185Y-84438815D01*
X192417494Y-84359463D01*
X192307180Y-84300498D01*
X192187482Y-84264188D01*
X192063000Y-84251928D01*
X191063000Y-84251928D01*
X190938518Y-84264188D01*
X190818820Y-84300498D01*
X190708506Y-84359463D01*
X190611815Y-84438815D01*
X190563000Y-84498296D01*
X190514185Y-84438815D01*
X190417494Y-84359463D01*
X190307180Y-84300498D01*
X190187482Y-84264188D01*
X190063000Y-84251928D01*
X189063000Y-84251928D01*
X188938518Y-84264188D01*
X188818820Y-84300498D01*
X188708506Y-84359463D01*
X188611815Y-84438815D01*
X188563000Y-84498296D01*
X188514185Y-84438815D01*
X188417494Y-84359463D01*
X188307180Y-84300498D01*
X188187482Y-84264188D01*
X188063000Y-84251928D01*
X187576013Y-84251928D01*
X187745134Y-84113134D01*
X187930706Y-83887014D01*
X188068599Y-83629034D01*
X188153513Y-83349111D01*
X188182185Y-83058000D01*
X188153513Y-82766889D01*
X188068599Y-82486966D01*
X187930706Y-82228986D01*
X187745134Y-82002866D01*
X187519014Y-81817294D01*
X187261034Y-81679401D01*
X186981111Y-81594487D01*
X186762950Y-81573000D01*
X186617050Y-81573000D01*
X186398889Y-81594487D01*
X186118966Y-81679401D01*
X185860986Y-81817294D01*
X185634866Y-82002866D01*
X185610393Y-82032687D01*
X185589502Y-81963820D01*
X185530537Y-81853506D01*
X185451185Y-81756815D01*
X185354494Y-81677463D01*
X185244180Y-81618498D01*
X185124482Y-81582188D01*
X185000000Y-81569928D01*
X184435750Y-81573000D01*
X184277000Y-81731750D01*
X184277000Y-82931000D01*
X184297000Y-82931000D01*
X184297000Y-83185000D01*
X184277000Y-83185000D01*
X184277000Y-83205000D01*
X184023000Y-83205000D01*
X184023000Y-83185000D01*
X182823750Y-83185000D01*
X182665000Y-83343750D01*
X182661928Y-83908000D01*
X182674188Y-84032482D01*
X182710498Y-84152180D01*
X182769463Y-84262494D01*
X182806192Y-84307248D01*
X182708506Y-84359463D01*
X182611815Y-84438815D01*
X182563000Y-84498296D01*
X182514185Y-84438815D01*
X182417494Y-84359463D01*
X182307180Y-84300498D01*
X182187482Y-84264188D01*
X182063000Y-84251928D01*
X181063000Y-84251928D01*
X180938518Y-84264188D01*
X180818820Y-84300498D01*
X180708506Y-84359463D01*
X180611815Y-84438815D01*
X180532463Y-84535506D01*
X180473498Y-84645820D01*
X180437188Y-84765518D01*
X180424928Y-84890000D01*
X180424928Y-86190714D01*
X180337482Y-86164188D01*
X180213000Y-86151928D01*
X179248750Y-86155000D01*
X179090000Y-86313750D01*
X179090000Y-87163000D01*
X180638397Y-87163000D01*
X180708506Y-87220537D01*
X180818820Y-87279502D01*
X180938518Y-87315812D01*
X181063000Y-87328072D01*
X182063000Y-87328072D01*
X182187482Y-87315812D01*
X182307180Y-87279502D01*
X182417494Y-87220537D01*
X182514185Y-87141185D01*
X182563000Y-87081704D01*
X182611815Y-87141185D01*
X182708506Y-87220537D01*
X182818820Y-87279502D01*
X182938518Y-87315812D01*
X183063000Y-87328072D01*
X184063000Y-87328072D01*
X184187482Y-87315812D01*
X184307180Y-87279502D01*
X184417494Y-87220537D01*
X184514185Y-87141185D01*
X184563000Y-87081704D01*
X184611815Y-87141185D01*
X184708506Y-87220537D01*
X184818820Y-87279502D01*
X184938518Y-87315812D01*
X185063000Y-87328072D01*
X186063000Y-87328072D01*
X186187482Y-87315812D01*
X186307180Y-87279502D01*
X186417494Y-87220537D01*
X186514185Y-87141185D01*
X186563000Y-87081704D01*
X186611815Y-87141185D01*
X186708506Y-87220537D01*
X186818820Y-87279502D01*
X186938518Y-87315812D01*
X187063000Y-87328072D01*
X188063000Y-87328072D01*
X188187482Y-87315812D01*
X188307180Y-87279502D01*
X188417494Y-87220537D01*
X188514185Y-87141185D01*
X188563000Y-87081704D01*
X188611815Y-87141185D01*
X188708506Y-87220537D01*
X188818820Y-87279502D01*
X188938518Y-87315812D01*
X188947644Y-87316711D01*
X185784356Y-90480000D01*
X182631940Y-90480000D01*
X182546898Y-90444774D01*
X182346939Y-90405000D01*
X182143061Y-90405000D01*
X181943102Y-90444774D01*
X181754744Y-90522795D01*
X181585226Y-90636063D01*
X181441063Y-90780226D01*
X181327795Y-90949744D01*
X181249774Y-91138102D01*
X181210000Y-91338061D01*
X181210000Y-91400198D01*
X180905200Y-91704999D01*
X180851072Y-91704999D01*
X180851072Y-90790000D01*
X180838812Y-90665518D01*
X180802502Y-90545820D01*
X180743537Y-90435506D01*
X180664185Y-90338815D01*
X180604704Y-90290000D01*
X180664185Y-90241185D01*
X180743537Y-90144494D01*
X180802502Y-90034180D01*
X180838812Y-89914482D01*
X180851072Y-89790000D01*
X180851072Y-88790000D01*
X180838812Y-88665518D01*
X180802502Y-88545820D01*
X180743537Y-88435506D01*
X180664185Y-88338815D01*
X180604704Y-88290000D01*
X180664185Y-88241185D01*
X180743537Y-88144494D01*
X180802502Y-88034180D01*
X180838812Y-87914482D01*
X180851072Y-87790000D01*
X180848000Y-87575750D01*
X180689250Y-87417000D01*
X179090000Y-87417000D01*
X179090000Y-87437000D01*
X178836000Y-87437000D01*
X178836000Y-87417000D01*
X177248250Y-87417000D01*
X177198250Y-87367000D01*
X176149000Y-87367000D01*
X176149000Y-87387000D01*
X175895000Y-87387000D01*
X175895000Y-87367000D01*
X175875000Y-87367000D01*
X175875000Y-87113000D01*
X175895000Y-87113000D01*
X175895000Y-86188750D01*
X176149000Y-86188750D01*
X176149000Y-87113000D01*
X177186750Y-87113000D01*
X177236750Y-87163000D01*
X178836000Y-87163000D01*
X178836000Y-86313750D01*
X178677250Y-86155000D01*
X177713000Y-86151928D01*
X177588518Y-86164188D01*
X177468820Y-86200498D01*
X177358506Y-86259463D01*
X177265884Y-86335476D01*
X177252537Y-86310506D01*
X177173185Y-86213815D01*
X177076494Y-86134463D01*
X176966180Y-86075498D01*
X176846482Y-86039188D01*
X176722000Y-86026928D01*
X176307750Y-86030000D01*
X176149000Y-86188750D01*
X175895000Y-86188750D01*
X175736250Y-86030000D01*
X175322000Y-86026928D01*
X175197518Y-86039188D01*
X175077820Y-86075498D01*
X174967506Y-86134463D01*
X174870815Y-86213815D01*
X174791463Y-86310506D01*
X174732498Y-86420820D01*
X174717691Y-86469630D01*
X174617974Y-86369913D01*
X174448456Y-86256645D01*
X174260098Y-86178624D01*
X174060139Y-86138850D01*
X173856261Y-86138850D01*
X173656302Y-86178624D01*
X173467944Y-86256645D01*
X173298426Y-86369913D01*
X173154263Y-86514076D01*
X173040995Y-86683594D01*
X172962974Y-86871952D01*
X172923200Y-87071911D01*
X172923200Y-87275789D01*
X172962974Y-87475748D01*
X173040995Y-87664106D01*
X173154263Y-87833624D01*
X173234200Y-87913561D01*
X173234200Y-88156065D01*
X173209599Y-88074966D01*
X173071706Y-87816986D01*
X172886134Y-87590866D01*
X172660014Y-87405294D01*
X172402034Y-87267401D01*
X172122111Y-87182487D01*
X171903950Y-87161000D01*
X171758050Y-87161000D01*
X171539889Y-87182487D01*
X171259966Y-87267401D01*
X171001986Y-87405294D01*
X170775866Y-87590866D01*
X170590294Y-87816986D01*
X170452401Y-88074966D01*
X170367487Y-88354889D01*
X170338815Y-88646000D01*
X170367487Y-88937111D01*
X170452401Y-89217034D01*
X170590294Y-89475014D01*
X170775866Y-89701134D01*
X170805687Y-89725607D01*
X170736820Y-89746498D01*
X170626506Y-89805463D01*
X170529815Y-89884815D01*
X170450463Y-89981506D01*
X170391498Y-90091820D01*
X170355188Y-90211518D01*
X170342928Y-90336000D01*
X170342928Y-92036000D01*
X170355188Y-92160482D01*
X170391498Y-92280180D01*
X170450463Y-92390494D01*
X170529815Y-92487185D01*
X170626506Y-92566537D01*
X170736820Y-92625502D01*
X170856518Y-92661812D01*
X170981000Y-92674072D01*
X172681000Y-92674072D01*
X172805482Y-92661812D01*
X172925180Y-92625502D01*
X173035494Y-92566537D01*
X173132185Y-92487185D01*
X173211537Y-92390494D01*
X173234200Y-92348094D01*
X173234201Y-97677632D01*
X173230698Y-97713200D01*
X173244676Y-97855129D01*
X173271275Y-97942811D01*
X173286076Y-97991603D01*
X173353304Y-98117379D01*
X173389891Y-98161960D01*
X173421106Y-98199996D01*
X173421110Y-98200000D01*
X173443779Y-98227622D01*
X173471401Y-98250291D01*
X176997909Y-101776800D01*
X177020578Y-101804422D01*
X177048200Y-101827091D01*
X177048203Y-101827094D01*
X177072851Y-101847322D01*
X177081253Y-101854217D01*
X177081260Y-101854286D01*
X177038847Y-101854003D01*
X177014054Y-101856278D01*
X176990182Y-101863346D01*
X176968148Y-101874935D01*
X176948798Y-101890601D01*
X176932876Y-101909740D01*
X176920994Y-101931618D01*
X176913608Y-101955394D01*
X176911000Y-101981000D01*
X176911000Y-111660000D01*
X158592179Y-111660000D01*
X158720706Y-111503390D01*
X158858599Y-111245410D01*
X158943513Y-110965487D01*
X158972185Y-110674376D01*
X158943513Y-110383265D01*
X158858599Y-110103342D01*
X158720706Y-109845362D01*
X158535134Y-109619242D01*
X158505313Y-109594769D01*
X158574180Y-109573878D01*
X158684494Y-109514913D01*
X158781185Y-109435561D01*
X158860537Y-109338870D01*
X158919502Y-109228556D01*
X158955812Y-109108858D01*
X158968072Y-108984376D01*
X158968072Y-107284376D01*
X158955812Y-107159894D01*
X158919502Y-107040196D01*
X158860537Y-106929882D01*
X158781185Y-106833191D01*
X158684494Y-106753839D01*
X158574180Y-106694874D01*
X158454482Y-106658564D01*
X158330000Y-106646304D01*
X156630000Y-106646304D01*
X156505518Y-106658564D01*
X156385820Y-106694874D01*
X156275506Y-106753839D01*
X156178815Y-106833191D01*
X156099463Y-106929882D01*
X156040498Y-107040196D01*
X156004188Y-107159894D01*
X155991928Y-107284376D01*
X155991928Y-108984376D01*
X156004188Y-109108858D01*
X156040498Y-109228556D01*
X156099463Y-109338870D01*
X156178815Y-109435561D01*
X156275506Y-109514913D01*
X156385820Y-109573878D01*
X156454687Y-109594769D01*
X156424866Y-109619242D01*
X156239294Y-109845362D01*
X156101401Y-110103342D01*
X156016487Y-110383265D01*
X155987815Y-110674376D01*
X156016487Y-110965487D01*
X156101401Y-111245410D01*
X156239294Y-111503390D01*
X156367821Y-111660000D01*
X155205958Y-111660000D01*
X155209338Y-111648858D01*
X155221598Y-111524376D01*
X155221598Y-109824376D01*
X155209338Y-109699894D01*
X155173028Y-109580196D01*
X155114063Y-109469882D01*
X155034711Y-109373191D01*
X154938020Y-109293839D01*
X154827706Y-109234874D01*
X154758839Y-109213983D01*
X154788660Y-109189510D01*
X154974232Y-108963390D01*
X155112125Y-108705410D01*
X155197039Y-108425487D01*
X155225711Y-108134376D01*
X155197039Y-107843265D01*
X155112125Y-107563342D01*
X154974232Y-107305362D01*
X154788660Y-107079242D01*
X154562540Y-106893670D01*
X154304560Y-106755777D01*
X154024637Y-106670863D01*
X153806476Y-106649376D01*
X153660576Y-106649376D01*
X153442415Y-106670863D01*
X153162492Y-106755777D01*
X152904512Y-106893670D01*
X152678392Y-107079242D01*
X152492820Y-107305362D01*
X152354927Y-107563342D01*
X152270013Y-107843265D01*
X152241341Y-108134376D01*
X152270013Y-108425487D01*
X152354927Y-108705410D01*
X152492820Y-108963390D01*
X152678392Y-109189510D01*
X152708213Y-109213983D01*
X152639346Y-109234874D01*
X152582209Y-109265415D01*
X148320236Y-105003442D01*
X148376912Y-104992168D01*
X148674463Y-104868918D01*
X148942252Y-104689987D01*
X149169987Y-104462252D01*
X149348918Y-104194463D01*
X149472168Y-103896912D01*
X149535000Y-103581033D01*
X149535000Y-103258967D01*
X149472168Y-102943088D01*
X149348918Y-102645537D01*
X149169987Y-102377748D01*
X148942252Y-102150013D01*
X148674463Y-101971082D01*
X148399371Y-101857135D01*
X148592009Y-101858022D01*
X148716634Y-101847322D01*
X148836778Y-101812513D01*
X148947822Y-101754935D01*
X149045499Y-101676800D01*
X149126056Y-101581110D01*
X149186397Y-101471543D01*
X149224204Y-101352309D01*
X149235000Y-101251750D01*
X149076250Y-101093000D01*
X148963678Y-101093000D01*
X149051185Y-101021185D01*
X149130537Y-100924494D01*
X149176770Y-100838000D01*
X152086172Y-100838000D01*
X152199702Y-100885026D01*
X152399661Y-100924800D01*
X152603539Y-100924800D01*
X152803498Y-100885026D01*
X152917028Y-100838000D01*
X154305000Y-100838000D01*
X154329776Y-100835560D01*
X154353601Y-100828333D01*
X154375557Y-100816597D01*
X154394803Y-100800803D01*
X158331803Y-96863803D01*
X158347597Y-96844557D01*
X158359333Y-96822601D01*
X158366560Y-96798776D01*
X158369000Y-96774000D01*
X158369000Y-96541590D01*
X163943081Y-96541590D01*
X163943081Y-96814412D01*
X163996306Y-97081990D01*
X164100710Y-97334044D01*
X164252282Y-97560887D01*
X164445195Y-97753800D01*
X164672038Y-97905372D01*
X164924092Y-98009776D01*
X165191670Y-98063001D01*
X165464492Y-98063001D01*
X165732070Y-98009776D01*
X165984124Y-97905372D01*
X166210967Y-97753800D01*
X166403880Y-97560887D01*
X166555452Y-97334044D01*
X166659856Y-97081990D01*
X166713081Y-96814412D01*
X166713081Y-96541590D01*
X168823081Y-96541590D01*
X168823081Y-96814412D01*
X168876306Y-97081990D01*
X168980710Y-97334044D01*
X169132282Y-97560887D01*
X169325195Y-97753800D01*
X169552038Y-97905372D01*
X169804092Y-98009776D01*
X170071670Y-98063001D01*
X170344492Y-98063001D01*
X170612070Y-98009776D01*
X170864124Y-97905372D01*
X171090967Y-97753800D01*
X171283880Y-97560887D01*
X171435452Y-97334044D01*
X171539856Y-97081990D01*
X171593081Y-96814412D01*
X171593081Y-96541590D01*
X171539856Y-96274012D01*
X171435452Y-96021958D01*
X171283880Y-95795115D01*
X171090967Y-95602202D01*
X170864124Y-95450630D01*
X170612070Y-95346226D01*
X170344492Y-95293001D01*
X170071670Y-95293001D01*
X169804092Y-95346226D01*
X169552038Y-95450630D01*
X169325195Y-95602202D01*
X169132282Y-95795115D01*
X168980710Y-96021958D01*
X168876306Y-96274012D01*
X168823081Y-96541590D01*
X166713081Y-96541590D01*
X166659856Y-96274012D01*
X166555452Y-96021958D01*
X166403880Y-95795115D01*
X166210967Y-95602202D01*
X165984124Y-95450630D01*
X165732070Y-95346226D01*
X165464492Y-95293001D01*
X165191670Y-95293001D01*
X164924092Y-95346226D01*
X164672038Y-95450630D01*
X164445195Y-95602202D01*
X164252282Y-95795115D01*
X164100710Y-96021958D01*
X163996306Y-96274012D01*
X163943081Y-96541590D01*
X158369000Y-96541590D01*
X158369000Y-87584375D01*
X159271587Y-87584375D01*
X159356629Y-87619601D01*
X159556588Y-87659375D01*
X159760466Y-87659375D01*
X159960425Y-87619601D01*
X160045467Y-87584375D01*
X161421256Y-87584375D01*
X161518065Y-87702337D01*
X161652640Y-87812780D01*
X161806176Y-87894847D01*
X161972772Y-87945383D01*
X162146026Y-87962447D01*
X162796028Y-87962447D01*
X162969282Y-87945383D01*
X163135878Y-87894847D01*
X163289414Y-87812780D01*
X163423989Y-87702337D01*
X163429369Y-87695781D01*
X163494842Y-87775560D01*
X163591533Y-87854912D01*
X163701847Y-87913877D01*
X163821545Y-87950187D01*
X163946027Y-87962447D01*
X164235277Y-87959375D01*
X164394027Y-87800625D01*
X164394027Y-86751375D01*
X164648027Y-86751375D01*
X164648027Y-87800625D01*
X164806777Y-87959375D01*
X165096027Y-87962447D01*
X165220509Y-87950187D01*
X165340207Y-87913877D01*
X165450521Y-87854912D01*
X165547212Y-87775560D01*
X165626564Y-87678869D01*
X165685529Y-87568555D01*
X165721839Y-87448857D01*
X165734099Y-87324375D01*
X165731027Y-86910125D01*
X165572277Y-86751375D01*
X164648027Y-86751375D01*
X164394027Y-86751375D01*
X164374027Y-86751375D01*
X164374027Y-86497375D01*
X164394027Y-86497375D01*
X164394027Y-85448125D01*
X164648027Y-85448125D01*
X164648027Y-86497375D01*
X165572277Y-86497375D01*
X165731027Y-86338625D01*
X165734099Y-85924375D01*
X165721839Y-85799893D01*
X165685529Y-85680195D01*
X165626564Y-85569881D01*
X165547212Y-85473190D01*
X165450521Y-85393838D01*
X165340207Y-85334873D01*
X165220509Y-85298563D01*
X165096027Y-85286303D01*
X164806777Y-85289375D01*
X164648027Y-85448125D01*
X164394027Y-85448125D01*
X164235277Y-85289375D01*
X163946027Y-85286303D01*
X163821545Y-85298563D01*
X163701847Y-85334873D01*
X163591533Y-85393838D01*
X163494842Y-85473190D01*
X163429369Y-85552969D01*
X163423989Y-85546413D01*
X163338310Y-85476098D01*
X163273100Y-85354099D01*
X163153134Y-85207920D01*
X163129751Y-85188730D01*
X163096205Y-85107744D01*
X162982937Y-84938226D01*
X162838774Y-84794063D01*
X162669256Y-84680795D01*
X162480898Y-84602774D01*
X162280939Y-84563000D01*
X162077061Y-84563000D01*
X161877102Y-84602774D01*
X161688744Y-84680795D01*
X161519226Y-84794063D01*
X161375063Y-84938226D01*
X161261795Y-85107744D01*
X161183774Y-85296102D01*
X161144000Y-85496061D01*
X161144000Y-85664375D01*
X160045467Y-85664375D01*
X159960425Y-85629149D01*
X159760466Y-85589375D01*
X159556588Y-85589375D01*
X159356629Y-85629149D01*
X159271587Y-85664375D01*
X157315798Y-85664375D01*
X157218989Y-85546413D01*
X157084414Y-85435970D01*
X156930878Y-85353903D01*
X156764282Y-85303367D01*
X156591028Y-85286303D01*
X156285600Y-85286303D01*
X154513672Y-83514375D01*
X159352955Y-83514375D01*
X159365215Y-83638857D01*
X159401525Y-83758555D01*
X159460490Y-83868869D01*
X159539842Y-83965560D01*
X159636533Y-84044912D01*
X159746847Y-84103877D01*
X159866545Y-84140187D01*
X159991027Y-84152447D01*
X160280277Y-84149375D01*
X160439027Y-83990625D01*
X160439027Y-82941375D01*
X159514777Y-82941375D01*
X159356027Y-83100125D01*
X159352955Y-83514375D01*
X154513672Y-83514375D01*
X154509899Y-83510603D01*
X154532035Y-83437630D01*
X154549099Y-83264376D01*
X154549099Y-82364374D01*
X154536849Y-82240000D01*
X155188060Y-82240000D01*
X155273102Y-82275226D01*
X155473061Y-82315000D01*
X155676939Y-82315000D01*
X155876898Y-82275226D01*
X155961940Y-82240000D01*
X157728060Y-82240000D01*
X157813102Y-82275226D01*
X158013061Y-82315000D01*
X158216939Y-82315000D01*
X158416898Y-82275226D01*
X158605256Y-82197205D01*
X158729220Y-82114375D01*
X159352955Y-82114375D01*
X159356027Y-82528625D01*
X159514777Y-82687375D01*
X160439027Y-82687375D01*
X160439027Y-81638125D01*
X160693027Y-81638125D01*
X160693027Y-82687375D01*
X160713027Y-82687375D01*
X160713027Y-82941375D01*
X160693027Y-82941375D01*
X160693027Y-83990625D01*
X160851777Y-84149375D01*
X161141027Y-84152447D01*
X161265509Y-84140187D01*
X161385207Y-84103877D01*
X161495521Y-84044912D01*
X161592212Y-83965560D01*
X161657685Y-83885781D01*
X161663065Y-83892337D01*
X161797640Y-84002780D01*
X161951176Y-84084847D01*
X162117772Y-84135383D01*
X162291026Y-84152447D01*
X162941028Y-84152447D01*
X163057251Y-84141000D01*
X164269928Y-84141000D01*
X164282188Y-84265482D01*
X164318498Y-84385180D01*
X164377463Y-84495494D01*
X164456815Y-84592185D01*
X164553506Y-84671537D01*
X164663820Y-84730502D01*
X164783518Y-84766812D01*
X164908000Y-84779072D01*
X165322250Y-84776000D01*
X165481000Y-84617250D01*
X165481000Y-83693000D01*
X165735000Y-83693000D01*
X165735000Y-84617250D01*
X165893750Y-84776000D01*
X166308000Y-84779072D01*
X166432482Y-84766812D01*
X166552180Y-84730502D01*
X166662494Y-84671537D01*
X166759185Y-84592185D01*
X166838537Y-84495494D01*
X166897502Y-84385180D01*
X166933812Y-84265482D01*
X166946072Y-84141000D01*
X166943000Y-83851750D01*
X166784250Y-83693000D01*
X165735000Y-83693000D01*
X165481000Y-83693000D01*
X164431750Y-83693000D01*
X164273000Y-83851750D01*
X164269928Y-84141000D01*
X163057251Y-84141000D01*
X163114282Y-84135383D01*
X163280878Y-84084847D01*
X163434414Y-84002780D01*
X163568989Y-83892337D01*
X163679432Y-83757762D01*
X163761499Y-83604226D01*
X163812035Y-83437630D01*
X163829099Y-83264376D01*
X163829099Y-82436836D01*
X163855061Y-82442000D01*
X164058939Y-82442000D01*
X164258898Y-82402226D01*
X164420376Y-82335339D01*
X164530038Y-82468962D01*
X164536594Y-82474342D01*
X164456815Y-82539815D01*
X164377463Y-82636506D01*
X164318498Y-82746820D01*
X164282188Y-82866518D01*
X164269928Y-82991000D01*
X164273000Y-83280250D01*
X164431750Y-83439000D01*
X165481000Y-83439000D01*
X165481000Y-83419000D01*
X165735000Y-83419000D01*
X165735000Y-83439000D01*
X166784250Y-83439000D01*
X166943000Y-83280250D01*
X166946072Y-82991000D01*
X166933812Y-82866518D01*
X166897502Y-82746820D01*
X166838537Y-82636506D01*
X166759185Y-82539815D01*
X166679406Y-82474342D01*
X166685962Y-82468962D01*
X166796405Y-82334387D01*
X166863960Y-82208000D01*
X182661928Y-82208000D01*
X182665000Y-82772250D01*
X182823750Y-82931000D01*
X184023000Y-82931000D01*
X184023000Y-81731750D01*
X183864250Y-81573000D01*
X183300000Y-81569928D01*
X183175518Y-81582188D01*
X183055820Y-81618498D01*
X182945506Y-81677463D01*
X182848815Y-81756815D01*
X182769463Y-81853506D01*
X182710498Y-81963820D01*
X182674188Y-82083518D01*
X182661928Y-82208000D01*
X166863960Y-82208000D01*
X166878472Y-82180851D01*
X166929008Y-82014255D01*
X166946072Y-81841001D01*
X166946072Y-81190999D01*
X166929008Y-81017745D01*
X166878472Y-80851149D01*
X166796405Y-80697613D01*
X166685962Y-80563038D01*
X166551387Y-80452595D01*
X166397851Y-80370528D01*
X166231255Y-80319992D01*
X166058001Y-80302928D01*
X165157999Y-80302928D01*
X164984745Y-80319992D01*
X164818149Y-80370528D01*
X164664613Y-80452595D01*
X164542081Y-80553155D01*
X164447256Y-80489795D01*
X164258898Y-80411774D01*
X164058939Y-80372000D01*
X163855061Y-80372000D01*
X163655102Y-80411774D01*
X163466744Y-80489795D01*
X163326928Y-80583217D01*
X163219774Y-80476063D01*
X163050256Y-80362795D01*
X162861898Y-80284774D01*
X162661939Y-80245000D01*
X162458061Y-80245000D01*
X162258102Y-80284774D01*
X162069744Y-80362795D01*
X161900226Y-80476063D01*
X161756063Y-80620226D01*
X161642795Y-80789744D01*
X161564774Y-80978102D01*
X161525000Y-81178061D01*
X161525000Y-81381939D01*
X161564774Y-81581898D01*
X161600000Y-81666941D01*
X161600000Y-81672680D01*
X161592212Y-81663190D01*
X161495521Y-81583838D01*
X161385207Y-81524873D01*
X161265509Y-81488563D01*
X161141027Y-81476303D01*
X160851777Y-81479375D01*
X160693027Y-81638125D01*
X160439027Y-81638125D01*
X160280277Y-81479375D01*
X159991027Y-81476303D01*
X159866545Y-81488563D01*
X159746847Y-81524873D01*
X159636533Y-81583838D01*
X159539842Y-81663190D01*
X159460490Y-81759881D01*
X159401525Y-81870195D01*
X159365215Y-81989893D01*
X159352955Y-82114375D01*
X158729220Y-82114375D01*
X158774774Y-82083937D01*
X158918937Y-81939774D01*
X159032205Y-81770256D01*
X159110226Y-81581898D01*
X159150000Y-81381939D01*
X159150000Y-81178061D01*
X159110226Y-80978102D01*
X159032205Y-80789744D01*
X158918937Y-80620226D01*
X158774774Y-80476063D01*
X158605256Y-80362795D01*
X158416898Y-80284774D01*
X158216939Y-80245000D01*
X158013061Y-80245000D01*
X157813102Y-80284774D01*
X157728060Y-80320000D01*
X155961940Y-80320000D01*
X155876898Y-80284774D01*
X155676939Y-80245000D01*
X155473061Y-80245000D01*
X155273102Y-80284774D01*
X155188060Y-80320000D01*
X153151943Y-80320000D01*
X153066901Y-80284774D01*
X152866942Y-80245000D01*
X152663064Y-80245000D01*
X152463105Y-80284774D01*
X152274747Y-80362795D01*
X152105229Y-80476063D01*
X151961066Y-80620226D01*
X151847798Y-80789744D01*
X151769777Y-80978102D01*
X151730003Y-81178061D01*
X151730003Y-81381939D01*
X151749010Y-81477493D01*
X151571777Y-81479375D01*
X151413027Y-81638125D01*
X151413027Y-82687375D01*
X151433027Y-82687375D01*
X151433027Y-82941375D01*
X151413027Y-82941375D01*
X151413027Y-83990625D01*
X151571777Y-84149375D01*
X151861027Y-84152447D01*
X151985509Y-84140187D01*
X152105207Y-84103877D01*
X152215521Y-84044912D01*
X152312212Y-83965560D01*
X152377685Y-83885781D01*
X152383065Y-83892337D01*
X152396135Y-83903063D01*
X152397176Y-83906495D01*
X152444811Y-84063528D01*
X152533954Y-84230303D01*
X152623856Y-84339848D01*
X152653921Y-84376482D01*
X152690553Y-84406545D01*
X153576651Y-85292643D01*
X153516545Y-85298563D01*
X153396847Y-85334873D01*
X153286533Y-85393838D01*
X153189842Y-85473190D01*
X153110490Y-85569881D01*
X153051525Y-85680195D01*
X153015215Y-85799893D01*
X153002955Y-85924375D01*
X153006027Y-86338625D01*
X153164777Y-86497375D01*
X154089027Y-86497375D01*
X154089027Y-86477375D01*
X154343027Y-86477375D01*
X154343027Y-86497375D01*
X154363027Y-86497375D01*
X154363027Y-86751375D01*
X154343027Y-86751375D01*
X154343027Y-86771375D01*
X154089027Y-86771375D01*
X154089027Y-86751375D01*
X153164777Y-86751375D01*
X153006027Y-86910125D01*
X153003852Y-87203400D01*
X152151940Y-87203400D01*
X152066898Y-87168174D01*
X151866939Y-87128400D01*
X151663061Y-87128400D01*
X151463102Y-87168174D01*
X151378060Y-87203400D01*
X146412693Y-87203400D01*
X144544555Y-85335263D01*
X144772381Y-85199554D01*
X144988614Y-85004645D01*
X145162667Y-84771296D01*
X145287851Y-84508475D01*
X145332502Y-84361266D01*
X145211181Y-84131376D01*
X144018026Y-84131376D01*
X144018026Y-84151376D01*
X143764026Y-84151376D01*
X143764026Y-84131376D01*
X143744026Y-84131376D01*
X143744026Y-83877376D01*
X143764026Y-83877376D01*
X143764026Y-83857376D01*
X144018026Y-83857376D01*
X144018026Y-83877376D01*
X145211181Y-83877376D01*
X145332502Y-83647486D01*
X145292128Y-83514375D01*
X150072955Y-83514375D01*
X150085215Y-83638857D01*
X150121525Y-83758555D01*
X150180490Y-83868869D01*
X150259842Y-83965560D01*
X150356533Y-84044912D01*
X150466847Y-84103877D01*
X150586545Y-84140187D01*
X150711027Y-84152447D01*
X151000277Y-84149375D01*
X151159027Y-83990625D01*
X151159027Y-82941375D01*
X150234777Y-82941375D01*
X150076027Y-83100125D01*
X150072955Y-83514375D01*
X145292128Y-83514375D01*
X145287851Y-83500277D01*
X145162667Y-83237456D01*
X144988614Y-83004107D01*
X144772381Y-82809198D01*
X144655503Y-82739577D01*
X144720040Y-82705082D01*
X144946160Y-82519510D01*
X145131732Y-82293390D01*
X145227417Y-82114375D01*
X150072955Y-82114375D01*
X150076027Y-82528625D01*
X150234777Y-82687375D01*
X151159027Y-82687375D01*
X151159027Y-81638125D01*
X151000277Y-81479375D01*
X150711027Y-81476303D01*
X150586545Y-81488563D01*
X150466847Y-81524873D01*
X150356533Y-81583838D01*
X150259842Y-81663190D01*
X150180490Y-81759881D01*
X150121525Y-81870195D01*
X150085215Y-81989893D01*
X150072955Y-82114375D01*
X145227417Y-82114375D01*
X145269625Y-82035410D01*
X145354539Y-81755487D01*
X145383211Y-81464376D01*
X145354539Y-81173265D01*
X145319974Y-81059318D01*
X147753422Y-78625870D01*
X168393980Y-78625870D01*
X168431604Y-78749914D01*
X168548031Y-78997794D01*
X168710580Y-79218197D01*
X168913004Y-79402653D01*
X169147525Y-79544074D01*
X169405129Y-79637025D01*
X169621200Y-79515270D01*
X169621200Y-78409800D01*
X169875200Y-78409800D01*
X169875200Y-79515270D01*
X170091271Y-79637025D01*
X170348875Y-79544074D01*
X170583396Y-79402653D01*
X170785820Y-79218197D01*
X170948369Y-78997794D01*
X171064796Y-78749914D01*
X171102420Y-78625870D01*
X170979920Y-78409800D01*
X169875200Y-78409800D01*
X169621200Y-78409800D01*
X168516480Y-78409800D01*
X168393980Y-78625870D01*
X147753422Y-78625870D01*
X150636492Y-75742800D01*
X168344441Y-75742800D01*
X168371414Y-76016660D01*
X168451296Y-76279995D01*
X168581017Y-76522687D01*
X168755592Y-76735408D01*
X168968313Y-76909983D01*
X169165119Y-77015178D01*
X169147525Y-77021526D01*
X168913004Y-77162947D01*
X168710580Y-77347403D01*
X168548031Y-77567806D01*
X168431604Y-77815686D01*
X168393980Y-77939730D01*
X168516480Y-78155800D01*
X169621200Y-78155800D01*
X169621200Y-78135800D01*
X169875200Y-78135800D01*
X169875200Y-78155800D01*
X170979920Y-78155800D01*
X171102420Y-77939730D01*
X171064796Y-77815686D01*
X170948369Y-77567806D01*
X170785820Y-77347403D01*
X170583396Y-77162947D01*
X170348875Y-77021526D01*
X170331281Y-77015178D01*
X170528087Y-76909983D01*
X170740808Y-76735408D01*
X170915383Y-76522687D01*
X171045104Y-76279995D01*
X171124986Y-76016660D01*
X171151959Y-75742800D01*
X171124986Y-75468940D01*
X171045104Y-75205605D01*
X170915383Y-74962913D01*
X170740808Y-74750192D01*
X170555822Y-74598379D01*
X170634682Y-74590612D01*
X170754380Y-74554302D01*
X170864694Y-74495337D01*
X170961385Y-74415985D01*
X171040737Y-74319294D01*
X171099702Y-74208980D01*
X171136012Y-74089282D01*
X171148272Y-73964800D01*
X171148272Y-72440800D01*
X171136012Y-72316318D01*
X171099702Y-72196620D01*
X171040737Y-72086306D01*
X170961385Y-71989615D01*
X170864694Y-71910263D01*
X170754380Y-71851298D01*
X170634682Y-71814988D01*
X170510200Y-71802728D01*
X168986200Y-71802728D01*
X168861718Y-71814988D01*
X168742020Y-71851298D01*
X168631706Y-71910263D01*
X168535015Y-71989615D01*
X168455663Y-72086306D01*
X168396698Y-72196620D01*
X168360388Y-72316318D01*
X168348128Y-72440800D01*
X168348128Y-73964800D01*
X168360388Y-74089282D01*
X168396698Y-74208980D01*
X168455663Y-74319294D01*
X168535015Y-74415985D01*
X168631706Y-74495337D01*
X168742020Y-74554302D01*
X168861718Y-74590612D01*
X168940578Y-74598379D01*
X168755592Y-74750192D01*
X168581017Y-74962913D01*
X168451296Y-75205605D01*
X168371414Y-75468940D01*
X168344441Y-75742800D01*
X150636492Y-75742800D01*
X153775827Y-72603466D01*
X153803449Y-72580797D01*
X153826118Y-72553175D01*
X153826121Y-72553172D01*
X153849342Y-72524877D01*
X153893924Y-72470554D01*
X153961152Y-72344778D01*
X154002551Y-72208304D01*
X154013027Y-72101941D01*
X154013027Y-72101934D01*
X154016529Y-72066376D01*
X154013027Y-72030818D01*
X154013027Y-70161376D01*
X154119651Y-70161376D01*
X154324886Y-70141162D01*
X154588221Y-70061280D01*
X154830913Y-69931559D01*
X155043634Y-69756984D01*
X155218209Y-69544263D01*
X155321026Y-69351905D01*
X155423843Y-69544263D01*
X155598418Y-69756984D01*
X155811139Y-69931559D01*
X156053831Y-70061280D01*
X156317166Y-70141162D01*
X156522401Y-70161376D01*
X156659651Y-70161376D01*
X156864886Y-70141162D01*
X157128221Y-70061280D01*
X157370913Y-69931559D01*
X157583634Y-69756984D01*
X157758209Y-69544263D01*
X157861026Y-69351905D01*
X157963843Y-69544263D01*
X158138418Y-69756984D01*
X158351139Y-69931559D01*
X158593831Y-70061280D01*
X158857166Y-70141162D01*
X159062401Y-70161376D01*
X159199651Y-70161376D01*
X159404886Y-70141162D01*
X159668221Y-70061280D01*
X159910913Y-69931559D01*
X160123634Y-69756984D01*
X160298209Y-69544263D01*
X160401026Y-69351905D01*
X160503843Y-69544263D01*
X160678418Y-69756984D01*
X160891139Y-69931559D01*
X161133831Y-70061280D01*
X161397166Y-70141162D01*
X161602401Y-70161376D01*
X161739651Y-70161376D01*
X161944886Y-70141162D01*
X162208221Y-70061280D01*
X162450913Y-69931559D01*
X162663634Y-69756984D01*
X162838209Y-69544263D01*
X162941026Y-69351905D01*
X163043843Y-69544263D01*
X163218418Y-69756984D01*
X163431139Y-69931559D01*
X163673831Y-70061280D01*
X163937166Y-70141162D01*
X164142401Y-70161376D01*
X164279651Y-70161376D01*
X164484886Y-70141162D01*
X164748221Y-70061280D01*
X164990913Y-69931559D01*
X165203634Y-69756984D01*
X165378209Y-69544263D01*
X165481026Y-69351905D01*
X165583843Y-69544263D01*
X165758418Y-69756984D01*
X165971139Y-69931559D01*
X166213831Y-70061280D01*
X166477166Y-70141162D01*
X166682401Y-70161376D01*
X166819651Y-70161376D01*
X167024886Y-70141162D01*
X167288221Y-70061280D01*
X167530913Y-69931559D01*
X167743634Y-69756984D01*
X167918209Y-69544263D01*
X168021026Y-69351905D01*
X168123843Y-69544263D01*
X168298418Y-69756984D01*
X168511139Y-69931559D01*
X168753831Y-70061280D01*
X169017166Y-70141162D01*
X169222401Y-70161376D01*
X169359651Y-70161376D01*
X169564886Y-70141162D01*
X169828221Y-70061280D01*
X170070913Y-69931559D01*
X170283634Y-69756984D01*
X170458209Y-69544263D01*
X170561026Y-69351905D01*
X170663843Y-69544263D01*
X170838418Y-69756984D01*
X171051139Y-69931559D01*
X171293831Y-70061280D01*
X171557166Y-70141162D01*
X171762401Y-70161376D01*
X171899651Y-70161376D01*
X172104886Y-70141162D01*
X172368221Y-70061280D01*
X172610913Y-69931559D01*
X172823634Y-69756984D01*
X172998209Y-69544263D01*
X173127930Y-69301571D01*
X173207812Y-69038236D01*
X173234785Y-68764376D01*
X173207812Y-68490516D01*
X173127930Y-68227181D01*
X172998209Y-67984489D01*
X172823634Y-67771768D01*
X172610913Y-67597193D01*
X172368221Y-67467472D01*
X172104886Y-67387590D01*
X171899651Y-67367376D01*
X171762401Y-67367376D01*
X171557166Y-67387590D01*
X171293831Y-67467472D01*
X171051139Y-67597193D01*
X170838418Y-67771768D01*
X170663843Y-67984489D01*
X170561026Y-68176847D01*
X170458209Y-67984489D01*
X170283634Y-67771768D01*
X170070913Y-67597193D01*
X169828221Y-67467472D01*
X169564886Y-67387590D01*
X169359651Y-67367376D01*
X169222401Y-67367376D01*
X169017166Y-67387590D01*
X168753831Y-67467472D01*
X168511139Y-67597193D01*
X168298418Y-67771768D01*
X168123843Y-67984489D01*
X168021026Y-68176847D01*
X167918209Y-67984489D01*
X167743634Y-67771768D01*
X167530913Y-67597193D01*
X167288221Y-67467472D01*
X167024886Y-67387590D01*
X166819651Y-67367376D01*
X166682401Y-67367376D01*
X166477166Y-67387590D01*
X166213831Y-67467472D01*
X165971139Y-67597193D01*
X165758418Y-67771768D01*
X165583843Y-67984489D01*
X165481026Y-68176847D01*
X165378209Y-67984489D01*
X165203634Y-67771768D01*
X164990913Y-67597193D01*
X164748221Y-67467472D01*
X164484886Y-67387590D01*
X164279651Y-67367376D01*
X164142401Y-67367376D01*
X163937166Y-67387590D01*
X163673831Y-67467472D01*
X163431139Y-67597193D01*
X163218418Y-67771768D01*
X163043843Y-67984489D01*
X162941026Y-68176847D01*
X162838209Y-67984489D01*
X162663634Y-67771768D01*
X162450913Y-67597193D01*
X162208221Y-67467472D01*
X161944886Y-67387590D01*
X161739651Y-67367376D01*
X161602401Y-67367376D01*
X161397166Y-67387590D01*
X161133831Y-67467472D01*
X160891139Y-67597193D01*
X160678418Y-67771768D01*
X160503843Y-67984489D01*
X160401026Y-68176847D01*
X160298209Y-67984489D01*
X160123634Y-67771768D01*
X159910913Y-67597193D01*
X159668221Y-67467472D01*
X159404886Y-67387590D01*
X159199651Y-67367376D01*
X159062401Y-67367376D01*
X158857166Y-67387590D01*
X158593831Y-67467472D01*
X158351139Y-67597193D01*
X158138418Y-67771768D01*
X157963843Y-67984489D01*
X157861026Y-68176847D01*
X157758209Y-67984489D01*
X157583634Y-67771768D01*
X157370913Y-67597193D01*
X157128221Y-67467472D01*
X156864886Y-67387590D01*
X156659651Y-67367376D01*
X156522401Y-67367376D01*
X156317166Y-67387590D01*
X156053831Y-67467472D01*
X155811139Y-67597193D01*
X155598418Y-67771768D01*
X155423843Y-67984489D01*
X155321026Y-68176847D01*
X155218209Y-67984489D01*
X155043634Y-67771768D01*
X154830913Y-67597193D01*
X154588221Y-67467472D01*
X154324886Y-67387590D01*
X154119651Y-67367376D01*
X153982401Y-67367376D01*
X153777166Y-67387590D01*
X153513831Y-67467472D01*
X153271139Y-67597193D01*
X153058418Y-67771768D01*
X152883843Y-67984489D01*
X152781026Y-68176847D01*
X152678209Y-67984489D01*
X152503634Y-67771768D01*
X152290913Y-67597193D01*
X152048221Y-67467472D01*
X151784886Y-67387590D01*
X151579651Y-67367376D01*
X151442401Y-67367376D01*
X151237166Y-67387590D01*
X150973831Y-67467472D01*
X150731139Y-67597193D01*
X150518418Y-67771768D01*
X150343843Y-67984489D01*
X150241026Y-68176847D01*
X150138209Y-67984489D01*
X149963634Y-67771768D01*
X149750913Y-67597193D01*
X149508221Y-67467472D01*
X149244886Y-67387590D01*
X149039651Y-67367376D01*
X148902401Y-67367376D01*
X148697166Y-67387590D01*
X148433831Y-67467472D01*
X148191139Y-67597193D01*
X147978418Y-67771768D01*
X147803843Y-67984489D01*
X147701026Y-68176847D01*
X147598209Y-67984489D01*
X147423634Y-67771768D01*
X147210913Y-67597193D01*
X146968221Y-67467472D01*
X146704886Y-67387590D01*
X146499651Y-67367376D01*
X146362401Y-67367376D01*
X146157166Y-67387590D01*
X145893831Y-67467472D01*
X145651139Y-67597193D01*
X145438418Y-67771768D01*
X145286605Y-67956754D01*
X145278838Y-67877894D01*
X145242528Y-67758196D01*
X145183563Y-67647882D01*
X145161810Y-67621376D01*
X145229625Y-67621376D01*
X145434860Y-67601162D01*
X145698195Y-67521280D01*
X145940887Y-67391559D01*
X146153608Y-67216984D01*
X146328183Y-67004263D01*
X146431000Y-66811905D01*
X146533817Y-67004263D01*
X146708392Y-67216984D01*
X146921113Y-67391559D01*
X147163805Y-67521280D01*
X147427140Y-67601162D01*
X147632375Y-67621376D01*
X147769625Y-67621376D01*
X147974860Y-67601162D01*
X148238195Y-67521280D01*
X148480887Y-67391559D01*
X148693608Y-67216984D01*
X148868183Y-67004263D01*
X148971000Y-66811905D01*
X149073817Y-67004263D01*
X149248392Y-67216984D01*
X149461113Y-67391559D01*
X149703805Y-67521280D01*
X149967140Y-67601162D01*
X150172375Y-67621376D01*
X150309625Y-67621376D01*
X150514860Y-67601162D01*
X150778195Y-67521280D01*
X151020887Y-67391559D01*
X151233608Y-67216984D01*
X151408183Y-67004263D01*
X151511000Y-66811905D01*
X151613817Y-67004263D01*
X151788392Y-67216984D01*
X152001113Y-67391559D01*
X152243805Y-67521280D01*
X152507140Y-67601162D01*
X152712375Y-67621376D01*
X152849625Y-67621376D01*
X153054860Y-67601162D01*
X153318195Y-67521280D01*
X153560887Y-67391559D01*
X153773608Y-67216984D01*
X153948183Y-67004263D01*
X154051000Y-66811905D01*
X154153817Y-67004263D01*
X154328392Y-67216984D01*
X154541113Y-67391559D01*
X154783805Y-67521280D01*
X155047140Y-67601162D01*
X155252375Y-67621376D01*
X155389625Y-67621376D01*
X155594860Y-67601162D01*
X155858195Y-67521280D01*
X156100887Y-67391559D01*
X156313608Y-67216984D01*
X156488183Y-67004263D01*
X156591000Y-66811905D01*
X156693817Y-67004263D01*
X156868392Y-67216984D01*
X157081113Y-67391559D01*
X157323805Y-67521280D01*
X157587140Y-67601162D01*
X157792375Y-67621376D01*
X157929625Y-67621376D01*
X158134860Y-67601162D01*
X158398195Y-67521280D01*
X158640887Y-67391559D01*
X158853608Y-67216984D01*
X159028183Y-67004263D01*
X159131000Y-66811905D01*
X159233817Y-67004263D01*
X159408392Y-67216984D01*
X159621113Y-67391559D01*
X159863805Y-67521280D01*
X160127140Y-67601162D01*
X160332375Y-67621376D01*
X160469625Y-67621376D01*
X160674860Y-67601162D01*
X160938195Y-67521280D01*
X161180887Y-67391559D01*
X161393608Y-67216984D01*
X161568183Y-67004263D01*
X161671000Y-66811905D01*
X161773817Y-67004263D01*
X161948392Y-67216984D01*
X162161113Y-67391559D01*
X162403805Y-67521280D01*
X162667140Y-67601162D01*
X162872375Y-67621376D01*
X163009625Y-67621376D01*
X163214860Y-67601162D01*
X163478195Y-67521280D01*
X163720887Y-67391559D01*
X163933608Y-67216984D01*
X164108183Y-67004263D01*
X164211000Y-66811905D01*
X164313817Y-67004263D01*
X164488392Y-67216984D01*
X164701113Y-67391559D01*
X164943805Y-67521280D01*
X165207140Y-67601162D01*
X165412375Y-67621376D01*
X165549625Y-67621376D01*
X165754860Y-67601162D01*
X166018195Y-67521280D01*
X166260887Y-67391559D01*
X166473608Y-67216984D01*
X166648183Y-67004263D01*
X166751000Y-66811905D01*
X166853817Y-67004263D01*
X167028392Y-67216984D01*
X167241113Y-67391559D01*
X167483805Y-67521280D01*
X167747140Y-67601162D01*
X167952375Y-67621376D01*
X168089625Y-67621376D01*
X168294860Y-67601162D01*
X168558195Y-67521280D01*
X168800887Y-67391559D01*
X169013608Y-67216984D01*
X169188183Y-67004263D01*
X169293378Y-66807457D01*
X169299726Y-66825051D01*
X169441147Y-67059572D01*
X169625603Y-67261996D01*
X169846006Y-67424545D01*
X170093886Y-67540972D01*
X170217930Y-67578596D01*
X170434000Y-67456096D01*
X170434000Y-66351376D01*
X170688000Y-66351376D01*
X170688000Y-67456096D01*
X170904070Y-67578596D01*
X171028114Y-67540972D01*
X171275994Y-67424545D01*
X171496397Y-67261996D01*
X171680853Y-67059572D01*
X171822274Y-66825051D01*
X171915225Y-66567447D01*
X171793470Y-66351376D01*
X170688000Y-66351376D01*
X170434000Y-66351376D01*
X170414000Y-66351376D01*
X170414000Y-66097376D01*
X170434000Y-66097376D01*
X170434000Y-64992656D01*
X170688000Y-64992656D01*
X170688000Y-66097376D01*
X171793470Y-66097376D01*
X171915225Y-65881305D01*
X171822274Y-65623701D01*
X171680853Y-65389180D01*
X171496397Y-65186756D01*
X171275994Y-65024207D01*
X171028114Y-64907780D01*
X170904070Y-64870156D01*
X170688000Y-64992656D01*
X170434000Y-64992656D01*
X170217930Y-64870156D01*
X170093886Y-64907780D01*
X169846006Y-65024207D01*
X169625603Y-65186756D01*
X169441147Y-65389180D01*
X169299726Y-65623701D01*
X169293378Y-65641295D01*
X169188183Y-65444489D01*
X169013608Y-65231768D01*
X169004420Y-65224228D01*
X169065205Y-65133256D01*
X169092014Y-65068534D01*
X169222401Y-65081376D01*
X169359651Y-65081376D01*
X169564886Y-65061162D01*
X169828221Y-64981280D01*
X170070913Y-64851559D01*
X170283634Y-64676984D01*
X170458209Y-64464263D01*
X170563404Y-64267457D01*
X170569752Y-64285051D01*
X170711173Y-64519572D01*
X170895629Y-64721996D01*
X171116032Y-64884545D01*
X171363912Y-65000972D01*
X171487956Y-65038596D01*
X171704026Y-64916096D01*
X171704026Y-63811376D01*
X171958026Y-63811376D01*
X171958026Y-64916096D01*
X172174096Y-65038596D01*
X172298140Y-65000972D01*
X172546020Y-64884545D01*
X172766423Y-64721996D01*
X172950879Y-64519572D01*
X173092300Y-64285051D01*
X173185251Y-64027447D01*
X173063496Y-63811376D01*
X171958026Y-63811376D01*
X171704026Y-63811376D01*
X171684026Y-63811376D01*
X171684026Y-63557376D01*
X171704026Y-63557376D01*
X171704026Y-62452656D01*
X171958026Y-62452656D01*
X171958026Y-63557376D01*
X173063496Y-63557376D01*
X173185251Y-63341305D01*
X173092300Y-63083701D01*
X172950879Y-62849180D01*
X172766423Y-62646756D01*
X172546020Y-62484207D01*
X172298140Y-62367780D01*
X172174096Y-62330156D01*
X171958026Y-62452656D01*
X171704026Y-62452656D01*
X171487956Y-62330156D01*
X171363912Y-62367780D01*
X171116032Y-62484207D01*
X170895629Y-62646756D01*
X170711173Y-62849180D01*
X170569752Y-63083701D01*
X170563404Y-63101295D01*
X170458209Y-62904489D01*
X170283634Y-62691768D01*
X170070913Y-62517193D01*
X169828221Y-62387472D01*
X169564886Y-62307590D01*
X169359651Y-62287376D01*
X169222401Y-62287376D01*
X169017166Y-62307590D01*
X168753831Y-62387472D01*
X168511139Y-62517193D01*
X168298418Y-62691768D01*
X168123843Y-62904489D01*
X168021026Y-63096847D01*
X167918209Y-62904489D01*
X167743634Y-62691768D01*
X167530913Y-62517193D01*
X167288221Y-62387472D01*
X167024886Y-62307590D01*
X166819651Y-62287376D01*
X166682401Y-62287376D01*
X166477166Y-62307590D01*
X166213831Y-62387472D01*
X165971139Y-62517193D01*
X165758418Y-62691768D01*
X165583843Y-62904489D01*
X165481026Y-63096847D01*
X165378209Y-62904489D01*
X165203634Y-62691768D01*
X164990913Y-62517193D01*
X164748221Y-62387472D01*
X164484886Y-62307590D01*
X164279651Y-62287376D01*
X164142401Y-62287376D01*
X163937166Y-62307590D01*
X163673831Y-62387472D01*
X163431139Y-62517193D01*
X163218418Y-62691768D01*
X163043843Y-62904489D01*
X162941026Y-63096847D01*
X162838209Y-62904489D01*
X162663634Y-62691768D01*
X162450913Y-62517193D01*
X162208221Y-62387472D01*
X161944886Y-62307590D01*
X161739651Y-62287376D01*
X161602401Y-62287376D01*
X161397166Y-62307590D01*
X161133831Y-62387472D01*
X160891139Y-62517193D01*
X160678418Y-62691768D01*
X160503843Y-62904489D01*
X160401026Y-63096847D01*
X160298209Y-62904489D01*
X160123634Y-62691768D01*
X159910913Y-62517193D01*
X159668221Y-62387472D01*
X159404886Y-62307590D01*
X159199651Y-62287376D01*
X159062401Y-62287376D01*
X158857166Y-62307590D01*
X158593831Y-62387472D01*
X158351139Y-62517193D01*
X158138418Y-62691768D01*
X157963843Y-62904489D01*
X157861026Y-63096847D01*
X157758209Y-62904489D01*
X157583634Y-62691768D01*
X157370913Y-62517193D01*
X157128221Y-62387472D01*
X156864886Y-62307590D01*
X156659651Y-62287376D01*
X156522401Y-62287376D01*
X156317166Y-62307590D01*
X156053831Y-62387472D01*
X155811139Y-62517193D01*
X155598418Y-62691768D01*
X155423843Y-62904489D01*
X155321026Y-63096847D01*
X155218209Y-62904489D01*
X155043634Y-62691768D01*
X154830913Y-62517193D01*
X154588221Y-62387472D01*
X154324886Y-62307590D01*
X154119651Y-62287376D01*
X153982401Y-62287376D01*
X153777166Y-62307590D01*
X153513831Y-62387472D01*
X153271139Y-62517193D01*
X153058418Y-62691768D01*
X152883843Y-62904489D01*
X152781026Y-63096847D01*
X152678209Y-62904489D01*
X152503634Y-62691768D01*
X152290913Y-62517193D01*
X152048221Y-62387472D01*
X151784886Y-62307590D01*
X151579651Y-62287376D01*
X151442401Y-62287376D01*
X151237166Y-62307590D01*
X150973831Y-62387472D01*
X150731139Y-62517193D01*
X150518418Y-62691768D01*
X150343843Y-62904489D01*
X150241026Y-63096847D01*
X150138209Y-62904489D01*
X149963634Y-62691768D01*
X149750913Y-62517193D01*
X149508221Y-62387472D01*
X149244886Y-62307590D01*
X149039651Y-62287376D01*
X148902401Y-62287376D01*
X148697166Y-62307590D01*
X148433831Y-62387472D01*
X148191139Y-62517193D01*
X147978418Y-62691768D01*
X147803843Y-62904489D01*
X147701026Y-63096847D01*
X147598209Y-62904489D01*
X147423634Y-62691768D01*
X147210913Y-62517193D01*
X146968221Y-62387472D01*
X146704886Y-62307590D01*
X146499651Y-62287376D01*
X146362401Y-62287376D01*
X146157166Y-62307590D01*
X145893831Y-62387472D01*
X145651139Y-62517193D01*
X145438418Y-62691768D01*
X145286605Y-62876754D01*
X145278838Y-62797894D01*
X145242528Y-62678196D01*
X145183563Y-62567882D01*
X145104211Y-62471191D01*
X145007520Y-62391839D01*
X144897206Y-62332874D01*
X144777508Y-62296564D01*
X144653026Y-62284304D01*
X143129026Y-62284304D01*
X143004544Y-62296564D01*
X142884846Y-62332874D01*
X142774532Y-62391839D01*
X142677841Y-62471191D01*
X142598489Y-62567882D01*
X142539524Y-62678196D01*
X142503214Y-62797894D01*
X142490954Y-62922376D01*
X142490954Y-64446376D01*
X142503214Y-64570858D01*
X142539524Y-64690556D01*
X142598489Y-64800870D01*
X142617721Y-64824304D01*
X141859000Y-64824304D01*
X141734518Y-64836564D01*
X141705000Y-64845518D01*
X141705000Y-61949000D01*
X173319053Y-61949000D01*
X173704907Y-61986833D01*
G36*
X144795449Y-88301445D02*
G01*
X144727640Y-88322015D01*
X144538700Y-88423006D01*
X144349759Y-88322015D01*
X144131099Y-88255685D01*
X143903700Y-88233288D01*
X143676300Y-88255685D01*
X143467602Y-88318993D01*
X143402880Y-88284398D01*
X143283182Y-88248088D01*
X143158700Y-88235828D01*
X142919450Y-88238900D01*
X142760700Y-88397650D01*
X142760700Y-89170792D01*
X142760485Y-89171501D01*
X142743700Y-89341922D01*
X142743700Y-89905879D01*
X142760485Y-90076300D01*
X142760700Y-90077009D01*
X142760700Y-90850150D01*
X142919450Y-91008900D01*
X143158700Y-91011972D01*
X143283182Y-90999712D01*
X143402880Y-90963402D01*
X143467602Y-90928807D01*
X143676301Y-90992115D01*
X143903700Y-91014512D01*
X144131100Y-90992115D01*
X144349760Y-90925785D01*
X144538701Y-90824794D01*
X144727641Y-90925785D01*
X144946301Y-90992115D01*
X145173700Y-91014512D01*
X145401100Y-90992115D01*
X145619760Y-90925785D01*
X145821279Y-90818071D01*
X145997912Y-90673112D01*
X146142871Y-90496479D01*
X146250585Y-90294959D01*
X146316915Y-90076299D01*
X146333700Y-89905878D01*
X146333700Y-89341921D01*
X146316915Y-89171500D01*
X146302324Y-89123400D01*
X151378060Y-89123400D01*
X151463102Y-89158626D01*
X151663061Y-89198400D01*
X151866939Y-89198400D01*
X152066898Y-89158626D01*
X152151940Y-89123400D01*
X153875201Y-89123400D01*
X153875200Y-90375527D01*
X153841125Y-90409602D01*
X153727857Y-90579120D01*
X153649836Y-90767478D01*
X153610062Y-90967437D01*
X153610062Y-91171315D01*
X153649836Y-91371274D01*
X153727857Y-91559632D01*
X153841125Y-91729150D01*
X153985288Y-91873313D01*
X154154806Y-91986581D01*
X154343164Y-92064602D01*
X154543123Y-92104376D01*
X154747001Y-92104376D01*
X154946960Y-92064602D01*
X155135318Y-91986581D01*
X155304836Y-91873313D01*
X155448999Y-91729150D01*
X155562267Y-91559632D01*
X155640288Y-91371274D01*
X155680062Y-91171315D01*
X155680062Y-90967437D01*
X155640288Y-90767478D01*
X155562267Y-90579120D01*
X155448999Y-90409602D01*
X155395200Y-90355803D01*
X155395200Y-89123400D01*
X155629448Y-89123400D01*
X155676600Y-89128044D01*
X155723752Y-89123400D01*
X155723762Y-89123400D01*
X155864793Y-89109510D01*
X155956000Y-89081843D01*
X155956000Y-95959394D01*
X154125394Y-97790000D01*
X149109605Y-97790000D01*
X149051185Y-97718815D01*
X148954494Y-97639463D01*
X148844180Y-97580498D01*
X148724482Y-97544188D01*
X148600000Y-97531928D01*
X148443425Y-97531928D01*
X148432823Y-97519009D01*
X148674463Y-97418918D01*
X148942252Y-97239987D01*
X149169987Y-97012252D01*
X149348918Y-96744463D01*
X149472168Y-96446912D01*
X149535000Y-96131033D01*
X149535000Y-95808967D01*
X149472168Y-95493088D01*
X149348918Y-95195537D01*
X149169987Y-94927748D01*
X148942252Y-94700013D01*
X148674463Y-94521082D01*
X148376912Y-94397832D01*
X148061033Y-94335000D01*
X147738967Y-94335000D01*
X147423088Y-94397832D01*
X147125537Y-94521082D01*
X146857748Y-94700013D01*
X146630013Y-94927748D01*
X146451082Y-95195537D01*
X146327832Y-95493088D01*
X146265000Y-95808967D01*
X146265000Y-96131033D01*
X146301883Y-96316456D01*
X146190226Y-96391063D01*
X146046063Y-96535226D01*
X145932795Y-96704744D01*
X145854774Y-96893102D01*
X145815000Y-97093061D01*
X145815000Y-97269909D01*
X145782446Y-97279784D01*
X145615672Y-97368927D01*
X145469493Y-97488893D01*
X145439425Y-97525531D01*
X145279530Y-97685426D01*
X145242892Y-97715494D01*
X145122926Y-97861673D01*
X145033783Y-98028448D01*
X144978889Y-98209409D01*
X144964999Y-98350440D01*
X144964999Y-98350449D01*
X144960355Y-98397601D01*
X144964999Y-98444753D01*
X144964999Y-98960040D01*
X144965000Y-102301846D01*
X144827095Y-102209701D01*
X144547743Y-102093989D01*
X144251184Y-102035000D01*
X143948816Y-102035000D01*
X143652257Y-102093989D01*
X143372905Y-102209701D01*
X143121495Y-102377688D01*
X142907688Y-102591495D01*
X142739701Y-102842905D01*
X142623989Y-103122257D01*
X142565000Y-103418816D01*
X142565000Y-103721184D01*
X142623989Y-104017743D01*
X142739701Y-104297095D01*
X142907688Y-104548505D01*
X143121495Y-104762312D01*
X143372905Y-104930299D01*
X143652257Y-105046011D01*
X143948816Y-105105000D01*
X144251184Y-105105000D01*
X144547743Y-105046011D01*
X144827095Y-104930299D01*
X145078505Y-104762312D01*
X145220341Y-104620476D01*
X145242893Y-104647956D01*
X145279526Y-104678020D01*
X151921355Y-111319850D01*
X151951419Y-111356483D01*
X151988052Y-111386547D01*
X152097597Y-111476449D01*
X152248688Y-111557209D01*
X152257714Y-111648858D01*
X152261094Y-111660000D01*
X143545947Y-111660000D01*
X143160092Y-111622167D01*
X142823511Y-111520547D01*
X142513078Y-111355487D01*
X142240619Y-111133275D01*
X142016511Y-110862373D01*
X141849287Y-110553100D01*
X141745320Y-110217236D01*
X141705000Y-109833619D01*
X141705000Y-93898322D01*
X141723745Y-93904008D01*
X141896999Y-93921072D01*
X142202428Y-93921072D01*
X143015269Y-94733914D01*
X142907688Y-94841495D01*
X142739701Y-95092905D01*
X142623989Y-95372257D01*
X142565000Y-95668816D01*
X142565000Y-95971184D01*
X142623989Y-96267743D01*
X142739701Y-96547095D01*
X142907688Y-96798505D01*
X143121495Y-97012312D01*
X143372905Y-97180299D01*
X143652257Y-97296011D01*
X143948816Y-97355000D01*
X144251184Y-97355000D01*
X144547743Y-97296011D01*
X144827095Y-97180299D01*
X145078505Y-97012312D01*
X145292312Y-96798505D01*
X145460299Y-96547095D01*
X145576011Y-96267743D01*
X145635000Y-95971184D01*
X145635000Y-95668816D01*
X145576011Y-95372257D01*
X145460299Y-95092905D01*
X145292312Y-94841495D01*
X145078505Y-94627688D01*
X145060000Y-94615323D01*
X145060000Y-94508151D01*
X145064644Y-94460999D01*
X145060000Y-94413847D01*
X145060000Y-94413838D01*
X145046110Y-94272807D01*
X144991216Y-94091846D01*
X144944675Y-94004774D01*
X144902073Y-93925071D01*
X144894918Y-93916353D01*
X144971482Y-93908812D01*
X145091180Y-93872502D01*
X145201494Y-93813537D01*
X145298185Y-93734185D01*
X145377537Y-93637494D01*
X145436502Y-93527180D01*
X145472812Y-93407482D01*
X145485072Y-93283000D01*
X145482000Y-92868750D01*
X145323250Y-92710000D01*
X144399000Y-92710000D01*
X144399000Y-92730000D01*
X144145000Y-92730000D01*
X144145000Y-92710000D01*
X144125000Y-92710000D01*
X144125000Y-92456000D01*
X144145000Y-92456000D01*
X144145000Y-91406750D01*
X144399000Y-91406750D01*
X144399000Y-92456000D01*
X145323250Y-92456000D01*
X145482000Y-92297250D01*
X145485072Y-91883000D01*
X145472812Y-91758518D01*
X145436502Y-91638820D01*
X145377537Y-91528506D01*
X145298185Y-91431815D01*
X145201494Y-91352463D01*
X145091180Y-91293498D01*
X144971482Y-91257188D01*
X144847000Y-91244928D01*
X144557750Y-91248000D01*
X144399000Y-91406750D01*
X144145000Y-91406750D01*
X143986250Y-91248000D01*
X143697000Y-91244928D01*
X143572518Y-91257188D01*
X143452820Y-91293498D01*
X143342506Y-91352463D01*
X143245815Y-91431815D01*
X143180342Y-91511594D01*
X143174962Y-91505038D01*
X143040387Y-91394595D01*
X142886851Y-91312528D01*
X142720255Y-91261992D01*
X142547001Y-91244928D01*
X141896999Y-91244928D01*
X141723745Y-91261992D01*
X141705000Y-91267678D01*
X141705000Y-90864055D01*
X141754206Y-90904437D01*
X141864520Y-90963402D01*
X141984218Y-90999712D01*
X142108700Y-91011972D01*
X142347950Y-91008900D01*
X142506700Y-90850150D01*
X142506700Y-89750900D01*
X142486700Y-89750900D01*
X142486700Y-89496900D01*
X142506700Y-89496900D01*
X142506700Y-88397650D01*
X142347950Y-88238900D01*
X142108700Y-88235828D01*
X141984218Y-88248088D01*
X141864520Y-88284398D01*
X141754206Y-88343363D01*
X141705000Y-88383745D01*
X141705000Y-85210996D01*
X144795449Y-88301445D01*
X144795449Y-88301445D01*
G37*
X144795449Y-88301445D02*
X144727640Y-88322015D01*
X144538700Y-88423006D01*
X144349759Y-88322015D01*
X144131099Y-88255685D01*
X143903700Y-88233288D01*
X143676300Y-88255685D01*
X143467602Y-88318993D01*
X143402880Y-88284398D01*
X143283182Y-88248088D01*
X143158700Y-88235828D01*
X142919450Y-88238900D01*
X142760700Y-88397650D01*
X142760700Y-89170792D01*
X142760485Y-89171501D01*
X142743700Y-89341922D01*
X142743700Y-89905879D01*
X142760485Y-90076300D01*
X142760700Y-90077009D01*
X142760700Y-90850150D01*
X142919450Y-91008900D01*
X143158700Y-91011972D01*
X143283182Y-90999712D01*
X143402880Y-90963402D01*
X143467602Y-90928807D01*
X143676301Y-90992115D01*
X143903700Y-91014512D01*
X144131100Y-90992115D01*
X144349760Y-90925785D01*
X144538701Y-90824794D01*
X144727641Y-90925785D01*
X144946301Y-90992115D01*
X145173700Y-91014512D01*
X145401100Y-90992115D01*
X145619760Y-90925785D01*
X145821279Y-90818071D01*
X145997912Y-90673112D01*
X146142871Y-90496479D01*
X146250585Y-90294959D01*
X146316915Y-90076299D01*
X146333700Y-89905878D01*
X146333700Y-89341921D01*
X146316915Y-89171500D01*
X146302324Y-89123400D01*
X151378060Y-89123400D01*
X151463102Y-89158626D01*
X151663061Y-89198400D01*
X151866939Y-89198400D01*
X152066898Y-89158626D01*
X152151940Y-89123400D01*
X153875201Y-89123400D01*
X153875200Y-90375527D01*
X153841125Y-90409602D01*
X153727857Y-90579120D01*
X153649836Y-90767478D01*
X153610062Y-90967437D01*
X153610062Y-91171315D01*
X153649836Y-91371274D01*
X153727857Y-91559632D01*
X153841125Y-91729150D01*
X153985288Y-91873313D01*
X154154806Y-91986581D01*
X154343164Y-92064602D01*
X154543123Y-92104376D01*
X154747001Y-92104376D01*
X154946960Y-92064602D01*
X155135318Y-91986581D01*
X155304836Y-91873313D01*
X155448999Y-91729150D01*
X155562267Y-91559632D01*
X155640288Y-91371274D01*
X155680062Y-91171315D01*
X155680062Y-90967437D01*
X155640288Y-90767478D01*
X155562267Y-90579120D01*
X155448999Y-90409602D01*
X155395200Y-90355803D01*
X155395200Y-89123400D01*
X155629448Y-89123400D01*
X155676600Y-89128044D01*
X155723752Y-89123400D01*
X155723762Y-89123400D01*
X155864793Y-89109510D01*
X155956000Y-89081843D01*
X155956000Y-95959394D01*
X154125394Y-97790000D01*
X149109605Y-97790000D01*
X149051185Y-97718815D01*
X148954494Y-97639463D01*
X148844180Y-97580498D01*
X148724482Y-97544188D01*
X148600000Y-97531928D01*
X148443425Y-97531928D01*
X148432823Y-97519009D01*
X148674463Y-97418918D01*
X148942252Y-97239987D01*
X149169987Y-97012252D01*
X149348918Y-96744463D01*
X149472168Y-96446912D01*
X149535000Y-96131033D01*
X149535000Y-95808967D01*
X149472168Y-95493088D01*
X149348918Y-95195537D01*
X149169987Y-94927748D01*
X148942252Y-94700013D01*
X148674463Y-94521082D01*
X148376912Y-94397832D01*
X148061033Y-94335000D01*
X147738967Y-94335000D01*
X147423088Y-94397832D01*
X147125537Y-94521082D01*
X146857748Y-94700013D01*
X146630013Y-94927748D01*
X146451082Y-95195537D01*
X146327832Y-95493088D01*
X146265000Y-95808967D01*
X146265000Y-96131033D01*
X146301883Y-96316456D01*
X146190226Y-96391063D01*
X146046063Y-96535226D01*
X145932795Y-96704744D01*
X145854774Y-96893102D01*
X145815000Y-97093061D01*
X145815000Y-97269909D01*
X145782446Y-97279784D01*
X145615672Y-97368927D01*
X145469493Y-97488893D01*
X145439425Y-97525531D01*
X145279530Y-97685426D01*
X145242892Y-97715494D01*
X145122926Y-97861673D01*
X145033783Y-98028448D01*
X144978889Y-98209409D01*
X144964999Y-98350440D01*
X144964999Y-98350449D01*
X144960355Y-98397601D01*
X144964999Y-98444753D01*
X144964999Y-98960040D01*
X144965000Y-102301846D01*
X144827095Y-102209701D01*
X144547743Y-102093989D01*
X144251184Y-102035000D01*
X143948816Y-102035000D01*
X143652257Y-102093989D01*
X143372905Y-102209701D01*
X143121495Y-102377688D01*
X142907688Y-102591495D01*
X142739701Y-102842905D01*
X142623989Y-103122257D01*
X142565000Y-103418816D01*
X142565000Y-103721184D01*
X142623989Y-104017743D01*
X142739701Y-104297095D01*
X142907688Y-104548505D01*
X143121495Y-104762312D01*
X143372905Y-104930299D01*
X143652257Y-105046011D01*
X143948816Y-105105000D01*
X144251184Y-105105000D01*
X144547743Y-105046011D01*
X144827095Y-104930299D01*
X145078505Y-104762312D01*
X145220341Y-104620476D01*
X145242893Y-104647956D01*
X145279526Y-104678020D01*
X151921355Y-111319850D01*
X151951419Y-111356483D01*
X151988052Y-111386547D01*
X152097597Y-111476449D01*
X152248688Y-111557209D01*
X152257714Y-111648858D01*
X152261094Y-111660000D01*
X143545947Y-111660000D01*
X143160092Y-111622167D01*
X142823511Y-111520547D01*
X142513078Y-111355487D01*
X142240619Y-111133275D01*
X142016511Y-110862373D01*
X141849287Y-110553100D01*
X141745320Y-110217236D01*
X141705000Y-109833619D01*
X141705000Y-93898322D01*
X141723745Y-93904008D01*
X141896999Y-93921072D01*
X142202428Y-93921072D01*
X143015269Y-94733914D01*
X142907688Y-94841495D01*
X142739701Y-95092905D01*
X142623989Y-95372257D01*
X142565000Y-95668816D01*
X142565000Y-95971184D01*
X142623989Y-96267743D01*
X142739701Y-96547095D01*
X142907688Y-96798505D01*
X143121495Y-97012312D01*
X143372905Y-97180299D01*
X143652257Y-97296011D01*
X143948816Y-97355000D01*
X144251184Y-97355000D01*
X144547743Y-97296011D01*
X144827095Y-97180299D01*
X145078505Y-97012312D01*
X145292312Y-96798505D01*
X145460299Y-96547095D01*
X145576011Y-96267743D01*
X145635000Y-95971184D01*
X145635000Y-95668816D01*
X145576011Y-95372257D01*
X145460299Y-95092905D01*
X145292312Y-94841495D01*
X145078505Y-94627688D01*
X145060000Y-94615323D01*
X145060000Y-94508151D01*
X145064644Y-94460999D01*
X145060000Y-94413847D01*
X145060000Y-94413838D01*
X145046110Y-94272807D01*
X144991216Y-94091846D01*
X144944675Y-94004774D01*
X144902073Y-93925071D01*
X144894918Y-93916353D01*
X144971482Y-93908812D01*
X145091180Y-93872502D01*
X145201494Y-93813537D01*
X145298185Y-93734185D01*
X145377537Y-93637494D01*
X145436502Y-93527180D01*
X145472812Y-93407482D01*
X145485072Y-93283000D01*
X145482000Y-92868750D01*
X145323250Y-92710000D01*
X144399000Y-92710000D01*
X144399000Y-92730000D01*
X144145000Y-92730000D01*
X144145000Y-92710000D01*
X144125000Y-92710000D01*
X144125000Y-92456000D01*
X144145000Y-92456000D01*
X144145000Y-91406750D01*
X144399000Y-91406750D01*
X144399000Y-92456000D01*
X145323250Y-92456000D01*
X145482000Y-92297250D01*
X145485072Y-91883000D01*
X145472812Y-91758518D01*
X145436502Y-91638820D01*
X145377537Y-91528506D01*
X145298185Y-91431815D01*
X145201494Y-91352463D01*
X145091180Y-91293498D01*
X144971482Y-91257188D01*
X144847000Y-91244928D01*
X144557750Y-91248000D01*
X144399000Y-91406750D01*
X144145000Y-91406750D01*
X143986250Y-91248000D01*
X143697000Y-91244928D01*
X143572518Y-91257188D01*
X143452820Y-91293498D01*
X143342506Y-91352463D01*
X143245815Y-91431815D01*
X143180342Y-91511594D01*
X143174962Y-91505038D01*
X143040387Y-91394595D01*
X142886851Y-91312528D01*
X142720255Y-91261992D01*
X142547001Y-91244928D01*
X141896999Y-91244928D01*
X141723745Y-91261992D01*
X141705000Y-91267678D01*
X141705000Y-90864055D01*
X141754206Y-90904437D01*
X141864520Y-90963402D01*
X141984218Y-90999712D01*
X142108700Y-91011972D01*
X142347950Y-91008900D01*
X142506700Y-90850150D01*
X142506700Y-89750900D01*
X142486700Y-89750900D01*
X142486700Y-89496900D01*
X142506700Y-89496900D01*
X142506700Y-88397650D01*
X142347950Y-88238900D01*
X142108700Y-88235828D01*
X141984218Y-88248088D01*
X141864520Y-88284398D01*
X141754206Y-88343363D01*
X141705000Y-88383745D01*
X141705000Y-85210996D01*
X144795449Y-88301445D01*
M02*
